<?xml version="1.0" encoding="utf-8"?>
<!-- Generator: Adobe Illustrator 16.0.4, SVG Export Plug-In . SVG Version: 6.00 Build 0)  -->
<!DOCTYPE svg PUBLIC "-//W3C//DTD SVG 1.1//EN" "http://www.w3.org/Graphics/SVG/1.1/DTD/svg11.dtd">
<svg version="1.1" id="Capa_1" xmlns="http://www.w3.org/2000/svg" xmlns:xlink="http://www.w3.org/1999/xlink" x="0px" y="0px"
	 width="31.117px" height="31.43px" viewBox="0 0 31.117 31.43" enable-background="new 0 0 31.117 31.43" xml:space="preserve">
<path d="M31.082,14.809l-0.127-1.879l-1.357,0.011c0.151-0.33,0.237-0.695,0.238-1.082V3.137c0.023-0.826-0.284-1.637-0.852-2.232
	C28.43,0.321,27.689,0,26.9,0c-0.57,0-1.422,0.171-2.235,0.983l-1.384,1.37C20.934,1.006,18.287,0.3,15.537,0.3
	c-4.149,0-8.051,1.615-10.984,4.548c-6.07,6.071-6.07,15.95,0,22.021c2.941,2.939,6.852,4.561,11.01,4.561
	c4.16,0,8.069-1.62,11.01-4.561C29.744,23.7,31.387,19.305,31.082,14.809z M25.157,25.456c-2.649,2.648-6.122,3.975-9.596,3.975
	c-3.473,0-6.946-1.325-9.596-3.975c-5.3-5.302-5.3-13.894,0-19.193C8.611,3.618,12.073,2.3,15.537,2.3
	c2.812,0,5.63,0.87,8.009,2.608c1.038-1.029,2.533-2.511,2.533-2.511C26.361,2.115,26.646,2,26.9,2c0.549,0,0.963,0.536,0.935,1.1
	v8.754c-0.001,0.338-0.274,0.611-0.612,0.611h-8.828c-0.674-0.004-1.689-0.707-0.689-1.771c0,0,1.391-1.381,2.57-2.549
	c-1.447-0.885-3.088-1.328-4.729-1.328c-2.31,0-4.618,0.879-6.381,2.644c-3.534,3.535-3.534,9.262,0,12.795
	c1.767,1.767,4.082,2.65,6.397,2.65s4.631-0.885,6.398-2.65c1.991-1.99,2.849-4.678,2.595-7.277c1.51-0.014,3.021-0.021,4.53-0.033
	C29.341,18.716,28.041,22.573,25.157,25.456z M15.507,12.626c0.541,1.262,1.835,1.833,2.877,1.839h4.112l0.068,0.708
	c0.207,2.114-0.528,4.181-2.018,5.669c-1.332,1.331-3.104,2.064-4.985,2.064c-1.883,0-3.652-0.733-4.983-2.064
	s-2.064-3.101-2.064-4.982c0-1.881,0.733-3.651,2.064-4.983c1.326-1.326,3.09-2.058,4.967-2.058c0.377,0,0.752,0.03,1.12,0.09
	c-0.23,0.229-0.372,0.368-0.372,0.368L16.271,9.3l-0.022,0.024C15.32,10.31,15.043,11.545,15.507,12.626z"/>
</svg>
