<?xml version="1.0" encoding="utf-8"?>
<!-- Generator: Adobe Illustrator 16.0.4, SVG Export Plug-In . SVG Version: 6.00 Build 0)  -->
<!DOCTYPE svg PUBLIC "-//W3C//DTD SVG 1.1//EN" "http://www.w3.org/Graphics/SVG/1.1/DTD/svg11.dtd">
<svg version="1.1" id="Capa_1" xmlns="http://www.w3.org/2000/svg" xmlns:xlink="http://www.w3.org/1999/xlink" x="0px" y="0px"
	 width="17.727px" height="26.062px" viewBox="0 0 17.727 26.062" enable-background="new 0 0 17.727 26.062" xml:space="preserve">
<path d="M16.539,10.028L7.704,1.193C6.935,0.424,5.91,0,4.817,0C3.725,0,2.7,0.424,1.931,1.193L1.193,1.931
	C0.424,2.698,0,3.724,0,4.816s0.424,2.117,1.193,2.887l5.328,5.328l-5.328,5.328C0.424,19.129,0,20.153,0,21.246
	s0.424,2.118,1.194,2.887l0.736,0.736c0.77,0.771,1.794,1.193,2.887,1.193s2.117-0.424,2.887-1.193l8.835-8.836
	c0.787-0.785,1.216-1.875,1.186-3.002C17.755,11.905,17.328,10.816,16.539,10.028z M15.125,14.619L6.29,23.455
	c-0.403,0.404-0.938,0.607-1.473,0.607s-1.068-0.203-1.474-0.607l-0.736-0.737c-0.811-0.809-0.811-2.135,0-2.943l6.742-6.742
	L2.607,6.289c-0.811-0.81-0.811-2.136,0-2.943l0.736-0.737C3.749,2.203,4.283,2,4.817,2C5.352,2,5.886,2.203,6.29,2.607l8.835,8.835
	c0.436,0.435,0.628,1.018,0.598,1.589C15.753,13.602,15.56,14.185,15.125,14.619z"/>
</svg>
