<?xml version="1.0" encoding="utf-8"?>
<!-- Generator: Adobe Illustrator 18.0.0, SVG Export Plug-In . SVG Version: 6.00 Build 0)  -->
<!DOCTYPE svg PUBLIC "-//W3C//DTD SVG 1.1//EN" "http://www.w3.org/Graphics/SVG/1.1/DTD/svg11.dtd">
<svg version="1.1" id="Layer_1" xmlns="http://www.w3.org/2000/svg" xmlns:xlink="http://www.w3.org/1999/xlink" x="0px" y="0px"
	 viewBox="0 0 89.7 86.2" style="enable-background:new 0 0 89.7 86.2;" xml:space="preserve">
<style type="text/css">
	.st0{fill:#008DCA;}
	.st1{fill:none;stroke:#231F20;stroke-width:0.9946;stroke-linecap:round;stroke-linejoin:round;stroke-miterlimit:10;}
	.st2{fill:none;stroke:#FFFFFF;stroke-width:2.0177;stroke-linecap:round;stroke-linejoin:round;stroke-miterlimit:10;}
</style>
<g>
	<g>
		<g>
			<path class="st0" d="M80.2,42c0,19-14.2,34.5-37.7,34.2C26.3,75.9,6.4,60.5,6.4,41.6c0-19,13.8-34,36.3-34
				C62.3,7.6,80.2,23,80.2,42z"/>
			
				<ellipse transform="matrix(0.9456 0.3253 -0.3253 0.9456 15.7805 -11.2328)" class="st1" cx="41.5" cy="41.6" rx="35.2" ry="33.8"/>
			<path class="st1" d="M46.9,8.1c6.2,0,15.6,4.6,18.4,6.5C77.6,23.4,83.3,39,78.4,53.4c-3.8,11.1-13,18.8-23.9,21.5
				c-6.5,1.6-14,1.9-20.9-0.5"/>
			<g>
				<line class="st2" x1="54.2" y1="48.6" x2="46.7" y2="31.3"/>
				<line class="st2" x1="46.7" y1="31.3" x2="37.8" y2="42.2"/>
				<path class="st2" d="M50,28.4c-1.2,0.5-1.8,0.7-2.7,2.5"/>
				<path class="st2" d="M45.3,27.7c1.8-0.2,5.7,0.9,7.5,0.9"/>
				<polyline class="st2" points="47.3,30.9 47.2,30.9 47.1,31 46.9,31.1 46.7,31.3 				"/>
				<path class="st2" d="M47,38.7c-0.7,0.3-1.4,0.7-2.1,1.2c-3.2,2-5.5,5.8-4.9,9.8c0.2,1.1,0.5,2.2,1,3.2c2,3.7,5.3,6.3,9.2,7.6
					c2.5,0.8,5.3,1.2,7.8,0.6c7.2-1.7,10.3-10.9,6.4-16.9c-2.7-4.2-7.5-6.3-12.4-6.4C50.2,37.6,48.6,38,47,38.7z"/>
				<path class="st2" d="M36.6,41.7l17.6,6.9c0.6,0.2,0.9,0.7,0.9,1.3c-0.1,0.9-1,0.8-1.6,0.7c-3.1-0.7-17.8-3.1-19-3.3"/>
				<path class="st2" d="M38,45.4C38,45.4,38,45.4,38,45.4c-0.4,1.3-2.3,2.1-3.5,1.8c-1-0.2-1.9-0.8-2.3-1.8
					c-0.7-1.9,0.3-3.7,2.3-4.2C36.7,40.7,38.5,43.4,38,45.4z"/>
				<path class="st2" d="M27.2,26.9c0.5-0.7,1.3-1.4,1.7-2.2c0.4-0.8,0.4-1,1.4-0.8c1.1,0.2,2.3,0.5,3.4,0.8"/>
				<line class="st2" x1="32.6" y1="42.3" x2="26.1" y2="28.7"/>
				<line class="st2" x1="24" y1="32.3" x2="27.2" y2="26.9"/>
				<path class="st2" d="M24,32.3c4.2,3.4,4.7,8.9,2.1,13.3c-0.9,1.6-2.4,2.7-4.2,3.2c-3.6,1-8.2-0.4-9.8-4c-0.8-1.9-1-4.5-0.7-6.5
					c0.2-1.3,0.8-2.9,1.6-4C15.4,30.8,20.6,30.6,24,32.3"/>
				<path class="st2" d="M18.6,41.7c2.2-2.2,5.4-9.4,5.4-9.4"/>
				<line class="st2" x1="47.3" y1="30.9" x2="27.2" y2="26.9"/>
			</g>
		</g>
	</g>
</g>
</svg>
