<?xml version="1.0" encoding="utf-8"?>
<!-- Generator: Adobe Illustrator 16.0.4, SVG Export Plug-In . SVG Version: 6.00 Build 0)  -->
<!DOCTYPE svg PUBLIC "-//W3C//DTD SVG 1.1//EN" "http://www.w3.org/Graphics/SVG/1.1/DTD/svg11.dtd">
<svg version="1.1" id="Capa_1" xmlns="http://www.w3.org/2000/svg" xmlns:xlink="http://www.w3.org/1999/xlink" x="0px" y="0px"
	 width="27.857px" height="19.5px" viewBox="0 0 27.857 19.5" enable-background="new 0 0 27.857 19.5" xml:space="preserve">
<g>
	<path d="M2.203,1.152L12.237,9.1c0.455,0.36,1.082,0.52,1.691,0.49c0.608,0.03,1.235-0.129,1.69-0.49l10.034-7.948
		C26.456,0.519,26.274,0,25.254,0H13.929H2.604C1.583,0,1.401,0.519,2.203,1.152z"/>
	<path d="M26.377,3.249l-10.965,8.325c-0.41,0.308-0.947,0.458-1.482,0.451c-0.536,0.007-1.073-0.144-1.483-0.451L1.48,3.249
		C0.666,2.632,0,2.963,0,3.984v13.659C0,18.664,0.836,19.5,1.857,19.5h12.071H26c1.021,0,1.857-0.836,1.857-1.857V3.984
		C27.857,2.963,27.191,2.632,26.377,3.249z"/>
</g>
</svg>
