<?xml version="1.0" encoding="utf-8"?>
<!-- Generator: Adobe Illustrator 16.0.4, SVG Export Plug-In . SVG Version: 6.00 Build 0)  -->
<!DOCTYPE svg PUBLIC "-//W3C//DTD SVG 1.1//EN" "http://www.w3.org/Graphics/SVG/1.1/DTD/svg11.dtd">
<svg version="1.1" id="Capa_1" xmlns="http://www.w3.org/2000/svg" xmlns:xlink="http://www.w3.org/1999/xlink" x="0px" y="0px"
	 width="31.172px" height="31.174px" viewBox="0 0 31.172 31.174" enable-background="new 0 0 31.172 31.174" xml:space="preserve">
<g>
	<path d="M29.333,1.954l-0.107-0.108C28.032,0.653,26.452,0,24.771,0s-3.261,0.653-4.446,1.839L14.37,7.793
		c-1.266,1.265-1.908,3.005-1.823,4.752c-0.107-0.005-0.214-0.008-0.321-0.008c-1.677,0-3.251,0.65-4.432,1.832L1.84,20.323
		C0.653,21.509,0,23.089,0,24.771c0,1.683,0.653,3.263,1.84,4.448l0.108,0.109c1.193,1.192,2.773,1.846,4.454,1.846
		c1.681,0,3.261-0.653,4.447-1.839l5.954-5.955c1.265-1.266,1.906-3.006,1.822-4.752c0.105,0.005,0.213,0.008,0.319,0.008
		c1.679,0,3.252-0.65,4.435-1.832l5.953-5.954c1.188-1.186,1.84-2.766,1.84-4.447C31.172,4.722,30.52,3.141,29.333,1.954z
		 M27.918,9.436l-5.953,5.954c-0.834,0.833-1.926,1.246-3.021,1.246c-0.506,0-1.013-0.089-1.493-0.265l-1.082,1.08
		c0.559,1.521,0.238,3.295-0.98,4.515L9.436,27.92c-0.836,0.836-1.935,1.254-3.034,1.254c-1.099,0-2.197-0.418-3.034-1.254
		l-0.114-0.114c-1.673-1.674-1.673-4.396,0-6.068l5.953-5.953c0.833-0.833,1.925-1.246,3.018-1.246c0.507,0,1.014,0.089,1.496,0.266
		l1.081-1.082c-0.558-1.521-0.238-3.295,0.981-4.514l5.953-5.953C22.573,2.418,23.672,2,24.771,2s2.196,0.418,3.034,1.254
		l0.113,0.115C29.59,5.041,29.59,7.764,27.918,9.436z"/>
	<path d="M9.955,21.218c-0.565-0.564-0.687-1.408-0.374-2.099l-4.175,4.175c-0.653,0.65-0.653,1.717,0,2.37l0.103,0.103
		c0.327,0.326,0.756,0.489,1.186,0.489c0.43,0,0.858-0.163,1.185-0.489l4.175-4.176c-0.248,0.112-0.516,0.169-0.783,0.169
		C10.794,21.76,10.317,21.58,9.955,21.218z"/>
	<path d="M25.665,5.406c-0.328-0.326-0.756-0.49-1.187-0.49s-0.858,0.164-1.185,0.49l-4.135,4.135
		c0.248-0.112,0.516-0.168,0.782-0.168c0.478,0,0.954,0.18,1.315,0.542c0.565,0.565,0.688,1.407,0.375,2.098l4.135-4.134
		c0.652-0.652,0.652-1.716,0-2.369L25.665,5.406z"/>
</g>
</svg>
