<?xml version="1.0" encoding="utf-8"?>
<!-- Generator: Adobe Illustrator 18.0.0, SVG Export Plug-In . SVG Version: 6.00 Build 0)  -->
<!DOCTYPE svg PUBLIC "-//W3C//DTD SVG 1.1//EN" "http://www.w3.org/Graphics/SVG/1.1/DTD/svg11.dtd">
<svg version="1.1" id="Layer_1" xmlns="http://www.w3.org/2000/svg" xmlns:xlink="http://www.w3.org/1999/xlink" x="0px" y="0px"
	 viewBox="0 0 119 106.2" style="enable-background:new 0 0 119 106.2;" xml:space="preserve">
<style type="text/css">
	.st0{fill:#FFF7E9;}
	.st1{fill:#72CCDB;}
	.st2{fill:#E3C08E;}
	.st3{fill:#AAA25A;}
	.st4{fill:none;stroke:#000000;stroke-linecap:round;stroke-linejoin:round;}
</style>
<g>
	<g>
		<g>
			<polygon class="st0" points="102.7,50.6 96.3,78 95,87 77.6,78.7 61.7,81.3 51.2,70.8 34.8,72.6 24,65 10.2,67 8.2,66.7 
				17.7,55.8 24.5,43.6 34.1,32.1 46.1,28.9 57.8,32.2 69.9,27.7 82.4,30.5 97,25 108.4,34.1 104.8,42.5 			"/>
			<path class="st1" d="M11.3,62.7L10,64.4c0,0,4.9-0.4,7.8-0.7c2.9-0.2,5.8-2.4,7-3.1c1.3-0.7,3-0.7,4.3,0.2c4.2,3.1,1,8.2,1,8.2
				l2,1.4c0,0,1.9-3.9,1.9-5.8c0-1.9-1.6-5.5-3.5-6.4c-2-1-3.5-0.8-5-0.1c-1.4,0.7-4,2.7-6.6,3.4C16.3,62.2,11.3,62.7,11.3,62.7z"/>
			<polygon class="st2" points="39.2,40.2 34.4,41.3 35.8,39.9 39.9,39 			"/>
			<polygon class="st2" points="35.6,37.6 30.8,38.7 32.2,37.3 36.3,36.4 			"/>
			<polygon class="st2" points="37.3,43.8 32.5,45 32.7,43.7 38,42.5 			"/>
			<polygon class="st2" points="35.6,46.7 34.1,48.8 33.2,49.1 31.3,50.1 31.6,48.3 31.8,47 35.7,45.6 			"/>
			<polygon class="st2" points="29.2,48.4 27.2,52.5 26.3,52.8 26.6,49.4 23.5,50.5 23.7,49.2 29.4,47.3 			"/>
			<polygon class="st2" points="30.7,45.2 23.1,47.7 24,45.7 30.9,44.1 			"/>
			<polygon class="st2" points="36.9,34.5 32.2,35.6 33.5,34.2 37.6,33.3 			"/>
			<polygon class="st2" points="40.5,38.4 38.1,38.9 41.7,33.8 42.9,33.4 			"/>
			<polygon class="st2" points="60.8,53.8 59.7,53.7 62.9,46.5 64,46.8 			"/>
			<polygon class="st2" points="48,45.4 47,45.3 50.8,39.6 51.7,40.2 			"/>
			<polygon class="st2" points="54.8,59.3 53.7,59.1 55.7,53.2 56.9,53.4 			"/>
			<polygon class="st2" points="71.1,73.5 71,72.7 76.3,69.3 76.4,70.3 			"/>
			<polygon class="st2" points="78.4,63.6 78.3,62.8 83.3,57.8 83.3,58.8 			"/>
			<polygon class="st2" points="76,60.5 75.9,59.6 80.9,54.7 80.9,55.6 			"/>
			<polygon class="st2" points="66.2,61.3 65.5,62.1 61.4,57.3 62.2,56.5 			"/>
			<polygon class="st2" points="69.2,57.6 68.5,58.5 64.4,53.7 65.2,52.9 			"/>
			<polygon class="st2" points="84.7,65.2 83.7,65.1 85.3,59.6 86.4,59.8 			"/>
			<polygon class="st2" points="100.6,43.2 99.5,42.3 101.5,36.8 102.6,37.8 			"/>
			<polygon class="st2" points="82.2,72 81.2,71.9 82.8,66.4 83.9,66.6 			"/>
			<polygon class="st2" points="88.2,66.5 87.1,66.4 88.8,60.8 89.9,61 			"/>
			<polygon class="st2" points="94.8,69.9 93.8,69.8 94.8,66.2 95.9,66.4 			"/>
			<polygon class="st2" points="96.9,70.6 95.3,70 95.7,68.6 97.4,69.3 			"/>
			<polygon class="st2" points="87.8,78 86.2,77.4 86.6,76 88.3,76.7 			"/>
			<polygon class="st2" points="90.3,79 88.7,78.4 89.2,77 90.8,77.8 			"/>
			<polygon class="st2" points="96,73.6 93.2,73 93.7,71.6 96.5,72.3 			"/>
			<polygon class="st2" points="91.5,71 88.7,70.4 89.2,69 92,69.7 			"/>
			<polygon class="st2" points="92.2,68.7 89.4,68.1 89.8,66.7 92.7,67.4 			"/>
			<polygon class="st2" points="95.2,59.5 92.3,59.2 92.7,57.8 95.3,58.2 			"/>
			<polygon class="st2" points="95.4,57.3 92.7,57 93.8,53.4 96.3,53.7 			"/>
			<polygon class="st2" points="101.4,52.6 98.8,51.7 99.9,48.9 101.9,49.7 			"/>
			<polygon class="st2" points="50.5,32.4 46,31.3 46.8,30.2 49.9,30.9 			"/>
			<polygon class="st2" points="41.8,44.6 38.9,43.8 39.7,42.7 42.2,43.3 			"/>
			<polygon class="st2" points="43.6,51.3 41.7,50.8 43,47.6 45.5,48.3 			"/>
			<polygon class="st2" points="53.5,36.7 52.6,34.7 53.4,33.5 55.5,35.8 			"/>
			<polygon class="st2" points="50.9,37.8 49.9,35.9 51.1,35.1 52.2,37.2 			"/>
			<polygon class="st2" points="52.6,44.7 54.4,41.1 56,40.5 54.2,44.3 			"/>
			<polygon class="st2" points="57.3,38.7 61.4,35.9 62.4,36.2 58.2,39.2 			"/>
			<polygon class="st2" points="59,40 63.4,37.6 64.6,38.1 59.9,40.5 			"/>
			<polygon class="st3" points="39.3,59.5 39.9,59.5 43.1,53.2 40.7,53.2 			"/>
			<polygon class="st3" points="57.2,51.7 57.8,51.7 60.7,46.3 59.2,46.3 			"/>
			<polygon class="st3" points="44.1,59 46.3,59.1 52.2,51.6 47.8,53.5 			"/>
			<path class="st3" d="M56.2,61.4c1.6,2.3,6.5,0.7,6.5,0.7l-2.9-4.2l-1.5,0.5L56.2,61.4z"/>
			<path class="st3" d="M59,74c1.8,1.8,3.8,2,3.8,2l2.5-10.2l-1.8,1.8C63.4,67.6,58.9,73.8,59,74z"/>
			<polygon class="st3" points="29.2,67.4 25.5,64.7 26.5,63 30.2,66.6 			"/>
			<polygon class="st3" points="34.7,61.6 35.5,64.2 36.6,61.9 			"/>
			<polygon class="st3" points="38.2,62.1 39.8,62.1 36.2,68.7 			"/>
			<path class="st3" d="M16.5,58l-2,2c0,0,4.7-1.3,6.7-2.4c2-1.1,4.8-2.7,4.8-2.7h-1.8l-4.2,2.5C20.1,57.4,17.9,58.6,16.5,58z"/>
			<path class="st3" d="M10.4,65.1l-0.8,0.8l4.2-0.2l3.5-0.6c0,0-1.7-0.3-2-0.3C15.2,64.7,10.4,65.1,10.4,65.1z"/>
			<path class="st3" d="M58,41.5L56,44.7h1.5c0,0,0.5,0.2,0.8-0.8C58.5,42.9,58,41.5,58,41.5z"/>
			<path class="st3" d="M78.4,70c0.6-1.9,1.1-4.1,1.1-4.1l3-3l-3.7,9.6l-2.6,1.1L78.4,70z"/>
			<path class="st3" d="M92.9,41.3c0.3-0.9-0.1-1.3-0.1-1.3L92,41.6L92.9,41.3z"/>
			<path class="st3" d="M79.8,47.5l-0.5,3.3c0,0,2.1-2.5,4.5-3.4c2.4-0.9,5.1-0.9,5.1-0.9l0.9-2.8c0,0-1.9,0.1-4.8,1.3
				C82.2,46.1,79.8,47.5,79.8,47.5z"/>
			<polygon class="st3" points="73.5,33 75.4,35.8 76.5,34.7 74.7,32.1 			"/>
			<polygon class="st2" points="49.1,59.9 47.4,60.8 50.7,62.3 51.2,61 			"/>
			<polygon class="st2" points="45.6,61.7 45,63.2 48.1,65.1 49.4,63.7 			"/>
			<polygon class="st2" points="38.3,49.9 37.8,53.5 38.9,53.5 39.5,49.9 			"/>
			<polygon class="st2" points="38.4,45.4 37.6,46.9 40.4,46.6 40.9,46.1 			"/>
			<polygon class="st2" points="68.9,47.1 65.7,51.5 66.6,52.4 69.7,47.5 			"/>
			<polygon class="st2" points="65.1,41.2 63.6,44.2 64.3,44.9 65.9,41.6 			"/>
			<polygon class="st2" points="71.2,38.7 70,39.3 70.7,40.7 71.5,39.4 			"/>
			<polygon class="st2" points="73.8,36 72.5,37.3 72.8,38.1 73.9,37 			"/>
			<polyline class="st2" points="67.2,35.7 66.4,37.7 67.3,37.7 68.2,35.9 67.4,35.9 			"/>
			<polyline class="st2" points="61.2,31.4 60.9,31.7 64.2,31.7 65,30.4 61.3,31.2 			"/>
			<polygon class="st2" points="76.7,46.7 75.4,49.7 76.7,49.7 77.9,46.5 			"/>
			<polygon class="st2" points="74.7,46.1 73.8,49.1 72.3,48.3 73.7,45.1 			"/>
			<polygon class="st2" points="78.2,42.2 78.2,43.1 86.9,40.9 87.2,39.4 			"/>
			<polygon class="st2" points="80.3,37.9 79.5,39.9 85.9,38.3 85.9,37.6 81.9,38.7 82.1,36.9 			"/>
			<polygon class="st2" points="85.3,31 86.3,33.4 88,32.3 88.8,29.3 87.6,29.6 87.6,31.1 86.5,31.6 86.5,29.9 85.5,30.1 			"/>
			<polygon class="st2" points="91,28.3 90.3,30.4 92.8,29.1 93.1,27.5 			"/>
			<polygon class="st2" points="89.1,33.5 88.1,37.2 90.2,36.3 89.9,34.8 92,32.7 91.8,31.7 			"/>
			<polygon class="st2" points="69.8,30 69.4,31.3 70.6,31.6 71.5,30.3 			"/>
			<polygon class="st2" points="73.6,54.1 75.1,54.8 72.8,58.2 71.8,58.2 			"/>
			<path class="st2" d="M69.6,64.1l-1.4,3.5c0,0,0.9,0.6,1.3,1.7c0.3,1.1,0.7,2.1,0.7,2.1l6.5-5.5L76,65.3l-4.5,2.9l-0.7-2l2.3-3.4
				l-0.6-1.3L69.6,64.1z"/>
			<polygon class="st2" points="90.3,53.1 89.4,58.6 90.6,58.9 91.2,53.4 			"/>
			<polygon class="st2" points="87.4,54.6 86.2,58 87.2,58.3 88.5,53.1 			"/>
			<polygon class="st2" points="98.8,43.9 95.7,50.1 96.7,50.6 99.8,44.5 			"/>
			<polygon class="st2" points="99.1,58.3 97.5,59.8 99.8,59.8 100.3,58.4 			"/>
			<path class="st2" d="M93.1,75.3c0,0-0.3,2.6-0.3,4.7c0,2.1,0,4.6,0,4.6l1.5,0.8v-5.3l0.5-4.8H93.1z"/>
			<polyline class="st2" points="75,75.6 75,77.2 77.2,76.2 77.9,74.6 75.2,75.6 			"/>
			<polygon class="st2" points="70.6,77.3 70.6,78.3 73,77.9 73,76.4 			"/>
			<polygon class="st2" points="66.8,75.7 67.3,76.6 68.8,76 68.8,74.4 			"/>
			<path class="st2" d="M65.5,73.8l0.2,0.8l2.8-1.9c0,0,0-1-0.2-1.8c-0.3-0.8-1-1.5-1-1.5L65.5,73.8z"/>
			<polygon class="st2" points="70.7,74.5 70.7,75.2 73.6,74.2 73.6,73.4 			"/>
			<polygon class="st2" points="45.5,36.1 43.6,38 46,38.5 47.5,37 			"/>
			<polygon class="st2" points="44.3,42.5 43.2,45.6 44.8,45.5 45.4,43.4 			"/>
			<polygon class="st2" points="59.7,64.2 58.6,68.6 60.5,68.2 61.5,64.2 			"/>
			<polygon class="st2" points="55.2,63.6 54.7,65.3 57.2,65.3 57.9,64 			"/>
			<polygon class="st2" points="58.3,70.2 55.7,73.5 55.1,72.4 55.5,69.5 			"/>
			<path class="st2" d="M84.3,75.8L82.5,80l0.8,0.8l1.2-0.7c0,0-0.2-1.6,0-2.2c0.2-0.7,0.5-1.8,0.5-1.8L84.3,75.8z"/>
			<path class="st2" d="M68.4,78v1.3L65,79.9c0,0,0-0.4,0.5-0.9C66,78.5,68.4,78,68.4,78z"/>
			<path class="st2" d="M94.4,35.5l-0.6,2.2c0,0,0.7,0.5,0.7,1.4c0,0.8,0.4,1.2,0.4,1.2l1.9-5.2L94.4,35.5z"/>
			<path class="st2" d="M96,31.3l-0.9,2.4c0,0,1.5,0,1.9-0.4c0.4-0.4,0.7-2.2,0.7-2.2L96,31.3z"/>
			<polygon class="st2" points="97.5,26.2 96.6,29.5 98.2,29.5 99.3,27.6 			"/>
			<polygon class="st2" points="100.6,28.8 105.4,32.6 105,33.6 99.7,30.7 			"/>
			<path class="st3" d="M41.9,62.9c0,0,1.3-0.7,0.7,0.7c-0.7,1.4-3.8,6.6-3.8,6.6l-1.5,0.5L41.9,62.9z"/>
			<path class="st3" d="M51.7,66.7l-1.2,2.9l-6.2,1.1c0,0,0.2-1.4,2-2c1.8-0.7,4.5-2.4,4.5-2.4L51.7,66.7z"/>
			<polygon class="st3" points="29.1,54.3 30.9,54.3 32,52.4 			"/>
			<polygon class="st3" points="27.1,55.8 25.3,57.1 28.8,56.6 29.7,55.7 			"/>
			<g>
				<path class="st4" d="M92.8,38.5c1.6,1,0.9,2.8,0.8,3.6c0.5,0.5,1,1.2,1.9,1.9l0.1,0.1"/>
				<path class="st4" d="M41.6,30.2c0,0.4,0,0.9,0.1,1.3c-0.1,0.1-0.2,0.1-0.4,0.2"/>
				<path class="st4" d="M32,43.1c0.4-1,0.9-1.8,1.6-2.3c1.7-1.5,3-3,4.1-4.3c0.4-0.7,0.8-1.4,1.2-2"/>
				<path class="st4" d="M39,34.4c0.7-0.7,1.9-1.9,2.7-3"/>
				<path class="st4" d="M32,43.1c-0.2,0.9-0.3,1.9-0.4,3"/>
				<path class="st4" d="M32,43.1c-2-1.2-3.7-3.3-3.3-4.6"/>
				<path class="st4" d="M39.6,41.1c-2.3,0.5-5.4,1.3-7.6,2"/>
				<path class="st4" d="M43.6,42.1c-1.2-0.3-2.5-0.6-4-1"/>
				<path class="st4" d="M37.7,44.2c1.6,0.5,2.9,0.8,4.6,1.2"/>
				<path class="st4" d="M42.6,44.7c0.4-1.3,0.9-2.3,1.5-3.4"/>
				<path class="st4" d="M41.2,31.6c-2.2,0.6-6.2,1.5-8.4,2"/>
				<path class="st4" d="M31.6,46c1.8-0.6,6.1-1.8,6.1-1.8"/>
				<path class="st4" d="M39,34.4c-2.5,1-6.7,2-9.1,2.8"/>
				<path class="st4" d="M64.8,32.5c1-1.2,3-2.6,4.3-3.4c0,0,0.6,0.2,1.6,0.2c0.5,0,1.2-0.5,1.2-1.4"/>
				<path class="st4" d="M57,34.7c0.4,0.1,0.6,0.1,1,0.2"/>
				<path class="st4" d="M56.9,34.6c-0.7-0.7-1.8-1.4-2.5-2.1"/>
				<path class="st4" d="M55.1,36.4"/>
				<path class="st4" d="M51.3,33.5c-0.1-0.9-0.2-3-0.2-3"/>
				<path class="st4" d="M44.4,35.8c-0.9,1-1.8,2-2.6,3.2"/>
				<path class="st4" d="M44.8,34.9c0.2-0.3,1.6-2.5,1.8-2.7"/>
				<path class="st4" d="M48,35.9c-1.3-0.4-2.3-0.7-3.2-1"/>
				<path class="st4" d="M51.3,33.5c-0.1,0-0.2,0.2-0.1,0.3"/>
				<path class="st4" d="M51.2,34C51.2,33.9,51.2,33.9,51.2,34"/>
				<line class="st4" x1="51.3" y1="33.9" x2="51.2" y2="33.9"/>
				<path class="st4" d="M51.7,33.7c-0.2,0.1-0.3,0.1-0.4,0.2"/>
				<path class="st4" d="M51.7,33.7c-0.2-0.2-0.3-0.2-0.4-0.2"/>
				<path class="st4" d="M51.2,33.9c-0.1,0-0.1,0,0,0.2"/>
				<path class="st4" d="M49,36c-0.2-0.3-0.2-0.5-0.2-0.6"/>
				<path class="st4" d="M48.7,35.4c0.8-0.5,1.6-0.9,2.5-1.4"/>
				<path class="st4" d="M44.9,31.8c1.6,0.4,3.7,0.8,4.7,1.2c0.5,0.2,1.1,0.3,1.7,0.5"/>
				<path class="st4" d="M49,36c-0.3-0.2-0.6-0.2-0.9-0.2"/>
				<path class="st4" d="M48,35.9c0.2-0.2,0.4-0.3,0.7-0.5"/>
				<path class="st4" d="M45.9,46.1c0.5,0,1.2,0.2,2,0.4c-0.1,0,0-0.1,0,0h0.1c0-0.1,0.1-0.1,0.2,0"/>
				<path class="st4" d="M45.9,46.1c0-0.3,0.7-1.3,0.9-1.6"/>
				<line class="st4" x1="48" y1="46.5" x2="48" y2="46.4"/>
				<path class="st4" d="M52.8,40.1c0,0-4.6,6-4.8,6.4"/>
				<path class="st4" d="M45.9,41.9c1.6-1,3.2-2.1,4.9-3.1"/>
				<path class="st4" d="M44.7,52.3c0.7-2.1,2.9-5.1,3.2-5.5"/>
				<path class="st4" d="M59.6,42.2c-0.5-1.4-1.9-2.7-4.2-2.8"/>
				<path class="st4" d="M54.2,45.4c0.1-0.2,0.2-0.4,0.3-0.4"/>
				<path class="st4" d="M55.6,46.7c-0.5-0.5-1-0.9-1.4-1.2"/>
				<path class="st4" d="M54.5,45c-0.6,0.1-1.4,0.2-2.4,0.5"/>
				<path class="st4" d="M59,45.2c0.2-0.5,0.5-2.3,0.6-2.9"/>
				<path class="st4" d="M54.2,45.4c0.9,0.2,2,0.2,3.5,0.2c0.4-0.2,0.9-0.2,1.2-0.4"/>
				<path class="st4" d="M54.5,45c1-1.6,2.5-3.7,3.4-4.9"/>
				<path class="st4" d="M57.4,37.8c-0.8,0.5-3.6,2.5-3.6,2.5l-1-0.4"/>
				<path class="st4" d="M50.7,38.8c0.3,0.2,1,0.5,2.1,1.2"/>
				<path class="st4" d="M52.1,45.5c-0.3,0.3-1.4,1.9-1.9,2.5c0.1,0.9,0.8,1.3,2.1,0.6c0.5-0.3,0.9-0.5,1.2-0.9"/>
				<path class="st4" d="M52.1,45.5c-1,0.2-2.4,0.5-4.1,0.9"/>
				<path class="st4" d="M54.4,32.5c-1,0.3-1.9,0.8-2.7,1.2"/>
				<path class="st4" d="M53.1,37.5c-0.9,0.5-1.7,0.9-2.4,1.3"/>
				<path class="st4" d="M50.7,38.8c-0.5-1-1.1-1.9-1.8-2.7"/>
				<path class="st4" d="M51.3,33.9c0.5,1.1,1.1,2.3,1.8,3.5"/>
				<path class="st4" d="M53.1,37.5c0.5-0.3,2.3-0.9,3.1-1.3"/>
				<path class="st4" d="M71.2,32.5c-0.3-0.2-3.3-0.6-3.3-0.6l-3.1,0.6"/>
				<path class="st4" d="M70.8,35.7c-0.2,0.2-0.2,0.5-0.3,0.7"/>
				<path class="st4" d="M71.4,37.1c-0.2-0.3-0.5-0.5-0.9-0.7"/>
				<line class="st4" x1="70.8" y1="35.7" x2="67.1" y2="33.9"/>
				<path class="st4" d="M57.9,40.2c0.4-0.4,8.7-5.2,8.7-5.2s4.6-1.4,5.6-1.7"/>
				<path class="st4" d="M72.2,33.3c0-0.2,0.1-0.3,0.2-0.5"/>
				<path class="st4" d="M73.9,34.7c0.5,0.6,0.9,1.4,1.4,2.3"/>
				<path class="st4" d="M71.4,37.1c0.5-0.7,1.1-1.3,1.6-1.7c0.3-0.3,0.6-0.5,0.9-0.7"/>
				<path class="st4" d="M73.9,34.7c-0.4-0.5-1-1-1.7-1.4"/>
				<path class="st4" d="M72.4,32.8c0-0.1,0.1-0.2,0.2-0.4"/>
				<path class="st4" d="M74.9,30.6c-0.6,0.5-1.4,1.2-2.5,2.2"/>
				<path class="st4" d="M74.1,29.6c-1.6,1.6-2.6,2.5-2.8,2.9"/>
				<path class="st4" d="M71.2,32.5c0.2,0,0.5,0,1.4-0.2"/>
				<path class="st4" d="M64.8,32.5c0,0-0.1,0-0.2,0"/>
				<path class="st4" d="M60.9,32.5c0.9,0,2.2,0,3.7,0"/>
				<path class="st4" d="M64.7,32.5c-1.6,1.2-3,2-4.1,2.8"/>
				<path class="st4" d="M65.9,45.1C65.8,45.1,65.8,45.1,65.9,45.1c0.1-0.5,0.3-0.9,0.6-1.5"/>
				<polyline class="st4" points="62.6,44.5 64.4,46.2 65.9,45.1 				"/>
				<path class="st4" d="M60.6,44.8c0.4-1.8,1.8-3.3,3.8-4.4c0.6-0.6,4,1.1,6.3,2"/>
				<path class="st4" d="M72.9,39.4c-0.7-0.5-1.2-1.5-1.5-2.3"/>
				<path class="st4" d="M72.9,39.4C72.9,39.4,72.9,39.3,72.9,39.4"/>
				<path class="st4" d="M73,39.3c0.5,0.2,1.1,0.4,2,0.7c0.4-0.5,0.8-1,1.3-1.5c-0.3-0.5-0.6-1-0.9-1.5"/>
				<path class="st4" d="M74.1,42.2c-0.9,0.6-1.7,1.2-2.5,1.7c-0.3,0.2-0.5,0.2-0.7,0.4"/>
				<path class="st4" d="M70.5,44.6C70.5,44.6,70.5,44.6,70.5,44.6"/>
				<path class="st4" d="M70.5,44.6c0,0.4,0,0.8-0.1,1.2"/>
				<path class="st4" d="M70.5,44.6c0.2-0.2,0.3-0.2,0.5-0.2"/>
				<path class="st4" d="M70.9,44.3c-0.2,0.1-0.3,0.2-0.5,0.3"/>
				<path class="st4" d="M70.5,44.6c0.1-0.8,0.2-1.5,0.2-2.1"/>
				<path class="st4" d="M74.1,42.2c0.3,1.2,0.8,2.5,1.6,3.6"/>
				<path class="st4" d="M70.7,42.4c0.6-1.1,1.3-2.1,2.2-3"/>
				<path class="st4" d="M70.7,42.4c-0.4-0.9-1-2-1.8-3.1"/>
				<polyline class="st4" points="69,39.3 65.4,38.2 59.3,41.5 				"/>
				<path class="st4" d="M75.3,37.1c-0.8,0.6-1.6,1.3-2.3,2.3"/>
				<path class="st4" d="M68.9,39.3c1.3-0.9,2.3-2,2.5-2.2"/>
				<path class="st4" d="M68,38.5c0.5-0.6,1.4-1.4,2.3-2"/>
				<line class="st4" x1="60.5" y1="35.3" x2="67.1" y2="33.9"/>
				<path class="st4" d="M58.1,32.1c0.5,0.8,1.4,0.4,2.8,0.4"/>
				<path class="st4" d="M60.9,32.5c-1.2,0.8-4,2.8-4.7,3.7"/>
				<path class="st4" d="M60.5,35.3c-1.1-0.2-2-0.4-2.6-0.5"/>
				<path class="st4" d="M59,45.2c1-0.2,2.5-0.5,3.6-0.7"/>
				<path class="st4" d="M57.4,37.8c0.9-0.9,1.9-1.7,3.1-2.5"/>
				<path class="st4" d="M78.4,36.6l1,0.9l3.9-3.2c0,0,1-3.1,1.6-4.6"/>
				<path class="st4" d="M83,37.3c0.5-0.5,2.4-2.1,2.9-2.6l0,0c0,0,7.5-5.1,7.5-5.1"/>
				<path class="st4" d="M84.4,31c0.7,2.2,1.2,3.4,1.3,3.6"/>
				<path class="st4" d="M78.7,30c-0.8,0.9-1.7,1.9-2.7,2.7"/>
				<path class="st4" d="M75.9,32.7c0.5,0.5,0.9,1.1,1.5,2c0,0.2,0,0.2,0,0.2"/>
				<path class="st4" d="M81.8,30.5c-0.3,0.2-6.3,6.3-6.5,6.5"/>
				<path class="st4" d="M78.1,37.2c0.2-0.3,0.2-0.5,0.3-0.7c-0.4-0.5-0.7-1-1-1.6"/>
				<path class="st4" d="M77.7,41.5c0,0-2-0.4-2.1-0.5"/>
				<path class="st4" d="M75.7,45.8l3.4-0.5c0,0,3.1-2.3,3.2-2.3"/>
				<path class="st4" d="M86.8,43.2c-1.6,0.5-7.9,3.6-7.9,3.6"/>
				<path class="st4" d="M87.6,41.4c0.5-1.2,1-2.5,1.6-3.8"/>
				<path class="st4" d="M90.3,27.8c-1.2,3.4-2.3,7-3.4,10.6c0,0.1-0.1,0.2-0.1,0.4"/>
				<path class="st4" d="M86.8,38.8c0.8-0.5,1.6-0.8,2.5-1.2"/>
				<path class="st4" d="M86.8,43.2c0.2-0.6,0.5-1.2,0.9-1.9"/>
				<path class="st4" d="M91.1,42.3c-0.9,0.2-3.7,0.7-4.3,1"/>
				<path class="st4" d="M93.4,42.1c-0.9,0.5-1.4,0.4-2.3,0.1"/>
				<path class="st4" d="M86.8,38.8c-2.9,0.7-6.5,1.9-9.1,2.8"/>
				<path class="st4" d="M100.2,36.8c0.3-1.1,0.9-2.6,1.3-3.4"/>
				<path class="st4" d="M91.9,36c0.9-0.5,1.1-1,2-1.4"/>
				<line class="st4" x1="97.9" y1="33.7" x2="97.8" y2="33.7"/>
				<path class="st4" d="M97.8,33.7c-0.3,0.3-0.6,0.5-0.8,0.5c-0.9,0.4-2.1,0.6-3,0.5"/>
				<path class="st4" d="M98.9,30.4c-0.8,0-3-0.1-3.5,0.2c-1.2,1.4-3.4,3.2-4.5,4.6c0.2,0.2,0.5,0.5,0.9,0.9"/>
				<path class="st4" d="M94.6,43.2c0.2-0.6,1.8-4.4,2.3-5.6"/>
				<path class="st4" d="M95.5,44.1l0.2-0.4c0.6-1.4,1.2-2.7,1.6-4.1c-0.1-0.5-0.5-2-0.5-2"/>
				<path class="st4" d="M24.1,45c1.3-0.5,3.1-0.8,4.5-1.1c1.1-0.2,2.3-0.5,3.4-0.9"/>
				<path class="st4" d="M93.8,46.1c-0.4-0.3-0.9-0.6-1.5-0.9c-0.5,1-1.1,2.1-1.6,3.1"/>
				<path class="st4" d="M92.3,54.9c0.6-1.5,1.2-2.9,2-4.2c0.4-0.8,0.8-1.6,1.2-2.3l0.6-1.6c0.7-1.4,1.5-2.7,2.1-4.2
					c0.4-0.9,0.8-1.8,1.2-2.7c0.2-0.4,0.4-0.7,0.6-1.1c0.1-0.2,0.2-0.4,0.3-0.6"/>
				<path class="st4" d="M92.8,48.9c0.9-1.7,1.9-3.3,2.7-4.6l0.1-0.2"/>
				<path class="st4" d="M97.9,33.7c1.3-0.8,2.5-0.9,3.7-0.3"/>
				<path class="st4" d="M96.9,37.6c0.2-1.2,0.6-2.6,1-3.9"/>
				<path class="st4" d="M89.3,37.5c0.9-0.5,1.7-1,2.6-1.5"/>
				<path class="st4" d="M97.8,33.7c0.6-2.5,1.2-3.5,2.4-6.3"/>
				<path class="st4" d="M87.6,41.4c1.8-1.1,3.5-2,5.2-2.8"/>
				<path class="st4" d="M74.9,30.6c0.6-0.9,0.5-1.1,1.5-1.5"/>
				<path class="st4" d="M78.1,37.2c-0.7,2.3-1.9,3.4-4,5"/>
				<path class="st4" d="M75.9,32.7c-0.4-0.6-0.8-1.3-1-2.1"/>
				<path class="st4" d="M45.2,39.2c-0.5,0.7-0.9,1.4-1.2,2.1"/>
				<path class="st4" d="M41.9,39.1c1,0.1,2.2,0,3.4,0"/>
				<path class="st4" d="M44.7,31.8c-2.3,0.6-3.5,1.5-5.7,2.6"/>
				<path class="st4" d="M92.3,54.9c-0.1-0.6-0.2-1.2-0.4-1.7"/>
				<line class="st4" x1="99" y1="47.8" x2="96.9" y2="51.8"/>
				<line class="st4" x1="94.2" y1="50.7" x2="96.9" y2="51.8"/>
				<path class="st4" d="M91.9,53.2c0.6-0.8,1-2.4,1.3-2.8"/>
				<path class="st4" d="M95.8,60.3c0-0.2,0.1-0.3,0.2-0.4"/>
				<line class="st4" x1="100.3" y1="60.8" x2="95.8" y2="60.3"/>
				<line class="st4" x1="96.9" y1="51.8" x2="102.2" y2="53.9"/>
				<line class="st4" x1="99.2" y1="56.4" x2="96" y2="59.9"/>
				<line class="st4" x1="82.3" y1="55.6" x2="76.4" y2="61.8"/>
				<path class="st4" d="M90.8,49c-0.2,0.1-0.2,0.2-0.3,0.4c-0.3,0.3-0.6,0.6-0.9,0.9"/>
				<path class="st4" d="M89.7,50.3c-0.6,0.5-1.3,0.8-2,0.9"/>
				<path class="st4" d="M98.2,61c-0.6,1.2-1.2,2.7-1.7,4.3"/>
				<path class="st4" d="M90.7,48.3c-0.2-0.3-0.5-0.6-1.2-1.3"/>
				<path class="st4" d="M90.7,48.3c0,0.2,0.1,0.4,0.2,0.7"/>
				<path class="st4" d="M76.7,54.6c1.9-3,8-6.7,8.5-6.8"/>
				<path class="st4" d="M75,60.7c-0.5,1.3-0.9,2.8-1.4,4.4c0.6-0.2,1.3-0.2,1.8-0.3"/>
				<path class="st4" d="M87.6,51.2c-0.3-0.2-1.6-0.4-2.1-0.3c-0.8,0.1-1.8,1.1-2,2.2"/>
				<path class="st4" d="M90.3,71.7c-0.5,1-1.2,2.7-1.6,4.2"/>
				<path class="st4" d="M76.7,54.6c-0.2-0.2-3.1-1.3-3.7-1.5"/>
				<path class="st4" d="M80.1,64c-0.7,0.5-1.3,1.1-1.6,1.6c-2.9,2.9-5.8,5.2-8.8,7.1c0,0.2,0,0.4,0.1,0.5"/>
				<polyline class="st4" points="95.8,60.3 90.2,59.8 88.1,59.5 84.8,58.9 				"/>
				<path class="st4" d="M83.8,81.8l2.2-1.2c-0.8-1.2-0.7-3.2,0.2-6.1c1.6-4.8,3.1-9.6,5.1-14.2c0.4-1,0.7-4.7,0.9-5.4"/>
				<path class="st4" d="M85.1,71c0.9-3.8,2.3-7.7,3-11.6c0.5-3,1.1-6.1,1.6-9.2"/>
				<line class="st4" x1="84.8" y1="58.9" x2="80.1" y2="64"/>
				<line class="st4" x1="85" y1="74.5" x2="81.3" y2="73.6"/>
				<path class="st4" d="M81,80.2c0,0,0-0.4,0.5-1.2c0.6-1.4,1.2-2.5,1.8-3.3c0.3-0.5,0.6-1.2,0.9-1.9c0-0.1,0.1-0.2,0.1-0.2
					c0.3-0.9,0.5-1.7,0.8-2.6"/>
				<line class="st4" x1="85" y1="74.5" x2="92" y2="77.3"/>
				<path class="st4" d="M79.9,79.8c0.3-2.9,0.9-4.5,1.5-6.2l-1.8-0.4"/>
				<path class="st4" d="M92.4,62.8c-0.3-1.8-0.2-1.1-0.2-2.7"/>
				<path class="st4" d="M88.5,79.1c-0.4,0.9-0.7,1.9-0.9,2.7"/>
				<line class="st4" x1="97.4" y1="71.8" x2="92.9" y2="70.6"/>
				<path class="st4" d="M92,77.3c0.2-2.3,0.4-4.5,0.9-6.7"/>
				<path class="st4" d="M92,81.1c-0.1-1.2-0.1-2.5,0-3.8"/>
				<path class="st4" d="M92.9,70.6c0.6-3.4,1.6-6.8,3-10.2"/>
				<line class="st4" x1="84.9" y1="82.5" x2="92" y2="81.1"/>
				<path class="st4" d="M91.9,53.2c-0.4-1.6-0.8-3-1-4.1"/>
				<path class="st4" d="M72.7,53c-0.6-1.1-1.5-5.8-2.3-7.2"/>
				<path class="st4" d="M63.4,53.5c1.4-2.4,2.8-4.6,4.2-6.6"/>
				<path class="st4" d="M60.2,56.8C60.1,56.8,60.1,56.8,60.2,56.8"/>
				<path class="st4" d="M60.2,56.8C60.1,56.8,60.1,56.8,60.2,56.8"/>
				<path class="st4" d="M66.6,65.1c0-0.1,0-0.2,0.1-0.2"/>
				<path class="st4" d="M66.7,64.9c-0.7-1.1-1.1-1.8-1.4-2.2c-1.9-1.8-3.6-3.8-5.1-5.9"/>
				<path class="st4" d="M73,59.8c0,0-2.3-1.2-2.2-1.1"/>
				<path class="st4" d="M65.6,63.5c1.3-0.1,2.1,0,3,0c-0.1-1.2-0.2-3-0.5-3.9"/>
				<path class="st4" d="M68.7,63.4c1.3-0.7,3.1-2.2,4.2-3.6"/>
				<path class="st4" d="M60.2,56.8c1.4-1.3,2.4-2.4,3.2-3.4"/>
				<path class="st4" d="M68.1,59.6c-0.9-0.9-1.6-1.7-2.1-2.3c-1-1.3-2-2.6-2.6-3.7"/>
				<path class="st4" d="M74.2,75c3.3-2.8,4.7-9.1,4.2-9.7c-0.7-0.9-3.6-4.1-3.9-7.6"/>
				<path class="st4" d="M51.2,63.6c0.4-1.1,0.9-2,1.3-3c0.9-2,1.7-4.1,2.3-6.2c0.6-2,1.2-4,2.4-5.7"/>
				<path class="st4" d="M45.6,60.5c0.3,0,1.4-0.5,2.1-0.8c3.4-2.2,4.9-4.4,6.2-7.3"/>
				<path class="st4" d="M51.6,65c0-0.2-0.1-0.3,0-0.4"/>
				<path class="st4" d="M51.6,64.6c-0.2-0.5-0.3-0.9-0.4-1"/>
				<path class="st4" d="M51.2,63.6c-0.3-0.2-5-2.8-5.5-3.1"/>
				<path class="st4" d="M51.6,65c0.9-0.9,3.3-2.4,3.3-2.4s6.5,2,9.7-0.6"/>
				<path class="st4" d="M60.1,56.9c-1.5,0.5-3.1,0.7-3.1,0.7s-3.1,4.7-4.6,6.2c-0.4,0.2-0.7,0.5-0.9,0.9"/>
				<path class="st4" d="M34.9,72.5c0.8,0,12.1-1.6,16-1.7"/>
				<path class="st4" d="M69.9,76.6c0,0-0.2-2.5-0.2-3.3"/>
				<path class="st4" d="M66.7,68.4c1.7,0.2,2.4,2.5,3.1,4.9"/>
				<path class="st4" d="M69.4,73c-1,0.5-2.3,1.6-3.5,2.5l0.8,2.2"/>
				<path class="st4" d="M63.2,80.6c0.3-0.9,1.1-2,1.4-2.2l5.4-1.9"/>
				<path class="st4" d="M79.5,73.2c-3.5,1.1-5.7,2.2-8.6,3.1l-1,0.3"/>
				<line class="st4" x1="69.9" y1="76.6" x2="69.6" y2="78"/>
				<path class="st4" d="M73.8,78.7c0.1-0.8,0.2-2.7,0.4-3.3"/>
				<path class="st4" d="M65.8,75.5c-0.8,0.4-2.7,1.6-2.7,1.6s-5.7-1.6-6.2-3.2"/>
				<path class="st4" d="M55.5,75.1c3.7-3,7-8.4,10.1-11.6"/>
				<path class="st4" d="M51.6,65c-0.8,0.2-9,3.6-8.7,6"/>
				<path class="st4" d="M54,73.6c0.6-1.5-0.6-7.5-0.6-7.5s-0.7-0.6-1.8-1"/>
				<path class="st4" d="M66.7,68.4c-0.6-0.8-0.6-2.1-0.1-3.3"/>
				<path class="st4" d="M92.3,85.7c-0.2-1.5-0.2-3-0.2-4.6"/>
				<path class="st4" d="M79.1,45.3c-0.2,1.1-1.2,5.4-1.2,5.4l-3.7,0.1l-2.5-2.1"/>
				<path class="st4" d="M73,59.8c1.2-1.8,2.4-3.6,3.7-5.2"/>
				<path class="st4" d="M50.9,70.8l10.7,10.1c0,0,15-2.3,15.9-2.4"/>
				<path class="st4" d="M34.9,49.2c0,0,3.6-0.4,3.5-0.4c0.1,0,1-1.2,1-1.2c0.9-0.2,1.6-0.5,2.5-0.7"/>
				<path class="st4" d="M36.5,54.4L36.5,54.4c0.2,0,0.7,0.1,1.3,0.2h0.1c0.5,0,1.2,0.2,1.8,0.2l0,0"/>
				<path class="st4" d="M36.4,55.3c0-0.1,0.2-0.2,0.4-0.1c0-0.1,0.2,0,0.5,0.1"/>
				<path class="st4" d="M37.3,55.3c0.2,0.5,0.2,1.1-0.1,1.6c-0.3,0.4-0.8,0.9-1.3,1c-0.5,0.1-0.8-0.1-0.8-0.6
					c0-0.5,0.3-1.1,0.7-1.4c0.2-0.2,0.4-0.4,0.6-0.6"/>
				<path class="st4" d="M36.4,55.3c0.2,0,0.6-0.1,0.9,0"/>
				<path class="st4" d="M39.7,54.8c0,0.2,0,0.3,0,0.5"/>
				<path class="st4" d="M39.7,55.3c0-0.2,0.1-0.3,0.1-0.5c0,0,0,0-0.1,0"/>
				<path class="st4" d="M41.8,47c-0.7,1.8-1.3,3.6-1.7,5.5c-0.1,0.2-0.2,0.9-0.4,2.3"/>
				<path class="st4" d="M34.9,49.2c-1.6,1.2-3.7,2.4-5.2,3.6"/>
				<path class="st4" d="M32.6,57.6c-0.3-0.4-0.5-0.9-0.8-1.3c-0.2-0.4-0.5-0.7-0.7-1.1"/>
				<path class="st4" d="M44.8,52.3c-0.7,1.1-4.1,8.5-4.5,9.3"/>
				<path class="st4" d="M38.1,61.1c-0.6-0.2-1.2-0.3-1.5-0.3c-2-0.2-3.4-1.3-4-3.2"/>
				<path class="st4" d="M41.4,61.7c7.4-2.4-2.4,9.9-2.9,10.3"/>
				<path class="st4" d="M41.3,61.7c-1.1,0-2.5-0.3-3.2-0.6"/>
				<path class="st4" d="M34.2,71.9c0.5-2,4.9-14.8,5.5-16.7"/>
				<path class="st4" d="M35.8,49.2c0,2,0.1,3.6,0.7,5.2"/>
				<path class="st4" d="M36.5,54.4c-1.3,1-2.6,2-3.8,3.2"/>
				<path class="st4" d="M21.9,55.2c0.1-1.9,0.4-4,1-6.2c1.3-0.6,2.7-1.2,4.1-1.6l1-0.3c1.2-0.5,2.3-0.8,3.5-1"/>
				<path class="st4" d="M28,53.2c-1.3,0.3-2.6,0.6-3.9,0.9c-0.8,0.3-1.5,0.7-2.2,1.1"/>
				<path class="st4" d="M27.1,54.9c0.1,0,0.2,0,0.2,0.2"/>
				<path class="st4" d="M27.5,54.7c-0.1,0.1-0.2,0.2-0.2,0.4"/>
				<path class="st4" d="M27.1,54.9c0.1-0.1,0.2-0.2,0.4-0.2"/>
				<path class="st4" d="M27.5,54.7c0.2-0.5,0.3-1,0.5-1.6"/>
				<path class="st4" d="M97,24.8c-2,1.2-14.4,5.6-14.4,5.6c-0.5-0.2-12.6-3-12.6-3l-12.2,4.6c-0.8-0.4-1.9-0.6-2.8-0.8
					c-1.3-0.4-2.7-0.7-4-1c-1.6-0.4-3.2-1-4.8-1.6c-1.2,0-6.2,1.6-6.2,1.6c-0.3,0-5.1,1.5-5.4,1.6c-0.2,0.1-0.5,0.1-0.7,0.3
					c-0.3,0.5-0.9,1.3-0.9,1.3c-3,4-6.8,7.3-9.3,11.7c-1.6,2.9-3,5.9-4.8,8.7c-1.9,2.9-4.4,5.2-6.6,7.8"/>
				<path class="st4" d="M21,65c0-0.7,2.8-2.1,2.8-2.1"/>
				<path class="st4" d="M12.3,61.6c-0.9,0.8-1.6,1.7-2.2,2.6c-0.7,0.8-1.3,1.6-1.9,2.3c0,0,2.1,0.2,2.3,0.2c1-0.1,2-0.2,3-0.4
					c3.5-0.5,7.1-1.1,10.6-1.4"/>
				<path class="st4" d="M23.8,62.9c0.4-0.1,2.8-1,2.8-1c5.2,5,7.2,8,8,8.8c0.2,0.3,3.9,1,4.4,1.1"/>
				<path class="st4" d="M17.7,55.7c-0.1,1.4,0.1,2,0.1,2.1c1.4-0.8,2.7-1.8,4.2-2.6"/>
				<path class="st4" d="M21.6,58.5c1.7-1.2,3.6-2.3,5.5-3.6"/>
				<path class="st4" d="M12.3,61.6c1.1-0.2,2.1-0.4,2.5-0.4c2.3-0.7,4.4-1.7,6.8-2.7"/>
				<path class="st4" d="M24.1,64.9c0,0,2.5,2,3.2,2.4c2.4,1.4,5.2,3.5,7.4,5.2"/>
				<path class="st4" d="M28,53.2c0.5-0.1,1.1-0.2,1.6-0.3"/>
				<path class="st4" d="M29.7,52.8c-0.7,0.5-1.4,1.2-2.2,1.9"/>
				<path class="st4" d="M27.3,55.1c0.9,0,2.3,0,3.9,0.1"/>
				<path class="st4" d="M57.3,48.7c-1.2,0.3-9.1,3.4-10.8,4.2c0,0-5.7-1.1-6.4-0.5"/>
				<path class="st4" d="M45.6,60.5c-0.4-0.3-2-0.6-2.7,0.8"/>
				<line class="st4" x1="103" y1="46.7" x2="99" y2="47.8"/>
				<line class="st4" x1="106.6" y1="33.1" x2="99" y2="47.8"/>
				<path class="st4" d="M67.6,46.9c0.1-0.5,1-1.2,2.8-2.3"/>
				<path class="st4" d="M67.6,46.9c-0.4-0.5-0.9-1.1-1.7-1.8"/>
				<path class="st4" d="M89.3,47.1c-1.5,0.3-2.6,0-4.1,0.7"/>
				<path class="st4" d="M42.6,44.7c-0.3,0.7-0.5,1.5-0.8,2.3"/>
				<path class="st4" d="M45.9,46.1c-1.4,0.2-2.8,0.5-4.1,0.9"/>
				<path class="st4" d="M70.4,45.8c-0.2,3.1,0.2,8.4,0.3,12.9"/>
				<path class="st4" d="M31.6,46c-1.3,2.3-2.5,4.7-3.6,7.1"/>
				<path class="st4" d="M57.3,48.7c0.5-1.3,1.2-2.5,1.7-3.5"/>
				<path class="st4" d="M57.5,68.2c0.5-1.6,0.9-3,1.6-4.5"/>
				<path class="st4" d="M82.4,49.4c-0.7,1.6-1.7,3-2.3,4.9"/>
				<path class="st4" d="M77.5,78.5l7.3,4l7.5,3.2l2.7,1.1c0,0,0.4-3.9,0.7-5.8c0.3-1.9,0.7-3.7,1.1-5.6c0.3-1.2,0.6-2.3,0.9-3.5
					c0.5-1.7,0.9-3.4,1.3-5.2c0.4-1.7,0.9-3.4,1.3-5.1c0.1-0.4,0.2-0.7,0.3-1.1c0.5-2,1.6-6.7,1.6-6.7c0.5-5,3.4-15.5,6.2-20
					L97,24.8"/>
			</g>
			<path class="st4" d="M46.1,28.6C44.9,32.7,27.7,62.3,24,64.9"/>
			<path class="st4" d="M69.9,27.5c-2.2,4-15.8,38-19,43.3"/>
			<path class="st4" d="M82.6,30.5c-2.2,4-21,50.4-21,50.4"/>
			<path class="st4" d="M97,24.8c-0.9,5.4-19.6,53.4-19.6,53.4"/>
			<path class="st4" d="M57.9,32.1c-2.5,5.9-1.1,3.3-23,40.4"/>
		</g>
	</g>
</g>
</svg>
