<?xml version="1.0" encoding="utf-8"?>
<!-- Generator: Adobe Illustrator 18.0.0, SVG Export Plug-In . SVG Version: 6.00 Build 0)  -->
<!DOCTYPE svg PUBLIC "-//W3C//DTD SVG 1.1//EN" "http://www.w3.org/Graphics/SVG/1.1/DTD/svg11.dtd">
<svg version="1.1" id="Layer_1" xmlns="http://www.w3.org/2000/svg" xmlns:xlink="http://www.w3.org/1999/xlink" x="0px" y="0px"
	 viewBox="0 0 83.6 84.1" style="enable-background:new 0 0 83.6 84.1;" xml:space="preserve">
<style type="text/css">
	.st0{fill:#6C81AB;}
	.st1{fill:#7D8EB5;}
	.st2{fill:none;stroke:#040404;stroke-width:0.9996;stroke-linecap:round;stroke-linejoin:round;stroke-miterlimit:10;}
</style>
<g>
	<path class="st0" d="M25.5,15.6c-3.1-0.2-6.2,1.1-9.3,3.9c-3.1,2.8-4.7,6.6-4.9,11.4c-0.2,4.7-0.3,8.3-0.2,10.7
		c0,2.4,0,5.4,0.1,9.2c0,3.7,0.1,7.2,0.3,10.7c0.2,3.4,1.3,6.1,3.3,8.2c1.8,1.9,4.8,2.9,8.8,3c4,0,7.9,0.2,11.7,0.4
		c0.8,0.1,1.4,0.1,2.2,0.2c-0.2-1.8-0.3-3.5-0.5-5.2c-0.3-3.2-0.6-6.6-0.7-10.2C34.6,58,33,58,31.3,58.1c-0.3-3.6-0.2-6.5,0.3-8.8
		c1.8,0,3.6-0.1,5.4-0.2c0.3-2.5,0.6-5.1,0.8-7.5c0.3-3.6,0.7-7,1.3-10.3c0.6-3.4,2.5-5.6,5.6-6.6c3.1-1.1,6.7-1.5,10.7-1.4
		c2.1,0,4.3,0.1,6.5,0.3c0,2.8,0,5.7,0.2,8.6c0,1.8,0,3.6-0.1,5.2c-2.2,0-4.5,0.5-6.8,1.9c-1,0.6-1.6,1.8-1.6,3.8
		c0,1.8-0.1,3.5-0.1,5.3c2.7,0.1,5.5,0.2,8.3,0.4c-0.5,2.9-0.9,6.1-1.1,9.5c-2.3-0.3-4.8-0.7-7.3-0.8h0c0,2.8-0.1,5.7-0.1,8.5
		c-0.1,2.3-0.2,4.7-0.2,7.1c2-0.1,4.2-0.4,6.3-0.7c4.3-0.5,7.3-1,9.1-1.3c1.7-0.4,2.9-2.5,3.7-6.5c0.7-3.5,0.9-6.3,0.8-8.4
		c-0.2-2-0.1-5.1,0.2-9.4c0.3-4.2,0.4-9.3,0.4-15.3s-0.4-9.9-1.3-11.8c-0.9-1.9-3-3.1-6.4-3.5c-3.3-0.4-6-0.7-7.8-0.8
		C56,15,54.3,15,52.8,15c-2,0-3.9,0-5.9,0C35.7,15.6,28.6,15.8,25.5,15.6L25.5,15.6z M57.4,69.8c-0.1-0.2-0.3-0.3-0.5-0.5
		c1.3-1.6,3.3-2.4,5.8-2.2c1.3-0.9,2.7-1.5,4.2-1.9c1.9,0.4,2.3,1.2,1,2.5c-0.2,0.2-0.4,0.2-0.5,0.4c-2.6,1.6-5.5,2.2-8.7,1.7
		C58.3,70.3,57.8,70.2,57.4,69.8L57.4,69.8z M16.7,59c-0.1,2.3,0.6,4.3,2,6.2c0.1,0.1,0.1,0.1,0.2,0.2c1.2,1,2.4,1.8,3.7,2.6
		c4.5-0.1,8.9,0.2,13.3,0.8c0.2,0,0.3,0.1,0.4,0.4c0.1,0.9-0.3,1.4-1.2,1.5c-4.8,0.5-9.5,0.4-14.2-0.3c-0.1-0.1-0.2-0.1-0.3-0.2
		c-2.2-0.5-3.8-1.8-4.6-3.8c-1.4-1.6-1.8-3.5-1-5.8c0.1-0.5,0.3-0.8,0.4-1.3C15.7,59,16.1,58.9,16.7,59L16.7,59z"/>
	<path class="st1" d="M56.9,69.3c0.1,0.1,0.3,0.3,0.5,0.5c0.5,0.4,1,0.5,1.4,0c3.1,0.5,6-0.1,8.7-1.7c0.2-0.2,0.4-0.2,0.5-0.4
		c1.2-1.3,0.9-2.1-1-2.5c-1.5,0.4-2.9,1-4.2,1.9C60.2,66.9,58.2,67.7,56.9,69.3L56.9,69.3z"/>
	<path class="st1" d="M18.7,65.2c-1.4-1.8-2.1-3.9-2-6.2c-0.5-0.2-1,0-1.3,0.3c-0.1,0.5-0.2,0.8-0.4,1.3c-0.7,2.2-0.4,4.1,1,5.8
		c0.8,2,2.3,3.3,4.6,3.8c0.1,0.1,0.2,0.2,0.3,0.2c4.6,0.6,9.3,0.7,14.2,0.3c0.9-0.1,1.4-0.6,1.2-1.5c0-0.3-0.1-0.4-0.4-0.4
		c-4.4-0.7-8.8-1-13.3-0.8c-1.3-0.8-2.6-1.6-3.7-2.6C18.8,65.3,18.8,65.3,18.7,65.2L18.7,65.2z"/>
	<path class="st2" d="M25.5,15.6c3,0.2,10.2,0,21.4-0.6c1.9,0.1,3.9,0.1,5.9,0c1.4,0,3.1,0,5,0.2c1.8,0.1,4.5,0.5,7.8,0.8
		c3.3,0.4,5.4,1.6,6.4,3.5c0.9,1.9,1.3,5.9,1.3,11.8s-0.1,11-0.4,15.3c-0.3,4.2-0.4,7.3-0.2,9.4c0.2,2-0.1,4.8-0.8,8.4
		c-0.7,3.9-2,6.1-3.7,6.5c-1.7,0.3-4.7,0.8-9.1,1.3C57.2,72.7,55,73,53,73.1c0.1-2.3,0.2-4.7,0.2-7.1c0-2.8,0.1-5.7,0.1-8.5h0
		c2.5,0.2,4.9,0.5,7.3,0.8c0.2-3.4,0.5-6.6,1.1-9.5c-2.8-0.2-5.6-0.3-8.3-0.4c0-1.8,0.1-3.5,0.1-5.3c0-1.9,0.6-3.2,1.6-3.8
		c2.2-1.3,4.5-1.9,6.8-1.9c0.1-1.6,0.2-3.4,0.1-5.2C62,29.2,62,26.3,62,23.5c-2.1-0.2-4.3-0.3-6.5-0.3c-3.9-0.1-7.5,0.3-10.7,1.4
		c-3,0.9-4.9,3.1-5.6,6.6c-0.6,3.2-1,6.7-1.3,10.3c-0.2,2.4-0.5,5-0.8,7.5c-1.8,0.1-3.6,0.2-5.4,0.2c-0.5,2.3-0.6,5.2-0.3,8.8
		c1.6-0.1,3.3-0.1,4.9-0.2c0.1,3.6,0.4,7,0.7,10.2c0.2,1.8,0.4,3.5,0.5,5.2c-0.8-0.1-1.4-0.1-2.2-0.2c-3.8-0.2-7.7-0.4-11.7-0.4
		c-4-0.1-7-1-8.8-3c-2-2-3.1-4.8-3.3-8.2c-0.2-3.4-0.3-7-0.3-10.7c-0.1-3.7-0.1-6.8-0.1-9.2c0-2.4,0-6,0.2-10.7
		c0.2-4.7,1.8-8.5,4.9-11.4C19.3,16.7,22.4,15.4,25.5,15.6L25.5,15.6z"/>
</g>
</svg>
