<?xml version="1.0" encoding="utf-8"?>
<!-- Generator: Adobe Illustrator 16.0.0, SVG Export Plug-In . SVG Version: 6.00 Build 0)  -->
<!DOCTYPE svg PUBLIC "-//W3C//DTD SVG 1.1//EN" "http://www.w3.org/Graphics/SVG/1.1/DTD/svg11.dtd">
<svg version="1.1" id="Layer_1" xmlns="http://www.w3.org/2000/svg" xmlns:xlink="http://www.w3.org/1999/xlink" x="0px" y="0px"
	 xml:space="preserve">
<g>
	<path fill="#6C82AC" d="M729.204,411.373c-3.099-0.199-6.197,1.1-9.296,3.949c-3.1,2.848-4.748,6.646-4.948,11.395
		s-0.3,8.348-0.25,10.746c0,2.398,0.05,5.447,0.101,9.196c0.049,3.698,0.149,7.247,0.35,10.696c0.199,3.398,1.299,6.146,3.299,8.196
		c1.849,1.949,4.798,2.948,8.846,2.999c3.998,0.05,7.896,0.199,11.695,0.449c0.75,0.051,1.449,0.1,2.199,0.15
		c-0.15-1.75-0.3-3.499-0.55-5.248c-0.35-3.199-0.6-6.598-0.7-10.246c-1.648,0.051-3.298,0.1-4.947,0.15
		c-0.35-3.599-0.25-6.548,0.3-8.847c1.8-0.05,3.599-0.101,5.397-0.2c0.35-2.549,0.6-5.098,0.801-7.547
		c0.299-3.599,0.749-7.047,1.349-10.296c0.649-3.448,2.549-5.647,5.598-6.597c3.149-1.051,6.747-1.5,10.696-1.4
		c2.148,0,4.348,0.1,6.497,0.301c0,2.848,0.05,5.747,0.15,8.596c0.05,1.85,0,3.599-0.101,5.248c-2.249-0.05-4.548,0.55-6.797,1.899
		c-1.05,0.6-1.6,1.849-1.649,3.798c-0.05,1.75-0.101,3.499-0.101,5.299c2.749,0.1,5.498,0.25,8.347,0.449
		c-0.55,2.898-0.949,6.098-1.099,9.547c-2.35-0.35-4.799-0.65-7.298-0.85h-0.05c-0.05,2.848-0.1,5.697-0.149,8.546
		c-0.051,2.349-0.15,4.748-0.25,7.097c2.049-0.149,4.198-0.399,6.347-0.699c4.349-0.55,7.348-1,9.097-1.35
		c1.699-0.399,2.949-2.549,3.698-6.497c0.65-3.549,0.9-6.348,0.75-8.396c-0.2-2.05-0.149-5.147,0.15-9.396
		c0.3-4.248,0.449-9.347,0.449-15.294s-0.449-9.896-1.35-11.846c-0.949-1.949-3.049-3.148-6.397-3.548s-5.997-0.7-7.847-0.85
		c-1.899-0.2-3.599-0.25-5.048-0.2c-1.999,0.05-3.948,0.05-5.897,0C739.4,411.373,732.253,411.573,729.204,411.373L729.204,411.373z
		 M761.041,465.502c-0.149-0.15-0.35-0.301-0.499-0.45c1.35-1.649,3.298-2.399,5.848-2.199c1.299-0.899,2.698-1.55,4.248-1.949
		c1.949,0.351,2.299,1.2,1.05,2.499c-0.15,0.15-0.351,0.25-0.55,0.4c-2.649,1.648-5.548,2.248-8.696,1.749
		C761.991,466.002,761.491,465.951,761.041,465.502L761.041,465.502z M720.357,454.756c-0.1,2.299,0.6,4.349,2.049,6.197
		c0.051,0.051,0.101,0.101,0.15,0.2c1.15,0.95,2.399,1.849,3.748,2.599c4.499-0.149,8.947,0.15,13.346,0.801
		c0.25,0,0.35,0.149,0.399,0.449c0.149,0.949-0.3,1.449-1.249,1.549c-4.849,0.45-9.547,0.351-14.195-0.299
		c-0.149-0.051-0.25-0.101-0.35-0.25c-2.248-0.45-3.799-1.75-4.598-3.799c-1.449-1.649-1.799-3.549-1.05-5.798
		c0.149-0.45,0.3-0.85,0.399-1.3C719.358,454.756,719.809,454.605,720.357,454.756L720.357,454.756z"/>
	<path fill="#7D8FB6" d="M760.542,465.052c0.149,0.149,0.35,0.3,0.499,0.45c0.45,0.449,0.95,0.5,1.4,0.05
		c3.148,0.499,6.047-0.101,8.696-1.749c0.199-0.15,0.399-0.25,0.55-0.4c1.249-1.299,0.899-2.148-1.05-2.499
		c-1.55,0.399-2.949,1.05-4.248,1.949C763.841,462.652,761.892,463.402,760.542,465.052L760.542,465.052z"/>
	<path fill="#7D8FB6" d="M722.406,460.953c-1.449-1.849-2.148-3.898-2.049-6.197c-0.549-0.15-0.999,0-1.35,0.35
		c-0.1,0.45-0.25,0.85-0.399,1.3c-0.749,2.249-0.399,4.148,1.05,5.798c0.799,2.049,2.349,3.349,4.598,3.799
		c0.1,0.149,0.2,0.199,0.35,0.25c4.648,0.649,9.347,0.749,14.195,0.299c0.949-0.1,1.398-0.6,1.249-1.549
		c-0.05-0.3-0.149-0.449-0.399-0.449c-4.398-0.65-8.847-0.95-13.346-0.801c-1.349-0.75-2.598-1.648-3.748-2.599
		C722.507,461.054,722.457,461.004,722.406,460.953L722.406,460.953z"/>
	
		<path fill="none" stroke="#040404" stroke-width="0.9996" stroke-linecap="round" stroke-linejoin="round" stroke-miterlimit="10" d="
		M729.204,411.373c3.049,0.2,10.196,0,21.392-0.6c1.949,0.051,3.898,0.051,5.897,0c1.449-0.05,3.148,0,5.048,0.2
		c1.85,0.149,4.498,0.45,7.847,0.85s5.448,1.599,6.397,3.548c0.9,1.949,1.35,5.898,1.35,11.846s-0.149,11.046-0.449,15.294
		c-0.3,4.249-0.351,7.347-0.15,9.396c0.15,2.049-0.1,4.848-0.75,8.396c-0.749,3.948-1.999,6.098-3.698,6.497
		c-1.749,0.35-4.748,0.8-9.097,1.35c-2.148,0.301-4.298,0.55-6.347,0.699c0.1-2.348,0.199-4.748,0.25-7.097
		c0.05-2.849,0.1-5.697,0.149-8.546h0.05c2.499,0.199,4.948,0.5,7.297,0.85c0.15-3.449,0.55-6.648,1.1-9.547
		c-2.849-0.199-5.598-0.35-8.347-0.449c0-1.8,0.051-3.549,0.101-5.299c0.05-1.949,0.6-3.198,1.649-3.798
		c2.249-1.35,4.548-1.949,6.797-1.899c0.1-1.648,0.15-3.398,0.1-5.248c-0.1-2.849-0.149-5.748-0.149-8.596
		c-2.149-0.2-4.349-0.301-6.497-0.301c-3.949-0.1-7.547,0.35-10.696,1.4c-3.049,0.949-4.948,3.148-5.598,6.597
		c-0.6,3.249-1.05,6.697-1.35,10.296c-0.2,2.449-0.45,4.998-0.8,7.547c-1.799,0.1-3.598,0.15-5.397,0.2
		c-0.55,2.299-0.649,5.248-0.3,8.847c1.649-0.051,3.299-0.1,4.947-0.15c0.101,3.648,0.351,7.047,0.7,10.246
		c0.25,1.75,0.399,3.498,0.55,5.248c-0.75-0.051-1.449-0.1-2.199-0.15c-3.799-0.25-7.697-0.399-11.695-0.449
		c-4.049-0.051-6.997-1.05-8.846-2.999c-2-2.05-3.1-4.798-3.299-8.196c-0.2-3.449-0.301-6.998-0.35-10.696
		c-0.051-3.749-0.101-6.798-0.101-9.196c-0.05-2.398,0.05-5.998,0.25-10.746s1.849-8.546,4.948-11.395
		C723.007,412.473,726.105,411.174,729.204,411.373L729.204,411.373z"/>
</g>
</svg>
