<?xml version="1.0" encoding="utf-8"?>
<!-- Generator: Adobe Illustrator 16.0.4, SVG Export Plug-In . SVG Version: 6.00 Build 0)  -->
<!DOCTYPE svg PUBLIC "-//W3C//DTD SVG 1.1//EN" "http://www.w3.org/Graphics/SVG/1.1/DTD/svg11.dtd">
<svg version="1.1" id="Capa_1" xmlns="http://www.w3.org/2000/svg" xmlns:xlink="http://www.w3.org/1999/xlink" x="0px" y="0px"
	 width="32.461px" height="29.611px" viewBox="0 0 32.461 29.611" enable-background="new 0 0 32.461 29.611" xml:space="preserve">
<g>
	<path d="M30.362,0H2.078C0.932,0,0,0.96,0,2.14v22.483c0,1.18,0.932,2.139,2.078,2.137h7.988c0.039,1.579,1.325,2.851,2.9,2.851
		h6.691c1.584,0,2.879-1.271,2.918-2.849h7.787c1.158,0,2.1-0.959,2.1-2.139V2.14C32.461,0.96,31.52,0,30.362,0z M30.461,24.624
		c0,0.074-0.055,0.139-0.1,0.139h-9.787v1.926c0,0.501-0.421,0.924-0.918,0.924h-6.691c-0.497,0-0.901-0.414-0.901-0.924v-1.926
		H2.078C2.047,24.762,2,24.702,2,24.624V2.14C2,2.06,2.047,2,2.078,2h28.284c0.039,0,0.1,0.063,0.1,0.141V24.624z"/>
	<path d="M16.385,20.399c-1.298,0-2.354,1.057-2.354,2.354s1.056,2.354,2.354,2.354c1.299,0,2.356-1.057,2.356-2.354
		S17.684,20.399,16.385,20.399z M16.383,24.082c-0.731,0-1.326-0.598-1.326-1.33c0-0.731,0.595-1.327,1.326-1.327
		c0.735,0,1.333,0.596,1.333,1.327C17.715,23.499,17.129,24.082,16.383,24.082z"/>
	<path d="M3.397,18.927h25.667V3.292H3.397V18.927z M4.705,4.431h23.051v13.356H4.705V4.431z"/>
</g>
</svg>
