<?xml version="1.0" encoding="utf-8"?>
<!-- Generator: Adobe Illustrator 16.0.4, SVG Export Plug-In . SVG Version: 6.00 Build 0)  -->
<!DOCTYPE svg PUBLIC "-//W3C//DTD SVG 1.1//EN" "http://www.w3.org/Graphics/SVG/1.1/DTD/svg11.dtd">
<svg version="1.1" id="Capa_1" xmlns="http://www.w3.org/2000/svg" xmlns:xlink="http://www.w3.org/1999/xlink" x="0px" y="0px"
	 width="30.461px" height="27.611px" viewBox="0 0 30.461 27.611" enable-background="new 0 0 30.461 27.611" xml:space="preserve">
<path d="M29.362,0H1.078C0.467,0,0,0.526,0,1.14v22.483c0,0.613,0.467,1.139,1.078,1.139h8.987v0.926
	c0,1.052,0.849,1.924,1.901,1.924h6.691c1.051,0,1.918-0.872,1.918-1.924v-0.926h8.787c0.611,0,1.1-0.524,1.1-1.139V1.14
	C30.461,0.526,29.973,0,29.362,0z M15.386,23.107c-0.748,0-1.354-0.604-1.354-1.354c0-0.745,0.606-1.354,1.354-1.354
	c0.75,0,1.354,0.607,1.354,1.354C16.741,22.503,16.136,23.107,15.386,23.107z M27.756,17.788H2.705V2.431h25.051V17.788z"/>
</svg>
