<?xml version="1.0" encoding="utf-8"?>
<!-- Generator: Adobe Illustrator 16.0.4, SVG Export Plug-In . SVG Version: 6.00 Build 0)  -->
<!DOCTYPE svg PUBLIC "-//W3C//DTD SVG 1.1//EN" "http://www.w3.org/Graphics/SVG/1.1/DTD/svg11.dtd">
<svg version="1.1" id="Capa_1" xmlns="http://www.w3.org/2000/svg" xmlns:xlink="http://www.w3.org/1999/xlink" x="0px" y="0px"
	 width="31.816px" height="21.83px" viewBox="0 0 31.816 21.83" enable-background="new 0 0 31.816 21.83" xml:space="preserve">
<path d="M28.741,2.629C28.562,1.15,27.295,0,25.764,0H15.45c-1.966,0-2.908,1.273-3.903,2.622H3.298C1.479,2.622,0,4.103,0,5.923
	v12.613c0,1.816,1.479,3.294,3.298,3.294h25.229c1.813,0,3.289-1.478,3.289-3.294V5.923C31.816,4.175,30.455,2.74,28.741,2.629z
	 M29.817,18.536c0,0.714-0.579,1.294-1.29,1.294H3.298C2.583,19.83,2,19.25,2,18.536V5.923c0-0.705,0.596-1.301,1.298-1.301h9.252
	l0.604-0.81C14.106,2.523,14.53,2,15.45,2h10.314c0.551,0,0.999,0.444,0.999,0.99v1.632h1.764c0.711,0,1.29,0.584,1.29,1.301V18.536
	z"/>
</svg>
