<?xml version="1.0" encoding="utf-8"?>
<!-- Generator: Adobe Illustrator 16.0.4, SVG Export Plug-In . SVG Version: 6.00 Build 0)  -->
<!DOCTYPE svg PUBLIC "-//W3C//DTD SVG 1.1//EN" "http://www.w3.org/Graphics/SVG/1.1/DTD/svg11.dtd">
<svg version="1.1" id="Capa_1" xmlns="http://www.w3.org/2000/svg" xmlns:xlink="http://www.w3.org/1999/xlink" x="0px" y="0px"
	 width="27.5px" height="27.154px" viewBox="0 0 27.5 27.154" enable-background="new 0 0 27.5 27.154" xml:space="preserve">
<g>
	<path d="M26.463,0H1.037C0.467,0,0,0.468,0,1.038v25.079c0,0.569,0.467,1.037,1.037,1.037h25.426c0.57,0,1.037-0.468,1.037-1.037
		V1.038C27.5,0.468,27.033,0,26.463,0z M24.572,20.549H2.625V2.799h21.947V20.549z"/>
	<circle cx="6.854" cy="7.329" r="3.048"/>
	<path d="M7.441,14.561l-2.86,3.371c-0.712,0.839-0.394,1.525,0.706,1.525h16.378c1.101,0,1.562-0.786,1.024-1.746l-4.938-8.832
		c-0.536-0.96-1.453-0.983-2.037-0.05l-2.871,4.587c-0.584,0.933-1.747,1.229-2.585,0.658C9.42,13.503,8.153,13.722,7.441,14.561z"
		/>
</g>
</svg>
