<?xml version="1.0" encoding="utf-8"?>
<!-- Generator: Adobe Illustrator 16.0.4, SVG Export Plug-In . SVG Version: 6.00 Build 0)  -->
<!DOCTYPE svg PUBLIC "-//W3C//DTD SVG 1.1//EN" "http://www.w3.org/Graphics/SVG/1.1/DTD/svg11.dtd">
<svg version="1.1" id="Capa_1" xmlns="http://www.w3.org/2000/svg" xmlns:xlink="http://www.w3.org/1999/xlink" x="0px" y="0px"
	 width="30.732px" height="19.453px" viewBox="0 0 30.732 19.453" enable-background="new 0 0 30.732 19.453" xml:space="preserve">
<path d="M26.133,7.891c-0.091-0.605-0.244-1.206-0.458-1.798C24.355,2.449,20.864,0,16.988,0c-1.07,0-2.128,0.187-3.143,0.554
	C11.354,1.456,9.371,3.4,8.401,5.843C8.11,5.813,7.82,5.797,7.531,5.797C3.378,5.797,0,8.845,0,12.591
	c0,3.525,2.827,6.365,6.722,6.75l1.099,0.091v-0.104h15.994v0.125l1.087-0.096c3.378-0.296,5.831-2.756,5.831-5.85
	C30.733,10.904,28.84,8.643,26.133,7.891z M25.041,17.328H6.821L6.728,17.33C3.977,16.979,2,15.012,2,12.591
	c0-2.643,2.48-4.794,5.531-4.794c0.442,0,0.892,0.048,1.337,0.142l0.909,0.192l0.259-0.893c0.641-2.222,2.319-4.017,4.489-4.803
	C15.321,2.146,16.15,2,16.988,2c3.037,0,5.773,1.919,6.806,4.773c0.239,0.66,0.382,1.333,0.424,2.001l0.051,0.794l0.785,0.129
	c2.133,0.353,3.68,1.955,3.68,3.811C28.733,15.478,27.231,17.015,25.041,17.328z"/>
</svg>
