<?xml version="1.0" encoding="utf-8"?>
<!-- Generator: Adobe Illustrator 18.0.0, SVG Export Plug-In . SVG Version: 6.00 Build 0)  -->
<!DOCTYPE svg PUBLIC "-//W3C//DTD SVG 1.1//EN" "http://www.w3.org/Graphics/SVG/1.1/DTD/svg11.dtd">
<svg version="1.1" id="Layer_1" xmlns="http://www.w3.org/2000/svg" xmlns:xlink="http://www.w3.org/1999/xlink" x="0px" y="0px"
	 viewBox="0 0 118.5 88.2" style="enable-background:new 0 0 118.5 88.2;" xml:space="preserve">
<style type="text/css">
	.st0{fill-rule:evenodd;clip-rule:evenodd;fill:#F4F4EA;}
	.st1{fill-rule:evenodd;clip-rule:evenodd;fill:#35A9E0;}
	.st2{fill-rule:evenodd;clip-rule:evenodd;fill:#877E5B;}
	.st3{fill-rule:evenodd;clip-rule:evenodd;fill:#8D9634;}
	.st4{fill-rule:evenodd;clip-rule:evenodd;fill:#96D9F7;}
	.st5{fill:none;stroke:#000000;stroke-linecap:round;stroke-linejoin:round;}
</style>
<g>
	<g>
		<g>
			<g>
				<path class="st0" d="M62.5,25c0,0,11.7-2.4,21.8-3c10.1-0.6,19.4,0.4,19.4,0.4l2.9,3.4L90.9,77.4c0,0-10.4-3.3-20.8-5.4
					c-10.8-2.2-20.9-1.8-20.9-1.8l-3.7-0.8c0,0-11.5-4.7-19.9-6.4c-8.4-1.7-19.7-1.9-19.7-1.9l-0.5-2.6l20.8-38.1
					c0,0,12.2,0.2,19.3,1C52.5,22.3,62.5,25,62.5,25z"/>
				<polygon class="st1" points="48.7,34.6 48.9,33.3 49.4,27.7 46.9,31.7 44.7,31.1 43.4,31.8 44.6,25.1 41.8,30.6 39.9,37.3 
					37.4,38.8 36.5,40.2 35.2,40.3 42.4,23.4 50.7,24.7 59.2,26.6 55.4,36.3 				"/>
				<polygon class="st2" points="36.9,40.4 37.5,38.9 39.8,37.6 41.9,30.6 43.9,26.5 43.1,31.9 44.5,31.3 46.8,31.9 49,28.7 
					48.4,34.7 55.3,36.5 52.5,44.1 				"/>
				<polygon class="st3" points="57.3,49.4 73.8,49.4 91,50.9 91.7,48.4 78.2,47.6 64.7,46.8 58.1,46.9 				"/>
				<polygon class="st4" points="61.3,38.7 58.2,46.6 78.4,47.4 91.9,48.2 95.2,37.9 77.1,37.5 				"/>
				<g>
					<path class="st5" d="M75.4,28.2c-1.7,0.1-3.4,0.2-5,0.4"/>
					<path class="st5" d="M23.7,38.4c-1.2,0-2.4-0.1-3.6-0.1"/>
					<path class="st5" d="M18.4,44.4c-0.5-0.1-0.9-0.1-1.3-0.1"/>
					<path class="st5" d="M49.9,48.2c-0.5-0.1-1.2-0.5-1.8-0.6"/>
					<path class="st5" d="M43.4,57.4c-0.5-0.1-2.6-0.8-3.1-1"/>
					<path class="st5" d="M21.6,40.4c-0.8,0-1.5-0.1-2.2-0.1"/>
					<path class="st5" d="M62.6,25.3c-9.1-2.8-18.1-4.3-26.7-4.5c-2.8,0-6.1-0.1-9.7-0.3C19.9,30.8,15.3,39,12.5,44.8
						c-2.8,5.8-5.2,10.3-7,13.7c10.5,0.1,19.1,1.2,25.8,3.3c6.7,2.2,11.7,4.1,15,6"/>
					<path class="st5" d="M39.6,23.8c-1.5-0.2-3-0.4-4.7-0.5"/>
					<path class="st5" d="M38.3,26.1c-0.6-0.1-1.2-0.2-1.9-0.2"/>
					<path class="st5" d="M27.9,27.3c-0.8-0.1-1.5-0.1-2.3-0.1"/>
					<path class="st5" d="M32.3,31.6c-1.5-0.1-3-0.3-4.6-0.3"/>
					<path class="st5" d="M29.8,25.2c-1.1-0.1-2.1-0.1-3.2-0.1"/>
					<path class="st5" d="M33.4,23.1c-1.9-0.1-3.8-0.2-5.9-0.2"/>
					<path class="st5" d="M32.9,27.7c-1.1,0-2.3-0.1-3.4-0.2"/>
					<path class="st5" d="M31.7,46c-1.6-0.2-3.2-0.5-4.7-0.7"/>
					<path class="st5" d="M32.6,39.5c-2-0.4-4.1-0.7-6.4-0.9"/>
					<path class="st5" d="M34.7,34.1c-0.9-0.2-1.6-0.3-2.4-0.4"/>
					<path class="st5" d="M43.1,35.8c1.1-0.5,1.7-0.2,1.7,1c-0.2,0.4-0.6,0.5-1.3,0.5C42.8,37.2,42.6,36.8,43.1,35.8"/>
					<polyline class="st5" points="40,36.9 39.4,38.8 38.4,40.8 					"/>
					<path class="st5" d="M38.4,40.8c-0.6-0.2-1.3-0.3-2-0.4"/>
					<path class="st5" d="M42.8,41.6c-0.9-0.2-1.6-0.4-2.4-0.5"/>
					<polyline class="st5" points="42.8,41.6 43.4,41.1 46.5,32.5 46.9,31.7 					"/>
					<polyline class="st5" points="40,36.9 37.4,38.8 36.4,40.4 					"/>
					<path class="st5" d="M40.4,41.1c-0.7-0.1-1.3-0.2-2-0.3"/>
					<path class="st5" d="M36.4,40.4c-0.5,0-0.8-0.1-1.2-0.1l7.2-16.9c5.7,0.5,11.2,1.6,16.8,3.2l-3.8,9.7"/>
					<path class="st5" d="M44.6,44.5c-2-0.6-4-1-5.9-1.5"/>
					<line class="st5" x1="43.4" y1="31.8" x2="40.4" y2="41.1"/>
					<polyline class="st5" points="43.4,31.8 44.7,25 41.9,30.6 40,36.9 					"/>
					<path class="st5" d="M36.3,30.2c-2.5-0.4-5.4-0.6-8.6-0.8"/>
					<path class="st5" d="M37.2,42.7c-2.1-0.5-4.2-0.8-6.2-1.2"/>
					<path class="st5" d="M38.1,28.5c-1.2-0.2-2.5-0.3-3.8-0.4"/>
					<path class="st5" d="M24.2,34.5c-0.8-0.1-1.5-0.1-2.3-0.1"/>
					<path class="st5" d="M29.1,35c-1.1,0-2.3-0.1-3.4-0.2"/>
					<path class="st5" d="M34.8,35.7c-1.2-0.2-2.5-0.3-3.8-0.4"/>
					<path class="st5" d="M36.2,32.1c-0.7-0.1-1.5-0.2-2.2-0.3"/>
					<path class="st5" d="M34.7,25.6c-1.2-0.2-2.4-0.3-3.7-0.3"/>
					<path class="st5" d="M33.6,37.5c-0.6-0.1-1.2-0.2-1.9-0.2"/>
					<path class="st5" d="M25.1,36.6c-1.1-0.1-3-0.1-4.1-0.1"/>
					<path class="st5" d="M30,37c-1.2-0.2-2.4-0.3-3.7-0.3"/>
					<path class="st5" d="M46.9,31.7l2.5-4.3l-0.7,5.9c-0.1,0.4-0.2,0.8-0.3,1.2"/>
					<path class="st5" d="M46.9,31.7l-2.3-0.6c-0.3,0.3-0.7,0.5-1.3,0.7"/>
					<line class="st5" x1="47.5" y1="37" x2="45.6" y2="42.3"/>
					<path class="st5" d="M48.2,43c-1.1-0.4-1.9-0.7-2.6-0.8"/>
					<line class="st5" x1="48.4" y1="34.5" x2="47.5" y2="37"/>
					<line class="st5" x1="47.5" y1="37" x2="50.1" y2="37.9"/>
					<line class="st5" x1="50.1" y1="37.9" x2="54.2" y2="39.5"/>
					<path class="st5" d="M54.2,39.5l-1.8,4.8c-1.6-0.6-3-1-4.2-1.2"/>
					<line class="st5" x1="48.2" y1="43" x2="50.1" y2="37.9"/>
					<polyline class="st5" points="62.9,42.8 61.1,42.8 61.5,41.9 					"/>
					<line class="st5" x1="62.9" y1="42.8" x2="63.2" y2="41.9"/>
					<line class="st5" x1="63.6" y1="40.9" x2="63.2" y2="41.9"/>
					<line class="st5" x1="63.2" y1="41.9" x2="61.5" y2="41.9"/>
					<line class="st5" x1="61.5" y1="41.9" x2="61.8" y2="40.8"/>
					<line class="st5" x1="55.4" y1="36.3" x2="48.4" y2="34.5"/>
					<line class="st5" x1="55.4" y1="36.3" x2="54.2" y2="39.5"/>
					<path class="st5" d="M45.6,42.3c-0.9-0.2-1.9-0.5-2.9-0.7"/>
					<path class="st5" d="M83,25.6c-2.2,0.1-4.5,0.3-6.7,0.5"/>
					<path class="st5" d="M79.8,27.9c-0.8,0-1.5,0.1-2.3,0.1"/>
					<path class="st5" d="M77.4,31.9c-0.8,0-1.5,0.1-2.3,0.1"/>
					<path class="st5" d="M79.1,30c-0.8,0-1.5,0.1-2.3,0.1"/>
					<path class="st5" d="M73.5,32.1c-0.8,0-1.5,0.1-2.3,0.1"/>
					<path class="st5" d="M82.2,33.7c-1,0-2,0-3,0.1"/>
					<path class="st5" d="M84.3,30c-1,0-2,0-3,0.1"/>
					<line class="st5" x1="69.5" y1="26.8" x2="66.9" y2="27"/>
					<path class="st5" d="M71.6,34.2c-1.8,0.2-3.6,0.3-5.3,0.5"/>
					<path class="st5" d="M68.7,32.5c-1.8,0.2-3.6,0.3-5.3,0.5"/>
					<path class="st5" d="M73.5,26.3c-0.6,0.1-1.2,0.2-1.7,0.2"/>
					<line class="st5" x1="67.9" y1="40.7" x2="67.2" y2="40.7"/>
					<line class="st5" x1="68.9" y1="40.7" x2="67.9" y2="40.7"/>
					<line class="st5" x1="67.5" y1="42.8" x2="67.9" y2="40.7"/>
					<line class="st5" x1="68.6" y1="42.8" x2="67.5" y2="42.8"/>
					<path class="st5" d="M66.7,40.8c-0.3,0.9-0.8,1.6-1.4,2.1"/>
					<line class="st5" x1="67.5" y1="42.8" x2="65.3" y2="42.8"/>
					<line class="st5" x1="72.4" y1="42.8" x2="72.1" y2="42.8"/>
					<line class="st5" x1="73.1" y1="42.8" x2="72.4" y2="42.8"/>
					<line class="st5" x1="73.1" y1="41.6" x2="73.1" y2="42.8"/>
					<line class="st5" x1="73.7" y1="42.9" x2="73.9" y2="41.6"/>
					<line class="st5" x1="73.7" y1="42.9" x2="73.1" y2="42.8"/>
					<line class="st5" x1="71.9" y1="42.8" x2="71.9" y2="41.7"/>
					<line class="st5" x1="71.9" y1="42.8" x2="70.3" y2="42.8"/>
					<polyline class="st5" points="68.6,42.8 69.6,40.6 70.3,42.8 					"/>
					<line class="st5" x1="72.1" y1="42.8" x2="71.9" y2="42.8"/>
					<path class="st5" d="M71.5,36.2c-1.2,0-2.4,0.1-3.5,0.3"/>
					<line class="st5" x1="70.3" y1="42.8" x2="68.6" y2="42.8"/>
					<polyline class="st5" points="77.5,42.5 75.8,42.5 76.1,41 					"/>
					<line class="st5" x1="79" y1="41.8" x2="78.8" y2="43"/>
					<polyline class="st5" points="79.8,40.9 79.2,40.9 79,41.8 					"/>
					<polyline class="st5" points="82.2,40.9 82.2,42.5 81,40.9 81,42.6 					"/>
					<line class="st5" x1="83.7" y1="43.2" x2="83.7" y2="41.1"/>
					<line class="st5" x1="83.7" y1="43.2" x2="78.8" y2="43"/>
					<line class="st5" x1="79.8" y1="41.8" x2="79" y2="41.8"/>
					<line class="st5" x1="78.8" y1="43" x2="73.7" y2="42.9"/>
					<path class="st5" d="M76.7,33.9c-1,0-2,0.1-3,0.2"/>
					<path class="st5" d="M78.6,35.8c-1.4,0-2.7,0.1-4,0.2"/>
					<path class="st5" d="M23.8,44.9c-1.2-0.2-2.3-0.3-3.5-0.4"/>
					<path class="st5" d="M99.9,25.7c-1.2-0.1-2.4-0.1-3.6-0.2"/>
					<path class="st5" d="M93.7,25.4c-2.4,0-4.8,0-7.2,0.1"/>
					<path class="st5" d="M88.5,33.7c-1.4,0-2.7,0-4,0"/>
					<path class="st5" d="M83.2,31.8c-1.4,0-2.7,0-4,0"/>
					<path class="st5" d="M90.5,29.9c-1.4,0-2.7,0-4,0"/>
					<path class="st5" d="M86.6,42.7c-0.3-0.6-0.7-1.1-1.1-1.8v2.5"/>
					<line class="st5" x1="87.4" y1="43.3" x2="85.5" y2="43.3"/>
					<line class="st5" x1="87.4" y1="43.3" x2="87.9" y2="41.2"/>
					<line class="st5" x1="88.4" y1="43.4" x2="87.4" y2="43.3"/>
					<polyline class="st5" points="90.6,43.5 89.7,41.4 88.4,43.4 					"/>
					<line class="st5" x1="89.4" y1="43.5" x2="88.4" y2="43.4"/>
					<line class="st5" x1="91.8" y1="43.5" x2="90.6" y2="43.5"/>
					<line class="st5" x1="90.6" y1="43.5" x2="89.4" y2="43.5"/>
					<path class="st5" d="M95.3,30.2c-1-0.1-1.8-0.1-2.7-0.2"/>
					<path class="st5" d="M98.8,28.2c-3.3-0.3-6.7-0.4-9.9-0.4"/>
					<path class="st5" d="M97.3,34.1c-2.3-0.2-4.6-0.3-6.8-0.3"/>
					<path class="st5" d="M91.4,35.8c-1.7-0.1-3.3-0.1-4.9-0.1"/>
					<path class="st5" d="M96,32c-1.7-0.1-3.3-0.1-4.9-0.1"/>
					<path class="st5" d="M46.3,67.8c4.1-0.6,8-0.9,12-0.9c10.2,0.7,20.1,2.7,29.6,5.8c2.4-7.8,4.9-15.8,7.5-23.7
						c2.9-8.6,5.7-17.5,8.2-26.5c-4.2-0.5-9.6-0.6-16.6-0.5c-7,0.2-15.1,1.3-24.4,3.4"/>
					<path class="st5" d="M86.7,27.8c-1.7,0-3.3,0-4.9,0"/>
					<line class="st5" x1="85.5" y1="43.3" x2="83.7" y2="43.2"/>
					<path class="st5" d="M84.6,35.7c-1.2-0.1-2.3-0.1-3.4,0"/>
					<path class="st5" d="M88.5,31.8c-1.2-0.1-2.3-0.1-3.4,0"/>
					<path class="st5" d="M58.1,46.9l3.3-8.2c12.2-1.2,23.5-1.5,34-0.8l-3.6,10.5"/>
					<path class="st5" d="M68,28.8c-1.3,0.2-2,0.3-3.2,0.5"/>
					<path class="st5" d="M67.8,30.7c-1.3,0.2-2.6,0.3-3.9,0.5"/>
					<path class="st5" d="M74.1,30.4c-1.3,0.2-2.6,0.2-3.9,0.4"/>
					<line class="st5" x1="65.3" y1="42.8" x2="62.9" y2="42.8"/>
					<path class="st5" d="M65.3,42.8c-1-0.4-1.2-1.1-0.6-2.1"/>
					<path class="st5" d="M65.5,36.7c-1.3,0.2-2.6,0.3-3.8,0.5"/>
					<path class="st5" d="M64.2,35c-0.6,0-1.1,0.1-1.6,0.2"/>
					<path class="st5" d="M30.2,33.1c-2.3-0.2-4.8-0.4-7.4-0.5"/>
					<path class="st5" d="M28.6,41.2c-1.7-0.3-3.4-0.4-5-0.5"/>
					<path class="st5" d="M26.1,31.2c-0.8-0.1-1.6-0.1-2.4-0.1"/>
					<path class="st5" d="M26.1,29.2c-0.6,0-1.1,0-1.6,0"/>
					<line class="st5" x1="87.9" y1="61.2" x2="84.7" y2="60.6"/>
					<path class="st5" d="M91.7,48.4L91,50.9c-10.2-1.5-21.5-2-33.9-1.5l1-2.5"/>
					<path class="st5" d="M89.2,54.9c0,0-2.4-0.4-3.9-0.6"/>
					<path class="st5" d="M82.8,53.9c-1.6-0.2-3.1-0.4-4.6-0.5"/>
					<line class="st5" x1="78.3" y1="47.7" x2="78.9" y2="47.4"/>
					<path class="st5" d="M72,61.1c-1.5-0.1-2.9-0.2-4.3-0.4"/>
					<path class="st5" d="M83.2,60.3c-2.4-0.5-4.8-0.8-7.2-1.1"/>
					<path class="st5" d="M84.4,63.2c-0.8-0.2-1.6-0.4-2.4-0.5"/>
					<path class="st5" d="M75.6,53.1c-2-0.2-4-0.3-6.1-0.4"/>
					<line class="st5" x1="72.8" y1="54.9" x2="67.7" y2="54.6"/>
					<line class="st5" x1="78.7" y1="55.4" x2="75.4" y2="55.2"/>
					<path class="st5" d="M77.9,61.9c-1.1-0.1-2.2-0.3-3.2-0.4"/>
					<line class="st5" x1="64.7" y1="46.8" x2="78.3" y2="47.7"/>
					<path class="st5" d="M74,59c-2.1-0.2-4.3-0.4-6.4-0.5"/>
					<path class="st5" d="M106.5,26.1c-2.7,9.2-5.6,18.9-8.5,28.7c-2.6,8.7-5,16.3-7.1,22.7c-3.6-1.2-7.9-2.5-13-3.7
						c-5.3-1.3-9.4-2.2-12.7-2.6c-3.4-0.5-6.3-0.8-8.7-0.9c-2.3-0.1-4.8-0.1-7.3-0.1c-0.1,0-0.2,0-0.3-0.1c-0.2-0.2-0.4-0.3-0.7-0.3
						c-0.1-0.1-0.3-0.1-0.5-0.1"/>
					<path class="st5" d="M104.8,23.3c-2.3,7.3-4.9,16-7.9,26.2c-2.4,7.9-5,16.2-7.8,24.7c-18-5.6-32.3-7.5-42.8-5.5
						c-11.9-5.9-25.4-8.8-40.6-9"/>
					<path class="st5" d="M47.6,69.7c9.2-1.4,23.4,0.6,42.2,6.2c2.6-7.5,5-14.9,7.2-22.4c2.4-7.9,5.3-17.5,8.6-28.8"/>
					<line class="st5" x1="89.2" y1="57" x2="82.2" y2="55.9"/>
					<line class="st5" x1="91.7" y1="48.4" x2="78.9" y2="47.4"/>
					<path class="st5" d="M57.2,54.6c-0.6,0-1.1,0-1.6,0.1"/>
					<path class="st5" d="M64.1,58.4c-1.9-0.1-3.8-0.1-5.7,0"/>
					<path class="st5" d="M61.2,52.6c-1.7,0.1-3.3,0.1-4.9,0.2"/>
					<line class="st5" x1="64.2" y1="47.1" x2="58.1" y2="46.9"/>
					<path class="st5" d="M47.6,69.7c-0.4-0.1-0.8-0.2-1.3-0.3c-0.5-0.1-1-0.1-1.5-0.1C32.2,63.7,19.2,60.9,6,60.9"/>
					<path class="st5" d="M63.7,60.5c-1.8,0-3.6-0.1-5.4,0"/>
					<path class="st5" d="M56.2,58.4c-0.7,0-1.3,0-1.9,0.1"/>
					<path class="st5" d="M56.1,60.5c-0.9,0-1.8,0-2.6,0.1"/>
					<path class="st5" d="M38.7,53.8c-2.1-0.6-4.1-1-6.1-1.5"/>
					<path class="st5" d="M35.2,57.3c-0.1-0.1-0.2-0.1-0.3-0.1c-1.6-0.5-3.2-0.8-4.8-1.2"/>
					<path class="st5" d="M35.3,48.7c-2.1-0.5-4.2-0.9-6.2-1.3"/>
					<path class="st5" d="M39.8,45.5c-2.1-0.5-4.2-0.9-6.2-1.3"/>
					<path class="st5" d="M30.3,51.7c-1.7-0.3-3.4-0.6-5.1-0.8"/>
					<path class="st5" d="M41.1,59c-1.4-0.4-2.7-0.9-4-1.2"/>
					<path class="st5" d="M46.8,52.1c-3.2-1.1-6.4-2-9.4-2.8"/>
					<path class="st5" d="M49.2,50.6c-2.2-0.8-4.4-1.4-6.5-2"/>
					<path class="st5" d="M46,56.2c-1.8-0.6-3.6-1.2-5.4-1.7"/>
					<path class="st5" d="M67.6,52.7c-1.5-0.1-3-0.1-4.5-0.1"/>
					<path class="st5" d="M65.3,54.6c-1.9-0.1-3.9-0.1-5.8,0"/>
					<line class="st5" x1="64.2" y1="47.1" x2="64.7" y2="46.8"/>
					<line class="st5" x1="16.4" y1="49.8" x2="14.6" y2="49.7"/>
					<path class="st5" d="M21.5,46.6c-1.7-0.2-3.4-0.3-5-0.4"/>
					<line class="st5" x1="20.7" y1="54.3" x2="17.1" y2="53.9"/>
					<line class="st5" x1="23.2" y1="50.6" x2="18.1" y2="50"/>
					<path class="st5" d="M30.7,43.9c-1.7-0.3-3.4-0.6-5.1-0.8"/>
					<path class="st5" d="M23.2,42.7c-1.7-0.2-3.4-0.4-5.1-0.5"/>
					<line class="st5" x1="14.2" y1="53.7" x2="13" y2="53.6"/>
					<path class="st5" d="M27.3,55.4c-1.6-0.3-3.1-0.6-4.6-0.8"/>
					<path class="st5" d="M27.5,47.3c-1.4-0.3-2.8-0.4-4.2-0.6"/>
					<line class="st5" x1="62.6" y1="25.3" x2="46.3" y2="67.8"/>
					<line class="st5" x1="78.9" y1="47.4" x2="89.4" y2="43.5"/>
					<line class="st5" x1="62.9" y1="42.8" x2="64.2" y2="47.1"/>
					<line class="st5" x1="78.3" y1="47.7" x2="72.4" y2="42.8"/>
					<line class="st5" x1="72.1" y1="42.8" x2="64.7" y2="46.8"/>
					<path class="st5" d="M39.9,47.8c-2-0.5-4.1-1-6.1-1.3"/>
					<path class="st5" d="M51.5,46.6c-1.6-0.6-3.1-1-4.6-1.4"/>
					<path class="st5" d="M23.8,44.9c0.8,0.1-0.3-0.1-3.5-0.4"/>
					<path class="st5" d="M23.8,44.9c0.8,0.1-0.3-0.1-3.5-0.4"/>
					<line class="st5" x1="15.3" y1="51.8" x2="14" y2="51.7"/>
					<path class="st5" d="M20.7,52.3c-1.2-0.2-2.3-0.3-3.5-0.4"/>
					<path class="st5" d="M20.7,52.3c0.8,0.1-0.3-0.1-3.5-0.4"/>
					<line class="st5" x1="20.7" y1="52.3" x2="17.2" y2="51.9"/>
					<path class="st5" d="M27.1,49.2c-1.6-0.2-3.2-0.5-4.7-0.7"/>
					<line class="st5" x1="19.5" y1="48.1" x2="15.6" y2="47.7"/>
					<path class="st5" d="M45.3,46.9c-1.1-0.2-1.9-0.6-3.5-0.9"/>
					<line class="st5" x1="33.1" y1="50.3" x2="29.3" y2="49.5"/>
					<line class="st5" x1="38.7" y1="51.7" x2="35.4" y2="50.9"/>
					<line class="st5" x1="44.6" y1="53.4" x2="41.3" y2="52.5"/>
					<line class="st5" x1="27" y1="53.2" x2="22.9" y2="52.5"/>
					<line class="st5" x1="32.7" y1="54.4" x2="29.4" y2="53.7"/>
					<line class="st5" x1="38.2" y1="55.9" x2="35" y2="55"/>
				</g>
			</g>
			<line class="st5" x1="52.2" y1="62.6" x2="55.1" y2="62.6"/>
			<line class="st5" x1="58.1" y1="62.5" x2="61.3" y2="62.5"/>
			<line class="st5" x1="63.3" y1="62.4" x2="66.9" y2="62.6"/>
			<line class="st5" x1="69.2" y1="62.9" x2="71.8" y2="63.1"/>
			<line class="st5" x1="74.6" y1="63.3" x2="77.7" y2="63.7"/>
			<line class="st5" x1="80.1" y1="64.2" x2="83.5" y2="64.8"/>
		</g>
	</g>
</g>
</svg>
