<?xml version="1.0" encoding="utf-8"?>
<!-- Generator: Adobe Illustrator 16.0.4, SVG Export Plug-In . SVG Version: 6.00 Build 0)  -->
<!DOCTYPE svg PUBLIC "-//W3C//DTD SVG 1.1//EN" "http://www.w3.org/Graphics/SVG/1.1/DTD/svg11.dtd">
<svg version="1.1" id="Capa_1" xmlns="http://www.w3.org/2000/svg" xmlns:xlink="http://www.w3.org/1999/xlink" x="0px" y="0px"
	 width="32.537px" height="32.736px" viewBox="0 0 32.537 32.736" enable-background="new 0 0 32.537 32.736" xml:space="preserve">
<g>
	<path d="M31.601,24.052l-5.774-5.775c-0.604-0.604-1.411-0.938-2.271-0.938c-0.142,0-0.279,0.021-0.418,0.041
		c-0.074-0.116-0.162-0.228-0.264-0.328l-3.495-3.493c1.373-3.632,0.526-7.816-2.278-10.623C15.207,1.042,12.692,0,10.018,0
		c-2.676,0-5.19,1.042-7.083,2.934C1.043,4.825,0,7.34,0,10.016s1.043,5.19,2.935,7.082c1.89,1.892,4.402,2.932,7.076,2.932
		c1.157,0,2.308-0.201,3.392-0.591l3.542,3.543c0.076,0.076,0.162,0.143,0.248,0.203c-0.178,1,0.113,2.068,0.886,2.839l5.774,5.774
		c0.604,0.604,1.41,0.938,2.271,0.938s1.666-0.334,2.271-0.939l3.207-3.205C32.851,27.334,32.849,25.299,31.601,24.052z
		 M13.847,17.055c-1.192,0.649-2.515,0.975-3.836,0.975c-2.05,0-4.099-0.78-5.662-2.346c-3.131-3.13-3.131-8.206,0-11.336
		C5.914,2.782,7.966,2,10.018,2c2.051,0,4.103,0.782,5.668,2.348c2.61,2.61,3.036,6.572,1.29,9.634l4.305,4.303l-3.104,3.103
		L13.847,17.055z M30.187,27.177l-3.209,3.207c-0.234,0.236-0.545,0.354-0.854,0.354s-0.62-0.116-0.854-0.354l-5.775-5.774
		c-0.334-0.334-0.419-0.818-0.277-1.241c0.204-0.098,0.396-0.224,0.561-0.387l3.102-3.104c0.143-0.144,0.25-0.307,0.341-0.477
		c0.111-0.031,0.224-0.064,0.341-0.064c0.31,0,0.619,0.117,0.854,0.354l5.774,5.775C30.656,25.936,30.656,26.704,30.187,27.177z"/>
	<path d="M10.018,4.571c-1.395,0-2.787,0.531-3.851,1.596c-2.127,2.126-2.127,5.574,0,7.699c1.063,1.062,2.456,1.595,3.851,1.595
		c1.394,0,2.787-0.531,3.851-1.595c2.126-2.125,2.126-5.573,0-7.699C12.805,5.103,11.411,4.571,10.018,4.571z M12.454,12.45
		c-0.651,0.65-1.517,1.01-2.437,1.01c-0.921,0-1.785-0.357-2.436-1.009c-0.652-0.65-1.01-1.517-1.01-2.437s0.359-1.784,1.01-2.434
		c0.651-0.652,1.516-1.011,2.437-1.011c0.92,0,1.785,0.358,2.437,1.01c0.65,0.649,1.009,1.516,1.009,2.436
		C13.463,10.937,13.104,11.801,12.454,12.45z"/>
</g>
</svg>
