<?xml version="1.0" encoding="utf-8"?>
<!-- Generator: Adobe Illustrator 16.0.4, SVG Export Plug-In . SVG Version: 6.00 Build 0)  -->
<!DOCTYPE svg PUBLIC "-//W3C//DTD SVG 1.1//EN" "http://www.w3.org/Graphics/SVG/1.1/DTD/svg11.dtd">
<svg version="1.1" id="Capa_1" xmlns="http://www.w3.org/2000/svg" xmlns:xlink="http://www.w3.org/1999/xlink" x="0px" y="0px"
	 width="28.539px" height="28.736px" viewBox="0 0 28.539 28.736" enable-background="new 0 0 28.539 28.736" xml:space="preserve">
<g>
	<path d="M14.977,11.981c1.746-3.062,1.319-7.022-1.291-9.634c-3.132-3.131-8.206-3.13-11.337,0c-3.131,3.13-3.131,8.206,0,11.336
		c2.572,2.573,6.457,3.027,9.498,1.371l4.512,4.513l3.102-3.104L14.977,11.981z M11.868,11.865c-2.127,2.127-5.575,2.127-7.701,0
		c-2.127-2.125-2.127-5.573,0-7.699c2.126-2.127,5.574-2.127,7.701,0C13.994,6.292,13.994,9.74,11.868,11.865z"/>
	<path d="M28.188,23.466l-5.775-5.775c-0.471-0.472-1.241-0.472-1.711,0l-3.209,3.208c-0.471,0.471-0.471,1.241,0,1.711l5.775,5.774
		c0.471,0.472,1.239,0.472,1.711,0l3.209-3.207C28.656,24.704,28.656,23.936,28.188,23.466z"/>
</g>
</svg>
