<?xml version="1.0" encoding="utf-8"?>
<!-- Generator: Adobe Illustrator 16.0.4, SVG Export Plug-In . SVG Version: 6.00 Build 0)  -->
<!DOCTYPE svg PUBLIC "-//W3C//DTD SVG 1.1//EN" "http://www.w3.org/Graphics/SVG/1.1/DTD/svg11.dtd">
<svg version="1.1" id="Capa_1" xmlns="http://www.w3.org/2000/svg" xmlns:xlink="http://www.w3.org/1999/xlink" x="0px" y="0px"
	 width="28.457px" height="21px" viewBox="0 0 28.457 21" enable-background="new 0 0 28.457 21" xml:space="preserve">
<path d="M26.866,2.753c0.157-0.555,0.059-1.011-0.028-1.26C26.682,1.04,26.131,0,24.365,0H14.237H4.109
	C2.344,0,1.788,1.04,1.631,1.493C1.544,1.741,1.44,2.203,1.596,2.757c-0.435,0.161-0.81,0.448-1.092,0.844
	C0.172,4.068,0,4.663,0,5.326v12.216C0,19.441,1.54,21,3.442,21h10.795h10.795c1.901,0,3.425-1.559,3.425-3.458V5.326
	C28.457,3.953,27.748,3.084,26.866,2.753z M4.109,1.746h10.128h10.128c0.912,0,1.074,0.472,0.357,1.039L21.075,5.68l-6.007,4.562
	c-0.246,0.164-0.449,0.383-0.832,0.383c-0.415,0-0.509-0.156-0.832-0.382L7.407,5.689L3.751,2.785
	C3.035,2.218,3.197,1.746,4.109,1.746z M25.032,19.201H14.237H3.442c-0.913,0-1.644-0.747-1.644-1.659V5.326
	c0-0.602,0.25-0.935,0.635-0.935c0.2,0,0.428,0.088,0.677,0.277l3.202,2.434l6.599,5.02c0.536,0.44,1.317,0.414,1.326,0.414
	c0.009,0,0.804,0.026,1.328-0.414l6.611-5.028l3.192-2.424c0.248-0.189,0.489-0.278,0.69-0.278c0.383,0,0.651,0.333,0.651,0.935
	v12.215h0.002C26.712,18.454,25.945,19.201,25.032,19.201z"/>
</svg>
