<?xml version="1.0" encoding="utf-8"?>
<!-- Generator: Adobe Illustrator 16.0.4, SVG Export Plug-In . SVG Version: 6.00 Build 0)  -->
<!DOCTYPE svg PUBLIC "-//W3C//DTD SVG 1.1//EN" "http://www.w3.org/Graphics/SVG/1.1/DTD/svg11.dtd">
<svg version="1.1" id="Capa_1" xmlns="http://www.w3.org/2000/svg" xmlns:xlink="http://www.w3.org/1999/xlink" x="0px" y="0px"
	 width="20.961px" height="26.25px" viewBox="0 0 20.961 26.25" enable-background="new 0 0 20.961 26.25" xml:space="preserve">
<path d="M20.961,10.481C20.961,4.692,16.27,0,10.481,0C4.692,0,0,4.692,0,10.481c0,1.036,0.153,2.036,0.433,2.983
	C1.925,19.5,10.528,26.25,10.528,26.25s9.718-7.623,10.291-13.911l-0.023-0.005C20.902,11.732,20.961,11.114,20.961,10.481z
	 M10.624,12.815c-2.368,0-4.288-1.92-4.288-4.288c0-2.368,1.92-4.288,4.288-4.288c2.367,0,4.287,1.92,4.287,4.288
	C14.91,10.895,12.991,12.815,10.624,12.815z"/>
</svg>
