<?xml version="1.0" encoding="utf-8"?>
<!-- Generator: Adobe Illustrator 16.0.4, SVG Export Plug-In . SVG Version: 6.00 Build 0)  -->
<!DOCTYPE svg PUBLIC "-//W3C//DTD SVG 1.1//EN" "http://www.w3.org/Graphics/SVG/1.1/DTD/svg11.dtd">
<svg version="1.1" id="Capa_1" xmlns="http://www.w3.org/2000/svg" xmlns:xlink="http://www.w3.org/1999/xlink" x="0px" y="0px"
	 width="27.152px" height="29.5px" viewBox="0 0 27.152 29.5" enable-background="new 0 0 27.152 29.5" xml:space="preserve">
<g>
	<path d="M26.656,18.794c-0.644-0.368-0.969-1.646-0.722-2.838c0,0,0,0,0-1.148c0-1.204-0.011-1.252-0.011-1.252
		c-0.265-1.219,0.057-2.524,0.713-2.9c0.656-0.375,0.687-1.568,0.067-2.651l-0.67-1.171c-0.619-1.084-1.67-1.661-2.335-1.283
		c-0.665,0.376-2.009,0.052-2.988-0.723l-2.109-1.213c-1.154-0.476-2.099-1.483-2.099-2.24S15.482,0,14.234,0h-1.313
		c-1.248,0-2.269,0.609-2.269,1.354c0,0.744-0.949,1.732-2.107,2.194l-2.208,1.21c-0.976,0.778-2.29,1.12-2.92,0.76
		C2.786,5.159,1.764,5.75,1.144,6.834L0.475,8.005c-0.62,1.083-0.623,2.258-0.009,2.609c0.615,0.352,0.897,1.637,0.625,2.854
		c0,0-0.022,0.104-0.022,1.339c0,1.179,0,1.184,0,1.184c0.259,1.22-0.022,2.5-0.626,2.845c-0.604,0.346-0.59,1.514,0.029,2.596
		l0.669,1.172c0.618,1.084,1.617,1.689,2.218,1.348c0.601-0.344,1.89,0.015,2.864,0.796l2.322,1.313
		c1.157,0.467,2.105,1.431,2.105,2.144c0,0.711,1.021,1.294,2.269,1.294h1.313c1.248,0,2.269-0.592,2.269-1.316
		c0-0.724,0.942-1.707,2.096-2.188l2.226-1.316c0.976-0.777,2.293-1.119,2.927-0.759c0.633,0.36,1.658-0.229,2.278-1.313l0.67-1.172
		C27.32,20.35,27.3,19.162,26.656,18.794z M13.456,22.734c-4.443,0-8.045-3.603-8.045-8.045s3.603-8.045,8.045-8.045
		c4.443,0,8.045,3.603,8.045,8.045C21.501,19.132,17.899,22.734,13.456,22.734z"/>
	<circle cx="13.537" cy="14.609" r="3.356"/>
</g>
</svg>
