<?xml version="1.0" encoding="utf-8"?>
<!-- Generator: Adobe Illustrator 16.0.4, SVG Export Plug-In . SVG Version: 6.00 Build 0)  -->
<!DOCTYPE svg PUBLIC "-//W3C//DTD SVG 1.1//EN" "http://www.w3.org/Graphics/SVG/1.1/DTD/svg11.dtd">
<svg version="1.1" id="Capa_1" xmlns="http://www.w3.org/2000/svg" xmlns:xlink="http://www.w3.org/1999/xlink" x="0px" y="0px"
	 width="24.867px" height="24.525px" viewBox="0 0 24.867 24.525" enable-background="new 0 0 24.867 24.525" xml:space="preserve">
<path d="M24.868,2.505L24.868,2.505C24.867,1.137,23.752,0,22.385,0h-4.434c-0.652,0-1.246,0.254-1.689,0.667
	C15.816,0.254,15.225,0,14.57,0h-4.434c-0.61,0-1.17,0.224-1.603,0.59C8.102,0.223,7.542,0,6.931,0H2.498C1.129,0,0,1.137,0,2.505
	v4.435c0,0.569,0.194,1.096,0.52,1.516C0.194,8.874,0,9.399,0,9.971v4.434c0,0.61,0.223,1.17,0.59,1.603
	C0.223,16.44,0,16.999,0,17.61v4.434c0,1.368,1.129,2.481,2.498,2.481h4.433c0.611,0,1.171-0.224,1.604-0.59
	c0.433,0.366,0.992,0.59,1.603,0.59h4.434c0.652,0,1.246-0.254,1.689-0.667c0.444,0.413,1.038,0.667,1.69,0.667h4.435
	c1.366,0,2.481-1.113,2.481-2.481V17.61c0-0.611-0.224-1.17-0.591-1.604c0.367-0.433,0.591-0.991,0.591-1.603V9.971
	c0-0.571-0.194-1.098-0.521-1.518c0.325-0.42,0.521-0.945,0.521-1.516V2.505z M7.686,22.382c-0.129,0.284-0.423,0.482-0.756,0.482
	H2.497c-0.454,0-0.837-0.366-0.837-0.82V17.61c0-0.333,0.206-0.61,0.491-0.739c0.11,0.017,0.23,0.033,0.346,0.033H6.93
	c0.115,0,0.228-0.019,0.339-0.033c0.182,0.082,0.335,0.225,0.417,0.405c-0.016,0.109-0.017,0.219-0.017,0.334v4.434
	C7.669,22.158,7.67,22.271,7.686,22.382z M7.686,14.744c-0.082,0.182-0.231,0.335-0.413,0.417c-0.112-0.015-0.228-0.015-0.343-0.015
	H2.497c-0.115,0-0.235,0-0.347,0.016c-0.285-0.129-0.49-0.424-0.49-0.757V9.971c0-0.244,0.114-0.457,0.282-0.608
	c0.177,0.04,0.367,0.066,0.555,0.066H6.93c0.188,0,0.371-0.026,0.547-0.065C7.562,9.439,7.638,9.53,7.686,9.635
	C7.67,9.745,7.669,9.855,7.669,9.971v4.434C7.669,14.52,7.67,14.633,7.686,14.744z M7.686,7.277c-0.048,0.104-0.12,0.19-0.205,0.267
	C7.304,7.504,7.118,7.475,6.93,7.475H2.497c-0.188,0-0.378,0.028-0.555,0.068C1.774,7.393,1.66,7.182,1.66,6.938V2.505
	c0-0.454,0.383-0.844,0.837-0.844H6.93c0.333,0,0.627,0.209,0.756,0.494C7.67,2.267,7.669,2.391,7.669,2.505v4.435
	C7.669,7.053,7.67,7.167,7.686,7.277z M15.389,22.044c0,0.454-0.363,0.82-0.818,0.82h-4.434c-0.332,0-0.61-0.198-0.739-0.482
	c0.015-0.11,0.031-0.224,0.031-0.338V17.61c0-0.115-0.017-0.229-0.031-0.338c0.082-0.183,0.224-0.319,0.405-0.401
	c0.111,0.017,0.22,0.033,0.334,0.033h4.434c0.115,0,0.227-0.018,0.337-0.033c0.284,0.129,0.481,0.406,0.481,0.739V22.044z
	 M15.389,14.404c0,0.333-0.195,0.628-0.48,0.757c-0.112-0.015-0.223-0.015-0.34-0.015h-4.434c-0.114,0-0.228,0-0.338,0.015
	c-0.182-0.082-0.319-0.23-0.402-0.413c0.016-0.11,0.032-0.228,0.032-0.343V9.971c0-0.115-0.017-0.229-0.031-0.34
	c0.047-0.104,0.113-0.193,0.198-0.269c0.176,0.039,0.354,0.065,0.542,0.065h4.434c0.188,0,0.369-0.026,0.546-0.066
	c0.168,0.151,0.272,0.364,0.272,0.608V14.404z M15.389,6.939c0,0.243-0.104,0.454-0.272,0.604c-0.177-0.04-0.357-0.068-0.546-0.068
	h-4.434c-0.188,0-0.37,0.028-0.546,0.067C9.505,7.468,9.443,7.378,9.396,7.272c0.015-0.11,0.031-0.221,0.031-0.334V2.505
	c0-0.113-0.017-0.237-0.032-0.35c0.13-0.285,0.409-0.494,0.741-0.494h4.434c0.455,0,0.818,0.39,0.818,0.844V6.939z M23.205,22.044
	c0,0.454-0.368,0.82-0.821,0.82H17.95c-0.454,0-0.804-0.366-0.804-0.82V17.61c0-0.333,0.188-0.61,0.475-0.739
	c0.111,0.017,0.215,0.033,0.329,0.033h4.434c0.114,0,0.228-0.019,0.339-0.033c0.284,0.129,0.482,0.406,0.482,0.739V22.044z
	 M23.205,14.405c0,0.333-0.198,0.627-0.482,0.756c-0.111-0.015-0.225-0.015-0.339-0.015H17.95c-0.114,0-0.218,0-0.329,0.016
	c-0.285-0.129-0.475-0.424-0.475-0.757V9.971c0-0.244,0.098-0.457,0.267-0.608c0.176,0.04,0.351,0.066,0.537,0.066h4.434
	c0.188,0,0.37-0.026,0.546-0.065c0.17,0.15,0.275,0.363,0.275,0.607V14.405z M23.205,6.939c0,0.243-0.105,0.454-0.275,0.604
	c-0.176-0.039-0.357-0.067-0.546-0.067H17.95c-0.188,0-0.361,0.028-0.537,0.068c-0.169-0.15-0.267-0.361-0.267-0.604V2.505
	c0-0.454,0.35-0.844,0.804-0.844h4.434c0.453,0,0.821,0.39,0.821,0.844V6.939z"/>
</svg>
