<?xml version="1.0" encoding="utf-8"?>
<!-- Generator: Adobe Illustrator 18.0.0, SVG Export Plug-In . SVG Version: 6.00 Build 0)  -->
<!DOCTYPE svg PUBLIC "-//W3C//DTD SVG 1.1//EN" "http://www.w3.org/Graphics/SVG/1.1/DTD/svg11.dtd">
<svg version="1.1" id="Layer_1" xmlns="http://www.w3.org/2000/svg" xmlns:xlink="http://www.w3.org/1999/xlink" x="0px" y="0px"
	 viewBox="0 0 81.5 75" style="enable-background:new 0 0 81.5 75;" xml:space="preserve">
<style type="text/css">
	.st0{fill:#E9B600;}
	.st1{fill:#231F20;}
</style>
<path class="st0" d="M64.6,17.5c-2-2.3-2.8-5.3-2.5-8.1c-2.6,1.1-5.7,1.2-8.5,0c-2.8-1.2-4.8-3.5-5.8-6.1c-1.9,2.1-4.6,3.5-7.6,3.6
	c-3.1,0.1-5.9-1.1-7.9-3.1c-0.8,2.8-2.6,5.2-5.3,6.6c-2.7,1.4-5.7,1.6-8.4,0.7c0.5,2.8-0.2,5.7-2,8.2c-1.8,2.5-4.5,3.9-7.4,4.3
	c1.7,2.3,2.4,5.3,1.9,8.3c-0.6,3-2.4,5.5-4.8,7c2.5,1.4,4.5,3.7,5.3,6.7c0.8,2.9,0.3,5.9-1.2,8.3c2.8,0.2,5.6,1.4,7.5,3.7
	c2,2.3,2.8,5.3,2.5,8.1c2.6-1.1,5.7-1.2,8.5,0c2.8,1.2,4.8,3.5,5.8,6.1c1.9-2.1,4.6-3.5,7.6-3.6c3.1-0.1,5.9,1.1,7.9,3.1
	c0.8-2.8,2.6-5.2,5.3-6.6c2.7-1.4,5.7-1.6,8.4-0.7c-0.5-2.8,0.1-5.7,2-8.2c1.8-2.5,4.5-3.9,7.4-4.3c-1.7-2.3-2.4-5.3-1.9-8.3
	c0.6-3,2.4-5.5,4.8-7c-2.5-1.3-4.5-3.7-5.3-6.7c-0.8-2.9-0.3-5.9,1.2-8.3C69.3,21.1,66.5,19.8,64.6,17.5z"/>
<path class="st1" d="M22,38.2v6.2c-1.1,0-2.2,0-3.3,0V31.7h1.2l6.4,6.2v-6.2c1.1,0,2.2,0,3.3,0v12.6h-1.2L22,38.2z"/>
<path class="st1" d="M33.7,38.1c0-8.7,12.9-8.7,12.9,0C46.6,46.8,33.7,46.8,33.7,38.1z M43.3,38.1c0-4.5-6.3-4.5-6.3,0
	C37,42.6,43.3,42.6,43.3,38.1z"/>
<path class="st1" d="M58.5,31.9l2.1,6.7h0.1l0.6-2.1l1.6-4.8h3.2v0.5l-4.4,12.2h-1.9l-2-6.1h-0.1l-2,6.1H54l-4.4-12.2v-0.5h3.3
	l1.6,4.8l0.6,2.1H55l2.1-6.7C57.6,31.9,58,31.9,58.5,31.9z"/>
</svg>
