<?xml version="1.0" encoding="utf-8"?>
<!-- Generator: Adobe Illustrator 16.0.4, SVG Export Plug-In . SVG Version: 6.00 Build 0)  -->
<!DOCTYPE svg PUBLIC "-//W3C//DTD SVG 1.1//EN" "http://www.w3.org/Graphics/SVG/1.1/DTD/svg11.dtd">
<svg version="1.1" id="Capa_1" xmlns="http://www.w3.org/2000/svg" xmlns:xlink="http://www.w3.org/1999/xlink" x="0px" y="0px"
	 width="19.132px" height="30.713px" viewBox="0 0 19.132 30.713" enable-background="new 0 0 19.132 30.713" xml:space="preserve">
<g>
	<path d="M17.003,0H2.128C0.955,0,0,0.955,0,2.129v26.457c0,1.173,0.955,2.127,2.128,2.127h14.875c1.174,0,2.129-0.954,2.127-2.127
		V2.129C19.13,0.955,18.177,0,17.003,0z M17.13,28.586c0,0.07-0.057,0.127-0.127,0.127H2.128C2.058,28.713,2,28.656,2,28.586V2.129
		C2,2.058,2.058,2,2.128,2h14.875c0.07,0,0.129,0.058,0.127,0.129V28.586z"/>
	<path d="M14.611,4.519H4.521c-0.478,0-0.866,0.412-0.866,0.919V22.14c0,0.506,0.388,0.918,0.866,0.918h10.09
		c0.479,0,0.866-0.412,0.866-0.918V5.438C15.477,4.931,15.089,4.519,14.611,4.519z M14.393,21.875H4.738V5.701h9.655V21.875z"/>
</g>
</svg>
