<?xml version="1.0" encoding="utf-8"?>
<!-- Generator: Adobe Illustrator 16.0.4, SVG Export Plug-In . SVG Version: 6.00 Build 0)  -->
<!DOCTYPE svg PUBLIC "-//W3C//DTD SVG 1.1//EN" "http://www.w3.org/Graphics/SVG/1.1/DTD/svg11.dtd">
<svg version="1.1" id="Capa_1" xmlns="http://www.w3.org/2000/svg" xmlns:xlink="http://www.w3.org/1999/xlink" x="0px" y="0px"
	 width="26.547px" height="26.27px" viewBox="0 0 26.547 26.27" enable-background="new 0 0 26.547 26.27" xml:space="preserve">
<g>
	<path d="M25.338,0H1.198C0.53,0,0,0.563,0,1.232v23.811c0,0.669,0.53,1.228,1.198,1.228h24.14c0.668,0,1.209-0.559,1.209-1.228
		V1.232C26.547,0.563,26.006,0,25.338,0z M25.16,24.837H1.387V1.433H25.16V24.837z"/>
	<path d="M3.126,20.627h19.972c0.627,0,1.139-0.509,1.139-1.137V3.312h-0.002c0-0.628-0.51-1.139-1.139-1.139H3.126
		c-0.628,0-1.137,0.511-1.137,1.139V19.49C1.989,20.118,2.498,20.627,3.126,20.627z M3.375,3.562h19.52V19.24H3.375V3.562z"/>
	<path d="M6.99,10.224c1.533,0,2.775-1.243,2.775-2.773c0-1.532-1.242-2.775-2.775-2.775c-1.532,0-2.775,1.243-2.775,2.775
		C4.215,8.98,5.458,10.224,6.99,10.224z M6.99,5.585c1.027,0,1.864,0.836,1.864,1.864c0,1.027-0.836,1.863-1.864,1.863
		c-1.028,0-1.864-0.835-1.864-1.863C5.126,6.42,5.963,5.585,6.99,5.585z"/>
	<path d="M16.911,8.86c-0.25-0.444-0.588-0.669-0.931-0.669c-0.33,0-0.664,0.207-0.924,0.623l-2.615,4.177
		c-0.348,0.556-0.923,0.862-1.49,0.862c-0.301,0-0.599-0.086-0.861-0.264C9.802,13.394,9.46,13.3,9.11,13.3
		c-0.581,0-1.183,0.257-1.585,0.731l-2.604,3.074C4.272,17.871,4.562,18.5,5.564,18.5h14.907c1.002,0,1.422-0.721,0.934-1.597
		L16.911,8.86z M20.473,17.575H5.709l2.509-2.956c0.216-0.253,0.558-0.411,0.892-0.411c0.18,0,0.341,0.046,0.469,0.134
		c0.405,0.275,0.88,0.422,1.374,0.422c0.911,0,1.757-0.481,2.263-1.291l2.613-4.175c0.062-0.103,0.116-0.153,0.147-0.178
		c0.031,0.024,0.082,0.081,0.141,0.185l4.492,8.038c0.055,0.097,0.076,0.165,0.084,0.205C20.652,17.562,20.583,17.575,20.473,17.575
		z"/>
</g>
</svg>
