<?xml version="1.0" encoding="utf-8"?>
<!-- Generator: Adobe Illustrator 16.0.4, SVG Export Plug-In . SVG Version: 6.00 Build 0)  -->
<!DOCTYPE svg PUBLIC "-//W3C//DTD SVG 1.1//EN" "http://www.w3.org/Graphics/SVG/1.1/DTD/svg11.dtd">
<svg version="1.1" id="Capa_1" xmlns="http://www.w3.org/2000/svg" xmlns:xlink="http://www.w3.org/1999/xlink" x="0px" y="0px"
	 width="22.961px" height="28.52px" viewBox="0 0 22.961 28.52" enable-background="new 0 0 22.961 28.52" xml:space="preserve">
<g>
	<path d="M11.481,0C5.15,0,0,5.15,0,11.481c0,1.103,0.16,2.201,0.463,3.225c1.556,6.297,10.086,13.048,10.448,13.332l0.617,0.482
		l0.617-0.483c0.41-0.322,10.065-7.963,10.67-14.606l0.014-0.22c0.089-0.578,0.133-1.158,0.133-1.729C22.961,5.15,17.811,0,11.481,0
		z M20.809,13.156l-0.147,0.97l0.019,0.004c-1.087,4.722-7.178,10.163-9.152,11.824C9.571,24.307,3.57,18.942,2.392,14.18
		C2.132,13.299,2,12.391,2,11.481C2,6.253,6.253,2,11.481,2c5.227,0,9.48,4.253,9.479,9.479
		C20.96,12.033,20.91,12.596,20.809,13.156z"/>
	<path d="M11.624,4.24c-2.916,0-5.288,2.371-5.288,5.287s2.372,5.288,5.288,5.288c2.915,0,5.287-2.372,5.287-5.288
		S14.539,4.24,11.624,4.24z M11.624,12.815c-1.813,0-3.288-1.475-3.288-3.288c0-1.812,1.475-3.287,3.288-3.287
		c1.812,0,3.287,1.475,3.287,3.287C14.911,11.34,13.436,12.815,11.624,12.815z"/>
</g>
</svg>
