<?xml version="1.0" encoding="utf-8"?>
<!-- Generator: Adobe Illustrator 16.0.4, SVG Export Plug-In . SVG Version: 6.00 Build 0)  -->
<!DOCTYPE svg PUBLIC "-//W3C//DTD SVG 1.1//EN" "http://www.w3.org/Graphics/SVG/1.1/DTD/svg11.dtd">
<svg version="1.1" id="Capa_1" xmlns="http://www.w3.org/2000/svg" xmlns:xlink="http://www.w3.org/1999/xlink" x="0px" y="0px"
	 width="27.904px" height="22.161px" viewBox="0 0 27.904 22.161" enable-background="new 0 0 27.904 22.161" xml:space="preserve">
<g>
	<path d="M27.468,3.361c-0.592-0.835-1.607-1.13-2.297-1.13L10.378,2.206l-0.123-0.462c-0.417-1.73-2.108-1.719-2.664-1.719H3.093
		c-0.053,0-0.115-0.013-0.182-0.015C2.802,0.008,2.684,0,2.563,0C2.12,0,1.782,0.032,1.485,0.112C0.396,0.404,0,1.266,0,1.917v1.718
		c0,0.314,0.124,1.883,2.406,1.883c0.157,0,0.32-0.026,0.467-0.032c0.086-0.003,0.17-0.027,0.235-0.027h2.564L8.111,15.5
		c-0.389,0.619-0.579,1.301-0.579,2.041c0,2.49,1.852,4.444,4.216,4.444c1.461,0,2.799-0.586,3.564-1.565h3.754
		c0.677,0.979,1.897,1.742,3.611,1.742c1.136,0,2.25-0.496,3.057-1.363c0.822-0.879,1.245-2.062,1.163-3.242
		c-0.103-1.475-0.817-2.622-1.953-3.271l2.814-8.616C28.028,4.896,27.921,4.001,27.468,3.361z M26.266,5.181l-2.833,8.661
		c-0.142,0.386-0.299,1.057-1.097,1.057H11.751l0.042,0.242c1.002,0.005,1.877,0.549,2.357,1.35l6.028,0.047
		c0.479-0.828,1.372-1.386,2.397-1.386c0.546,0,1.055,0.159,1.482,0.433c0.005,0.003,0.009,0.007,0.014,0.01
		c-0.005-0.003-0.008-0.007-0.012-0.01c0.769,0.388,1.19,1.107,1.267,2.039c-0.002-0.021-0.011-0.039-0.014-0.059
		c0.003,0.021,0.01,0.039,0.012,0.061c0.01,0.097,0.016,0.193,0.016,0.293c0,1.527-1.238,2.748-2.765,2.748
		c-1.2,0-2.221-0.779-2.604-1.849h-5.589c-0.043,0.267-0.146,0.419-0.298,0.606c-0.495,0.748-1.343,1.25-2.309,1.25
		c-1.526,0-2.765-1.232-2.765-2.762c0-0.302,0.049-0.588,0.139-0.861c0.096-0.438,0.32-0.805,0.661-1.166L6.908,3.943h-3.8
		c-0.182,0-0.434,0.011-0.688,0.011C2,3.954,1.603,3.897,1.603,3.635V1.917c0-0.306,0.502-0.369,0.967-0.369
		c0.199,0,0.384-0.009,0.522-0.009h4.499c0.688,0,1.028,0.093,1.144,0.571l0.428,1.655L25.17,3.798c0.118,0,0.722,0.054,1.015,0.469
		C26.301,4.429,26.408,4.772,26.266,5.181z"/>
	<path d="M25.314,17.565c-0.089-0.896-0.5-1.59-1.241-1.971C24.741,16.025,25.208,16.739,25.314,17.565z"/>
	<path d="M11.015,17.667c-0.026,0.078-0.041,0.164-0.041,0.252c0,0.443,0.361,0.806,0.806,0.806c0.281,0,0.528-0.146,0.673-0.362
		c0.084-0.127,0.133-0.279,0.133-0.443c0-0.15-0.042-0.293-0.114-0.414c-0.14-0.232-0.395-0.391-0.687-0.392
		c-0.001,0-0.002,0-0.005,0C11.423,17.112,11.121,17.345,11.015,17.667z"/>
	<path d="M22.577,18.813c0.494,0,0.895-0.4,0.895-0.895c0-0.033-0.002-0.064-0.005-0.097c-0.029-0.276-0.186-0.517-0.41-0.659
		c-0.139-0.088-0.303-0.14-0.479-0.14c-0.332,0-0.621,0.181-0.775,0.448c-0.076,0.132-0.119,0.283-0.119,0.445
		c0,0.106,0.02,0.209,0.052,0.304C21.859,18.566,22.19,18.813,22.577,18.813z"/>
</g>
</svg>
