<?xml version="1.0" encoding="utf-8"?>
<!-- Generator: Adobe Illustrator 16.0.4, SVG Export Plug-In . SVG Version: 6.00 Build 0)  -->
<!DOCTYPE svg PUBLIC "-//W3C//DTD SVG 1.1//EN" "http://www.w3.org/Graphics/SVG/1.1/DTD/svg11.dtd">
<svg version="1.1" id="Capa_1" xmlns="http://www.w3.org/2000/svg" xmlns:xlink="http://www.w3.org/1999/xlink" x="0px" y="0px"
	 width="26.561px" height="25.375px" viewBox="0 0 26.561 25.375" enable-background="new 0 0 26.561 25.375" xml:space="preserve">
<path d="M26.438,23.247l-2.059-5.625c0.642-1.517,0.995-3.185,0.995-4.934C25.375,5.68,19.695,0,12.688,0S0,5.68,0,12.688
	c0,7.007,5.681,12.688,12.688,12.688c3.006,0,5.763-1.051,7.937-2.797l4.639,1.817C26.287,24.796,26.816,24.279,26.438,23.247z
	 M6.375,14.312c-0.896,0-1.625-0.729-1.625-1.625s0.729-1.625,1.625-1.625C7.272,11.062,8,11.79,8,12.688S7.272,14.312,6.375,14.312
	z M12.375,14.312c-0.896,0-1.625-0.729-1.625-1.625s0.729-1.625,1.625-1.625c0.897,0,1.625,0.728,1.625,1.626
	S13.272,14.312,12.375,14.312z M18.375,14.312c-0.896,0-1.625-0.729-1.625-1.625s0.729-1.625,1.625-1.625
	c0.897,0,1.625,0.728,1.625,1.626S19.272,14.312,18.375,14.312z"/>
</svg>
