<?xml version="1.0" encoding="utf-8"?>
<!-- Generator: Adobe Illustrator 18.0.0, SVG Export Plug-In . SVG Version: 6.00 Build 0)  -->
<!DOCTYPE svg PUBLIC "-//W3C//DTD SVG 1.1//EN" "http://www.w3.org/Graphics/SVG/1.1/DTD/svg11.dtd">
<svg version="1.1" id="Layer_1" xmlns="http://www.w3.org/2000/svg" xmlns:xlink="http://www.w3.org/1999/xlink" x="0px" y="0px"
	 viewBox="0 0 54 50" style="enable-background:new 0 0 54 50;" xml:space="preserve">
<style type="text/css">
	.st0{fill:#FFFFFF;}
	.st1{fill:#00FFB2;}
</style>
<g>
	<g>
		<g>
			<path class="st0" d="M41.1,42.9h-4.4v-0.8h4.4c2.7,0,4.8-2.2,4.8-4.8V13.2c0-2.6-2.2-4.8-4.8-4.8h-4.4V7.6h4.4
				c3.1,0,5.6,2.5,5.6,5.6v24.1C46.7,40.4,44.2,42.9,41.1,42.9z"/>
		</g>
		<g>
			<path class="st0" d="M15.2,7.6h4.5v0.8h-4.5c-2.6,0-4.8,2.2-4.8,4.8v24.1c0,2.6,2.2,4.8,4.8,4.8h4.5v0.8h-4.5
				c-3.1,0-5.6-2.5-5.6-5.6V13.2C9.6,10.1,12.1,7.6,15.2,7.6z"/>
		</g>
	</g>
	<g>
		<g>
			<rect x="17.7" y="12.2" class="st1" width="20.8" height="1.7"/>
		</g>
		<g>
			<polygon class="st1" points="31.4,39.2 31.4,12.8 31.2,13.2 31.2,13 24.9,12.6 24.9,39.2 			"/>
		</g>
	</g>
</g>
</svg>
