<?xml version="1.0" encoding="utf-8"?>
<!-- Generator: Adobe Illustrator 16.0.4, SVG Export Plug-In . SVG Version: 6.00 Build 0)  -->
<!DOCTYPE svg PUBLIC "-//W3C//DTD SVG 1.1//EN" "http://www.w3.org/Graphics/SVG/1.1/DTD/svg11.dtd">
<svg version="1.1" id="Capa_1" xmlns="http://www.w3.org/2000/svg" xmlns:xlink="http://www.w3.org/1999/xlink" x="0px" y="0px"
	 width="26.143px" height="32.018px" viewBox="0 0 26.143 32.018" enable-background="new 0 0 26.143 32.018" xml:space="preserve">
<g>
	<path d="M23.775,0H2.296C1.138,0,0,1.19,0,2.404v27.177c0,1.104,1.023,2.437,2.296,2.437h21.479c1.174,0,2.368-1.23,2.367-2.437
		V2.404C26.142,1.214,24.948,0,23.775,0z M23.754,30.016L2.336,30.02C2.211,29.981,2.007,29.714,2,29.581V2.406
		C2.008,2.279,2.206,2.03,2.296,2l21.457-0.002c0.133,0.029,0.37,0.283,0.39,0.406l0.001,27.166
		C24.124,29.708,23.893,29.972,23.754,30.016z"/>
	<path d="M3.99,4.371l-0.072,20.01h18.098V4.371H3.99z M20.814,23.26H5.131l0.062-17.77h15.62V23.26z"/>
</g>
</svg>
