<?xml version="1.0" encoding="utf-8"?>
<!-- Generator: Adobe Illustrator 16.0.4, SVG Export Plug-In . SVG Version: 6.00 Build 0)  -->
<!DOCTYPE svg PUBLIC "-//W3C//DTD SVG 1.1//EN" "http://www.w3.org/Graphics/SVG/1.1/DTD/svg11.dtd">
<svg version="1.1" id="Capa_1" xmlns="http://www.w3.org/2000/svg" xmlns:xlink="http://www.w3.org/1999/xlink" x="0px" y="0px"
	 width="25.73px" height="24.957px" viewBox="0 0 25.73 24.957" enable-background="new 0 0 25.73 24.957" xml:space="preserve">
<g>
	<path d="M24.408,0.21L0.706,12.639c-0.975,0.511-0.935,1.26,0.088,1.665l3.026,1.197c1.021,0.404,2.569,0.184,3.437-0.494
		L20.4,4.643c0.864-0.681,0.957-0.58,0.206,0.224L10.216,15.99c-0.753,0.801-0.529,1.783,0.495,2.182l0.354,0.138
		c1.024,0.397,2.698,1.062,3.717,1.478l3.357,1.366c1.019,0.415,1.853,0.759,1.854,0.765c0,0.006,0.006,0.025,0.011,0.026
		c0.005,0.002,0.246-0.864,0.534-1.926l5.117-18.806C25.943,0.15,25.383-0.3,24.408,0.21z"/>
	<path d="M10.324,19.433l-2.322-0.95c-1.018-0.417-1.506,0.072-1.084,1.089c0.001,0,2.156,5.194,2.096,5.377
		c-0.062,0.182,2.068-3.082,2.068-3.082C11.684,20.945,11.342,19.85,10.324,19.433z"/>
</g>
</svg>
