<?xml version="1.0" encoding="utf-8"?>
<!-- Generator: Adobe Illustrator 16.0.4, SVG Export Plug-In . SVG Version: 6.00 Build 0)  -->
<!DOCTYPE svg PUBLIC "-//W3C//DTD SVG 1.1//EN" "http://www.w3.org/Graphics/SVG/1.1/DTD/svg11.dtd">
<svg version="1.1" id="Capa_1" xmlns="http://www.w3.org/2000/svg" xmlns:xlink="http://www.w3.org/1999/xlink" x="0px" y="0px"
	 width="26.648px" height="25.957px" viewBox="0 0 26.648 25.957" enable-background="new 0 0 26.648 25.957" xml:space="preserve">
<path d="M26.157,0.892C25.723,0.325,25.05,0,24.31,0c-0.478,0-0.973,0.133-1.472,0.395L1.593,11.534
	c-1.51,0.793-1.615,1.987-1.59,2.463c0.024,0.479,0.255,1.654,1.839,2.283l2.715,1.074c0.515,0.204,1.091,0.309,1.711,0.309
	c0.098,0,0.192-0.013,0.289-0.018C6.52,17.693,6.475,17.73,6.441,17.78c-0.506,0.757-0.531,1.783-0.073,2.888
	c0.007,0.019,0.014,0.035,0.021,0.051c0.803,1.779,1.696,3.787,1.804,4.066c0.266,0.694,0.944,1.172,1.688,1.172
	c1.146,0,1.486-0.552,3.361-3.604c0.146-0.224,0.471-0.744,0.526-1.406c0.219,0.089,0.425,0.171,0.601,0.242l3.008,1.226
	c0.603,0.246,1.131,0.463,1.409,0.578c0.086,0.053,0.177,0.098,0.272,0.137c0.212,0.084,0.438,0.127,0.665,0.127
	c1.368,0,1.696-1.185,1.872-1.82c0.087-0.314,0.207-0.749,0.336-1.229L26.519,3.35C26.865,2.077,26.44,1.264,26.157,0.892z
	 M11.727,21.393c0,0-1.702,2.771-1.847,2.771c-0.004,0-0.006-0.002-0.008-0.006c-0.167-0.449-1.849-4.176-1.849-4.176
	c-0.31-0.747-0.254-1.387,0.279-1.387c0.117,0,0.257,0.031,0.421,0.099l1.306,0.679c0.218,0.149,0.456,0.278,0.718,0.381
	l0.066,0.025l0.123,0.062C11.945,20.375,12.266,20.568,11.727,21.393z M24.789,2.878l-4.586,16.858
	c-0.259,0.95-0.475,1.727-0.479,1.727c-0.004-0.002-0.009-0.02-0.009-0.023c0-0.006-0.748-0.312-1.662-0.686l-3.01-1.226
	c-0.914-0.37-2.413-0.969-3.332-1.323l-0.152-0.061l-0.562-0.292c-0.557-0.427-0.606-1.131-0.046-1.728l9.312-9.971
	c0.374-0.399,0.515-0.605,0.434-0.605c-0.064,0-0.271,0.133-0.617,0.404L8.298,15.246c-0.514,0.401-1.295,0.625-2.029,0.625
	c-0.376,0-0.741-0.06-1.052-0.183l-2.713-1.073c-0.917-0.363-0.952-1.033-0.079-1.493L23.672,1.981
	c0.245-0.128,0.46-0.188,0.638-0.188C24.767,1.793,24.975,2.193,24.789,2.878z"/>
</svg>
