<?xml version="1.0" encoding="utf-8"?>
<!-- Generator: Adobe Illustrator 18.0.0, SVG Export Plug-In . SVG Version: 6.00 Build 0)  -->
<!DOCTYPE svg PUBLIC "-//W3C//DTD SVG 1.1//EN" "http://www.w3.org/Graphics/SVG/1.1/DTD/svg11.dtd">
<svg version="1.1" id="Layer_1" xmlns="http://www.w3.org/2000/svg" xmlns:xlink="http://www.w3.org/1999/xlink" x="0px" y="0px"
	 viewBox="0 0 132.3 90.8" style="enable-background:new 0 0 132.3 90.8;" xml:space="preserve">
<style type="text/css">
	.st0{fill:#5E90A7;}
	.st1{fill:#B3CDD0;}
	.st2{fill:#749FB4;}
	.st3{fill:#3E7C93;}
	.st4{fill:#647882;}
	.st5{fill:#467081;}
	.st6{fill:none;stroke:#000000;stroke-linecap:round;stroke-linejoin:round;}
</style>
<g>
	<g>
		<g>
			<polygon class="st0" points="81.6,63.2 78.2,61.5 77.1,62.7 80.8,64.7 78.8,67.9 81,69.4 83.1,66.1 87.7,68.2 88.7,66.8 84,64.9 
				85.8,61 83.8,60.1 			"/>
			<path class="st1" d="M18.6,40.4l-5.5,4.4l12.6,4.8l26.1,10L33.6,47.5c-1,0.1-1.6,0.1-2,0.1c-1.2,0-1.7-0.3-1.9-0.8
				c0-0.2,0.3-0.6,0.9-1.3L22.1,42c-0.4,0.9-0.5,1.4-0.5,1.6c0.2,0.5,0.7,0.8,1.8,0.8c0.9,0.1,1.8,0,2.8-0.2c-1,0.2-1.9,0.3-2.8,0.2
				c-1.1,0-1.6-0.3-1.8-0.8c0-0.2,0.1-0.7,0.5-1.6L18.6,40.4z"/>
			<path class="st1" d="M33.6,47.5l-3-2c-0.6,0.6-0.9,1.1-0.9,1.3c0.2,0.5,0.7,0.8,1.9,0.8C31.9,47.6,32.6,47.6,33.6,47.5z"/>
			<polygon class="st1" points="25.7,49.6 23.4,53.1 54.1,61.1 51.8,59.6 			"/>
			<polygon class="st0" points="68.1,58.2 71,55.4 69.2,54.3 66.2,57.4 63.9,55.8 62.7,57 65.2,58.6 62,61.7 63.7,62.7 67.1,59.6 
				72.2,62 73.3,61 			"/>
			<path class="st2" d="M48,26.6l-18.8-0.2L54.4,35L74.9,44l1.2,0.4l1.4-1.3l13.7-2.7l11.1-9l7.5-7.7l-18.1-6.3l-18.1-2.5
				c-0.3,0.3-0.5,0.5-0.7,0.6c-1,0.5-2,1-2.9,1.5c-1,0.5-2,1.1-3,1.6c-1,0.5-2,0.9-3.1,1.4c-0.5,0.3-1.1,0.5-1.7,0.7
				c-1,0.4-1.8,0.8-2.6,1.4c-1,0.7-2,1.3-3,1.7c-1.1,0.5-2.1,1.1-3,1.8c-1,0.6-2,1.4-3,2c-0.2-0.2-0.4-0.3-0.5-0.3
				c-1.2,0-2.4,0-3.5-0.1c-1.2,0-2.4-0.1-3.5-0.1c-1.1-0.1-2.3,0-3.4,0.1c-1,0.2-2.1,0.2-3.2,0.1c-1.1,0-2.1-0.1-3.2-0.3
				c1.1,0.2,2.1,0.3,3.2,0.3c1.1,0.1,2.2,0.1,3.2-0.1c1.2-0.1,2.4-0.2,3.4-0.1c1.2,0,2.4,0.1,3.5,0.1c1.2,0.1,2.4,0.1,3.5,0.1
				c0.2,0,0.4,0.1,0.5,0.3c1-0.6,2-1.4,3-2c0.9-0.7,1.9-1.3,3-1.8c1-0.5,2-1,3-1.7c0.8-0.5,1.6-1,2.6-1.4c0.6-0.2,1.2-0.5,1.7-0.7
				c1.1-0.5,2.1-1,3.1-1.4c1-0.5,2-1.1,3-1.6c0.9-0.5,1.9-1.1,2.9-1.5c0.2-0.2,0.5-0.4,0.7-0.6l-1.3-0.2L62.6,19L48,26.6 M104.7,24
				l1,0.4L106,24l-0.3,0.4l-6.8,6.2h-0.3c-0.3,0.3-0.5,0.4-0.5,0.5l-11,8.7h-0.8h0.8l11-8.7c0-0.1,0.2-0.2,0.5-0.5h0.3l6.8-6.2
				L104.7,24v-0.2l-6.1-2.4L90,28.3c1,0.5,1.7,1.4,2.2,2.6c0.4,0.8,0.4,1.6,0.2,2.5c0.2-0.9,0.2-1.7-0.2-2.5
				c-0.5-1.2-1.2-2.1-2.2-2.6l8.7-6.8l6.1,2.4V24 M74.8,17.1c-0.5-0.2-0.8-0.4-0.9-0.6c0-0.1,0.2-0.3,0.4-0.4
				c0.1-0.1,0.2-0.2,0.4-0.2c0.9-0.2,1.4,0.1,1.3,0.7C75.8,17.1,75.5,17.2,74.8,17.1 M68.3,20.3c0-0.3,0-0.5,0-0.8
				c1,0.5,2.1,0.8,3.2,1.1c-1.1-0.3-2.2-0.6-3.2-1.1C68.3,19.8,68.3,20,68.3,20.3 M83.4,17.5c0.4,0.1,0.7,0.2,1.1,0.5
				C84.2,17.7,83.8,17.6,83.4,17.5 M79.6,23.4c-1.2,0-2.3-0.1-3.3-0.5c-1-0.4-2-0.5-3-0.5c1,0,2,0.1,3,0.5
				C77.4,23.3,78.5,23.4,79.6,23.4c1.1-0.1,2.3,0,3.3,0.3c1.3,0.2,2.3,0.6,3.1,1.3c-0.8-0.6-1.8-1.1-3.1-1.3
				C81.9,23.4,80.7,23.3,79.6,23.4 M90.9,19c0.4,0,0.5,0.1,0.8,0.3C91.4,19.1,91.2,19,90.9,19 M86,21.2c0.3-0.5,0.5-0.7,0.8-0.9
				c0.2-0.2,0.4-0.3,0.5-0.3c1.2-0.3,2.3-0.3,3.4-0.2c1.4,0.2,2.2,0.9,2.4,2.2c0.1,0.3,0,0.6-0.3,0.8c-0.6,0.7-1.6,1.1-2.8,1.4
				c-1.3,0.2-2.3,0-3.3-0.5C85.7,22.9,85.4,22.1,86,21.2 M86.4,18.1c0.6,0.2,1.3,0.4,2,0.5C87.7,18.5,87.1,18.3,86.4,18.1
				 M81.5,34.8c0.7,0.9,1.6,1.3,2.6,0.9c0.5,1.3,0.9,2.7,1.2,4.2c-0.3-1.4-0.7-2.9-1.2-4.2C83.1,36.1,82.2,35.7,81.5,34.8
				 M72.3,32.6c-0.7,0.2-1.4,0.5-1.9,1.1C71,33.2,71.6,32.8,72.3,32.6 M67.1,32.4c0.3,0.3,0.5,0.5,0.8,0.9
				C67.7,33,67.4,32.7,67.1,32.4 M66.8,31.2c0.5-0.3,1.3-0.5,2-0.5C68.1,30.7,67.3,30.9,66.8,31.2 M94.3,20.1
				c0.4,0.1,0.6,0.2,0.9,0.3C94.9,20.3,94.7,20.2,94.3,20.1 M78.4,21.2c-1.4-0.5-1.5-0.9-0.5-1.4c-0.2-0.5,0.3-0.8,1.3-0.8
				c0-0.1,0-0.1,0.1-0.2c0.1-0.3,0.2-0.5,0.4-0.7c1.2-1.3,2.4-0.9,3.5,1.1c-0.6,0.5-1.5,0.9-2.7,1.4c-0.2,0.1-0.5,0.3-0.6,0.4
				C79.4,21.3,78.9,21.4,78.4,21.2 M57.1,25.4c0-0.1,0.1-0.3,0.2-0.4c0.2-0.3,0.4-0.5,0.7-0.5c0.1-0.1,0.2-0.1,0.2-0.1
				c0.3-0.3,0.4-0.5,0.4-0.8c0.3,0.2,0.5,0.4,0.6,0.5c1.2-0.4,2.4-0.7,3.4-1.1c0.7,0,1.1,0.4,1,0.9c0.9,0,1.9-0.5,2.9-1.3
				c0.4-0.3,0.7-0.4,1.1-0.1c1.1,0.9,2.3,1.1,3.3,0.5c0.5-0.2,0.9-0.2,1.4,0.1c0.4,0.2,0.5,0.5,0.6,0.7c-0.1-0.3-0.3-0.5-0.6-0.7
				c-0.5-0.3-0.9-0.3-1.4-0.1c-1.1,0.6-2.3,0.5-3.3-0.5c-0.4-0.3-0.7-0.2-1.1,0.1c-1,0.8-2,1.3-2.9,1.3c0,0.1,0,0.2-0.1,0.4
				c0,0.3-0.2,0.5-0.5,0.5c0.5,0.5,0.7,1,0.5,1.6c0,0.1,0,0.2,0,0.2c0.8-0.4,1.6-0.7,2.5-1c1-0.3,2-0.5,2.9-0.8c1-0.3,2-0.5,2.9-0.6
				C71,24.3,70,24.5,69,24.8c-0.9,0.3-1.9,0.5-2.9,0.8c-0.9,0.3-1.7,0.6-2.5,1C63.4,26.8,63.3,27,63,27c-0.2,0.1-0.4,0.1-0.5,0.2
				c-0.9,0.5-1.8,0.8-2.7,1c-0.6,0.1-1.3,0.4-1.8,0.6c0.5-0.3,1.2-0.5,1.8-0.6c0.9-0.2,1.8-0.5,2.7-1c-0.4,0.1-0.7,0.2-1.1,0.3
				c-0.9,0.3-1.4,0-1.5-0.8c-0.1-0.1-0.1-0.3,0-0.4c-0.1-0.1-0.1-0.1-0.1-0.2c-0.1,0-0.1-0.1-0.1-0.2c-0.5,0.3-1.1,0.5-1.6,0.6
				c-0.1,0-0.2,0-0.3,0C57.2,26.3,56.9,25.9,57.1,25.4c-0.3,0.2-0.5,0.3-0.7,0.4c0.7,0.6,1.1,1.3,1.4,2.2c-0.3-0.9-0.6-1.5-1.4-2.2
				C56.6,25.7,56.8,25.6,57.1,25.4 M53.6,26.7c0.3-0.2,0.5-0.3,0.9-0.4c0.7,0.1,1.1,0.5,1,1.3c0,0.1,0,0.1,0,0.1
				c0.5,0.5,0.5,1.1-0.1,1.6c-0.1,0.2-0.3,0.3-0.4,0.4c-0.3,0.1-0.5,0.3-0.6,0.4c0.3,0.1,0.5,0.1,0.9,0.1c0.1,0,0.2,0.1,0.3,0.3
				c0.4,0.6,0.2,1.1-0.6,1.3c-0.2,0-0.5,0.1-0.8,0.1c0.3,0.1,0.5,0.2,0.8,0.3c0.1,0.1,0.1,0.2,0.2,0.4c0.1,0.1,0.1,0.3,0.1,0.5
				c0.3,0,0.5,0.1,0.8,0.3c0.1,0,0.1,0,0.2,0c0.4-0.4,0.9-0.6,1.5-0.7c0.4,0,0.7,0,1,0.1c1.4,0.2,2.2,0.7,2.6,1.8
				c0.2,0.4,0.2,0.6-0.2,0.7c-1.2,0.7-2.2,0.5-3-0.5c-0.6-0.6-1.3-1.1-2-1.4c-0.1,0-0.1,0-0.2,0c-0.3-0.2-0.5-0.3-0.8-0.3
				c-0.1,0.5-0.5,0.8-1.1,0.8c-0.5,0.1-1,0-1.4-0.4c-0.2-0.2-0.5-0.3-0.8-0.4c-1.4-0.4-2.7-0.7-4.1-1.1c-1-0.3-1.9-0.5-2.9-0.5
				c-0.9,0-1.7-0.4-2.4-0.9c-0.1-0.1-0.2-0.2-0.2-0.3C41.7,29,42,28.4,43,27.9c0.4-0.1,0.6-0.1,1,0c0.3,0,0.5,0.2,0.7,0.4
				c0.5,0,1-0.1,1.4-0.2c0.8-0.3,1.4-0.1,2.1,0.4c0,0,0,0,0,0.1c0.5,0,1,0.2,1.4,0.5c0.1,0.1,0.2,0.2,0.3,0.3c0.5-0.1,1.1-0.1,1.7,0
				c-0.2-0.9,0.2-1.6,1.1-2.1C52.9,27.1,53.2,26.9,53.6,26.7 M84.1,19.7c0.9-0.1,1.4,0.3,1.3,1.2c0,0.3-0.1,0.5-0.4,0.5
				c-0.5,0.2-1.1,0.5-1.5,0.7c-0.5,0.3-0.7,0.2-1.1-0.1c-0.4-0.5-0.5-0.8-0.1-1.3c0.2-0.3,0.5-0.5,0.6-0.5
				C83.3,20,83.6,19.8,84.1,19.7 M80.1,39c0.4,0.3,0.5,0.5,0.5,0.9c-0.1,0.5-0.4,0.7-0.9,0.7c-0.5,0.1-1.1,0.1-1.6,0.1
				c0.4,0.4,0.5,0.6,0.2,1.2c-0.2,0.4-0.5,0.5-0.9,0.6c-0.4,0.1-0.7,0.2-1,0.4c-0.8,0.2-1.4,0.1-1.8-0.5c-0.2-0.1-0.2-0.3-0.2-0.4
				c-0.8-0.3-1.5-0.7-2.1-1.4C72.1,40.6,72,40.3,72,40c0.1-0.1,0.1-0.2,0.1-0.3c-0.6-0.1-1.3-0.1-1.8-0.1c-0.6,0-1.1-0.3-1.4-0.8
				c-0.7-0.1-1.4-0.1-2.3-0.1c-0.4,0.1-0.7-0.1-1.1-0.5c-0.4,0-0.6-0.2-0.9-0.4c0,0,0,0-0.1,0c-0.6,0.3-1.2,0.2-1.7-0.3
				c-0.7,0.2-1.2-0.2-1.4-0.7c-0.1-0.5,0-0.9,0.5-1.2c0.1-0.1,0.3-0.1,0.5-0.2c0.7,0,1.4,0.1,2,0.5c0.1,0,0.2,0,0.3,0.1
				c0.2-0.1,0.4-0.3,0.5-0.3c0.1,0,0.1,0,0.2,0c0.4-0.1,0.6,0.1,0.8,0.4c0.1,0,0.1,0,0.1,0.1c0.5-0.1,1,0.1,1.5,0.4
				c1,0.1,2,0.3,2.9,0.5c0.3,0,0.5,0.2,0.6,0.5c0.3,0,0.5,0,0.6,0c-1.1-0.9-2.4-1.5-3.9-1.9c-0.7-0.2-1.5-0.4-2.4-0.5
				c-0.1,0-0.3,0-0.4,0.1c-0.5,0.2-0.9,0.2-1.3-0.3c-0.2-0.2-0.4-0.5-0.5-0.7c-0.2-0.2-0.3-0.5-0.1-0.8c0.1-0.4,0.5-0.6,0.8-0.6
				c0.3,0,0.5,0.1,0.7,0.2c0,0.1,0,0.1,0,0.1c2,0.3,3.9,0.8,5.7,1.4c1,0.5,1.8,0.9,2.6,1.6c0.5,0.5,1.1,1,1.7,1.4
				c0,0.1,0.1,0.2,0.1,0.2c1,0.1,1.9,0.3,2.8,0.5c0.1,0,0.2,0,0.2,0.1c0.1,0.1,0.2,0.2,0.2,0.4C79,38.6,79.6,38.7,80.1,39
				 M73.2,20.3c0-0.3,0.2-0.5,0.4-0.8c-0.7,0.7-1.6,0.6-2.6-0.1c-0.7-0.6-0.9-1.1-0.5-1.4c0.2-0.2,0.5-0.4,1-0.5c0,0,0,0,0.1,0
				c0.6-0.3,1.3-0.1,1.9,0.5c0.4,0.4,0.5,0.7,0.4,1c1-1.1,2.2-1.9,3.4-2.4c0.8,0.2,1.2,0.6,0.9,1.4c-0.1,0.5-0.4,0.7-0.9,0.8
				c-0.1,0-0.2,0-0.3,0.1c-1,0.8-1.8,1.5-2.6,2.4c0,0-0.1,0.1-0.2,0.1C73.4,21.5,73,21,73.2,20.3 M100.2,23.5c1-0.2,1.4,0.3,1.4,1.2
				c-0.1,0.8-0.4,1.5-0.9,2.1c-1.4,1.2-2.8,2.3-4.3,3.2c-0.2,0.1-0.4,0.2-0.5,0.3c-0.6,0.4-1.1,0.2-1.4-0.4c-0.1,0-0.2,0-0.4-0.1
				c-0.2,0-0.3-0.1-0.5-0.3c-0.3,0.2-0.6,0.4-1.1,0.5c-0.4,0.1-0.7,0-1-0.4c-0.3-0.5-0.2-0.9,0.3-1.3c0.4-0.8,0.9-1.4,1.6-1.9
				c0.2-0.2,0.5-0.2,0.6-0.3c0.8-0.1,1.4,0.2,1.7,0.9l0,0c0.1-0.1,0.2-0.2,0.4-0.2c0-0.1,0-0.1,0.1-0.1c0-0.8,0.4-1.4,1.2-1.9
				c0.2-0.1,0.4-0.2,0.5-0.4C98.8,24,99.5,23.7,100.2,23.5 M67.6,26.7c1.2-0.4,2.3-0.6,3.3-0.8c1.2-0.2,2.4-0.4,3.5-0.5
				c0.7-0.1,1.4,0,2.2,0.3c0.1-0.1,0.2-0.1,0.4-0.1c0.8-0.3,1.6-0.5,2.4-0.6c0.5-0.1,0.8,0,1.1,0.4l0,0c1.5,0,3.1,0,4.6,0.2
				c0.3,0,0.5,0.1,0.6,0.4c0.1,0.3,0.1,0.5,0,0.8c0.5-0.1,0.8,0.1,1.1,0.4c0,0.1,0,0.1,0,0.1c0.3,0.5,0.2,0.9-0.1,1.3
				c0.2,0.1,0.4,0.3,0.5,0.4c0.2,0.1,0.3,0.2,0.4,0.2c0.3,0.2,0.4,0.4,0.4,0.7c0,0.4-0.1,0.7-0.3,1c0,0.1-0.1,0.3-0.2,0.5
				c0,0.1,0.1,0.3,0.2,0.5c0.1,0,0.1,0.1,0.2,0.2c0.4,0.1,0.7,0.5,0.9,0.8c0.1,0.2,0.2,0.4,0.2,0.5c0.5,0.4,0.7,0.9,0.5,1.5
				c-0.2,0.2-0.3,0.5-0.5,0.5c0,0.1-0.1,0.2-0.1,0.2c0,0.3,0,0.5-0.1,0.8c-0.1,0.3-0.3,0.5-0.5,0.5c-0.5,1-1.4,1.3-2.3,1
				c-0.2-0.1-0.4-0.2-0.4-0.4c-0.2-0.7,0.1-1.4,0.7-1.8c0,0,0,0,0-0.1c0-0.1,0-0.1,0-0.2c-0.6-0.2-1-0.7-1.1-1.4c0-0.1,0-0.2,0-0.3
				c-0.8-0.5-1.6-0.7-2.5-0.7c-0.3,0-0.5-0.1-0.7-0.2c-0.4-0.1-0.7-0.3-1-0.5c-0.1,0-0.3,0-0.4,0c0,0,0.1,0.1,0.1,0.3
				c0.1,0.6-0.2,1.2-0.7,1.5c-0.6,0.5-1.2,0.4-1.6-0.2c-0.9,0.2-1.5,0-2-0.7c-0.1,0-0.1-0.1-0.1-0.2c-0.6,0.5-1.2,0.6-1.7,0.5
				c-0.5,0.5-0.8,0.7-1.2,1c0.5,0.2,1,0.4,1.4,0.5c1.2,0.5,2.3,0.5,3.3,0c1-0.4,1.9-0.6,2.8-0.7c-0.9,0.1-1.8,0.4-2.8,0.7
				c-1,0.5-2.1,0.5-3.3,0c-0.5-0.2-1-0.4-1.4-0.5c-0.1,0-0.2,0-0.2,0c-0.5-0.1-1.1-0.3-1.5-0.4c0.5,0.1,1,0.3,1.5,0.4
				c0,0,0.1,0,0.2,0c0.4-0.3,0.7-0.5,1.2-1c-0.3-0.1-0.5-0.2-0.6-0.4c-0.2-0.1-0.3-0.2-0.3-0.5c0-0.1,0-0.3,0.1-0.4
				c0-0.1,0-0.2-0.2-0.3c-0.1,0-0.2-0.1-0.3-0.3c-1,0.1-1.9,0.5-2.6,1.1c-0.1,0-0.2,0.1-0.2,0.1c-0.4,0.2-0.6,0.4-0.9,0.4
				c-0.5,0.1-0.9-0.1-1-0.6c-0.2-0.7,0.1-1.2,0.7-1.4c0.4-0.2,0.7-0.4,0.9-0.6c-0.3-0.1-0.6-0.3-0.9-0.5c-0.1-0.1-0.2-0.3-0.3-0.5
				c-0.3-0.3-0.4-0.5-0.5-0.7c-0.1,0.1-0.3,0.1-0.5,0.2c-0.2,0.1-0.5,0.1-0.6,0.2c-0.5,0-0.8,0.1-1.2,0.3c-0.2,0.1-0.3,0.2-0.4,0.3
				c-0.1,0-0.1,0-0.1,0l-0.1,0.1c-0.7,0.4-1.2,0.9-1.4,1.6c-0.7,0.2-1.3,0.2-1.9-0.1c-1.1-0.5-2.2-1-3.2-1.6
				c-0.4,0.2-0.6,0.4-0.9,0.5c0.3-0.1,0.5-0.3,0.9-0.5c0.6-0.3,1.3-0.6,2.1-0.9c0.9-0.4,1.9-0.7,2.9-1.1
				C65.4,27.5,66.5,27.1,67.6,26.7z"/>
			<path class="st3" d="M73.8,16.4c0.1,0.3,0.4,0.5,0.9,0.6c0.7,0.2,1.1,0.1,1.1-0.5c0.1-0.6-0.4-0.9-1.3-0.7
				c-0.2,0-0.3,0.1-0.4,0.2C74,16.2,73.8,16.3,73.8,16.4z"/>
			<path class="st3" d="M86.8,20.3c-0.3,0.2-0.5,0.5-0.8,0.9c-0.5,0.9-0.3,1.7,0.8,2.4c1,0.5,2,0.7,3.3,0.5c1.2-0.3,2.2-0.6,2.8-1.4
				c0.3-0.2,0.4-0.5,0.3-0.8c-0.2-1.3-1-2-2.4-2.2c-1.2-0.1-2.3-0.1-3.4,0.2C87.2,20,87,20.1,86.8,20.3c0.5-0.3,1.1-0.3,1.8,0
				C87.9,20,87.3,20,86.8,20.3z"/>
			<path class="st4" d="M77.8,19.9c-1,0.5-0.8,0.8,0.5,1.4c0.5,0.2,1,0.1,1.4-0.2c0.2-0.1,0.5-0.3,0.6-0.4c1.2-0.5,2.1-1,2.7-1.4
				c-1.2-2-2.4-2.4-3.5-1.1c-0.2,0.2-0.3,0.5-0.4,0.7C79.1,19,79.1,19,79.1,19C78.1,19,77.6,19.3,77.8,19.9 M80.3,18.2
				c0.1,0,0.2,0,0.2,0c0.9,0.2,1.2,0.6,0.9,1.4c-0.1,0.3-0.3,0.5-0.5,0.6c-0.5,0.2-0.9,0.2-1.4-0.1c-0.3-0.2-0.5-0.5-0.4-0.8
				C79.2,18.8,79.5,18.4,80.3,18.2z"/>
			<path class="st3" d="M80.5,18.2c0,0-0.1,0-0.2,0c-0.7,0.2-1.1,0.5-1.2,1.2c-0.1,0.4,0.1,0.6,0.4,0.8c0.5,0.3,0.9,0.3,1.4,0.1
				c0.3-0.2,0.5-0.4,0.5-0.6C81.6,18.9,81.4,18.4,80.5,18.2z"/>
			<path class="st3" d="M57.3,25c-0.1,0.1-0.2,0.3-0.2,0.4c-0.2,0.5,0.1,0.9,0.6,1.2c0.1,0,0.2,0,0.3,0c0.5-0.2,1.1-0.4,1.6-0.6
				c0,0.1,0,0.2,0.1,0.2c0,0.1,0,0.1,0.1,0.2c-0.1,0.1-0.1,0.3,0,0.4c0.2,0.8,0.6,1.1,1.5,0.8c0.4-0.1,0.7-0.2,1.1-0.3
				c0.2-0.1,0.4-0.1,0.5-0.2c0.3,0,0.5-0.2,0.6-0.5c0,0,0-0.1,0-0.2c0.2-0.6,0-1.2-0.5-1.6c0.3-0.1,0.5-0.3,0.5-0.5
				c0.1-0.2,0.1-0.3,0.1-0.4c0.1-0.5-0.3-0.9-1-0.9c-1.1,0.4-2.3,0.7-3.4,1.1c-0.3,0.1-0.6,0.2-1,0.4c0,0-0.1,0-0.2,0.1
				C57.6,24.6,57.5,24.8,57.3,25z"/>
			<path class="st4" d="M59.2,24c-0.2-0.1-0.4-0.3-0.6-0.5c0,0.3-0.1,0.5-0.4,0.8C58.5,24.2,58.9,24.1,59.2,24z"/>
			<path class="st3" d="M57.7,32.4c-0.6,0.1-1.2,0.4-1.5,0.7c0.7,0.4,1.4,0.8,2,1.4c0.8,1,1.8,1.2,3,0.5c0.4-0.1,0.4-0.4,0.2-0.7
				c-0.5-1.1-1.3-1.6-2.6-1.8C58.5,32.4,58.1,32.4,57.7,32.4z"/>
			<path class="st3" d="M54.5,26.3c-0.4,0.1-0.6,0.2-0.9,0.4c-0.4,0.3-0.6,0.5-0.9,0.6c-0.9,0.5-1.3,1.2-1.1,2.1
				c-0.6-0.1-1.2-0.1-1.7,0c-0.1-0.1-0.2-0.2-0.3-0.3c-0.5-0.4-0.9-0.5-1.4-0.5c0-0.1,0-0.1,0-0.1c-0.6-0.5-1.3-0.6-2.1-0.4
				c-0.4,0.1-0.8,0.2-1.4,0.2c-0.2-0.2-0.5-0.4-0.7-0.4c-0.4-0.1-0.6-0.1-1,0c-1,0.5-1.3,1.1-0.7,2.2c0,0.1,0.1,0.2,0.2,0.3
				c0.7,0.5,1.5,0.9,2.4,0.9c1,0.1,1.9,0.3,2.9,0.5c1.4,0.4,2.7,0.7,4.1,1.1c0.3,0.1,0.6,0.2,0.8,0.4c0.5,0.4,0.9,0.5,1.4,0.4
				c0.6,0,1-0.4,1.1-0.8c0-0.2,0-0.4-0.1-0.5C55,32.2,55,32.1,54.9,32c-0.3-0.1-0.5-0.2-0.8-0.3c0.4,0,0.6-0.1,0.8-0.1
				c0.8-0.2,1-0.6,0.6-1.3c-0.1-0.2-0.2-0.3-0.3-0.3c-0.4,0-0.6,0-0.9-0.1c0.2-0.1,0.4-0.3,0.6-0.4c0.1-0.1,0.3-0.2,0.4-0.4
				c0.6-0.5,0.6-1.1,0.1-1.6c0,0,0,0,0-0.1C55.6,26.8,55.2,26.4,54.5,26.3z"/>
			<path class="st3" d="M85.3,20.9c0.1-0.9-0.4-1.3-1.3-1.2c-0.5,0.1-0.8,0.3-1.2,0.5c-0.2,0.1-0.5,0.3-0.6,0.5
				c-0.4,0.5-0.3,0.8,0.1,1.3c0.4,0.3,0.6,0.4,1.1,0.1c0.5-0.3,1-0.5,1.5-0.7C85.3,21.3,85.3,21.1,85.3,20.9z"/>
			<path class="st3" d="M80.5,39.9c0.1-0.5-0.1-0.6-0.5-0.9c-0.5-0.3-1.1-0.4-1.7-0.2c0-0.2-0.1-0.3-0.2-0.4c0-0.1-0.1-0.1-0.2-0.1
				c-0.9-0.2-1.8-0.4-2.8-0.5c0,0-0.1-0.1-0.1-0.2c-0.6-0.4-1.2-0.9-1.7-1.4c-0.8-0.7-1.6-1.2-2.6-1.6c-1.8-0.6-3.7-1.2-5.7-1.4
				c0,0,0,0,0-0.1c-0.2-0.1-0.5-0.2-0.7-0.2c-0.4,0-0.7,0.3-0.8,0.6c-0.2,0.3-0.1,0.6,0.1,0.8c0.1,0.3,0.3,0.5,0.5,0.7
				c0.4,0.5,0.7,0.5,1.3,0.3c0.1-0.1,0.3-0.1,0.4-0.1c0.8,0.1,1.6,0.3,2.4,0.5c1.5,0.4,2.8,1,3.9,1.9c-0.2,0-0.4,0-0.6,0
				c-0.1-0.3-0.4-0.5-0.6-0.5c-0.9-0.3-1.9-0.5-2.9-0.5c-0.5-0.3-1-0.5-1.5-0.4c0-0.1,0-0.1-0.1-0.1c-0.2-0.3-0.5-0.5-0.8-0.4
				c-0.1,0-0.1,0-0.2,0c-0.2,0-0.4,0.2-0.5,0.3c-0.1-0.1-0.2-0.1-0.3-0.1c-0.5-0.4-1.3-0.5-2-0.5c-0.2,0.1-0.4,0.1-0.5,0.2
				c-0.5,0.3-0.5,0.6-0.5,1.2c0.3,0.5,0.7,0.9,1.4,0.7c0.5,0.5,1.1,0.5,1.7,0.3c0.1,0,0.1,0,0.1,0c0.3,0.2,0.5,0.4,0.9,0.4
				c0.4,0.4,0.7,0.5,1.1,0.5c0.8,0,1.5,0,2.3,0.1c0.3,0.5,0.7,0.8,1.4,0.8c0.5,0,1.2,0,1.8,0.1c0,0.1,0,0.2-0.1,0.3
				c0,0.3,0.1,0.5,0.2,0.6c0.5,0.6,1.3,1.1,2.1,1.4c0,0.1,0,0.3,0.2,0.4c0.5,0.5,1,0.6,1.8,0.5c0.3-0.2,0.6-0.3,1-0.4
				c0.5-0.1,0.7-0.3,0.9-0.6c0.3-0.5,0.2-0.8-0.2-1.2c0.5,0,1.1,0,1.6-0.1C80.2,40.6,80.5,40.3,80.5,39.9 M74.3,39.9
				c0.3,0,0.5,0,0.8,0c0,0.1,0,0.2,0,0.3C74.8,40,74.6,39.9,74.3,39.9z"/>
			<path class="st4" d="M74.3,39.9c0.3,0,0.5,0.1,0.8,0.3c0-0.1,0-0.2,0-0.3C74.8,39.9,74.6,39.9,74.3,39.9z"/>
			<path class="st3" d="M73.6,19.5c-0.2,0.3-0.4,0.5-0.4,0.8c-0.2,0.7,0.2,1.2,1,1.2c0.1,0,0.2-0.1,0.2-0.1c0.8-0.9,1.6-1.6,2.6-2.4
				c0.1-0.1,0.2-0.1,0.3-0.1c0.5-0.1,0.8-0.4,0.9-0.8c0.3-0.7-0.1-1.2-0.9-1.4c-1.3,0.5-2.4,1.4-3.4,2.4c0.1-0.3,0-0.6-0.4-1
				c-0.6-0.6-1.3-0.8-1.9-0.5c-0.1,0-0.1,0-0.1,0c-0.5,0.1-0.8,0.3-1,0.5c-0.5,0.3-0.3,0.7,0.5,1.4C71.9,20.1,72.9,20.2,73.6,19.5z"
				/>
			<path class="st3" d="M101.6,24.7c0-0.9-0.5-1.4-1.4-1.2c-0.7,0.2-1.4,0.5-2.1,1c-0.2,0.2-0.4,0.3-0.5,0.4
				c-0.8,0.5-1.2,1.1-1.2,1.9c-0.1,0-0.1,0-0.1,0.1c-0.2,0-0.3,0.1-0.4,0.2l0,0c-0.4-0.7-0.9-1-1.7-0.9c-0.2,0.1-0.5,0.1-0.6,0.3
				c-0.7,0.5-1.3,1.1-1.6,1.9c-0.5,0.4-0.5,0.7-0.3,1.3c0.3,0.4,0.6,0.5,1,0.4c0.5-0.1,0.8-0.3,1.1-0.5c0.2,0.2,0.3,0.3,0.5,0.3
				c0.2,0.1,0.3,0.1,0.4,0.1c0.3,0.5,0.7,0.7,1.4,0.4c0.1-0.1,0.3-0.2,0.5-0.3c1.5-0.9,3-2,4.3-3.2
				C101.3,26.2,101.5,25.5,101.6,24.7z"/>
			<path class="st3" d="M71,25.9c-1.1,0.2-2.2,0.5-3.3,0.8c-1.1,0.4-2.2,0.7-3.2,1c-1,0.4-2,0.7-2.9,1.1c-0.8,0.3-1.4,0.6-2.1,0.9
				c1,0.6,2.1,1.2,3.2,1.6c0.6,0.3,1.2,0.3,1.9,0.1c0.2-0.7,0.6-1.3,1.4-1.6l0.1-0.1c0,0,0,0,0.1,0c0.1-0.1,0.2-0.2,0.4-0.3
				c0.4-0.2,0.7-0.3,1.2-0.3c0.2-0.1,0.5-0.1,0.6-0.2c0.2-0.1,0.4-0.1,0.5-0.2c0.1,0.3,0.2,0.5,0.5,0.7c0.1,0.2,0.2,0.4,0.3,0.5
				c0.3,0.3,0.6,0.5,0.9,0.5c-0.2,0.3-0.5,0.5-0.9,0.6c-0.6,0.2-0.9,0.6-0.7,1.4c0.1,0.5,0.5,0.7,1,0.6c0.3,0,0.5-0.2,0.9-0.4
				c0,0,0.1-0.1,0.2-0.1c0.7-0.6,1.6-1,2.6-1.1c0.1,0.2,0.2,0.3,0.3,0.3c0.2,0.1,0.2,0.2,0.2,0.3c-0.1,0.1-0.1,0.3-0.1,0.4
				c0,0.3,0.1,0.4,0.3,0.5c0.2,0.2,0.4,0.3,0.6,0.4c0.5,0.2,1.1,0,1.7-0.5c0,0.1,0,0.2,0.1,0.2c0.5,0.7,1.1,0.9,2,0.7
				c0.5,0.5,1,0.6,1.6,0.2c0.5-0.4,0.8-0.9,0.7-1.5c0-0.2-0.1-0.3-0.1-0.3c0.1,0,0.3,0,0.4,0c0.3,0.3,0.6,0.5,1,0.5
				c0.2,0.1,0.5,0.2,0.7,0.2c0.9,0,1.7,0.3,2.5,0.7c0,0.1,0,0.2,0,0.3c0.1,0.7,0.5,1.3,1.1,1.4c0,0.1,0,0.1,0,0.2c0,0.1,0,0.1,0,0.1
				c-0.6,0.5-0.9,1.1-0.7,1.8c0,0.2,0.2,0.3,0.4,0.4c0.9,0.3,1.7,0,2.3-1c0.2-0.1,0.4-0.3,0.5-0.5c0.1-0.3,0.1-0.5,0.1-0.8
				c0,0,0.1-0.1,0.1-0.2c0.3-0.1,0.4-0.4,0.5-0.5c0.3-0.6,0.1-1.2-0.5-1.5c0-0.2-0.1-0.4-0.2-0.5c-0.2-0.4-0.5-0.7-0.9-0.8
				c-0.1-0.1-0.1-0.2-0.2-0.2c-0.1-0.2-0.2-0.4-0.2-0.5c0.1-0.2,0.2-0.4,0.2-0.5c0.2-0.3,0.3-0.6,0.3-1c0-0.4-0.1-0.5-0.4-0.7
				c-0.1,0-0.2-0.1-0.4-0.2c-0.2-0.1-0.4-0.3-0.5-0.4c0.3-0.4,0.4-0.8,0.1-1.3c0,0,0,0,0-0.1c-0.3-0.3-0.6-0.5-1.1-0.4
				c0.1-0.3,0.1-0.5,0-0.8c-0.2-0.3-0.4-0.4-0.6-0.4c-1.5-0.2-3.1-0.2-4.6-0.2l0,0c-0.3-0.4-0.6-0.5-1.1-0.4
				c-0.8,0.2-1.6,0.4-2.4,0.6c-0.2,0-0.3,0-0.4,0.1c-0.7-0.3-1.4-0.4-2.2-0.3C73.3,25.6,72.1,25.7,71,25.9 M79.4,27L79.4,27
				C79.4,27,79.4,27,79.4,27c0.4,0.3,0.7,0.4,1,0.4c0.5,0,1.1,0,1.7,0.1c0.4,0,0.7,0,1.1,0c0,0.1,0,0.2,0,0.3
				c-0.2-0.1-0.5-0.2-0.6-0.3c-0.2,0.1-0.3,0.1-0.5,0.2c-0.1,0-0.3,0-0.4,0c-0.4,0.1-0.7,0.2-1,0.1c-1.6,0-3.3,0.1-4.8,0.4
				c0.6-0.4,1.4-0.5,2.1-0.7c0.4-0.1,0.6-0.2,1-0.3C79.1,27,79.2,27,79.4,27 M85.5,30.7C85.5,30.7,85.5,30.8,85.5,30.7l0.1,0.2
				c0,0.1,0,0.2,0,0.4c-0.3,0-0.4,0-0.5-0.1c0-0.1,0-0.1,0.1-0.1c0-0.1,0.1-0.3,0.2-0.5C85.4,30.6,85.4,30.6,85.5,30.7 M79.5,30.1
				C79.5,30.1,79.5,30.1,79.5,30.1L79.5,30.1C79.5,30.1,79.5,30.1,79.5,30.1 M75.4,30.5c-0.1,0-0.2-0.1-0.3-0.1c0-0.1,0-0.2,0-0.2
				c0.2,0,0.5,0,0.7,0c-0.1,0-0.2,0.1-0.3,0.2C75.5,30.5,75.5,30.5,75.4,30.5 M75.4,25.9c-0.4,0.2-0.7,0.4-1.1,0.6
				c-0.3-0.1-0.5-0.2-0.8-0.3C74.2,26.2,74.8,26,75.4,25.9z"/>
			<path class="st4" d="M79.4,27L79.4,27c-0.2,0-0.3,0-0.4,0.1C79.1,27,79.3,27,79.4,27z"/>
			<path class="st4" d="M82.1,27.6c0.2-0.1,0.3-0.1,0.5-0.2c0.2,0.1,0.5,0.2,0.6,0.3c0-0.1,0-0.2,0-0.3c-0.4,0-0.7,0-1.1,0
				C82.1,27.5,82.1,27.6,82.1,27.6z"/>
			<path class="st5" d="M81.7,27.6c0.1,0,0.3,0,0.4,0c0-0.1,0-0.2,0-0.2c-0.6-0.1-1.2-0.1-1.7-0.1c-0.3,0-0.6-0.1-0.9-0.3
				C79.4,27,79.4,27,79.4,27c-0.1,0-0.3,0-0.4,0.1c-0.4,0.1-0.6,0.2-1,0.3c-0.7,0.2-1.4,0.4-2.1,0.7c1.5-0.3,3.2-0.4,4.8-0.4
				C81,27.8,81.4,27.7,81.7,27.6z"/>
			<path class="st4" d="M85.6,30.8C85.5,30.8,85.5,30.7,85.6,30.8c-0.2-0.2-0.2-0.2-0.3-0.2c-0.1,0.2-0.2,0.4-0.2,0.5
				c-0.1,0-0.1,0-0.1,0.1c0.2,0.1,0.3,0.1,0.5,0.1C85.6,31.1,85.6,31,85.6,30.8L85.6,30.8z"/>
			<path class="st4" d="M79.5,30.1C79.5,30.1,79.5,30.1,79.5,30.1S79.5,30.1,79.5,30.1L79.5,30.1z"/>
			<path class="st4" d="M75.1,30.5c0.1,0,0.2,0.1,0.3,0.1c0.1,0,0.1-0.1,0.2-0.1c0.1-0.1,0.2-0.2,0.3-0.2c-0.3,0-0.5,0-0.7,0
				C75.1,30.3,75.1,30.4,75.1,30.5z"/>
			<path class="st5" d="M74.3,26.6c0.4-0.3,0.7-0.5,1.1-0.6c-0.5,0.1-1.2,0.3-1.9,0.4C73.8,26.4,74,26.5,74.3,26.6z"/>
			<path class="st1" d="M10,36.8l8.6,3.6l3.4,1.5l8.5,3.5l3,2l18.2,12.1l2.4,1.5l2.4,1.6l1.1-1l5.2-4.8l1.2-1.2l11.2-10.5l1-0.9
				L74.9,44L54.4,35l-25.2-8.6L10,36.8 M53.5,48.6l3.6-2.4l1.9,1.6l-3.3,2.1l5.3,2.6l-2.2,1.3l-4.7-2.4l-3.6,2.6l-1.8-1.2l3.4-2.7
				l-4-2.4l1.4-1.1L53.5,48.6 M28,40.6l7,0.9L28,40.6l8.3-4.4L28,40.6 M28.4,29.5l16.2,5.2L28.4,29.5 M20.2,37.1
				c-1.4,0.5-2.8,0.6-3.9,0.6c-1.2-0.1-1.7-0.3-1.9-0.8c-0.1-0.5,0.3-1.1,1.3-1.7c0.9-0.6,2.2-1.2,3.6-1.5c1.4-0.5,2.8-0.6,3.9-0.6
				c1.2,0.1,1.8,0.3,1.9,0.8c0.1,0.5-0.3,1-1.3,1.6C22.9,36.2,21.6,36.7,20.2,37.1 M32.1,35.9c0.1,0.5-0.4,1.1-1.3,1.7
				c-1,0.7-2.2,1.2-3.6,1.6c-1.5,0.5-2.9,0.6-4,0.5c-1.2,0-1.7-0.3-1.8-0.8c-0.2-0.5,0.2-1,1.2-1.6c1-0.6,2.2-1.2,3.7-1.6
				c1.4-0.5,2.7-0.5,3.9-0.5C31.3,35.2,31.9,35.4,32.1,35.9z"/>
			<polygon class="st0" points="57.1,46.2 53.5,48.6 49.6,46.7 48.1,47.8 52.1,50.2 48.7,52.9 50.5,54.1 54.1,51.5 58.8,53.8 
				61,52.5 55.7,49.9 59,47.8 			"/>
			<path class="st1" d="M16.3,37.7c1.1,0,2.4-0.2,3.9-0.6c1.4-0.4,2.7-0.9,3.6-1.6c1-0.6,1.4-1.2,1.3-1.6c-0.1-0.5-0.7-0.7-1.9-0.8
				c-1.1,0-2.4,0.2-3.9,0.6c-1.4,0.4-2.7,0.9-3.6,1.5c-1,0.6-1.4,1.2-1.3,1.7C14.6,37.4,15.1,37.6,16.3,37.7z"/>
			<path class="st1" d="M30.9,37.6c0.9-0.6,1.4-1.3,1.3-1.7c-0.2-0.5-0.8-0.7-1.9-0.7c-1.2,0-2.4,0.1-3.9,0.5
				c-1.5,0.5-2.7,1-3.7,1.6c-1,0.6-1.4,1.2-1.2,1.6c0.1,0.5,0.6,0.8,1.8,0.8c1.1,0.1,2.4-0.1,4-0.5C28.7,38.8,29.9,38.3,30.9,37.6z"
				/>
			<path class="st2" d="M112.1,24.8l0.3-0.5l-2.6-0.5l-7.5,7.7l-11.1,9l-13.7,2.7l-1.4,1.3l-1,0.9l11.2,5.2h1.4l0.8-1l10-4.8
				l8.5-11.3L112.1,24.8 M83.4,46.3l2.4,1.4L83.4,46.3 M85,45.9l2.1,0.9L85,45.9 M88,44.5h1.2H88 M89.4,43.9l0.8,0.5L89.4,43.9
				 M83.3,42.9c0.2-0.1,0.5-0.2,0.6-0.2c0.8,0.2,1.4,0.6,1.6,1.4c0.1,0.1,0.1,0.2,0,0.4c-0.4,0.6-0.9,0.8-1.6,0.5
				c-0.3-0.1-0.5-0.1-0.8-0.1c-0.1,0.1-0.2,0.1-0.4,0.1c-0.1,0.3-0.3,0.4-0.5,0.5c-0.3,0-0.5,0-0.7-0.1c-0.8,0.3-1.5,0.5-2.3,0.6
				c-0.5,0.2-1,0-1.2-0.5c-0.3-0.5-0.2-0.8,0.3-1.2c0.4-0.3,0.8-0.5,1.3-0.5c0.8-0.2,1.5-0.5,2.4-0.7C82.4,42.9,82.8,42.9,83.3,42.9
				 M93.5,43.3c-0.1,0.1-0.2,0.2-0.4,0.2c-0.8,0-1.2-0.4-1.1-1.1c0.1-0.5,0.2-0.8,0.4-1.3c0.4-0.7,0.8-1.4,1.4-2.1
				c0.1-0.2,0.3-0.3,0.4-0.5c0.5-0.6,1.1-1.1,1.7-1.3c0.9,0,1.2,0.5,1,1.3c-0.1,0.3-0.2,0.5-0.5,0.6c-0.7,0.5-1.4,1.3-1.7,2.2
				C94.3,42,93.9,42.6,93.5,43.3 M88.7,47.9c-0.9-0.2-1.3-0.6-1-1.4c0.1-0.2,0.3-0.4,0.5-0.5l-1.3-0.8l1.3,0.8c0.1,0,0.1,0,0.1,0
				c1.6-0.7,3.3-1.3,5-1.7c0.3,0,0.5-0.1,0.7-0.2c0.2,0,0.5,0,0.5,0.1c0-0.3,0.1-0.5,0.3-0.6c0-0.1,0.1-0.1,0.1-0.2l3.6-5.2
				l10.6-11.7L98.5,38.1l-3.6,5.2c1.1-1.2,2.2-2.4,3.4-3.5c0.5-0.5,1-0.8,1.6-1c0.1,0,0.2,0,0.3-0.1c0.8,0.2,1.1,0.6,0.7,1.4
				c-0.1,0.1-0.2,0.3-0.3,0.5c-1.4,1-2.7,2.3-3.8,3.6c-0.2,0.2-0.4,0.5-0.5,0.5c-0.5,0.3-0.7,0.4-1,0.4c-0.1,0-0.1,0.1-0.1,0.2
				c0,0.3-0.2,0.5-0.5,0.5c-0.4,0.1-0.8,0.2-1.3,0.3c-0.3,0-0.5,0.1-0.7,0.2c-0.2,0.9-0.7,1.4-1.7,1.4c-0.4,0-0.6,0.1-0.8,0.2
				C89.7,48.2,89.1,48.2,88.7,47.9 M105.3,31.7c0.8,0.1,1.2,0.5,0.9,1.3c-0.1,0.4-0.3,0.5-0.5,0.7c-0.6,0.4-1.3,1-1.6,1.7
				c-0.5,0.7-0.9,1.4-1.4,2.1c-0.1,0.3-0.3,0.4-0.5,0.4c-0.7-0.2-1-0.5-0.8-1.3c0.1-0.4,0.2-0.7,0.5-1c0.7-1.4,1.6-2.5,2.8-3.5
				C104.7,31.9,105,31.8,105.3,31.7z"/>
			<path class="st3" d="M83.9,42.7c-0.2,0-0.5,0.1-0.6,0.2c-0.5,0-0.9,0.1-1.4,0.2c-0.8,0.3-1.5,0.5-2.4,0.7
				c-0.5,0.1-0.9,0.3-1.3,0.5c-0.5,0.4-0.5,0.7-0.3,1.2c0.2,0.5,0.6,0.6,1.2,0.5c0.7-0.2,1.4-0.4,2.3-0.6c0.2,0.1,0.5,0.1,0.7,0.1
				c0.3-0.1,0.5-0.2,0.5-0.5c0.2,0,0.3,0,0.4-0.1c0.3,0,0.5,0,0.8,0.1c0.7,0.4,1.3,0.2,1.6-0.5c0.1-0.2,0.1-0.3,0-0.4
				C85.3,43.3,84.7,42.9,83.9,42.7z"/>
			<path class="st3" d="M93.1,43.5c0.2,0,0.3-0.1,0.4-0.2c0.5-0.7,0.8-1.4,1.2-2c0.4-0.9,1-1.6,1.7-2.2c0.3-0.2,0.4-0.4,0.5-0.6
				c0.2-0.8-0.1-1.3-1-1.3c-0.6,0.2-1.3,0.6-1.7,1.3c-0.1,0.3-0.3,0.4-0.4,0.5c-0.5,0.6-1,1.4-1.4,2.1c-0.2,0.5-0.3,0.8-0.4,1.3
				C92,43.1,92.3,43.5,93.1,43.5z"/>
			<path class="st3" d="M87.7,46.5c-0.3,0.8,0.1,1.3,1,1.4c0.5,0.3,1,0.3,1.5-0.1c0.2-0.1,0.5-0.2,0.8-0.2c1,0,1.5-0.5,1.7-1.4
				c0.3-0.1,0.5-0.2,0.7-0.2c0.5-0.1,0.9-0.2,1.3-0.3c0.3-0.1,0.5-0.3,0.5-0.5c0-0.1,0-0.2,0.1-0.2c0.3,0,0.5-0.1,1-0.4
				c0.2-0.1,0.4-0.4,0.5-0.5c1.1-1.4,2.4-2.6,3.8-3.6c0.1-0.2,0.2-0.4,0.3-0.5c0.4-0.8,0.1-1.3-0.7-1.4c-0.1,0.1-0.2,0.1-0.3,0.1
				c-0.6,0.2-1.2,0.5-1.6,1c-1.3,1.2-2.4,2.4-3.4,3.5c0,0.1-0.1,0.1-0.1,0.2c-0.2,0.2-0.3,0.4-0.3,0.6C94.4,44,94.1,44,93.9,44
				c-0.3,0.1-0.5,0.2-0.7,0.2c-1.7,0.5-3.4,1-5,1.7c0,0,0,0-0.1,0C88,46.1,87.8,46.3,87.7,46.5z"/>
			<path class="st3" d="M106.2,33c0.3-0.7-0.1-1.2-0.9-1.3c-0.3,0.1-0.5,0.2-0.8,0.4c-1.2,1-2.1,2.2-2.8,3.5c-0.3,0.3-0.4,0.6-0.5,1
				c-0.2,0.7,0.1,1.1,0.8,1.3c0.3,0,0.5-0.1,0.5-0.4c0.5-0.6,1-1.4,1.4-2.1c0.4-0.7,1-1.4,1.6-1.7C105.9,33.5,106.1,33.4,106.2,33z"
				/>
			<path class="st2" d="M114.1,25l-2-0.3l-5.1,8.6l-8.5,11.3l-10,4.8l-0.8,1l-1.1,1.3l11.6,4.9l1.1,0.2l5.3-10.4L114.1,25
				 M110.3,30.8l-9.4,15.1h-0.5h0.5L110.3,30.8 M93.6,52.6l2.7,0.9L93.6,52.6 M94.8,51.5l1.7,0.6L94.8,51.5 M95.8,50.5l1.4,0.5
				L95.8,50.5 M96.5,49.2h1.4H96.5 M96.6,47.7l2.6,0.8L96.6,47.7 M92.6,48.6c0.5-0.4,1-0.6,1.4-0.7c0.9,0.1,1.2,0.5,0.9,1.4
				c-0.2,0.3-0.4,0.5-0.6,0.6c-0.6,0.4-1.3,0.7-1.8,1.2c-0.1,0.1-0.2,0.2-0.3,0.3c-0.2,0.8-0.6,1.1-1.5,0.7
				c-0.4-0.1-0.5-0.4-0.5-0.7c0.1-0.8,0.5-1.4,1.2-1.8C91.8,49.3,92.2,48.9,92.6,48.6 M100.5,50.1c1,0.1,1.4,0.5,1,1.4
				c-0.1,0.4-0.3,0.5-0.6,0.6c-0.3,0.2-0.5,0.4-0.6,0.6c-0.1,0.3-0.3,0.5-0.6,0.5c-0.7,0-1.1-0.4-1-1.1c0-0.5,0.2-0.8,0.5-1.2
				C99.6,50.5,100,50.2,100.5,50.1 M101.2,48.7c0.2-0.4,0.5-0.5,0.8-0.5c0.8,0,1.2,0.5,1,1.2c0,0.4-0.2,0.5-0.5,0.6
				c-0.7,0.4-1.2,0.2-1.4-0.6C100.9,49.2,101,48.9,101.2,48.7z"/>
			<path class="st3" d="M94,47.9c-0.5,0.1-1,0.4-1.4,0.7c-0.4,0.3-0.8,0.6-1.3,0.9c-0.7,0.4-1.1,1-1.2,1.8c0,0.4,0.2,0.6,0.5,0.7
				c0.9,0.4,1.4,0.1,1.5-0.7c0.1-0.1,0.2-0.2,0.3-0.3c0.5-0.5,1.2-0.8,1.8-1.2c0.3-0.1,0.5-0.4,0.6-0.6C95.2,48.5,94.9,48,94,47.9z"
				/>
			<path class="st3" d="M101.5,51.5c0.4-0.8,0-1.3-1-1.4c-0.5,0.1-1,0.5-1.4,0.8c-0.4,0.4-0.5,0.7-0.5,1.2c-0.1,0.7,0.3,1.1,1,1.1
				c0.4,0,0.5-0.2,0.6-0.5c0.2-0.3,0.4-0.5,0.6-0.6C101.3,52,101.5,51.8,101.5,51.5z"/>
			<path class="st3" d="M102,48.3c-0.4,0-0.6,0.1-0.8,0.5c-0.2,0.2-0.3,0.5-0.2,0.7c0.3,0.8,0.7,1,1.4,0.6c0.4-0.1,0.5-0.3,0.5-0.6
				C103.2,48.7,102.8,48.3,102,48.3z"/>
			<polygon class="st1" points="71,55.4 68.1,58.2 73.3,61 72.2,62 67.1,59.6 63.7,62.7 62,61.7 65.2,58.6 62.7,57 57.6,61.8 
				70.5,70.3 71.8,68.8 77.1,62.7 78.2,61.5 86.7,51.7 87.8,50.5 86.3,50.5 75.1,45.3 63.9,55.8 66.2,57.4 69.2,54.3 			"/>
			<polygon class="st1" points="78.2,61.5 81.6,63.2 83.8,60.1 85.8,61 84,64.9 88.7,66.8 87.7,68.2 83.1,66.1 81,69.4 78.8,67.9 
				80.8,64.7 77.1,62.7 71.8,68.8 84,75 88.2,78.3 99.4,56.8 98.3,56.6 86.7,51.7 			"/>
			<path class="st6" d="M85.3,39.9c-0.3-1.4-0.7-2.9-1.2-4.2c-1,0.4-1.9,0-2.6-0.9"/>
			<polyline class="st6" points="76.1,44.4 74.9,44 54.4,35 29.2,26.4 48,26.6 62.6,19 72.3,14.7 73.6,14.9 			"/>
			<path class="st6" d="M73.6,14.9c-0.3,0.3-0.5,0.5-0.7,0.6c-1,0.5-2,1-2.9,1.5c-1,0.5-2,1.1-3,1.6c-1,0.5-2,0.9-3.1,1.4
				c-0.5,0.3-1.1,0.5-1.7,0.7c-1,0.4-1.8,0.8-2.6,1.4c-1,0.7-2,1.3-3,1.7c-1.1,0.5-2.1,1.1-3,1.8c-1,0.6-2,1.4-3,2
				c-0.2-0.2-0.4-0.3-0.5-0.3c-1.2,0-2.4,0-3.5-0.1c-1.2,0-2.4-0.1-3.5-0.1c-1.1-0.1-2.3,0-3.4,0.1c-1,0.2-2.1,0.2-3.2,0.1
				c-1.1,0-2.1-0.1-3.2-0.3"/>
			<path class="st6" d="M20.2,37.1c1.4-0.4,2.7-0.9,3.6-1.6c1-0.6,1.4-1.2,1.3-1.6c-0.1-0.5-0.7-0.7-1.9-0.8c-1.1,0-2.4,0.2-3.9,0.6
				c-1.4,0.4-2.7,0.9-3.6,1.5c-1,0.6-1.4,1.2-1.3,1.7c0.2,0.5,0.7,0.7,1.9,0.8C17.4,37.7,18.7,37.5,20.2,37.1"/>
			<polyline class="st6" points="25.7,49.6 13.1,44.8 18.6,40.4 			"/>
			<line class="st6" x1="18.6" y1="40.4" x2="10" y2="36.8"/>
			<path class="st6" d="M56.2,33.1c-0.1,0-0.1,0-0.2,0c-0.3-0.2-0.5-0.3-0.8-0.3"/>
			<path class="st6" d="M56.2,33.1c0.4-0.4,0.9-0.6,1.5-0.7c0.4,0,0.7,0,1,0.1c1.4,0.2,2.2,0.7,2.6,1.8c0.2,0.4,0.2,0.6-0.2,0.7
				c-1.2,0.7-2.2,0.5-3-0.5C57.6,33.9,56.9,33.4,56.2,33.1"/>
			<polyline class="st6" points="57.1,46.2 59,47.8 55.7,49.9 61,52.5 58.8,53.8 54.1,51.5 50.5,54.1 48.7,52.9 52.1,50.2 
				48.1,47.8 49.6,46.7 53.5,48.6 57.1,46.2 			"/>
			<path class="st6" d="M32.1,35.9c-0.2-0.5-0.8-0.7-1.9-0.7c-1.2,0-2.4,0.1-3.9,0.5c-1.5,0.5-2.7,1-3.7,1.6c-1,0.6-1.4,1.2-1.2,1.6
				c0.1,0.5,0.6,0.8,1.8,0.8c1.1,0.1,2.4-0.1,4-0.5c1.4-0.5,2.6-0.9,3.6-1.6C31.8,37,32.2,36.3,32.1,35.9"/>
			<path class="st6" d="M22.1,42c-0.4,0.9-0.5,1.4-0.5,1.6c0.2,0.5,0.7,0.8,1.8,0.8c0.9,0.1,1.8,0,2.8-0.2"/>
			<polyline class="st6" points="51.8,59.6 33.6,47.5 30.6,45.5 22.1,42 			"/>
			<path class="st6" d="M30.6,45.5c-0.6,0.6-0.9,1.1-0.9,1.3c0.2,0.5,0.7,0.8,1.9,0.8c0.4,0,1,0,2-0.1"/>
			<polyline class="st6" points="35,41.5 28,40.6 36.4,36.2 			"/>
			<polyline class="st6" points="54.1,61.1 23.4,53.1 25.7,49.6 			"/>
			<polyline class="st6" points="57.6,61.8 56.5,62.8 54.1,61.1 			"/>
			<line class="st6" x1="54.1" y1="61.1" x2="51.8" y2="59.6"/>
			<line class="st6" x1="44.6" y1="34.7" x2="28.4" y2="29.5"/>
			<line class="st6" x1="51.8" y1="59.6" x2="25.7" y2="49.6"/>
			<line class="st6" x1="22.1" y1="42" x2="18.6" y2="40.4"/>
			<line class="st6" x1="10" y1="36.8" x2="29.2" y2="26.4"/>
			<path class="st6" d="M105.7,24.4l-1-0.4v-0.2l-6.1-2.4L90,28.3c1,0.5,1.7,1.4,2.2,2.6c0.4,0.8,0.4,1.6,0.2,2.5"/>
			<polyline class="st6" points="109.8,23.8 112.4,24.3 112.1,24.8 			"/>
			<line class="st6" x1="105.7" y1="24.4" x2="106" y2="24"/>
			<polyline class="st6" points="112.1,24.8 114.1,25 104.7,46.4 99.4,56.8 			"/>
			<path class="st6" d="M59.2,24c-0.2-0.1-0.4-0.3-0.6-0.5c0,0.3-0.1,0.5-0.4,0.8"/>
			<path class="st6" d="M72.9,23.8c-0.1-0.3-0.3-0.5-0.6-0.7c-0.5-0.3-0.9-0.3-1.4-0.1c-1.1,0.6-2.3,0.5-3.3-0.5
				c-0.4-0.3-0.7-0.2-1.1,0.1c-1,0.8-2,1.3-2.9,1.3"/>
			<path class="st6" d="M63.6,26.6c0.8-0.4,1.6-0.7,2.5-1c1-0.3,2-0.5,2.9-0.8c1-0.3,2-0.5,2.9-0.6"/>
			<path class="st6" d="M74.8,17.1c-0.5-0.2-0.8-0.4-0.9-0.6c0-0.1,0.2-0.3,0.4-0.4c0.1-0.1,0.2-0.2,0.4-0.2
				c0.9-0.2,1.4,0.1,1.3,0.7C75.8,17.1,75.5,17.2,74.8,17.1"/>
			<path class="st6" d="M73.6,19.5c-0.7,0.7-1.6,0.6-2.6-0.1c-0.7-0.6-0.9-1.1-0.5-1.4c0.2-0.2,0.5-0.4,1-0.5c0,0,0,0,0.1,0
				c0.6-0.3,1.3-0.1,1.9,0.5c0.4,0.4,0.5,0.7,0.4,1"/>
			<path class="st6" d="M71.5,20.6c-1.1-0.3-2.2-0.6-3.2-1.1c0,0.3,0,0.5,0,0.8"/>
			<path class="st6" d="M76.7,25.7c-0.7-0.3-1.4-0.4-2.2-0.3c-1.2,0.1-2.4,0.3-3.5,0.5c-1.1,0.2-2.2,0.5-3.3,0.8
				c-1.1,0.4-2.2,0.7-3.2,1c-1,0.4-2,0.7-2.9,1.1c-0.8,0.3-1.4,0.6-2.1,0.9"/>
			<path class="st6" d="M84.5,18c-0.4-0.3-0.7-0.4-1.1-0.5"/>
			<path class="st6" d="M77.8,19.9c-0.2-0.5,0.3-0.8,1.3-0.8c0-0.1,0-0.1,0.1-0.2c0.1-0.3,0.2-0.5,0.4-0.7c1.2-1.3,2.4-0.9,3.5,1.1
				c-0.6,0.5-1.5,0.9-2.7,1.4c-0.2,0.1-0.5,0.3-0.6,0.4c-0.4,0.3-0.8,0.4-1.4,0.2C77,20.7,76.8,20.3,77.8,19.9"/>
			<path class="st6" d="M73.4,22.4c1,0,2,0.1,3,0.5c1,0.5,2.1,0.5,3.3,0.5c1.1-0.1,2.3,0,3.3,0.3c1.3,0.2,2.3,0.6,3.1,1.3"/>
			<path class="st6" d="M91.7,19.3c-0.3-0.2-0.5-0.3-0.8-0.3"/>
			<path class="st6" d="M86.8,20.3c0.2-0.2,0.4-0.3,0.5-0.3c1.2-0.3,2.3-0.3,3.4-0.2c1.4,0.2,2.2,0.9,2.4,2.2c0.1,0.3,0,0.6-0.3,0.8
				c-0.6,0.7-1.6,1.1-2.8,1.4c-1.3,0.2-2.3,0-3.3-0.5c-1.1-0.7-1.4-1.5-0.8-2.4C86.2,20.8,86.5,20.5,86.8,20.3"/>
			<path class="st6" d="M88.4,18.7c-0.7-0.2-1.4-0.4-2-0.5"/>
			<path class="st6" d="M86.8,20.3c0.5-0.3,1.1-0.3,1.8,0"/>
			<polyline class="st6" points="73.6,14.9 91.7,17.4 109.8,23.8 			"/>
			<path class="st6" d="M57.1,25.4c-0.3,0.2-0.5,0.3-0.7,0.4c0.7,0.6,1.1,1.3,1.4,2.2"/>
			<path class="st6" d="M81,34.2c-0.9,0.1-1.8,0.4-2.8,0.7c-1,0.5-2.1,0.5-3.3,0c-0.5-0.2-1-0.4-1.4-0.5"/>
			<path class="st6" d="M86.4,39.7h0.8l11-8.7c0-0.1,0.2-0.2,0.5-0.5h0.3l6.8-6.2"/>
			<line class="st6" x1="89.1" y1="44.5" x2="88" y2="44.5"/>
			<line class="st6" x1="88.1" y1="45.9" x2="86.9" y2="45.1"/>
			<line class="st6" x1="90.2" y1="44.4" x2="89.4" y2="43.9"/>
			<polyline class="st6" points="109.8,23.8 102.3,31.4 91.1,40.4 77.5,43.1 76.1,44.4 			"/>
			<line class="st6" x1="85.7" y1="47.7" x2="83.4" y2="46.3"/>
			<line class="st6" x1="87.1" y1="46.8" x2="85" y2="45.9"/>
			<path class="st6" d="M73.5,34.3c-0.1,0-0.2,0-0.2,0c-0.5-0.1-1.1-0.3-1.5-0.4"/>
			<path class="st6" d="M73.5,34.3c0.4-0.3,0.7-0.5,1.2-1"/>
			<path class="st6" d="M70.4,33.7c0.5-0.5,1.2-0.9,1.9-1.1"/>
			<path class="st6" d="M59.5,29.7c1,0.6,2.1,1.2,3.2,1.6c0.6,0.3,1.2,0.3,1.9,0.1c0.2-0.7,0.6-1.3,1.4-1.6l0.1-0.1c0,0,0,0,0.1,0"
				/>
			<path class="st6" d="M57.9,28.8c0.5-0.3,1.2-0.5,1.8-0.6c0.9-0.2,1.8-0.5,2.7-1"/>
			<path class="st6" d="M59.5,29.7c-0.4,0.2-0.6,0.4-0.9,0.5"/>
			<line class="st6" x1="76.1" y1="44.4" x2="75.1" y2="45.3"/>
			<path class="st6" d="M68,33.4c-0.3-0.4-0.5-0.6-0.8-0.9"/>
			<path class="st6" d="M68.8,30.7c-0.7,0-1.4,0.2-2,0.5"/>
			<polyline class="st6" points="62.7,57 65.2,58.6 62,61.7 63.7,62.7 67.1,59.6 72.2,62 73.3,61 68.1,58.2 71,55.4 69.2,54.3 
				66.2,57.4 63.9,55.8 			"/>
			<line class="st6" x1="63.9" y1="55.8" x2="62.7" y2="57"/>
			<polyline class="st6" points="71.8,68.8 70.5,70.3 57.6,61.8 			"/>
			<polyline class="st6" points="87.8,50.5 86.3,50.5 75.1,45.3 			"/>
			<polyline class="st6" points="112.1,24.8 107.1,33.4 98.6,44.7 88.6,49.5 87.8,50.5 			"/>
			<line class="st6" x1="87.8" y1="50.5" x2="86.7" y2="51.7"/>
			<polyline class="st6" points="78.2,61.5 81.6,63.2 83.8,60.1 85.8,61 84,64.9 88.7,66.8 87.7,68.2 83.1,66.1 81,69.4 78.8,67.9 
				80.8,64.7 77.1,62.7 			"/>
			<line class="st6" x1="78.2" y1="61.5" x2="77.1" y2="62.7"/>
			<line class="st6" x1="86.7" y1="51.7" x2="78.2" y2="61.5"/>
			<line class="st6" x1="75.1" y1="45.3" x2="63.9" y2="55.8"/>
			<line class="st6" x1="77.1" y1="62.7" x2="71.8" y2="68.8"/>
			<line class="st6" x1="99.2" y1="48.5" x2="96.6" y2="47.7"/>
			<line class="st6" x1="97.8" y1="49.2" x2="96.5" y2="49.2"/>
			<polyline class="st6" points="100.4,45.9 100.9,45.9 110.3,30.8 			"/>
			<polyline class="st6" points="94.8,43.3 98.5,38.1 109.1,26.4 			"/>
			<line class="st6" x1="97.1" y1="50.9" x2="95.8" y2="50.5"/>
			<line class="st6" x1="96.6" y1="52.1" x2="94.8" y2="51.5"/>
			<polyline class="st6" points="99.4,56.8 98.3,56.6 86.7,51.7 			"/>
			<path class="st6" d="M95.2,20.4c-0.3-0.1-0.5-0.2-0.9-0.3"/>
			<line class="st6" x1="96.3" y1="53.5" x2="93.6" y2="52.6"/>
			<line class="st6" x1="62.7" y1="57" x2="57.6" y2="61.8"/>
			<polyline class="st6" points="99.4,56.8 88.2,78.3 84,75 71.8,68.8 			"/>
		</g>
	</g>
</g>
</svg>
