<svg id="Layer_1" xmlns="http://www.w3.org/2000/svg" viewBox="0 0 89.7 86.2"><style>.st0{fill:#008DCA;} .st1{fill:none;stroke:#231F20;stroke-width:0.9946;stroke-linecap:round;stroke-linejoin:round;stroke-miterlimit:10;} .st2{fill:none;stroke:#FFFFFF;stroke-width:2.0177;stroke-linecap:round;stroke-linejoin:round;stroke-miterlimit:10;}</style><path class="st0" d="M80.2 42c0 19-14.2 34.5-37.7 34.2-16.2-.3-36.1-15.7-36.1-34.6 0-19 13.8-34 36.3-34C62.3 7.6 80.2 23 80.2 42z"/><ellipse transform="rotate(18.986 41.483 41.573)" class="st1" cx="41.5" cy="41.6" rx="35.2" ry="33.8"/><path class="st1" d="M46.9 8.1c6.2 0 15.6 4.6 18.4 6.5 12.3 8.8 18 24.4 13.1 38.8-3.8 11.1-13 18.8-23.9 21.5-6.5 1.6-14 1.9-20.9-.5"/><path class="st2" d="M54.2 48.6l-7.5-17.3M46.7 31.3l-8.9 10.9M50 28.4c-1.2.5-1.8.7-2.7 2.5M45.3 27.7c1.8-.2 5.7.9 7.5.9M47.3 30.9h-.1l-.1.1-.2.1-.2.2M47 38.7c-.7.3-1.4.7-2.1 1.2-3.2 2-5.5 5.8-4.9 9.8.2 1.1.5 2.2 1 3.2 2 3.7 5.3 6.3 9.2 7.6 2.5.8 5.3 1.2 7.8.6 7.2-1.7 10.3-10.9 6.4-16.9-2.7-4.2-7.5-6.3-12.4-6.4-1.8-.2-3.4.2-5 .9z"/><path class="st2" d="M36.6 41.7l17.6 6.9c.6.2.9.7.9 1.3-.1.9-1 .8-1.6.7-3.1-.7-17.8-3.1-19-3.3"/><path class="st2" d="M38 45.4c-.4 1.3-2.3 2.1-3.5 1.8-1-.2-1.9-.8-2.3-1.8-.7-1.9.3-3.7 2.3-4.2 2.2-.5 4 2.2 3.5 4.2zM27.2 26.9c.5-.7 1.3-1.4 1.7-2.2.4-.8.4-1 1.4-.8 1.1.2 2.3.5 3.4.8M32.6 42.3l-6.5-13.6M24 32.3l3.2-5.4M24 32.3c4.2 3.4 4.7 8.9 2.1 13.3-.9 1.6-2.4 2.7-4.2 3.2-3.6 1-8.2-.4-9.8-4-.8-1.9-1-4.5-.7-6.5.2-1.3.8-2.9 1.6-4 2.4-3.5 7.6-3.7 11-2M18.6 41.7c2.2-2.2 5.4-9.4 5.4-9.4M47.3 30.9l-20.1-4"/></svg>