<svg xmlns="http://www.w3.org/2000/svg" viewBox="0 0 159.5 139" enable-background="new 0 0 159.5 139"><style type="text/css">.st0{fill:#5F5F5F;} .st1{fill:#A3704A;} .st2{fill:#806A50;} .st3{fill:#797979;} .st4{fill:#986C4B;} .st5{fill:#CCCCCC;} .st6{fill:none;stroke:#000000;stroke-linecap:round;stroke-linejoin:round;}</style><path class="st0" d="M46.9 44.5v4.2c.2-.1.3-.1.5-.2 1.4-.6 2.2-2.2 2.8-4.4.2-.5.7-.7 1.5-.8.2-.1.4-.3.4-.5v-.3l-3.5.4c-.6.1-1.1.4-1.4.8 0 .2-.1.5-.3.8m2.1.9c0 .2-.1.3-.1.4-.1.2-.1.2-.2.2s-.2-.1-.2-.2c-.1-.1-.1-.2-.1-.4 0-.1 0-.3.1-.4.1-.1.1-.1.2-.1s.1.1.2.1c0 .2.1.3.1.4z"/><path class="st1" d="M26.6 73.6l1.2.4.8-.1-.8.1 1.3.4-1.8.2 20.5 3.9 2.2-.4 1.8.4-2.2.3 2.7.5c.9 0 1.8.1 2.7.2.5 0 1 .2 1.2.5l3.5-.2c-.1-.4-.1-.6 0-.8L48 76.8l-.6-.1v.5l2.4.4-1.6.3-3.2-.8v-.9l-9.1-1.6v.3L33 75l-2.3-.5 1.7-.5-4.8-.9h-.2c-.6.1-1.1.1-1.7.1l-3.7.4 1.8.3 2.8-.3zM19.6 73.9c-.2.1-.5.3-.6.5l30 6c.1-.4.4-.8.8-.9.8-.1 1.6-.2 2.5-.2l-2.7-.5-.9.2-1.9-.3-.5.3 2.4.4-2.4-.4.4-.4 1.1-.2-20.5-3.9-1.7.2-1.9-.3 1.9.3 1.7-.2-1.8-.4-1.7-.4-1.8-.1-2.4.3z"/><path class="st0" d="M19.6 73.9c.3-.1.5-.2.8-.3h-2.6c-.8.2-1.4.5-1.8 1.1v3.8c.1-.1.2-.2.3-.2 1.1-.8 1.8-1.7 2-2.7.2-.5.4-.8.6-1.1.2-.3.4-.5.7-.6m-2.5 2.6c0 .1-.1.2-.1.2-.1 0-.1-.1-.2-.2 0-.1-.1-.2-.1-.3 0-.1.1-.2.1-.3.1-.1.1-.1.2-.1s.1 0 .1.1c.1.1.1.2.1.3-.1.1-.1.2-.1.3z"/><path class="st1" d="M16.3 78.2l-.5 29.1c1.4 1.1 2.2 2.6 2.8 4.4l29.8 7.9c1-2.1 2.2-3.2 3.6-3.2l.6-31.3c-.4 0-.8-.2-1.2-.4-1.2-.9-2.1-2.2-2.5-3.9 0-.2.1-.4.1-.5l-30-6c-.2.3-.4.6-.6 1.1-.3 1.1-1 2-2.1 2.8z"/><path class="st2" d="M34.3 72.2l1.5.3c2.8.5 5.7.9 8.6 1.3h.5l2.5.1V73c-4.4-1.2-8.8-1.8-13.2-1.9-.6-.1-1 .1-1.4.8l1.2.4c.2-.1.2-.1.3-.1zM30.5 74.5l2.3.4V74l-.6-.1zM35.8 74.6l-3-.6v.9h3z"/><path class="st1" d="M47.3 77.2v-.5l-2.4-.5v.9z"/><path class="st2" d="M59.7 78.9c.2-.3.7-.4 1.4-.2.8.2 1.2.4 1.2.6.1.2.1.5.1.9l-.1 1.9L69 84v-4.4c.1-.1.1-.1.1-.2L48 74.6l.1 2.2 11.6 2.1z"/><path class="st0" d="M51.4 84.8c.4.2.8.4 1.2.4.5.1 1-.1 1.5-.4.9-.6 1.5-1.4 1.9-2.3.2-.6.4-1.3.5-2.1-.1-.2-.2-.5-.4-.6-.2-.3-.7-.5-1.2-.5-.9-.1-1.8-.2-2.7-.2-.8 0-1.6.1-2.5.2-.4.2-.7.5-.8.9 0 .2-.1.4-.1.5.6 1.9 1.4 3.2 2.6 4.1m1.7-3.5c-.4.3-.7.2-1.1-.1-.1-.1-.1-.2-.1-.3.1-.5.5-.8 1.1-.9.1.1.2.1.4.1.4.2.4.5.1.8 0 .2-.2.3-.4.4m-2.3 1.2c0-.2.1-.4.1-.5.1-.2.2-.2.3-.2.1 0 .2.1.2.2.1.1.1.3.1.5s0 .4-.1.5c-.1.2-.2.2-.2.2-.1 0-.2 0-.3-.2 0-.1-.1-.3-.1-.5m3.2.4c-.1-.1-.1-.2-.1-.4s0-.4.1-.5l.2-.2c.1 0 .2.1.2.2.1.1.1.3.1.5s-.1.3-.1.4l-.2.2-.2-.2z"/><path class="st3" d="M53.1 79.9c-.6.1-1 .4-1.1.9-.1.1-.1.2.1.3.4.4.6.4 1.1.1.2-.1.4-.2.5-.4.3-.4.2-.6-.1-.8-.2 0-.4 0-.5-.1z"/><path class="st0" d="M51.5 83c.1-.1.1-.3.1-.5s0-.4-.1-.5c-.1-.2-.2-.2-.2-.2-.1 0-.2.1-.3.2-.1.1-.1.3-.1.5s.1.4.1.5c.1.2.2.2.3.2 0 0 .1 0 .2-.2zM54.6 82.5c0-.2-.1-.4-.1-.5l-.2-.2c-.1 0-.2.1-.2.2-.1.1-.1.3-.1.5s0 .3.1.4l.2.2c.1 0 .2-.1.2-.2s.1-.2.1-.4zM51 121.3c.5.2 1 .2 1.5 0l2.6-.8c0-.2-.1-.4-.1-.6-.1-.2-.1-.4-.2-.6-.5-1.5-1.5-2.5-2.9-2.8-1.4.1-2.6 1.2-3.6 3.2-.1.2-.1.4-.2.5l2.9 1.1m-.8-2.4c0-.1.1-.2.2-.2s.1.1.2.2.1.2.1.4c0 .1 0 .3-.1.4-.1.1-.1.2-.2.2s-.2-.1-.2-.2c-.1-.1-.1-.3-.1-.4 0-.2.1-.3.1-.4m3.1-.2c.1 0 .2.1.3.2.1.1.1.2.1.4s0 .4-.1.5c-.1.1-.2.2-.3.2-.1 0-.2-.1-.2-.2-.1-.1-.1-.3-.1-.5s0-.3.1-.4c0-.2.1-.2.2-.2zM53.1 119.7l.2.2c.1 0 .2-.1.3-.2.1-.1.1-.3.1-.5s0-.3-.1-.4c-.1-.1-.2-.2-.3-.2-.1 0-.2.1-.2.2-.1.1-.1.2-.1.4 0 .3 0 .4.1.5zM15.3 110.5c.1.4.2.6.4.9.1.2.4.3.5.5l2.5.5c-.1-.2-.1-.4-.2-.6-.6-1.8-1.5-3.3-2.8-4.4-.1-.1-.2-.1-.2-.2l-.2 3.3m1.3-1.1c.1 0 .1.1.2.2s.1.2.1.4c0 .1-.1.3-.1.4-.1.1-.1.2-.2.2s-.2-.1-.2-.2c-.1-.1-.1-.2-.1-.4s0-.3.1-.4c0-.1 0-.2.2-.2z"/><path class="st1" d="M69.1 79.4c.4-.4.8-.6 1.1-.5l1.9-.1.1.1 3.5.5v.9l6.5.8.1-27.4c-.4 0-.8-.2-1.2-.4-2.6-2.7-3.8-4.5-3.6-5.5l-27.2-3.7c-.5 2.2-1.4 3.8-2.8 4.4l.5 26.1 21.1 4.8zM90.8 15.7l27.9 1.2h8.7c.4.2.6.4.8.6l9.4-.2c-.2-.2-.4-.4-.7-.5l-2.1-.1-30.7-1.3c-1.6.4-3.2.4-4.7 0l-8.6.3zM85.5 16.4c-.2.2-.3.4-.5.6-.8 2.4-1.9 4.2-3.4 5.7v20.9l10.8 1.2c.2-.4 1.5-.3 4 .1.7.2 1.1.7 1.2 1.4l-.2 5.8c-.1-.1-.2-.1-.4-.2l.1 11.5 8.8 1.2c.2-.2.5-.4.8-.4h.9c-.2.1-.5.2-.6.4 3.2.6 5.5.9 6.8.8l-3-.7.8-.3 3.1.4v.9c1.7.3 4.1.5 7.2.4l.6-40.7c-.4-.1-.8-.2-1.2-.5-3.1-2.9-4.5-4.9-4.2-5.9.1-.4.1-.8.2-1.1l-31.8-1.5m14 29.2c.4 0 .6.2.8.6.4.8.5 1.8.3 2.8 0 .1 0 .2-.1.4.1 0 .2.1.2.2.4.8.4 1.6.2 2.5.3 1.6.4 3.3.4 4.9 0 .6.1 1.2.1 1.8.1 1.2.1 2.4-.1 3.5-.1.5-.3.8-.8.8-.3.1-.5 0-.7-.1-.1.1-.2.2-.3.2-.8.1-1.2-.1-1.2-.7-.1-.1-.2-.2-.2-.4-.2-.5-.3-.9-.4-1.5-.1-.4-.1-.8 0-1.1-.2-.8-.3-1.8-.3-2.6 0-2.4.1-4.7.5-7v-.4c-.1-.6.1-1.1.4-1.4v-.9c.2-.8.5-1.3 1.2-1.6z"/><path class="st4" d="M98.1 49.5v.4c-.4 2.3-.5 4.7-.5 7 0 .9.1 1.8.3 2.6-.1.4-.1.7 0 1.1.1.5.2 1 .4 1.5.1.2.1.3.2.4.1.6.5.8 1.2.7.1 0 .2-.1.3-.2.2.1.4.1.7.1.5 0 .7-.3.8-.8.1-1.2.1-2.4.1-3.5-.1-.6-.1-1.2-.1-1.8 0-1.6-.1-3.4-.4-4.9.2-.9.1-1.7-.2-2.5-.1-.1-.1-.2-.2-.2.1-.2.1-.3.1-.4.2-1 .1-1.9-.3-2.8-.2-.4-.5-.6-.8-.6-.7.2-1 .8-1 1.5v.9c-.5.4-.7.8-.6 1.5z"/><path class="st0" d="M121.4 24.8c.4.3.8.4 1.2.5.5.1 1 0 1.5-.3 2.2-2.3 3.6-4.1 4.1-5.4.2-.5.3-.9.2-1.2 0-.4-.1-.6-.2-.8-.2-.2-.5-.5-.8-.6h-8.7c-.6.1-1.1.4-1.3.9-.1.3-.2.6-.2 1.1-.3.9 1.2 2.9 4.2 5.8m-.9-6.5c0-.1 0-.2.1-.2.6-.5 1.2-.7 2.1-.6.2 0 .3.1.5.1.1.1.2.1.3.2.4.4.4.6-.1.9-.4.6-.5 1.2-.7 1.9-.1.1-.1.2-.2.3-.2.1-.4.2-.5.2-.1 0-.2 0-.4-.1-.1 0-.2-.1-.2-.2 0-.2-.1-.3-.1-.5-.1-.1-.2-.2-.2-.4-.1-.2-.2-.5-.4-.6-.3-.3-.4-.6-.3-.9l.1-.1m-1.6.2c.1.2.1.3.1.5s-.1.4-.1.5c-.1.2-.2.2-.3.2-.1 0-.2-.1-.3-.2-.1-.1-.1-.3-.1-.5s0-.4.1-.5c.1-.1.2-.2.3-.2.2 0 .2.1.3.2m1.2 2.8c0 .2 0 .3-.1.4-.1.2-.2.2-.3.2-.1 0-.2-.1-.3-.2-.1-.1-.1-.2-.1-.4s.1-.4.1-.5c.1-.1.2-.2.3-.2.1 0 .2.1.3.2.1.1.1.3.1.5m6.4 0c-.1.2-.2.2-.3.2-.1 0-.2-.1-.3-.2-.1-.1-.2-.4-.2-.5 0-.2.1-.4.2-.6.1-.1.2-.2.3-.2.1 0 .2.1.3.2.1.2.1.4.1.6 0 .2 0 .4-.1.5m-2.1 2.1l-.2.2c-.1 0-.2-.1-.2-.2-.1-.1-.1-.3-.1-.5s.1-.3.1-.5c.1-.1.1-.2.2-.2s.2.1.2.2c.1.2.1.3.1.5-.1.2-.1.4-.1.5z"/><path class="st3" d="M121.2 19.9c.1.2.1.3.2.4 0 .2.1.3.1.5 0 .1.1.2.2.2.1.1.2.1.4.1.1 0 .3-.1.5-.2.1-.1.2-.2.2-.3.2-.7.4-1.3.7-1.9.4-.3.4-.6.1-.9-.1-.1-.2-.1-.3-.2-.2-.1-.3-.1-.5-.1-.8-.1-1.5.1-2.1.6-.1.1-.1.1-.1.2v.1c-.1.3 0 .6.3.9 0 .1.2.4.3.6z"/><path class="st0" d="M118.2 19c0 .2 0 .4.1.5.1.2.2.2.3.2.1 0 .2-.1.3-.2.1-.1.1-.3.1-.5s-.1-.4-.1-.5c-.1-.1-.2-.2-.3-.2-.1 0-.2.1-.3.2-.1.2-.1.3-.1.5zM119.4 20.8c-.1.1-.1.3-.1.5s.1.3.1.4c.1.2.2.2.3.2.1 0 .2-.1.3-.2.1-.1.1-.2.1-.4s0-.4-.1-.5c-.1-.1-.2-.2-.3-.2-.1 0-.2.1-.3.2zM126.2 20c-.1 0-.2.1-.3.2-.1.2-.2.4-.2.6 0 .2.1.4.2.5.1.2.2.2.3.2.1 0 .2-.1.3-.2.1-.1.1-.4.1-.5 0-.2 0-.4-.1-.6-.1-.1-.2-.2-.3-.2z"/><path class="st1" d="M90.8 15.7l-4.1.1c-.5.1-.9.3-1.2.6l31.9 1.4c.2-.5.7-.8 1.3-.9l-27.9-1.2zM128.1 29h.7v2.5l.5-.1v-5.6h.6l4.8.1-.4 11-4.3.4-.8-.4v-2.1l-.6.2v2.1l-.8.1-.5 28.2 7.1-1.5.6-4.2V59.4l-3.2-.8c0 .1 0 .2-.1.3-.1.1-.2.2-.4.2-.1 0-.2-.1-.4-.2-.1-.1-.2-.2-.2-.4 0-.1.1-.2.2-.4.1-.1.1-.1.2-.1-.4-3.8.2-6.2 1.9-7.6-2.4.9-3.2 3.8-2.5 8.4-.8-4.7.1-7.5 2.5-8.4 1.4 2.2 1.9 4.8 1.6 7.8l1.4.3h.7c.5.3.8 1.9.9 4.6l1.8-.4.9-39.3c-1.3-.9-2.2-2.9-2.8-6.3l-9.4.2c.1.2.2.5.2.8.1.3 0 .7-.2 1.2V29z"/><path class="st0" d="M135.8 16.4c.4.1.8.1 1.1.4.3.1.5.3.7.5.5 3.4 1.5 5.4 2.8 6.3.2.1.3.2.5.2l.3-5.9c-.1-.8-.5-1.2-1.2-1.5h-4.2m5 1.9l-.2.2c-.5.2-.8 0-.8-.5-.2-.1-.2-.2-.3-.4-.2-.4 0-.6.5-.7.1 0 .2 0 .3.1.4.3.6.7.5 1.3m-1.5.3c.1.1.1.3.1.5s-.1.3-.1.4c-.1.1-.1.2-.2.2s-.2-.1-.2-.2c-.1-.1-.1-.2-.1-.4s0-.4.1-.5c.1-.1.1-.2.2-.2l.2.2m.6 2.2c.1.1.1.3.1.5s-.1.3-.1.4c-.1.2-.1.2-.2.2s-.2-.1-.3-.2c0-.1-.1-.2-.1-.4s.1-.4.1-.5c.1-.1.2-.2.3-.2.1 0 .1.1.2.2z"/><path class="st3" d="M139.5 17.6c.1.2.1.3.3.4.1.5.4.7.8.5l.2-.2c.1-.6-.1-1-.5-1.3-.1-.1-.2-.1-.3-.1-.5.1-.7.3-.5.7z"/><path class="st5" d="M132.5 34.4c-.8.1-1.6.2-2.5.4v2.5l4.3-.4.4-11-4.8-.1v5.5l3.1-.2-.1 2.6-.4.7m1.2-5.8c0 .3-.1.6-.2.8-.2.2-.4.4-.6.4h-.2l-.8.1c-.1 0-.1 0-.2-.1-.2 0-.3-.1-.4-.2-.2-.2-.2-.5-.2-.9 0-.3.1-.6.3-.8.1-.2.3-.4.5-.4l.9-.1c.2.1.5.1.6.4.3.2.4.5.3.8zM132.4 27.8c-.1.2-.2.5-.2.8 0 .4.1.6.2.9.1.1.2.2.4.2 0 0 .1 0 .1.1h.1c.2-.1.4-.2.6-.4.1-.2.2-.5.2-.8.1-.4 0-.6-.2-.8-.1-.2-.4-.3-.6-.4-.3.1-.4.2-.6.4zM131.2 28.7c0 .4.1.6.2.9.1.1.2.2.4.2.1.1.1.1.2.1l.8-.1v-.1c-.2 0-.3-.1-.4-.2-.2-.3-.2-.5-.2-.9 0-.3.1-.6.2-.8.2-.2.3-.4.5-.4l-.9.1c-.2.1-.4.2-.5.4-.1.2-.3.5-.3.8zM129.9 31.4h-.6l-.5.1h-1.5v2.9h1.4l4.2-.5.1-2.7z"/><path class="st1" d="M122 66c1.1.2 2.8 0 5.4-.6l.5-28.2-1.6.2.2-8.3 1.6-.1.2-9.5c-.5 1.3-1.9 3.1-4.1 5.4-.5.3-1 .4-1.5.3L122 66z"/><path class="st5" d="M126.5 29.1l-.2 8.3 1.6-.2.8-.1V35l-1.4-.6v-2.9h1.5V29h-.7zM129.2 34.8v2.1l.9.4v-2.5z"/><path class="st1" d="M136.1 58.6l-1.4-.3-2.8.1V58.7l3.2.8c0-.2.1-.3.2-.4-.1-.1.2-.2.8-.5z"/><path class="st2" d="M135.8 59.6c.1 1.4.1 2.7.1 4 .1 2.2 0 4.2-.1 6.2-.1 3.6-.4 7.1-.6 10.3.6.1 1.2.1 1.8-.1.4-4.1.6-7.6.8-10.5.1-1.8.1-3.4.1-4.8 0-.5 0-1.1-.1-1.5-.1-2.7-.4-4.3-.9-4.6h-.7c-.5.2-.8.4-.9.4-.1.1-.2.2-.2.4l.7.2zM137.7 63.2c.1.5.1 1 .1 1.5 0 1.4 0 2.9-.1 4.8l1.6-.4.8-.2v-6.2l-.6.1-1.8.4zM134.4 63.9c-.2 2.2-.4 4.3-.5 6.4-.1 2.5 0 5 .2 7.4v.2c.1.8.2 1.5.3 2.3l.6-.1c.3-3.2.5-6.7.6-10.3.1-2 .1-4.1.1-6.2 0-1.3 0-2.6-.1-4 0 .3-.1.5-.2.5-.2 0-.3-.1-.4-.2-.1-.1-.1-.2-.2-.2 0 1.4-.2 2.9-.4 4.2zM131.8 58.4l-.1-.1c-.1-.1-.2-.2-.4-.2-.1 0-.1 0-.2.1-.1 0-.1.1-.2.1-.1.1-.2.2-.2.4s.1.3.2.4c.1.1.2.2.4.2s.3-.1.4-.2c.1-.1.1-.2.1-.3v-.4zM134.7 58.3c.4-3-.2-5.5-1.6-7.8-1.8 1.4-2.4 3.8-1.9 7.6.1-.1.1-.1.2-.1.2 0 .3.1.4.2l.1.1h2.8m-1.6-1.6c-.1.2-.2.2-.3.2-.1 0-.2-.1-.2-.2-.1-.1-.1-.2-.1-.5 0-.2.1-.4.1-.5l.2-.2c.1 0 .2.1.3.2.1.1.1.3.1.5 0 .3 0 .4-.1.5zM132.8 55.6c-.1 0-.2.1-.2.2-.1.1-.1.3-.1.5s.1.4.1.5c.1.2.2.2.2.2.1 0 .2-.1.3-.2.1-.1.1-.2.1-.5 0-.2 0-.4-.1-.5-.1-.2-.2-.2-.3-.2zM114.8 65.6V72c2.4.4 4.8.5 7.1.5 1.9 0 3.6-.3 5.4-.8l6.7-1.4c.1-2.1.2-4.2.5-6.4l-7.1 1.5c-2.5.6-4.3.8-5.4.6-3.1.1-5.5-.1-7.2-.4m2.9 3.7c-.1-.1-.2-.2-.2-.3 0-.1.1-.2.2-.3.1-.1.2-.1.3-.1.1 0 .2 0 .3.1.1.1.1.2.1.3 0 .1 0 .2-.1.3-.1.1-.2.2-.3.2-.1 0-.2-.1-.3-.2m5.6 0c-.1.1-.2.2-.4.2-.1 0-.2-.1-.3-.2-.1-.1-.1-.2-.1-.3 0-.1.1-.2.1-.3.1-.1.2-.1.3-.1.1 0 .2 0 .4.1.1.1.1.2.1.3 0 .1 0 .2-.1.3m3.1-.5c0-.1.1-.2.2-.4.1-.1.2-.1.3-.1.1 0 .2.1.3.1.1.1.1.2.1.4 0 .1 0 .2-.1.3-.1.1-.2.1-.3.1-.1 0-.2-.1-.3-.1-.2-.2-.2-.2-.2-.3zM118.4 69c0-.1 0-.2-.1-.3-.1-.1-.2-.1-.3-.1-.1 0-.2 0-.3.1-.1.1-.2.2-.2.3 0 .1.1.2.2.3.1.1.2.2.3.2.1 0 .2-.1.3-.2.1-.1.1-.2.1-.3zM122.9 68.6c-.1 0-.2 0-.3.1-.1.1-.1.2-.1.3 0 .1.1.2.1.3.1.1.2.2.3.2.1 0 .2-.1.4-.2.1-.1.1-.2.1-.3 0-.1-.1-.2-.1-.3-.1-.1-.2-.1-.4-.1zM127.1 69.1c.1-.1.1-.2.1-.3 0-.1 0-.2-.1-.4-.1-.1-.2-.1-.3-.1-.1 0-.2.1-.3.1-.1.1-.2.2-.2.4 0 .1.1.2.2.3.1.1.2.1.3.1.1 0 .3-.1.3-.1z"/><path class="st0" d="M96.4 44.9c-2.5-.4-3.8-.5-4-.1.2.5.6.9 1.2 1.1.4.2.7.5.7.7.6 2.7 1.5 4.5 2.8 5.2.1.1.3.2.4.2l.2-5.8c-.2-.6-.6-1-1.3-1.3m-2.7.2h.8c.1.1.2.1.2.1 0 .1-.1.1-.2.1s-.2.1-.4.1c-.1 0-.2-.1-.4-.1-.1 0-.1-.1-.1-.1l.1-.1m1.8 3.1c-.1-.1-.1-.2-.1-.4 0-.1.1-.3.1-.4 0-.1.1-.1.1-.1.1 0 .1.1.2.1.1.1.1.3.1.4 0 .2 0 .3-.1.4-.1.1-.1.2-.2.2 0-.1-.1-.1-.1-.2m1.4 2.2c-.1.1-.1.2-.2.2s-.1-.1-.1-.2c-.1-.1-.1-.2-.1-.4s0-.3.1-.4c0-.1.1-.2.1-.2.1 0 .1.1.2.2 0 .1.1.2.1.4s-.1.3-.1.4z"/><path class="st5" d="M113.9 65.3h.2v3.3h.4-.4L114 72h-2.4l3.2.5V64.7l-3.1-.4-.8.3 3 .7z"/><path class="st2" d="M107 64.6c-.1.1-.1.2-.2.3-.3 2.1-.4 3.9-.1 5.7.1.3.3.5.8.7H107.8c1.5.3 2.9.5 3.9.6.8.1 1.5.1 2.1.1h.3l.1-3.4-1.1-.1-.1-.1c-.1.1-.1.1-.1.2s.1.2.2.3c-.1-.1-.2-.2-.2-.3 0-.1 0-.1.1-.2l.1.1 1.1.1v-3.3h-.2c-1.5.2-3.8-.1-7-.7m1.3 3.9c-.1-.1-.1-.2-.1-.3 0-.1.1-.2.1-.3.1-.1.2-.1.3-.1.1 0 .2 0 .4.1.1.1.1.2.1.3 0 .1-.1.2-.1.3-.1.1-.2.2-.4.2-.1-.1-.2-.1-.3-.2zM109.1 68.2c0-.1-.1-.2-.1-.3-.1-.1-.2-.1-.4-.1-.1 0-.2.1-.3.1-.1.1-.1.2-.1.3 0 .1.1.2.1.3.1.1.2.1.3.2.1 0 .2-.1.4-.2 0 0 .1-.1.1-.3zM107.7 64.2h-.9c-.3.1-.6.2-.8.4-.1.1-.2.2-.2.3-.2 2.6-.2 4.5 0 5.7.1.4.4.6.7.6h1.1c-.5-.2-.7-.4-.8-.7-.2-1.7-.2-3.5.1-5.7.1-.1.2-.2.2-.3.1-.1.4-.2.6-.3zM97.1 63.4l.1 5.7 8.5 1.5c-.2-1.1-.2-3 0-5.7.1-.1.2-.2.2-.3l-8.8-1.2z"/><path class="st0" d="M81.1 23.1c.2-.2.4-.3.5-.4 1.5-1.4 2.6-3.3 3.4-5.7.2-.3.3-.5.5-.6.4-.3.8-.5 1.2-.6H82c-.6.1-1 .6-1.2 1.5l.3 5.8m2.2-5.3l.2-.2c.1 0 .2.1.2.2.1.1.1.2.1.4s-.1.4-.1.5c-.1.1-.1.2-.2.2s-.2-.1-.2-.2c-.1-.1-.1-.3-.1-.5s0-.3.1-.4m-.7 2.6c-.1.1-.1.2-.2.2s-.1-.1-.2-.2-.1-.3-.1-.5 0-.3.1-.5c.1-.1.1-.2.2-.2s.2.1.2.2c0 .2.1.3.1.5-.1.2-.1.4-.1.5z"/><path class="st1" d="M53.3 42.7l-1.2.1c0 .2-.2.4-.4.5-.8.1-1.4.3-1.5.8l27.2 3.7c0-1 .5-1.6 1.3-1.8l.1-.1-25.5-3.2z"/><path class="st0" d="M81 53.3c.4.2.8.4 1.2.4.4.1.8-.1 1.2-.3 1.4-1.6 2.5-2.9 3.1-4 .4-.7.6-1.3.6-1.8.1-.1.1-.2 0-.4 0-.6-.4-1.1-.9-1.3h-7.5c-.8.2-1.3.8-1.3 1.8-.3 1.1 1 2.9 3.6 5.6m1.5-6.7c.2.1.3.1.4.2.4.4.4.7-.2 1 0 .2-.1.4-.2.6-.2.2-.4.3-.6.3-.3-.1-.4-.2-.4-.5.1-.2.1-.3.1-.4-.1-.8.2-1.1.9-1.2m1.6 4.9c-.1 0-.2-.1-.2-.2-.1-.1-.1-.2-.1-.4s0-.4.1-.5l.2-.2c.1 0 .2.1.3.2.1.1.1.3.1.5s-.1.3-.1.4c-.1.1-.2.2-.3.2m-3.5-1.3c.1.2.1.3.1.5s-.1.4-.1.5c-.1.2-.2.2-.2.2-.1 0-.2-.1-.2-.2-.2-.2-.2-.3-.2-.5s0-.4.1-.5c.1-.1.1-.2.2-.2s.2 0 .3.2m-1.4-1.3c0 .2-.1.3-.1.4-.1.1-.2.2-.3.2-.1 0-.2-.1-.2-.2-.1-.1-.1-.2-.1-.4 0-.1 0-.3.1-.4l.2-.2c.1 0 .2.1.3.2 0 .1.1.3.1.4m6.8-.2c0 .2 0 .4-.1.5-.1.2-.2.2-.3.2-.1 0-.2-.1-.2-.2-.1-.1-.1-.2-.1-.5 0-.2.1-.4.1-.5l.2-.2c.1 0 .2.1.3.2.1.2.1.4.1.5z"/><path class="st3" d="M81.8 48.7c.3 0 .5-.1.6-.3.2-.2.2-.4.2-.6.5-.3.6-.6.2-1-.1-.1-.2-.1-.3-.2h-.1c-.6.1-1 .4-1.1 1.1 0 .1 0 .2-.1.4.2.4.3.5.6.6z"/><path class="st0" d="M84.4 50.4c-.1-.1-.2-.2-.3-.2-.1 0-.2.1-.2.2-.1.1-.1.3-.1.5s0 .3.1.4l.2.2c.1 0 .2-.1.3-.2.1-.1.1-.2.1-.4s-.1-.4-.1-.5zM80 50.7c0 .2 0 .4.1.5.1.2.1.2.2.2s.2-.1.2-.2c.1-.1.1-.3.1-.5s-.1-.4-.1-.5c0-.2-.1-.2-.2-.2s-.2.1-.2.2c-.1.1-.1.3-.1.5zM78.6 48.5c-.1.1-.1.3-.1.4 0 .2 0 .3.1.4l.2.2c.1 0 .2-.1.3-.2.1-.1.1-.2.1-.4 0-.1-.1-.3-.1-.4-.1-.1-.2-.2-.3-.2-.1 0-.2.1-.2.2zM85.4 48.3c-.1.1-.1.3-.1.5s.1.4.1.5c.1.2.2.2.2.2.1 0 .2-.1.3-.2.1-.2.1-.3.1-.6 0-.2 0-.4-.1-.5-.1-.1-.2-.2-.3-.2 0 .1-.2.2-.2.3z"/><path class="st1" d="M86.2 46c.6.2.9.7.9 1.3.1.1.1.2 0 .4l7.1-1.1c0-.2-.3-.5-.7-.7-.6-.2-.9-.6-1.2-1.1l-10.8-1.2-17-1.8c-1.6.4-3.1.3-4.6-.1l-6.8 1 25.4 3.2.9.1h6.8zM87.1 47.7c0 .5-.2 1.1-.6 1.8l.1 9v.1l.8 1.6h.8l-.1-6.1 4.5-.4 1 .4V64l-4.9.7-.7-.1v-.9h-.3l-.6 1.1c0 .5-.1 1-.4 1.5v.2l.1 14.2 5.4-1.2c0-1.5.1-3 .2-4.5.1-.1.2-.3.2-.4l-.6-.2-.8-.2-1.6.2h-.1s-.2-.1-.2-.2l-.8-.8v-.2c-.2-1.9-.2-3.9 0-5.9.5-.8 1.2-1.3 2.1-1.3.1-.1.1-.1.2-.1.1-.1.3-.1.4-.2.9.2 1.5.5 1.9 1.1.3 2.1.3 4.2.1 6.3-.2.1-.2.1-.2.2l1.1.5h.6c.1 1.7.2 3.5.3 5.2l2.2-.5v-9.4l-.1-5.7-.1-11.5c-1.2-.8-2.2-2.5-2.8-5.2l-7.1 1z"/><path class="st5" d="M85.3 66.2l.2.2v.1c.2.2.6.2 1.2 0v-.2c.3-.5.4-.9.4-1.5l.6-1.1h.3l3.9-.5v-3h-4.5l-.8-1.6v-.1c-.4-.2-.8-.2-1.3-.1v7.8z"/><path class="st1" d="M86.5 49.5c-.6 1.1-1.6 2.4-3.1 4-.4.2-.8.4-1.2.3l-.1 27.4c1.6.1 3.2 0 4.7-.4l-.1-14.2c-.5.2-.9.2-1.2 0v-.1c-.5.1-.8-.2-.9-.6l-.2-6.7c-.1-.5.2-.8.8-.8.5-.1.9-.1 1.3.1v-9z"/><path class="st5" d="M88 63.7v.9l.7.2V64v.8l4.9-.7v-9.9l-4.6.4-.1 5.6h2.9v3l-3.8.5m4.4-6.9c.2 0 .4.1.5.3.1.2.1.5.1.8 0 .4 0 .6-.1.8-.1.1-.1.2-.2.3-.1 0-.2 0-.2-.1l-.9.1c-.1 0-.2-.1-.2-.2-.1 0-.1-.1-.1-.1-.1-.2-.2-.5-.2-.8 0-.3.1-.6.2-.8.1-.2.1-.3.2-.3h.9zM91 57.8c0 .4.1.6.2.8 0 .1 0 .1.1.1l.2.2.9-.1c-.1 0-.1-.1-.1-.1-.1 0-.1-.1-.1-.1-.1-.2-.2-.5-.2-.8 0-.3.1-.6.2-.8.1-.2.1-.3.2-.3h-1.1c-.1 0-.1.1-.2.3 0 .2-.1.5-.1.8zM92.1 57.8c0 .4.1.6.2.8 0 .1 0 .1.1.1 0 .1.1.1.1.1.1.1.2.1.2.1.1-.1.2-.2.2-.3.1-.2.1-.5.1-.8 0-.3 0-.6-.1-.8-.1-.2-.2-.3-.5-.3-.1 0-.1.1-.2.3 0 .2-.1.5-.1.8z"/><path class="st2" d="M89.2 67.2c-.2 2-.2 4 0 5.9v.2l.1-.1.2-.2h.1c.1.1.2.1.2.2.1 0 .1 0 .1.1L93 73h.1c.2-2.1.2-4.2-.1-6.3-.4-.5-1-.9-1.9-1.1-.1.1-.3.1-.4.2-.1 0-.1 0-.2.1-.5.3-.9.7-1.3 1.3m2 3.4c.1 0 .2.1.3.2.1.2.1.3.1.5s-.1.4-.1.5c-.1.1-.2.2-.3.2-.1 0-.2-.1-.3-.2-.1-.1-.1-.3-.1-.5s0-.4.1-.5c.1-.2.2-.2.3-.2z"/><path class="st0" d="M64.7 41.8c.2-.1.4-.1.5-.2-1.1-.3-2.2-.4-3.2-.4s-1.8.1-2.5.4c.2.1.4.1.5.2 1.5.3 3.1.4 4.7 0z"/><path class="st1" d="M56 82.6l-1.1 36.7c.1.2.1.4.2.6l3.6-1c.2-2.5 1.2-4.1 2.8-4.7l.1-1.5.3-28.7c-1.3-.6-2.1-1.9-2.2-4.2l-3.5.2c.2.1.3.4.4.6-.2.7-.4 1.4-.6 2z"/><path class="st0" d="M61.9 84c.2.1.3.1.4.2v-1.9l.1-1.9c-.1-.4-.1-.6-.1-.9 0-.3-.4-.5-1.2-.6-.7-.2-1.2-.1-1.4.2-.1.2-.1.5 0 .8.1 2.1.9 3.5 2.2 4.1m-.7-3.1c.1.1.1.2.1.4s0 .3-.1.4c0 .1-.1.1-.1.1-.1 0-.1-.1-.2-.1v-.8c.1-.1.1-.1.2-.1s.1 0 .1.1z"/><path class="st1" d="M50 78.1l-2.2.4 1.7.3 2.3-.3z"/><path class="st2" d="M69 79.6v5.2c.4.2.8.4 1.2.3v-.4l.1-4.8v-.5c.5-.4 1.1-.6 2-.6l-.1-.1-1.9.1c-.4-.1-.8.1-1.1.5-.1.2-.2.2-.2.3z"/><path class="st5" d="M70.2 79.9c.5.1 1.5.1 2.9 0l-2.1-.4 2.2.5 1.5.3v2.2l.4.1-.4-.1V85.6l1 .3V79.4l-3.5-.5c-.9 0-1.5.2-2 .6v.4z"/><path class="st2" d="M70.1 84.7c1.5.2 3.1.2 4.5 0v-2.3l-.9-.2.9.2v-2.2l-1.5-.3c-1.4.1-2.4.1-2.9 0l-.1 4.8z"/><path class="st1" d="M61.5 112.7l16.4 4.8c.7-2.2 2.1-3.5 4.1-3.9l.1-27.9-6.4-.7v.8l-1-.3-.9-.2.9.2v-.8c-1.5.2-3 .2-4.5 0v.4c-.4.1-.8-.1-1.2-.3V84l-6.7-1.8v1.9c-.1-.1-.2-.1-.4-.2l-.4 28.8m3.1-28.9c.2.9.4 1.9.5 2.9.4.2.6.6.6 1.1 0 1.1-.1 2.2-.2 3.3-.1 1.1-.1 2.3-.1 3.4.1 1.2.1 2.3 0 3.5-.1.4-.1.9-.2 1.3-.2 1.6-.4 3.2-.5 4.9.1.1.2.2.2.4.4 1.8.5 3.5.4 5.4-.1.3-.1.6-.1.9 0 .8-.4 1.4-.9 1.7-.1.2-.4.2-.5.1-.9-.5-1.4-1.3-1.2-2.5-.1-.1-.1-.2-.1-.4-.2-1.4-.3-2.8-.4-4.1 0-1.1 0-2.1-.1-3.1-.1-2.4.1-4.7.4-6.9.4-2.3.5-4.5.4-6.9-.1-1.2-.1-2.4-.2-3.5-.2-1 .2-1.6 1.1-1.9.1.1.2.1.4.1.4 0 .4.1.5.3z"/><path class="st4" d="M62.7 85.2c.1 1.2.1 2.4.2 3.5.1 2.4-.1 4.6-.4 6.9-.4 2.2-.5 4.6-.4 6.9.1 1 .1 2 .1 3.1.1 1.4.2 2.8.4 4.1 0 .1.1.2.1.4-.2 1.2.2 2 1.2 2.5.2.1.4.1.5-.1.6-.4.9-.9.9-1.7 0-.3 0-.6.1-.9.1-1.8.1-3.6-.4-5.4 0-.1-.1-.3-.2-.4.1-1.6.3-3.2.5-4.9.1-.4.1-.9.2-1.3.1-1.2.1-2.3 0-3.5-.1-1.1-.1-2.3.1-3.4.1-1.1.2-2.2.2-3.3 0-.5-.2-.9-.6-1.1-.1-1-.2-1.9-.5-2.9-.1-.2-.1-.4-.4-.5-.2-.1-.3-.1-.4-.1-.9.4-1.4 1.1-1.2 2.1z"/><path class="st1" d="M52 116.5c1.4.4 2.4 1.3 2.9 2.8L56 82.6c-.4.9-1.1 1.7-1.9 2.3-.5.3-1 .4-1.5.4l-.6 31.2z"/><path class="st2" d="M75.7 85l6.5.7c1.5.2 3.1.1 4.7-.5l5.3-1.1c0-1.5 0-3 .1-4.6l-5.4 1.2c-1.5.4-3.1.5-4.7.4l-6.5-.8V85m2.4-2.3c.1.1.1.2.1.3 0 .1-.1.2-.1.3-.1.1-.2.1-.3.1-.1 0-.2 0-.3-.1-.1-.1-.1-.2-.1-.3 0-.1 0-.2.1-.3.1-.1.2-.1.3-.1.1 0 .2 0 .3.1zM91.2 74.1l1.1-.2.1-.1h.9l.8-.1-1.1-.4v-.2l-3.1.3c.1.1.1.2.2.4l1.1.3zM89.3 74.1c-.1-.1-.1-.2-.1-.4 0-.1.1-.2.1-.4v-.2c-.2-1.9-.2-3.9 0-5.9.4-.6.8-1.1 1.4-1.3-.9 0-1.6.5-2.1 1.3-.2 2-.2 4 0 5.9v.2l.7.8zM93.3 73.8l-.8.1c.1.1.1.2.1.4.2 1.7.4 3.4.5 5.1.1 1.5.2 3 .2 4.5 0 2.8-.1 5.4-.4 8.1v.1c.1.1.1.2.1.4s0 .3-.1.4c-.1.1-.2.2-.3.2H94.3c.5-.4.6-.9.6-1.6.2-2.5.2-5.2.2-7.9 0-1.5-.1-3-.1-4.5-.1-1.7-.2-3.5-.3-5.2h-.6l-.8-.1zM92.1 84.1c0 2.4.1 4.8.2 7.1.1.1.1.4.2.6.1-.1.1-.1.2-.1s.2.1.3.2c.3-2.6.4-5.3.4-8.1 0-1.5-.1-3-.2-4.5-.1-1.7-.3-3.4-.5-5.1 0 .1 0 .2-.1.3 0 .1-.1.3-.2.4-.1 1.5-.2 3.1-.2 4.5-.1 1.7-.1 3.2-.1 4.7zM90 91.1c.1.1.2.1.2.2.1.1.1.3.1.4v.1l1.9.6v-.1c0-.2.1-.4.1-.5.1 0 .1 0 .1-.1-.1-.2-.1-.5-.2-.6H90zM92.4 91.9c-.1.1-.1.3-.1.5v.1c0 .1.1.3.1.4l.2.2c.1 0 .2-.1.3-.2.1-.1.1-.2.1-.4s0-.3-.1-.4V92c-.1-.1-.2-.2-.3-.2 0-.1-.1 0-.2.1zM90.4 91.8c-.1.1-.1.2-.1.3-.1.1-.2.2-.3.2-.1 0-.2-.1-.2-.2-.2.6-.4 1.3-.5 1.8-.3 1.2-.3 2.2-.2 3.1.5 1.2 1.1 1.8 1.8 2 .2.1.5.1.6 0 .2-.1.4-.1.6-.2.6-.3.9-.9 1.1-1.6.2-1.2.3-2.6.2-4.2h-.8c-.1 0-.2-.1-.2-.2-.1-.1-.1-.2-.1-.4l-1.9-.6m1.3 2.7c0 .2 0 .4-.1.5-.1.1-.2.2-.3.2-.1 0-.2-.1-.3-.2-.1-.1-.2-.3-.2-.5s.1-.4.2-.5c.1-.1.2-.2.3-.2.1 0 .2.1.3.2.1.1.1.3.1.5zM91 94c-.1.2-.2.3-.2.5s.1.4.2.5c.1.1.2.2.3.2.1 0 .2-.1.3-.2.1-.1.1-.3.1-.5s0-.4-.1-.5c-.1-.1-.2-.2-.3-.2-.1 0-.2 0-.3.2z"/><path class="st1" d="M93.2 97.1c-.2.8-.5 1.4-1.1 1.6-.2.1-.4.2-.6.2-.2.1-.4.1-.6 0-.9.2-1.6-.2-2.1-1.2-.5-1.1-.4-3.2.3-6.3h.6c0-.1.1-.2.1-.2l.2-.2h.1l2.2.2c-.1-2.4-.2-4.8-.2-7.1l-5.3 1.1.1 15v.2l.1 2.1 1.5.2v-2.2l4.5-.6.9.4v9.3l-4.6 1-.9-.2v-5.5l-1.2-.5v3.1c0 .2-.1.3-.1.4-.1 0-.1.1-.1.1v.1l.1 9.5v.1l6.6-2.2c.6-3.2 1.9-5.3 3.8-6.2L97.3 83l-2.2.5c0 2.7-.1 5.4-.2 7.9.1.7-.1 1.2-.6 1.6h-.9c.1 1.5 0 3-.2 4.1z"/><path class="st2" d="M89 91.5c-.6 3.1-.8 5.2-.3 6.3.5 1.1 1.2 1.5 2.1 1.2-.6-.2-1.2-.8-1.8-2-.1-.9-.1-1.9.2-3.1.1-.5.3-1.2.5-1.8-.1-.1-.1-.2-.1-.4v-.2H89zM97.3 83l.5-.1-.1-4.6-.5.1-2.2.5c.1 1.5.1 3.1.1 4.5l2.2-.4z"/><path class="st1" d="M82.1 113.6c2.8.3 4.4 1.6 5 3.9L87 108c-.2.1-.4.2-.5.2h-.1c-.8.2-1.1.1-1.2-.4l-.4-6.9c.1-.6.5-.9 1.1-.8.1 0 .2-.1.3-.1.2 0 .4.1.6.3h.1l-.1-15c-1.5.5-3.1.7-4.7.5v27.8z"/><path class="st5" d="M88.9 102.7h.5v-1.6l4.6-.8-1-.4-4.5.6v2.2zM87 102.4l-.1-2.1c0-.1-.1-.2-.1-.2-.2-.2-.4-.3-.6-.3-.1 0-.2.1-.3.1l-.2.2c-.2.1-.2.3-.2.5l.2 6.8c.1.1.1.3.2.4.1.1.2.1.5.2h.1c.2 0 .4-.1.5-.2v-.1c.1 0 .1-.1.1-.1.1-.1.1-.2.1-.4v-3.1l1.2.5.2.1.6-.2 3.3-.8.1-2.1-3.4.7-.5.1-.4-.1-1.3.1zM92.8 102l-.1 2.1-3.3.8v5.8l4.6-1v-9.3l-4.6.8v1.6l3.4-.8m.2 5.3c-.1.2-.2.3-.4.3h-1c-.1-.1-.1-.2-.2-.3-.1-.2-.2-.5-.2-.8 0-.3.1-.6.2-.8.1-.2.2-.2.2-.3l.8-.1h.2c.2 0 .3.1.4.4.1.2.2.5.2.8 0 .4-.1.6-.2.8zM92.6 105.4c-.1 0-.1.1-.2.1-.1.1-.1.1-.2.3-.1.2-.2.5-.2.8 0 .3.1.5.2.8.1.1.2.2.2.3h.2c.2 0 .3-.1.4-.3.1-.2.2-.5.2-.8 0-.3-.1-.6-.2-.8-.1-.2-.3-.4-.4-.4zM91.2 106.6c0 .3.1.5.2.8.1.1.2.2.2.3h.8c-.1-.1-.1-.2-.2-.3-.1-.2-.2-.5-.2-.8 0-.3.1-.6.2-.8.1-.2.2-.2.2-.3v-.1l-.8.1c-.1.1-.1.1-.2.3-.1.2-.2.5-.2.8zM88.5 110.3l.9.3v-5.8l-.7.2-.2-.1z"/><path class="st0" d="M82.1 113.6c-2.1.4-3.4 1.7-4.1 3.9-.1.1-.1.2-.1.4l3.4 1.2c.7.2 1.5.3 2.3.1l3.7-1c-.1-.2-.1-.5-.2-.6v-.1c-.6-2.3-2.2-3.6-5-3.9m3.3 3.3c.1-.2.1-.2.2-.2s.2.1.2.2c.1.1.1.2.1.4s0 .3-.1.4l-.2.2c-.1 0-.2-.1-.2-.2-.1-.1-.1-.2-.1-.4s0-.4.1-.4m-6-.4c.1 0 .2.1.2.2.1.2.1.3.1.5s-.1.3-.1.4c-.1.1-.1.2-.2.2s-.2-.1-.2-.2c-.1-.1-.1-.2-.1-.4s0-.3.1-.5c0-.1.1-.2.2-.2m5.1-.2c-.1 0-.2-.1-.2-.2-.1-.1-.1-.2-.1-.4 0-.1.1-.3.1-.4 0-.1.1-.2.2-.2s.1.1.2.2.1.3.1.4c0 .2 0 .3-.1.4-.1.1-.1.2-.2.2m-3.7-1.5c.1 0 .2.1.2.2.1.1.1.3.1.5s0 .3-.1.4l-.2.2c-.1 0-.2-.1-.2-.2-.1-.1-.1-.2-.1-.4s.1-.4.1-.5c.1-.1.1-.2.2-.2zM96.7 114.9c.4-.1.6-.3.8-.5.2-.2.3-.4.2-.7V109c-.1 0-.2.1-.3.1-1.9.9-3.1 3-3.8 6.2-.1.1-.1.2-.1.4l3.2-.8m-1.1-1.7c.1 0 .2.1.2.2.1.1.1.2.1.4s-.1.4-.1.5l-.2.2c-.1 0-.2-.1-.2-.2-.1-.1-.1-.3-.1-.5s0-.3.1-.4c0-.1 0-.2.2-.2m1.6-2.3c.1.1.1.2.1.4s-.1.3-.1.4c-.1.2-.1.2-.2.2 0 0-.1 0-.1-.2-.1-.1-.1-.2-.1-.4 0-.1.1-.2.1-.4 0-.1.1-.2.1-.2.1 0 .2.1.2.2zM95.3 114.3c.1.1.1.2.2.2s.2-.1.2-.2c.1-.1.1-.3.1-.5s-.1-.3-.1-.4l-.2-.2c-.1 0-.2.1-.2.2-.1.1-.1.2-.1.4s0 .4.1.5zM61.5 114.3c-1.6.6-2.6 2.1-2.8 4.7v.5l2.2-.5c.5-.2.8-.8.9-1.9v-2.8c-.1-.1-.3 0-.3 0m-.8 2.8c-.1.1-.1.2-.2.2s-.1-.1-.1-.2c-.1-.1-.1-.2-.1-.4s0-.3.1-.4c0-.1.1-.2.1-.2.1 0 .2.1.2.2s.1.2.1.4-.1.3-.1.4z"/><path class="st1" d="M99.1 70.9c.2-.2.5-.5.9-.6.5.1.8.3.9.8.1.4.2.7.2 1 .1.7.1 1.4.1 2.1 0 2.4.2 4.7.4 6.9.2 1.9.2 3.8.2 5.7-.1 1.2-.1 2.4-.1 3.5-.1 2.3-.1 4.6.1 6.9 0 .6.1 1.2.1 1.8.3 2.3.4 4.7.2 7-.1.9-.1 1.8-.1 2.6 0 .6-.1 1.2-.2 1.7-.2 1-.7 1.3-1.7.9h-.1c-.1.4-.5.5-1.1.3-.2-.1-.4-.2-.4-.5-.1-1.9-.1-3.9-.1-5.9 0-.3 0-.6-.1-.9-.5-1.6-.4-3.2.1-4.8-.1-.1-.1-.1-.1-.2-.2-.8-.3-1.5-.2-2.2.1-2.3.2-4.7.3-6.9v-.5c0-.2 0-.4-.1-.6v-1c0-.8 0-1.5-.1-2.3 0-.3-.1-.6-.1-.8-.1-.9.2-1.6.9-2-.1-.2-.1-.3-.1-.5-.1-1.8-.2-3.6-.5-5.4-.7-.3-1.1-.8-1-1.6.1-.6.1-1.2.1-1.8.1-.8-.1-1.5-.2-2.2-.1-.2-.1-.4-.1-.5l.1 7.5.5-.1.1 4.6-.6.1.2 26.1c.1-.1.2-.1.3-.1v3.1l18.5 4.8c.7-2.7 2.4-4.2 5-4.7l.6-39.7c-2.2 0-4.7-.1-7.1-.5v.5l-3.2-.5v-.1c-1.1-.2-2.4-.4-3.9-.6H106.3c-.4 0-.6-.2-.7-.6l-8.5-1.5v1.7c0-.6.4-.9 1.1-1.1.3 0 .6.2.7.5.1.1.2.3.2.6z"/><path class="st4" d="M97.2 70.8v.2c0 .1.1.3.1.5.2.7.3 1.4.2 2.2 0 .6-.1 1.2-.1 1.8-.1.8.3 1.3 1 1.6.3 1.8.5 3.6.5 5.4 0 .2 0 .3.1.5-.7.4-.9 1.1-.6 1.9.1.2.1.5.1.8.1.8.1 1.5.1 2.3v1c.1.2.1.4.1.6v.4l-.3 6.9c-.1.8.1 1.5.2 2.2.1.1.1.1.1.2-.5 1.5-.6 3.2-.1 4.8.1.3.1.6.1.9-.1 1.9-.1 3.9.1 5.9 0 .3.2.4.4.5.5.2.9.1 1.1-.3h.1c1 .4 1.5.1 1.7-.9.1-.5.2-1.1.2-1.7 0-.9 0-1.8.1-2.6.2-2.4.1-4.7-.2-7-.1-.6-.1-1.2-.1-1.8-.2-2.3-.2-4.6-.1-6.9.1-1.2.1-2.4.1-3.5 0-1.9-.1-3.8-.2-5.7-.2-2.2-.4-4.6-.4-6.9 0-.7-.1-1.4-.1-2.1-.1-.3-.2-.6-.2-1-.2-.5-.5-.7-.9-.8-.4.2-.7.4-.9.6 0-.2-.1-.5-.2-.8-.1-.3-.4-.5-.7-.5-1 .3-1.3.7-1.3 1.3z"/><path class="st2" d="M130.6 79.1c0-.2 0-.2.1-.3.1-.1.2-.2.3-.2 0 0 .1 0 .1.1l2.8-.1-2.8.1c.1 0 .2 0 .2.1.1.1.1.1.1.3v.1l3.1 1.1c-.1-.8-.2-1.5-.3-2.3v-.2c-1.8-.1-3.2.1-4.2.2-.1 3.2.5 5.9 2.1 8 1-1.1 1.8-3 2.5-5.7l-3.1-1.1c-.1.1-.1.1-.1.2-.1.1-.2.1-.3.1-.1 0-.2 0-.3-.1-.2-.2-.2-.3-.2-.3m1.9 1.4c.1.2.1.3.1.5s-.1.4-.1.5c-.1.2-.1.2-.2.2s-.2-.1-.2-.2c-.1-.1-.1-.3-.1-.5s0-.4.1-.5c0-.1.1-.2.2-.2.1.1.2.1.2.2zM131.5 86.4l.5-.4c-1.5-2.1-2.2-4.8-2.1-8l-.7.1c0 3.5.7 6.3 2.3 8.3z"/><path class="st1" d="M134.2 77.7c-.2-2.4-.3-4.9-.2-7.4l-6.7 1.4-.5 27.1.7-.2v2.1l.5-.1v-2.2l4.6-.9 1.2.4-.5 10.2-4.7 1.1-.6-.6v-4.2 4.2l.6.6-.1-5.2-1.1.2v2.4l-.9.2-.2 9.6 8.2-3.1c.3-3.9 1.6-6.2 3.9-7.2l.9-36.8-1.6.4c-.2 2.9-.4 6.5-.8 10.5-.5.2-1.1.2-1.8.1l-.6.1c-.6 2.7-1.5 4.6-2.5 5.7l-.5.5c-1.6-2-2.3-4.8-2.2-8.4l.7-.1c.9-.3 2.4-.4 4.2-.4zM121.3 112.2c2.8.2 4.5 1.6 5.1 4l.2-9.6-1.5.4v-7.9l1.6-.3.5-27.1c-1.7.5-3.5.8-5.4.8l-.5 39.7z"/><path class="st5" d="M125.1 107l1.4-.4.9-.2V104l-1.2-.3-.2-2.8.7-.2h.7v-2.1l-.7.2-1.6.3zM127.4 101.3l4.3-.7-.7-.4-2.2.3-.9.1-.5.1h-.7l-.7.2zM131.7 103.2l-3.2.6.1 5.2 4.7-1.1.5-10.2-4.9 1v1.7l2.2-.3.6.4v2.7m-1.9 1.9c.1-.1.2-.2.4-.3h1.3c.2 0 .5.1.6.3.1.2.2.5.2.8 0 .4-.1.6-.2.8-.2.2-.4.3-.7.4h-1.1c-.2-.1-.4-.2-.5-.4-.2-.2-.2-.5-.2-.8 0-.3.1-.6.2-.8zM130.4 107.1h1.1c-.2-.1-.4-.2-.5-.4-.2-.2-.3-.5-.3-.8 0-.3.1-.6.3-.8.1-.1.2-.2.4-.3h.2-1.2c-.2.1-.3.2-.4.3-.2.2-.2.5-.2.8 0 .4.1.6.2.8 0 .2.2.3.4.4zM131.2 104.8c-.1.1-.2.2-.4.3-.2.2-.3.5-.3.8 0 .4.1.6.3.8.1.2.4.3.5.4.3-.1.5-.2.7-.4.1-.2.2-.5.2-.8 0-.3-.1-.6-.2-.8-.2-.2-.4-.3-.6-.3h-.2zM128.8 98.8l4.9-1-1.2-.4-4.6 1v2.2l.9-.1zM126 100.9l.2 2.8 1.2.3 1.1-.1 3.2-.7v-2.6l-4.3.7z"/><path class="st0" d="M134.5 113.2c0 .2 0 .5-.1.8l3.5-1.4c.7-.2 1-.8.9-1.8v-4.9c-.2.1-.4.1-.5.2-2.2.8-3.5 3.2-3.8 7.1m3.2-4.5c.1 0 .1.1.2.2s.1.3.1.5-.1.3-.1.4c-.1.1-.1.2-.2.2s-.2-.1-.2-.2c-.1-.1-.1-.2-.1-.4s0-.4.1-.5c0-.1 0-.2.2-.2m-.9 2.6c.1 0 .1.1.2.1.1.1.1.2.1.4 0 .1 0 .3-.1.4-.1.1-.1.2-.2.2s-.2-.1-.2-.2c-.1-.1-.1-.2-.1-.4s.1-.3.1-.4c0-.1.1-.1.2-.1zM121.3 112.2c-2.6.5-4.3 2-5 4.7 0 .2-.1.4-.1.6l4 1.1c1 .3 1.8.3 2.6-.1l3.7-1.6c0-.2-.1-.5-.1-.7-.6-2.4-2.3-3.8-5.1-4m1.7 1.5c.1.2.2.3.2.5s-.1.4-.2.5c-.1.1-.1.2-.2.2s-.2-.1-.3-.2c-.1-.1-.1-.3-.1-.5s.1-.3.1-.5c.1-.1.2-.2.3-.2l.2.2m1.7 2.3c-.1.2-.2.2-.3.2-.1 0-.2-.1-.3-.2-.1-.1-.1-.2-.1-.5 0-.2.1-.4.1-.5.1-.1.2-.2.3-.2.1 0 .2.1.3.2.1.1.1.3.1.5s0 .4-.1.5m-4.5-1.5c0 .2 0 .4-.1.6-.1.1-.2.2-.3.2-.1 0-.2-.1-.3-.2-.1-.2-.2-.4-.2-.6 0-.2.1-.5.2-.6.1-.2.2-.2.3-.2.1 0 .2.1.3.2.1.1.1.4.1.6m-1.7 1.1c.1.1.1.3.1.5s-.1.4-.1.5l-.2.2c-.1 0-.2-.1-.2-.2-.1-.2-.1-.3-.1-.5s0-.4.1-.5c.1-.2.1-.2.2-.2 0 0 .1 0 .2.2zM122.4 114.2c0 .2.1.4.1.5.1.1.2.2.3.2.1 0 .2-.1.2-.2.1-.1.2-.3.2-.5s-.1-.3-.2-.5c-.1-.1-.1-.2-.2-.2s-.2.1-.3.2c-.1.2-.1.3-.1.5zM124.4 114.9c-.1 0-.2.1-.3.2-.1.1-.1.3-.1.5s.1.4.1.5c.1.2.2.2.3.2.1 0 .2-.1.3-.2.1-.1.1-.2.1-.5 0-.2 0-.4-.1-.5-.1-.2-.2-.2-.3-.2zM119.5 113.9c-.1.1-.2.4-.2.6 0 .2.1.4.2.6.1.1.2.2.3.2.1 0 .2-.1.3-.2.1-.2.1-.4.1-.6 0-.2 0-.5-.1-.6-.1-.2-.2-.2-.3-.2-.1 0-.2 0-.3.2z"/><path class="st6" d="M61.9 84c.2.1.3.1.4.2v-1.9M48.9 45c.1.1.1.3.1.4 0 .2-.1.3-.1.4-.1.2-.1.2-.2.2s-.2-.1-.2-.2c-.1-.1-.1-.2-.1-.4 0-.1 0-.3.1-.4.1-.1.1-.1.2-.1s.1.1.2.1M22 73.6l1.8.3M16.3 78.2c1.1-.8 1.8-1.7 2-2.7.2-.5.4-.8.6-1.1M17.1 76.2c0 .1 0 .2-.1.3 0 .1-.1.2-.1.2-.1 0-.1-.1-.2-.2 0-.1-.1-.2-.1-.3 0-.1.1-.2.1-.3.1-.1.1-.1.2-.1s.1 0 .1.1c.1 0 .1.2.1.3M19.6 73.9c.3-.1.5-.2.8-.3h-2.6c-.8.2-1.4.5-1.8 1.1v3.8c.1-.1.2-.2.3-.2M18.9 74.4c.2-.2.4-.4.6-.5M19.6 73.9l2.4-.3M23.8 73.9l1.7.3M25.6 73.1c.6 0 1.1 0 1.7-.1h.2M27.8 73.9h.8M27.5 73.1c.2-.1.5-.1.8-.1l-1.9-.4-2.6.4c.6.1 1.2.2 1.8.2M23.8 73.9l2.8-.3 1.2.3M32.8 71.8l1.2.4c.1 0 .2 0 .2.1l1.5.3M47.3 73.9V73c-4.4-1.2-8.8-1.8-13.2-1.9-.6-.1-1 .1-1.4.8M32.8 74l-.6-.1M32.8 74v-2.2M32.8 74.9h3v-.3M23.7 74.5l1.9.3 1.7-.2M27.3 74.6l1.8-.2-1.3-.5M32.2 73.9l-4.7-.8M35.8 74.6l-3-.6M32.2 73.9l-1.7.6 2.3.4M35.8 74.6v-2.1M32.8 74v.9M35.8 72.5c2.8.5 5.7.9 8.6 1.3h.5M44.9 73.8l2.4.1M44.9 76.2v.9M47.3 76.7l.7.1M48 76.8l-.1-2.2M47.3 77.2v-.5M47.8 78.5l-1.1.2M49.5 78.8l-.9.1-1.9-.2M48.9 80.4c0 .2-.1.4-.1.5.5 1.6 1.3 2.9 2.5 3.9.4.2.8.4 1.2.4M44.9 77.1l2.4.1M47.3 76.7l-2.4-.5M47.3 77.2l2.4.4-1.6.3-3.2-.8M46.7 78.7l-.4.3 2.5.4M44.9 76.2v-2.4M47.3 73.9v2.8M35.8 74.6l9.1 1.6M27.3 74.6l20.5 3.9M48.4 119.7c-.1.2-.1.4-.2.5l2.8 1.1c.5.2 1 .2 1.5 0l2.6-.8c0-.2-.1-.4-.1-.6M16.3 109.6c.1-.1.1-.2.2-.2s.1.1.2.2.1.2.1.4c0 .1-.1.3-.1.4-.1.1-.1.2-.2.2s-.2-.1-.2-.2c-.1-.1-.1-.2-.1-.4.1-.1.1-.3.1-.4M15.8 107.4c-.1-.1-.2-.1-.2-.2l-.2 3.3c.1.4.2.6.4.9.1.2.4.3.5.5l2.5.5c-.1-.2-.1-.4-.2-.6M18.6 111.8c-.6-1.8-1.5-3.3-2.8-4.4M18.9 74.4l30 6M18.6 111.8l29.8 7.9M15.8 107.4l.5-29.2M27.8 73.9l-2.3.3M25.5 74.2l1.8.4M22 73.6l3.6-.5M47.9 74.6l-.5-26.1M99.5 15.4c1.5.4 3.1.4 4.7 0M99.5 15.4c-.1 0-.3-.1-.5-.1l2.7-.3 3.1.3c-.1.1-.2.1-.4.1h-.2M122.6 25.3c-.4-.1-.8-.2-1.2-.5-3.1-2.9-4.5-4.9-4.2-5.9.1-.4.1-.8.2-1.1M118.6 18.3c.1 0 .2.1.3.2.1.2.1.3.1.5s-.1.4-.1.5c-.1.2-.2.2-.3.2-.1 0-.2-.1-.3-.2-.1-.1-.1-.3-.1-.5s0-.4.1-.5c.1-.1.2-.2.3-.2M120 20.8c.1.1.1.3.1.5s0 .3-.1.4c-.1.2-.2.2-.3.2-.1 0-.2-.1-.3-.2-.1-.1-.1-.2-.1-.4s.1-.4.1-.5c.1-.1.2-.2.3-.2.1 0 .2.1.3.2M117.4 17.8c.2-.5.7-.8 1.3-.9M128.2 17.5c.1.2.2.5.2.8.1.3 0 .7-.2 1.2M118.7 16.9h8.7c.4.2.6.4.8.6M126.6 20.8c0 .2 0 .4-.1.5-.1.2-.2.2-.3.2-.1 0-.2-.1-.3-.2-.1-.1-.2-.4-.2-.5 0-.2.1-.4.2-.6.1-.1.2-.2.3-.2.1 0 .2.1.3.2.1.2.1.3.1.6M124.4 23c0 .2 0 .4-.1.5l-.2.2c-.1 0-.2-.1-.2-.2-.1-.1-.1-.3-.1-.5s.1-.3.1-.5c.1-.1.1-.2.2-.2s.2.1.2.2c.1.2.1.3.1.5M139.1 18.4c.1 0 .1.1.2.2s.1.3.1.5-.1.3-.1.4c-.1.1-.1.2-.2.2s-.2-.1-.2-.2c-.1-.1-.1-.2-.1-.4s0-.4.1-.5c0-.1.1-.2.2-.2M140.4 23.6c.2.1.3.2.5.2l.3-5.9c-.1-.8-.5-1.2-1.2-1.5h-4.1M139.7 20.6c.1 0 .1.1.2.2s.1.3.1.5-.1.3-.1.4c-.1.2-.1.2-.2.2s-.2-.1-.3-.2c0-.1-.1-.2-.1-.4s.1-.4.1-.5c.1-.1.2-.2.3-.2M135.8 16.4l-.9.3M134.9 16.7l2.1.1M137 16.8c.3.1.5.3.7.5M135.8 16.4c.4.1.8.1 1.1.4M132.9 29.8c.3-.1.5-.2.6-.4.1-.2.2-.5.2-.8.1-.4 0-.6-.2-.8-.1-.2-.4-.3-.6-.4M129.9 31.4l3.1-.2-.1 2.7M130.1 37.3l4.3-.4.3-11-4.8-.1M128.2 19.5c-.5 1.3-1.9 3.1-4.1 5.4-.5.3-1 .4-1.5.3M132.9 27.4l-.9.1c-.2.1-.4.2-.5.4-.2.2-.3.5-.3.8 0 .4.1.6.2.9.1.1.2.2.4.2.1.1.1.1.2.1l.8-.1h.1M132.9 27.4c-.2.1-.4.2-.5.4-.1.2-.2.5-.2.8 0 .4.1.6.2.9.1.1.2.2.4.2 0 0 .1 0 .1.1M128.1 29h.7v2.5M129.9 25.8h-.6v5.6M128.8 31.5h-1.5v2.9M128.8 31.5l.5-.1M130.1 34.8v2.5M132.9 33.9l-.4.6c-.8.1-1.6.2-2.5.4M127.3 34.4l1.4.6M128.7 35l.5-.2M129.2 34.8v2.1l.9.4M127.9 37.2l.8-.1V35M132.9 33.9l-4.2.5h-1.4M129.2 34.8h.9M129.3 31.4h.6M127.9 37.2l-1.6.2.2-8.3 1.6-.1M129.9 31.4v-5.6M137.7 17.3l-9.5.2M140.4 23.6c-1.3-.9-2.2-2.9-2.8-6.3M128.2 19.5l-.1 9.5M135 59.5c0-.2.1-.3.2-.4.1-.1.4-.2.9-.4M134.7 58.3l1.4.3M133.2 56.2c0 .2 0 .4-.1.5-.1.2-.2.2-.3.2-.1 0-.2-.1-.2-.2-.1-.1-.1-.2-.1-.5 0-.2.1-.4.1-.5l.2-.2c.1 0 .2.1.3.2.1.2.1.3.1.5M136.1 58.6h.7c.5.3.8 1.9.9 4.6M139.5 62.9l.6-.1V69l-.8.2M135 59.7V59.4M135.8 59.6c0 .3-.1.5-.2.5-.2 0-.3-.1-.4-.2-.1-.1-.1-.2-.2-.2M135 59.7c-.2 1.4-.4 2.9-.6 4.2M137.7 69.5c.1-1.8.1-3.4.1-4.8 0-.5 0-1.1-.1-1.5M135.1 80.2c.3-3.2.5-6.7.6-10.3.1-2 .1-4.1.1-6.2 0-1.3 0-2.6-.1-4M135 59.5l.8.1M137.7 63.2l1.8-.3M131.8 58.4V58.7M131.8 58.7c0 .1 0 .2-.1.3-.1.1-.2.2-.4.2-.1 0-.2-.1-.4-.2-.1-.1-.2-.2-.2-.4 0-.1.1-.2.2-.4.1-.1.1-.1.2-.1M131.1 58.2c.1-.1.1-.1.2-.1.2 0 .3.1.4.2l.1.1M122 66c1.1.2 2.8 0 5.4-.6M131.1 58.2c-.4-3.8.2-6.2 1.9-7.6 1.4 2.2 1.9 4.8 1.6 7.8M130.6 59c-.8-4.7.1-7.5 2.5-8.4M135 59.5l-3.2-.8M127.4 65.4l7-1.5M134.7 58.3l-2.9.1M92.4 44.8c.2-.4 1.5-.3 4 .1.7.2 1.1.7 1.2 1.4l-.2 5.8c-.1-.1-.2-.1-.4-.2M113.9 65.3l-3-.7.8-.3 3.1.4v.9M113.9 65.3h.2v3.3M107.5 71.2c-.5-.2-.7-.4-.8-.7-.2-1.7-.2-3.5.1-5.7.1-.1.2-.2.2-.3M105.9 64.6c.2-.2.5-.4.8-.4h.9c-.2.1-.5.2-.6.4M105.9 64.6c-.1.1-.2.2-.2.3-.2 2.6-.2 4.5 0 5.7M97.1 63.4l8.8 1.2M107 64.6c3.2.6 5.5.9 6.8.8M139.5 62.9l.9-39.3M122 66l.6-40.7M127.4 65.4l.5-28.2M114.8 65.6c1.7.3 4.1.5 7.2.4M104.2 15.4l30.7 1.3M81.6 22.7c-.2.1-.4.2-.5.4l-.3-5.8c.2-.9.5-1.5 1.2-1.5h4.8M83.2 18.2c0-.2 0-.3.1-.4l.2-.2c.1 0 .2.1.2.2.1.1.1.2.1.4s-.1.4-.1.5c-.1.1-.1.2-.2.2s-.2-.1-.2-.2c-.1-.2-.1-.3-.1-.5M82.6 20c0 .2-.1.4-.1.5-.1.1-.1.2-.2.2s-.1-.1-.2-.2-.1-.3-.1-.5 0-.3.1-.5c.1-.1.1-.2.2-.2s.2.1.2.2c.1.2.1.3.1.5M81.6 22.7c1.5-1.4 2.6-3.3 3.4-5.7.2-.3.3-.5.5-.6M86.7 15.8l4.1-.1M86.7 15.8c-.5.1-.9.3-1.2.6M84.4 51.3c-.1.1-.2.2-.3.2-.1 0-.2-.1-.2-.2-.1-.1-.1-.2-.1-.4s0-.4.1-.5l.2-.2c.1 0 .2.1.3.2.1.1.1.3.1.5 0 .1-.1.3-.1.4M80.3 50c.1 0 .2.1.2.2.1.2.1.3.1.5s-.1.4-.1.5c-.1.2-.2.2-.2.2-.1 0-.2-.1-.2-.2-.1-.2-.1-.3-.1-.5s0-.4.1-.5c0-.2.1-.2.2-.2M79.6 46h-.9c-.8.2-1.3.8-1.3 1.8M79.1 48.5c.1.1.1.3.1.4 0 .2-.1.3-.1.4-.1.1-.2.2-.3.2-.1 0-.2-.1-.2-.2-.1-.1-.1-.2-.1-.4 0-.1 0-.3.1-.4l.2-.2c.1 0 .2.1.3.2M53.3 42.7l25.4 3.2.9.1M93.6 45.2l.1-.1h.8c.1.1.2.1.2.1 0 .1-.1.1-.2.1s-.2.1-.4.1c-.1 0-.2-.1-.4-.1-.1 0-.1 0-.1-.1M95.6 48.3c-.1 0-.1-.1-.1-.2-.1-.1-.1-.2-.1-.4 0-.1.1-.3.1-.4 0-.1.1-.1.1-.1.1 0 .1.1.2.1.1.1.1.3.1.4 0 .2 0 .3-.1.4-.1.2-.1.2-.2.2M97 50c0 .1-.1.3-.1.4-.1.1-.1.2-.2.2s-.1-.1-.1-.2c-.1-.1-.1-.2-.1-.4s0-.3.1-.4c0-.1.1-.2.1-.2.1 0 .1.1.2.2 0 .1.1.3.1.4M94.3 46.6c.6 2.7 1.5 4.5 2.8 5.2M92.4 44.8c.2.5.6.9 1.2 1.1.4.2.7.5.7.7M85.9 48.3c.1.1.1.3.1.5s0 .4-.1.5c-.1.2-.2.2-.3.2-.1 0-.2-.1-.2-.2-.1-.1-.1-.2-.1-.5 0-.2.1-.4.1-.5l.2-.2c.1 0 .2.1.3.2M87.1 47.7c.1-.1.1-.2 0-.4 0-.6-.4-1.1-.9-1.3h-6.6M86.5 49.5c.4-.7.6-1.3.6-1.8M94.3 46.6l-7.2 1.1M86.6 58.5c-.4-.2-.8-.2-1.3-.1M86.6 58.5M86.6 58.5M88.1 60.2v-6.1l4.5-.4 1 .5M91.5 58.9c-.1 0-.2-.1-.2-.2-.1 0-.1-.1-.1-.1-.1-.2-.2-.5-.2-.8 0-.3.1-.6.2-.8.1-.2.1-.3.2-.3M92.4 58.9c-.1 0-.1-.1-.1-.1-.1 0-.1-.1-.1-.1-.1-.2-.2-.5-.2-.8 0-.3.1-.6.2-.8.1-.2.1-.3.2-.3M91.4 56.8h1M92.4 56.8c.2 0 .4.1.5.3.1.2.1.5.1.8 0 .4 0 .6-.1.8-.1.1-.1.2-.2.3-.1 0-.2 0-.2-.1M92.4 58.9h-.9M88 63.7l3.9-.5v-3h-3M88.1 60.2h-.8l-.7-1.7M88.7 64v.8M90.6 65.9c.1-.1.1-.1.2-.1.1-.1.3-.1.4-.2.9.2 1.5.5 1.9 1.1.3 2.1.3 4.2.1 6.3-.2.2-.2.2-.2.3M86.7 66.5v-.2c.3-.5.4-.9.4-1.5l.6-1.1h.3M88.7 64.8l-.7-.2v-.9M85.5 66.4c.2.2.6.2 1.2.1M85.5 66.4c-.1-.1-.2-.1-.2-.2v-7.9M88.9 60.2h-.8M93.6 54.2v9.9l-4.9.7M88.9 60.2l.1-5.6 4.6-.4M77.4 47.8c-.2 1 1 2.8 3.6 5.5.4.2.8.4 1.2.4M85.3 58.3c-.6-.1-.9.2-.8.8l.2 6.7c.1.4.4.6.9.6M82.2 53.7c.4.1.8-.1 1.2-.3 1.4-1.6 2.5-2.9 3.1-4M86.6 58.5l-.1-9M81.6 43.6l10.8 1.2M60.1 41.7c-.2-.1-.3-.1-.5-.2.6-.2 1.5-.4 2.5-.4s2.1.1 3.2.4c-.2.1-.4.1-.5.2M53.3 42.7l6.8-1M52.1 42.9l1.2-.2M50.2 44.1c.2-.5.7-.7 1.5-.8.2-.1.4-.3.4-.5M64.7 41.8c-1.6.4-3.1.3-4.6-.1M81.6 43.6V22.7M50.2 44.1l27.2 3.7M64.7 41.8l16.9 1.8M97 51.9l.1 11.5M85.5 16.4l31.9 1.4M90.8 15.7l27.9 1.2M90.8 15.7l8.7-.3M56 82.6c.2-.6.4-1.3.5-2.1-.1-.2-.2-.5-.4-.6M56.2 79.9l3.5-.1M61.1 80.8c.1 0 .1 0 .1.1.1.1.1.2.1.4s0 .3-.1.4c0 .1-.1.1-.1.1-.1 0-.1-.1-.2-.1v-.8c.1-.1.2-.1.2-.1M59.7 78.9c-.1.2-.1.5 0 .8M62.3 82.2l.1-1.9c-.1-.4-.1-.6-.1-.9 0-.3-.4-.5-1.2-.6-.7-.2-1.2-.1-1.4.2M49.5 78.8l2.3-.3-1.8-.4-2.2.4M52.2 79.3l-2.7-.5M52.2 79.3c-.8 0-1.6.1-2.5.2-.4.2-.7.5-.8.9M56.2 79.9c-.2-.3-.7-.5-1.2-.5-.9-.1-1.8-.2-2.7-.2M69.1 79.4c.4-.4.8-.6 1.1-.5l1.9-.1.1.1M69.1 79.4c0 .1-.1.1-.1.2V84M72.2 78.9c-.9 0-1.5.2-2 .6v.5M70.2 79.9c.5.1 1.5.1 2.9 0M71 79.5l2.1.4M47.4 48.5c-.2.1-.3.1-.5.2v-4.2c.1-.4.2-.6.4-.8.3-.4.8-.7 1.4-.8l3.5-.4v.3M70.1 84.7v.4c-.4.1-.8-.1-1.2-.3V84M70.1 84.7c1.5.2 3.1.2 4.5 0M69 84l-6.7-1.8M50.9 83c-.1-.1-.1-.3-.1-.5s.1-.4.1-.5c.1-.2.2-.2.3-.2.1 0 .2.1.2.2.1.1.1.3.1.5s0 .4-.1.5c-.1.2-.2.2-.2.2-.1 0-.1 0-.3-.2M54.2 83.1c-.1 0-.2-.1-.2-.2-.1-.1-.1-.2-.1-.4s0-.4.1-.5l.2-.2c.1 0 .2.1.2.2.1.1.1.3.1.5s-.1.3-.1.4c0 .1-.1.2-.2.2M52.6 85.2c.5.1 1-.1 1.5-.4.9-.6 1.5-1.4 1.9-2.3M59.7 79.8c.2 2.2.9 3.6 2.2 4.2M70.2 79.9l-.1 4.8M75.7 80.3l6.4.8M75.7 80.3v-.9l-3.5-.5M90.9 70.8c.1-.1.2-.2.3-.2.1 0 .2.1.3.2.1.2.1.3.1.5s-.1.4-.1.5c-.1.1-.2.2-.3.2-.1 0-.2-.1-.3-.2-.1-.1-.1-.3-.1-.5s0-.4.1-.5M90.1 73.7c0 .2-.1.4-.2.5-.1.1-.2.1-.2.2M89.9 73.4c.1.1.1.2.2.4M89.2 73.4l.1-.1.2-.2h.1c.1.1.2.1.2.2.1 0 .1 0 .1.1M89.3 74.1l-.8-.8v-.2c-.2-1.9-.2-3.9 0-5.9.5-.8 1.2-1.3 2.1-1.3M90.6 65.9c-.5.2-1 .7-1.4 1.3-.2 2-.2 4 0 5.9v.2M89.3 74.1c-.1-.1-.1-.2-.1-.4 0-.1.1-.2.1-.4M94.1 73.8h.6c.1 1.7.2 3.5.3 5.2M93 73.3v-.2l-3.1.3M92.4 73.9h-.1M92.4 73.8l.1.1M92.3 73.9l.1-.1M92.4 73.8h.9M93.3 73.8l-.9.1M93.3 73.8h.8M94.1 73.8l-1.1-.5M92.2 79.5c0-1.5.1-3 .2-4.5.1-.1.2-.3.2-.4M92.9 92v-.1c.3-2.6.4-5.3.4-8.1 0-1.5-.1-3-.2-4.5-.1-1.7-.3-3.4-.5-5.1M92.5 74.6l-.5-.2M92 74.4l-.8-.3M92.6 74.3c0 .1 0 .2-.1.3M89.6 74.4h-.1s-.2-.1-.2-.2M86.8 80.7l5.4-1.2M91.2 74.1l1.1-.2M90.1 73.7l1.1.4M92.4 73.9c.1.1.1.2.1.4M92.3 73.9l-.3.5M91.2 74.1l-1.6.3M92.3 91.3c.1.1.1.4.2.6M92.4 91.8c.1-.1.1-.1.2-.1s.2.1.3.2v.1M92.3 92.4c0-.2.1-.4.1-.5.1 0 .1 0 .1-.1M91.6 94c.1.2.1.3.1.5s0 .4-.1.5c-.1.1-.2.2-.3.2-.1 0-.2-.1-.3-.2-.1-.1-.2-.3-.2-.5s.1-.4.2-.5c.1-.1.2-.2.3-.2.1 0 .3 0 .3.2M92.6 93c-.1 0-.2-.1-.2-.2-.1-.1-.1-.2-.1-.4M92.6 93h.8M92.9 92c.1.1.1.2.1.4s0 .3-.1.4c-.1.1-.2.2-.3.2M93.4 93h.9c.5-.4.6-.9.6-1.6.2-2.5.2-5.2.2-7.9M90 91.7l.4.1M90.4 91.8c-.1.1-.1.2-.1.3-.1.1-.2.2-.3.2-.1 0-.2-.1-.2-.2M90 91.1c.1.1.2.1.2.2.1.1.1.3.1.4v.1M89.6 91.5c0-.1.1-.2.1-.2l.2-.2h.1M89.7 92.1c-.1-.1-.1-.2-.1-.4v-.2M89 91.5h.6M90 91.1l-.4.4M93.4 93c.1 1.6 0 3-.2 4.2-.2.8-.5 1.4-1.1 1.6-.2.1-.4.2-.6.2-.2.1-.4.1-.6 0-.6-.2-1.2-.8-1.8-2-.1-.9-.1-1.9.2-3.1.1-.5.3-1.2.5-1.8M92.3 91.3l-2.3-.2M92.1 84.1c0 2.4.1 4.8.2 7.1M86.8 85.2l5.3-1.1M92.3 92.4l-1.9-.6M74.7 82.4l-1-.2M75.1 82.5l-.4-.1M74.7 82.4v2.3M77.8 82.6c.1 0 .2 0 .3.1.1.1.1.2.1.3 0 .1-.1.2-.1.3-.1.1-.2.1-.3.1-.1 0-.2 0-.3-.1-.1-.1-.1-.2-.1-.3 0-.1 0-.2.1-.3.1-.1.2-.1.3-.1M74.7 85.5l1 .3V85M73.8 85.2l.9.3M74.7 84.7v.8M75.7 85l6.4.7M95 78.9c.1 1.5.1 3.1.1 4.5M92.2 79.5c-.1 1.6-.1 3.1-.1 4.6M75.7 85v-4.7M73.1 79.9l1.6.3v2.2M82.1 85.7c1.5.2 3.1.1 4.7-.5M82.1 81.1c1.6.1 3.2 0 4.7-.4M90.9 99c-.9.2-1.6-.2-2.1-1.2-.5-1.1-.4-3.2.3-6.3M88.5 102.7v-2.2l4.5-.6 1 .4M89.4 102.7h-.9M94 100.3l-4.6.8v1.6M85.9 100c.1 0 .2-.1.3-.1.2 0 .4.1.6.3.1 0 .1.1.1.2M88.5 102.7l-1.5-.3-.1-2M86.9 100.4v-.2l-.1-15M86.4 108.1c-.2-.1-.4-.2-.5-.2-.1-.1-.2-.3-.2-.4l-.2-6.8c0-.2.1-.4.2-.5 0-.1.1-.1.2-.2M92.5 105.4c.1 0 .1 0 0 0 .2 0 .4.1.5.4.1.2.2.5.2.8 0 .3-.1.5-.2.8-.1.2-.2.3-.4.3h-.2M92.5 105.4h-.1l-.8.1c-.1.1-.1.1-.2.3-.1.2-.2.5-.2.8 0 .3.1.5.2.8.1.1.2.2.2.3h.8M92.4 107.6c-.1-.1-.1-.2-.2-.3-.1-.2-.2-.5-.2-.8 0-.3.1-.6.2-.8.1-.2.2-.2.2-.3.1 0 .1-.1.1-.1M88.5 104.9l.2.1.7-.2M87 108l.1-.1c.1-.1.1-.2.1-.4v-3.1l1.2.5M85.9 100c-.6-.1-1 .2-1.1.8l.4 6.9c.1.5.4.6 1.2.4M86.4 108.1h.1c.2 0 .4-.1.5-.2M89.4 110.6l-.9-.3v-5.4M89.4 104.8l3.3-.8.1-2-3.4.7M89.4 110.6l4.6-1v-9.3M87.1 117.6c0-.1 0-.1 0 0M85.3 117.2c0-.1.1-.3.1-.4.1-.2.1-.2.2-.2s.2.1.2.2c.1.1.1.2.1.4s0 .3-.1.4l-.2.2c-.1 0-.2-.1-.2-.2-.1-.1-.1-.2-.1-.4M95.3 113.4c.1-.1.1-.2.2-.2s.2.1.2.2c.1.1.1.2.1.4s-.1.4-.1.5l-.2.2c-.1 0-.2-.1-.2-.2-.1-.1-.1-.3-.1-.5s0-.3.1-.4M97 110.7c.1 0 .1.1.2.2s.1.2.1.4-.1.3-.1.4c-.1.2-.1.2-.2.2 0 0-.1 0-.1-.2-.1-.1-.1-.2-.1-.4 0-.1.1-.2.1-.4 0-.1.1-.2.1-.2M93.7 115.3c-.1.1-.1.2-.1.4l3.1-.8c.4-.1.6-.3.8-.5.2-.2.3-.4.2-.7v-1.6M93.7 115.3l-6.6 2.3M78 117.5c-.1.1-.1.2-.1.4l3.4 1.2c.7.2 1.5.3 2.3.1l3.7-1c-.1-.2-.1-.5-.2-.6M79.1 116.7l.2-.2c.1 0 .2.1.2.2.1.2.1.3.1.5s-.1.3-.1.4c-.1.1-.1.2-.2.2s-.2-.1-.2-.2c-.1-.1-.1-.2-.1-.4.1-.2.1-.3.1-.5M84.7 116.1c-.1.1-.1.2-.2.2s-.2-.1-.2-.2c-.1-.1-.1-.2-.1-.4 0-.1.1-.3.1-.4 0-.1.1-.2.2-.2s.1.1.2.2.1.3.1.4c-.1.2-.1.3-.1.4M80.6 115c.1-.1.1-.2.2-.2s.2.1.2.2c.1.1.1.3.1.5s0 .3-.1.4l-.2.2c-.1 0-.2-.1-.2-.2-.1-.1-.1-.2-.1-.4s.1-.4.1-.5M82.1 113.6c-2.1.4-3.4 1.7-4.1 3.9M89.4 104.8v5.8M87.1 117.5L87 108M87.1 117.5c-.6-2.4-2.2-3.7-5-3.9M61.5 114.3v-1.6M58.7 118.9v.5l2.2-.5c.5-.2.8-.8.9-1.9v-2.8c-.1 0-.2.1-.3.1M60.8 116.7c0 .2-.1.3-.1.4-.1.1-.1.2-.2.2s-.1-.1-.1-.2c-.1-.1-.1-.2-.1-.4s0-.3.1-.4c0-.1.1-.2.1-.2.1 0 .2.1.2.2s.1.2.1.4M50.1 119.3c0-.2.1-.3.1-.4 0-.1.1-.2.2-.2s.1.1.2.2.1.2.1.4c0 .1 0 .3-.1.4-.1.1-.1.2-.2.2s-.2-.1-.2-.2-.1-.3-.1-.4M53.1 118.9l.2-.2c.1 0 .2.1.3.2.1.1.1.2.1.4s0 .4-.1.5c-.1.1-.2.2-.3.2-.1 0-.2-.1-.2-.2-.1-.1-.1-.3-.1-.5s0-.3.1-.4M55.1 119.9c-.1-.2-.1-.4-.2-.6M58.7 118.9l-3.6 1M54.9 119.3c-.5-1.5-1.5-2.5-2.9-2.8M61.5 114.3c-1.6.6-2.6 2.1-2.8 4.7M56 82.6l-1.1 36.7M52 116.5l.6-31.3M82.1 113.6V85.7M61.5 112.7l.4-28.7M78 117.5l-16.5-4.8M97.2 78.5v-9.4M108.6 68.7c-.1-.1-.2-.1-.3-.2-.1-.1-.1-.2-.1-.3 0-.1.1-.2.1-.3.1-.1.2-.1.3-.1.1 0 .2 0 .4.1.1.1.1.2.1.3 0 .1-.1.2-.1.3-.1.1-.2.2-.4.2M107.5 71.2h.2c1.5.3 2.9.5 3.9.6.8.1 1.5.1 2.1.1M105.7 70.6c.1.4.4.6.7.6h1.1M95 78.9l2.2-.4M97.3 83h.5l-.1-4.6-.5.1M105.7 70.6l-8.5-1.5M113 68.9c-.1-.1-.2-.2-.2-.3 0-.1 0-.1.1-.2l.1.1M114.4 68.6h-.3M112.9 68.5l1.2.1M113.7 72h-2.1l3.2.5V72M114.1 68.6L114 72h-.3M118 69.5c-.1 0-.2-.1-.3-.2-.1-.1-.2-.2-.2-.3 0-.1.1-.2.2-.3.1-.1.2-.1.3-.1.1 0 .2 0 .3.1.1.1.1.2.1.3 0 .1 0 .2-.1.3-.1.1-.2.2-.3.2M123.4 69c0 .1-.1.2-.1.3-.1.1-.2.2-.4.2-.1 0-.2-.1-.3-.2-.1-.1-.1-.2-.1-.3 0-.1.1-.2.1-.3.1-.1.2-.1.3-.1.1 0 .2 0 .4.1.1.1.1.2.1.3M126.5 69.1c-.1-.1-.2-.2-.2-.3 0-.1.1-.2.2-.4.1-.1.2-.1.3-.1.1 0 .2.1.3.1.1.1.1.2.1.4 0 .1 0 .2-.1.3-.1.1-.2.1-.3.1-.1 0-.2-.1-.3-.1M131.4 79.1c-.1.1-.1.1-.1.2-.1.1-.2.1-.3.1-.1 0-.2 0-.3-.1-.1-.1-.1-.2-.1-.3 0-.2 0-.2.1-.3.1-.1.2-.2.3-.2 0 0 .1 0 .1.1M131.1 78.7c.1 0 .2 0 .2.1.1.1.1.1.1.3v.1M132.3 80.4c.1 0 .2.1.2.2.1.2.1.3.1.5s-.1.4-.1.5c-.1.2-.1.2-.2.2s-.2-.1-.2-.2c-.1-.1-.1-.3-.1-.5s0-.4.1-.5c0-.2.1-.2.2-.2M129.9 77.9l-.7.1c-.1 3.5.6 6.4 2.2 8.4l.6-.4M121.9 72.5c1.9 0 3.6-.3 5.4-.8M134.5 80.2h.6M134.2 77.7v.2c.1.8.2 1.5.3 2.3M135.1 80.2c.6.1 1.2.1 1.8-.1.4-4.1.6-7.6.8-10.5M137.7 69.5l1.6-.3M134 70.3c-.1 2.5 0 5 .2 7.4M132 86c1-1.1 1.8-3 2.5-5.7M129.9 77.9c-.1 3.2.5 5.9 2.1 8M127.2 71.7l6.8-1.4M134.5 80.2l-3.1-1.1M134.2 77.7c-1.8-.1-3.2.1-4.2.2M133.9 78.6l-2.8.1M126.7 98.8l-1.6.3v7.9l1.4-.4M126 100.9l.7-.2h.7M131.7 100.6l-.7-.4-2.2.3M127.9 100.6l.9-.1M127.4 100.7l.5-.1M126 100.9l1.4.4 4.3-.7M127.9 100.6v-2.2l4.6-1 1.2.4M128.8 100.5v-1.7l4.9-1M126.7 98.8l.7-.2v2.1M131.4 107.1h-1.1c-.2-.1-.4-.2-.5-.4-.2-.2-.2-.5-.2-.8 0-.3.1-.6.2-.8.1-.1.2-.2.4-.3h1.2M126.5 106.6l.9-.2V104M128.5 103.9l-1.1.1M131.4 104.8c.3 0 .5.1.7.3.1.2.2.5.2.8 0 .4-.1.6-.2.8-.2.2-.4.3-.7.4M131.4 107.1c-.2-.1-.4-.2-.5-.4-.2-.2-.3-.5-.3-.8 0-.3.1-.6.3-.8.1-.1.2-.2.4-.3h.2M128.5 109.1l-.6-.7v-4.1M128.5 109.1v-5.2M128.5 103.9l3.2-.7v-2.6M127.4 104l-1.2-.3-.2-2.8M137.4 108.9c.1-.1.1-.2.2-.2s.1.1.2.2.1.3.1.5-.1.3-.1.4c-.1.1-.1.2-.2.2s-.2-.1-.2-.2c-.1-.1-.1-.2-.1-.4.1-.2.1-.4.1-.5M133.7 97.8l-.5 10.2-4.7 1.1M134.5 113.2c0 .2 0 .5-.1.8l3.5-1.4c.7-.2 1-.8.9-1.8v-4.9c-.2.1-.4.1-.5.2M136.6 111.4c0-.1.1-.1.2-.1s.1.1.2.1c.1.1.1.2.1.4 0 .1 0 .3-.1.4-.1.1-.1.2-.2.2s-.2-.1-.2-.2c-.1-.1-.1-.2-.1-.4s0-.3.1-.4M122.8 113.6c.1 0 .2.1.2.2.1.2.2.3.2.5s-.1.4-.2.5c-.1.1-.1.2-.2.2s-.2-.1-.3-.2c-.1-.1-.1-.3-.1-.5s.1-.3.1-.5c.1-.2.1-.2.3-.2M124.8 115.5c0 .2 0 .4-.1.5-.1.2-.2.2-.3.2-.1 0-.2-.1-.3-.2-.1-.1-.1-.2-.1-.5 0-.2.1-.4.1-.5.1-.1.2-.2.3-.2.1 0 .2.1.3.2.1.2.1.3.1.5M116.3 116.9c0 .2-.1.4-.1.6l4 1.1c1 .3 1.8.3 2.6-.1l3.7-1.6c0-.2-.1-.5-.1-.7M126.4 116.2c-.5-2.4-2.2-3.8-5.1-4M138.4 106c-2.3.9-3.6 3.3-3.9 7.2M126.5 106.6l-.1 9.6M126.4 116.2l8.1-3M97.7 112.1V109c-.1 0-.2.1-.3.1M120.1 113.9c.1.1.1.4.1.6 0 .2 0 .4-.1.6-.1.1-.2.2-.3.2-.1 0-.2-.1-.3-.2-.1-.2-.2-.4-.2-.6 0-.2.1-.5.2-.6.1-.2.2-.2.3-.2.1 0 .3 0 .3.2M118.2 115.4c.1 0 .2.1.2.2.1.1.1.3.1.5s-.1.4-.1.5l-.2.2c-.1 0-.2-.1-.2-.2-.1-.2-.1-.3-.1-.5s0-.4.1-.5c.1-.2.1-.2.2-.2M97.7 112.1l18.6 4.8M121.3 112.2l.6-39.7M121.3 112.2c-2.6.5-4.3 2-5 4.7M127.2 71.7l-.5 27.1M97.5 109.1L97.3 83M114.8 72c2.4.4 4.8.5 7.1.5M138.4 106l.9-36.8M97.5 109.1c-1.9.9-3.1 3-3.8 6.2M95.1 83.5l2.2-.5M134.4 63.9c-.2 2.2-.4 4.3-.5 6.4M114.8 65.6V72M97.2 69.1l-.1-5.7M82.2 53.7l-.1 27.4M86.8 80.7l-.1-14.2M52 116.5c-1.4.1-2.6 1.2-3.6 3.2M47.9 74.6l21.2 4.8M59.7 78.9L48 76.8M49.5 78.8l-1.7-.3M47.4 48.5c1.4-.6 2.2-2.2 2.8-4.4"/></svg>