<svg id="Layer_1" xmlns="http://www.w3.org/2000/svg" viewBox="0 0 119 106.2"><style>.st0{fill:#FFF7E9;} .st1{fill:#72CCDB;} .st2{fill:#E3C08E;} .st3{fill:#AAA25A;} .st4{fill:none;stroke:#000000;stroke-linecap:round;stroke-linejoin:round;}</style><path class="st0" d="M102.7 50.6L96.3 78 95 87l-17.4-8.3-15.9 2.6-10.5-10.5-16.4 1.8L24 65l-13.8 2-2-.3 9.5-10.9 6.8-12.2 9.6-11.5 12-3.2 11.7 3.3 12.1-4.5 12.5 2.8L97 25l11.4 9.1-3.6 8.4z"/><path class="st1" d="M11.3 62.7L10 64.4s4.9-.4 7.8-.7c2.9-.2 5.8-2.4 7-3.1 1.3-.7 3-.7 4.3.2 4.2 3.1 1 8.2 1 8.2l2 1.4s1.9-3.9 1.9-5.8-1.6-5.5-3.5-6.4c-2-1-3.5-.8-5-.1-1.4.7-4 2.7-6.6 3.4-2.6.7-7.6 1.2-7.6 1.2z"/><path class="st2" d="M39.2 40.2l-4.8 1.1 1.4-1.4 4.1-.9zM35.6 37.6l-4.8 1.1 1.4-1.4 4.1-.9zM37.3 43.8L32.5 45l.2-1.3 5.3-1.2zM35.6 46.7l-1.5 2.1-.9.3-1.9 1 .3-1.8.2-1.3 3.9-1.4zM29.2 48.4l-2 4.1-.9.3.3-3.4-3.1 1.1.2-1.3 5.7-1.9zM30.7 45.2l-7.6 2.5.9-2 6.9-1.6zM36.9 34.5l-4.7 1.1 1.3-1.4 4.1-.9zM40.5 38.4l-2.4.5 3.6-5.1 1.2-.4zM60.8 53.8l-1.1-.1 3.2-7.2 1.1.3zM48 45.4l-1-.1 3.8-5.7.9.6zM54.8 59.3l-1.1-.2 2-5.9 1.2.2zM71.1 73.5l-.1-.8 5.3-3.4.1 1zM78.4 63.6l-.1-.8 5-5v1zM76 60.5l-.1-.9 5-4.9v.9zM66.2 61.3l-.7.8-4.1-4.8.8-.8zM69.2 57.6l-.7.9-4.1-4.8.8-.8zM84.7 65.2l-1-.1 1.6-5.5 1.1.2zM100.6 43.2l-1.1-.9 2-5.5 1.1 1zM82.2 72l-1-.1 1.6-5.5 1.1.2zM88.2 66.5l-1.1-.1 1.7-5.6 1.1.2zM94.8 69.9l-1-.1 1-3.6 1.1.2zM96.9 70.6l-1.6-.6.4-1.4 1.7.7zM87.8 78l-1.6-.6.4-1.4 1.7.7zM90.3 79l-1.6-.6.5-1.4 1.6.8zM96 73.6l-2.8-.6.5-1.4 2.8.7zM91.5 71l-2.8-.6.5-1.4 2.8.7zM92.2 68.7l-2.8-.6.4-1.4 2.9.7zM95.2 59.5l-2.9-.3.4-1.4 2.6.4zM95.4 57.3l-2.7-.3 1.1-3.6 2.5.3zM101.4 52.6l-2.6-.9 1.1-2.8 2 .8zM50.5 32.4L46 31.3l.8-1.1 3.1.7zM41.8 44.6l-2.9-.8.8-1.1 2.5.6zM43.6 51.3l-1.9-.5 1.3-3.2 2.5.7zM53.5 36.7l-.9-2 .8-1.2 2.1 2.3zM50.9 37.8l-1-1.9 1.2-.8 1.1 2.1zM52.6 44.7l1.8-3.6 1.6-.6-1.8 3.8zM57.3 38.7l4.1-2.8 1 .3-4.2 3zM59 40l4.4-2.4 1.2.5-4.7 2.4z"/><path class="st3" d="M39.3 59.5h.6l3.2-6.3h-2.4zM57.2 51.7h.6l2.9-5.4h-1.5zM44.1 59l2.2.1 5.9-7.5-4.4 1.9zM56.2 61.4c1.6 2.3 6.5.7 6.5.7l-2.9-4.2-1.5.5-2.1 3zM59 74c1.8 1.8 3.8 2 3.8 2l2.5-10.2-1.8 1.8c-.1 0-4.6 6.2-4.5 6.4zM29.2 67.4l-3.7-2.7 1-1.7 3.7 3.6zM34.7 61.6l.8 2.6 1.1-2.3zM38.2 62.1h1.6l-3.6 6.6zM16.5 58l-2 2s4.7-1.3 6.7-2.4c2-1.1 4.8-2.7 4.8-2.7h-1.8L20 57.4c.1 0-2.1 1.2-3.5.6zM10.4 65.1l-.8.8 4.2-.2 3.5-.6s-1.7-.3-2-.3c-.1-.1-4.9.3-4.9.3zM58 41.5l-2 3.2h1.5s.5.2.8-.8c.2-1-.3-2.4-.3-2.4zM78.4 70c.6-1.9 1.1-4.1 1.1-4.1l3-3-3.7 9.6-2.6 1.1 2.2-3.6zM92.9 41.3c.3-.9-.1-1.3-.1-1.3l-.8 1.6.9-.3zM79.8 47.5l-.5 3.3s2.1-2.5 4.5-3.4c2.4-.9 5.1-.9 5.1-.9l.9-2.8s-1.9.1-4.8 1.3c-2.8 1.1-5.2 2.5-5.2 2.5zM73.5 33l1.9 2.8 1.1-1.1-1.8-2.6z"/><path class="st2" d="M49.1 59.9l-1.7.9 3.3 1.5.5-1.3zM45.6 61.7l-.6 1.5 3.1 1.9 1.3-1.4zM38.3 49.9l-.5 3.6h1.1l.6-3.6zM38.4 45.4l-.8 1.5 2.8-.3.5-.5zM68.9 47.1l-3.2 4.4.9.9 3.1-4.9zM65.1 41.2l-1.5 3 .7.7 1.6-3.3zM71.2 38.7l-1.2.6.7 1.4.8-1.3zM73.8 36l-1.3 1.3.3.8 1.1-1.1zM67.2 35.7l-.8 2h.9l.9-1.8h-.8M61.2 31.4l-.3.3h3.3l.8-1.3-3.7.8M76.7 46.7l-1.3 3h1.3l1.2-3.2zM74.7 46.1l-.9 3-1.5-.8 1.4-3.2zM78.2 42.2v.9l8.7-2.2.3-1.5zM80.3 37.9l-.8 2 6.4-1.6v-.7l-4 1.1.2-1.8zM85.3 31l1 2.4 1.7-1.1.8-3-1.2.3v1.5l-1.1.5v-1.7l-1 .2zM91 28.3l-.7 2.1 2.5-1.3.3-1.6zM89.1 33.5l-1 3.7 2.1-.9-.3-1.5 2.1-2.1-.2-1zM69.8 30l-.4 1.3 1.2.3.9-1.3zM73.6 54.1l1.5.7-2.3 3.4h-1zM69.6 64.1l-1.4 3.5s.9.6 1.3 1.7c.3 1.1.7 2.1.7 2.1l6.5-5.5-.7-.6-4.5 2.9-.7-2 2.3-3.4-.6-1.3-2.9 2.6zM90.3 53.1l-.9 5.5 1.2.3.6-5.5zM87.4 54.6L86.2 58l1 .3 1.3-5.2zM98.8 43.9l-3.1 6.2 1 .5 3.1-6.1zM99.1 58.3l-1.6 1.5h2.3l.5-1.4zM93.1 75.3s-.3 2.6-.3 4.7v4.6l1.5.8v-5.3l.5-4.8h-1.7zM75 75.6v1.6l2.2-1 .7-1.6-2.7 1M70.6 77.3v1l2.4-.4v-1.5zM66.8 75.7l.5.9 1.5-.6v-1.6zM65.5 73.8l.2.8 2.8-1.9s0-1-.2-1.8c-.3-.8-1-1.5-1-1.5l-1.8 4.4zM70.7 74.5v.7l2.9-1v-.8zM45.5 36.1L43.6 38l2.4.5 1.5-1.5zM44.3 42.5l-1.1 3.1 1.6-.1.6-2.1zM59.7 64.2l-1.1 4.4 1.9-.4 1-4zM55.2 63.6l-.5 1.7h2.5l.7-1.3zM58.3 70.2l-2.6 3.3-.6-1.1.4-2.9zM84.3 75.8L82.5 80l.8.8 1.2-.7s-.2-1.6 0-2.2c.2-.7.5-1.8.5-1.8l-.7-.3zM68.4 78v1.3l-3.4.6s0-.4.5-.9 2.9-1 2.9-1zM94.4 35.5l-.6 2.2s.7.5.7 1.4c0 .8.4 1.2.4 1.2l1.9-5.2-2.4.4zM96 31.3l-.9 2.4s1.5 0 1.9-.4c.4-.4.7-2.2.7-2.2l-1.7.2zM97.5 26.2l-.9 3.3h1.6l1.1-1.9zM100.6 28.8l4.8 3.8-.4 1-5.3-2.9z"/><path class="st3" d="M41.9 62.9s1.3-.7.7.7c-.7 1.4-3.8 6.6-3.8 6.6l-1.5.5 4.6-7.8zM51.7 66.7l-1.2 2.9-6.2 1.1s.2-1.4 2-2c1.8-.7 4.5-2.4 4.5-2.4l.9.4zM29.1 54.3h1.8l1.1-1.9zM27.1 55.8l-1.8 1.3 3.5-.5.9-.9z"/><path class="st4" d="M92.8 38.5c1.6 1 .9 2.8.8 3.6.5.5 1 1.2 1.9 1.9l.1.1M41.6 30.2c0 .4 0 .9.1 1.3-.1.1-.2.1-.4.2M32 43.1c.4-1 .9-1.8 1.6-2.3 1.7-1.5 3-3 4.1-4.3.4-.7.8-1.4 1.2-2M39 34.4c.7-.7 1.9-1.9 2.7-3M32 43.1c-.2.9-.3 1.9-.4 3M32 43.1c-2-1.2-3.7-3.3-3.3-4.6M39.6 41.1c-2.3.5-5.4 1.3-7.6 2M43.6 42.1c-1.2-.3-2.5-.6-4-1M37.7 44.2c1.6.5 2.9.8 4.6 1.2M42.6 44.7c.4-1.3.9-2.3 1.5-3.4M41.2 31.6c-2.2.6-6.2 1.5-8.4 2M31.6 46c1.8-.6 6.1-1.8 6.1-1.8M39 34.4c-2.5 1-6.7 2-9.1 2.8M64.8 32.5c1-1.2 3-2.6 4.3-3.4 0 0 .6.2 1.6.2.5 0 1.2-.5 1.2-1.4M57 34.7c.4.1.6.1 1 .2M56.9 34.6c-.7-.7-1.8-1.4-2.5-2.1M51.3 33.5c-.1-.9-.2-3-.2-3M44.4 35.8c-.9 1-1.8 2-2.6 3.2M44.8 34.9c.2-.3 1.6-2.5 1.8-2.7M48 35.9c-1.3-.4-2.3-.7-3.2-1M51.3 33.5c-.1 0-.2.2-.1.3M51.2 34c0-.1 0-.1 0 0M51.3 33.9h-.1M51.7 33.7c-.2.1-.3.1-.4.2M51.7 33.7c-.2-.2-.3-.2-.4-.2M51.2 33.9c-.1 0-.1 0 0 .2M49 36c-.2-.3-.2-.5-.2-.6M48.7 35.4c.8-.5 1.6-.9 2.5-1.4"/><path class="st4" d="M44.9 31.8c1.6.4 3.7.8 4.7 1.2.5.2 1.1.3 1.7.5M49 36c-.3-.2-.6-.2-.9-.2M48 35.9c.2-.2.4-.3.7-.5M45.9 46.1c.5 0 1.2.2 2 .4-.1 0 0-.1 0 0h.1c0-.1.1-.1.2 0M45.9 46.1c0-.3.7-1.3.9-1.6M48 46.5v-.1M52.8 40.1s-4.6 6-4.8 6.4M45.9 41.9c1.6-1 3.2-2.1 4.9-3.1M44.7 52.3c.7-2.1 2.9-5.1 3.2-5.5M59.6 42.2c-.5-1.4-1.9-2.7-4.2-2.8M54.2 45.4c.1-.2.2-.4.3-.4M55.6 46.7c-.5-.5-1-.9-1.4-1.2M54.5 45c-.6.1-1.4.2-2.4.5M59 45.2c.2-.5.5-2.3.6-2.9M54.2 45.4c.9.2 2 .2 3.5.2.4-.2.9-.2 1.2-.4M54.5 45c1-1.6 2.5-3.7 3.4-4.9M57.4 37.8c-.8.5-3.6 2.5-3.6 2.5l-1-.4M50.7 38.8c.3.2 1 .5 2.1 1.2M52.1 45.5c-.3.3-1.4 1.9-1.9 2.5.1.9.8 1.3 2.1.6.5-.3.9-.5 1.2-.9M52.1 45.5c-1 .2-2.4.5-4.1.9M54.4 32.5c-1 .3-1.9.8-2.7 1.2M53.1 37.5c-.9.5-1.7.9-2.4 1.3M50.7 38.8c-.5-1-1.1-1.9-1.8-2.7M51.3 33.9c.5 1.1 1.1 2.3 1.8 3.5M53.1 37.5c.5-.3 2.3-.9 3.1-1.3M71.2 32.5c-.3-.2-3.3-.6-3.3-.6l-3.1.6M70.8 35.7c-.2.2-.2.5-.3.7M71.4 37.1c-.2-.3-.5-.5-.9-.7M70.8 35.7l-3.7-1.8"/><path class="st4" d="M57.9 40.2c.4-.4 8.7-5.2 8.7-5.2s4.6-1.4 5.6-1.7M72.2 33.3c0-.2.1-.3.2-.5M73.9 34.7c.5.6.9 1.4 1.4 2.3M71.4 37.1c.5-.7 1.1-1.3 1.6-1.7.3-.3.6-.5.9-.7M73.9 34.7c-.4-.5-1-1-1.7-1.4M72.4 32.8c0-.1.1-.2.2-.4M74.9 30.6c-.6.5-1.4 1.2-2.5 2.2M74.1 29.6c-1.6 1.6-2.6 2.5-2.8 2.9M71.2 32.5c.2 0 .5 0 1.4-.2M64.8 32.5h-.2M60.9 32.5h3.7M64.7 32.5c-1.6 1.2-3 2-4.1 2.8M65.9 45.1c-.1 0-.1 0 0 0 .1-.5.3-.9.6-1.5"/><path class="st4" d="M62.6 44.5l1.8 1.7 1.5-1.1M60.6 44.8c.4-1.8 1.8-3.3 3.8-4.4.6-.6 4 1.1 6.3 2M72.9 39.4c-.7-.5-1.2-1.5-1.5-2.3M72.9 39.4s0-.1 0 0M73 39.3c.5.2 1.1.4 2 .7.4-.5.8-1 1.3-1.5l-.9-1.5M74.1 42.2c-.9.6-1.7 1.2-2.5 1.7-.3.2-.5.2-.7.4M70.5 44.6c0 .4 0 .8-.1 1.2M70.5 44.6c.2-.2.3-.2.5-.2M70.9 44.3c-.2.1-.3.2-.5.3M70.5 44.6c.1-.8.2-1.5.2-2.1M74.1 42.2c.3 1.2.8 2.5 1.6 3.6M70.7 42.4c.6-1.1 1.3-2.1 2.2-3M70.7 42.4c-.4-.9-1-2-1.8-3.1"/><path class="st4" d="M69 39.3l-3.6-1.1-6.1 3.3M75.3 37.1c-.8.6-1.6 1.3-2.3 2.3M68.9 39.3c1.3-.9 2.3-2 2.5-2.2M68 38.5c.5-.6 1.4-1.4 2.3-2M60.5 35.3l6.6-1.4M58.1 32.1c.5.8 1.4.4 2.8.4M60.9 32.5c-1.2.8-4 2.8-4.7 3.7M60.5 35.3c-1.1-.2-2-.4-2.6-.5M59 45.2c1-.2 2.5-.5 3.6-.7M57.4 37.8c.9-.9 1.9-1.7 3.1-2.5M78.4 36.6l1 .9 3.9-3.2s1-3.1 1.6-4.6M83 37.3c.5-.5 2.4-2.1 2.9-2.6l7.5-5.1M84.4 31c.7 2.2 1.2 3.4 1.3 3.6M78.7 30c-.8.9-1.7 1.9-2.7 2.7M75.9 32.7c.5.5.9 1.1 1.5 2v.2M81.8 30.5c-.3.2-6.3 6.3-6.5 6.5"/><path class="st4" d="M78.1 37.2c.2-.3.2-.5.3-.7-.4-.5-.7-1-1-1.6M77.7 41.5s-2-.4-2.1-.5M75.7 45.8l3.4-.5s3.1-2.3 3.2-2.3M86.8 43.2c-1.6.5-7.9 3.6-7.9 3.6M87.6 41.4c.5-1.2 1-2.5 1.6-3.8M90.3 27.8c-1.2 3.4-2.3 7-3.4 10.6 0 .1-.1.2-.1.4M86.8 38.8c.8-.5 1.6-.8 2.5-1.2M86.8 43.2c.2-.6.5-1.2.9-1.9M91.1 42.3c-.9.2-3.7.7-4.3 1M93.4 42.1c-.9.5-1.4.4-2.3.1M86.8 38.8c-2.9.7-6.5 1.9-9.1 2.8M100.2 36.8c.3-1.1.9-2.6 1.3-3.4M91.9 36c.9-.5 1.1-1 2-1.4M97.9 33.7h-.1M97.8 33.7c-.3.3-.6.5-.8.5-.9.4-2.1.6-3 .5"/><path class="st4" d="M98.9 30.4c-.8 0-3-.1-3.5.2-1.2 1.4-3.4 3.2-4.5 4.6l.9.9M94.6 43.2c.2-.6 1.8-4.4 2.3-5.6"/><path class="st4" d="M95.5 44.1l.2-.4c.6-1.4 1.2-2.7 1.6-4.1-.1-.5-.5-2-.5-2M24.1 45c1.3-.5 3.1-.8 4.5-1.1 1.1-.2 2.3-.5 3.4-.9M93.8 46.1c-.4-.3-.9-.6-1.5-.9-.5 1-1.1 2.1-1.6 3.1M92.3 54.9c.6-1.5 1.2-2.9 2-4.2.4-.8.8-1.6 1.2-2.3l.6-1.6c.7-1.4 1.5-2.7 2.1-4.2l1.2-2.7c.2-.4.4-.7.6-1.1l.3-.6M92.8 48.9c.9-1.7 1.9-3.3 2.7-4.6l.1-.2M97.9 33.7c1.3-.8 2.5-.9 3.7-.3M96.9 37.6c.2-1.2.6-2.6 1-3.9M89.3 37.5c.9-.5 1.7-1 2.6-1.5M97.8 33.7c.6-2.5 1.2-3.5 2.4-6.3M87.6 41.4c1.8-1.1 3.5-2 5.2-2.8M74.9 30.6c.6-.9.5-1.1 1.5-1.5M78.1 37.2c-.7 2.3-1.9 3.4-4 5M75.9 32.7c-.4-.6-.8-1.3-1-2.1M45.2 39.2c-.5.7-.9 1.4-1.2 2.1M41.9 39.1c1 .1 2.2 0 3.4 0M44.7 31.8c-2.3.6-3.5 1.5-5.7 2.6M92.3 54.9c-.1-.6-.2-1.2-.4-1.7M99 47.8l-2.1 4M94.2 50.7l2.7 1.1M91.9 53.2c.6-.8 1-2.4 1.3-2.8M95.8 60.3c0-.2.1-.3.2-.4M100.3 60.8l-4.5-.5M96.9 51.8l5.3 2.1M99.2 56.4L96 59.9M82.3 55.6l-5.9 6.2M90.8 49c-.2.1-.2.2-.3.4l-.9.9M89.7 50.3c-.6.5-1.3.8-2 .9M98.2 61c-.6 1.2-1.2 2.7-1.7 4.3M90.7 48.3c-.2-.3-.5-.6-1.2-1.3M90.7 48.3c0 .2.1.4.2.7M76.7 54.6c1.9-3 8-6.7 8.5-6.8M75 60.7c-.5 1.3-.9 2.8-1.4 4.4.6-.2 1.3-.2 1.8-.3M87.6 51.2c-.3-.2-1.6-.4-2.1-.3-.8.1-1.8 1.1-2 2.2M90.3 71.7c-.5 1-1.2 2.7-1.6 4.2M76.7 54.6c-.2-.2-3.1-1.3-3.7-1.5M80.1 64c-.7.5-1.3 1.1-1.6 1.6-2.9 2.9-5.8 5.2-8.8 7.1 0 .2 0 .4.1.5M95.8 60.3l-5.6-.5-2.1-.3-3.3-.6"/><path class="st4" d="M83.8 81.8l2.2-1.2c-.8-1.2-.7-3.2.2-6.1 1.6-4.8 3.1-9.6 5.1-14.2.4-1 .7-4.7.9-5.4M85.1 71c.9-3.8 2.3-7.7 3-11.6.5-3 1.1-6.1 1.6-9.2M84.8 58.9L80.1 64M85 74.5l-3.7-.9M81 80.2s0-.4.5-1.2c.6-1.4 1.2-2.5 1.8-3.3.3-.5.6-1.2.9-1.9 0-.1.1-.2.1-.2.3-.9.5-1.7.8-2.6M85 74.5l7 2.8M79.9 79.8c.3-2.9.9-4.5 1.5-6.2l-1.8-.4M92.4 62.8c-.3-1.8-.2-1.1-.2-2.7M88.5 79.1c-.4.9-.7 1.9-.9 2.7M97.4 71.8l-4.5-1.2M92 77.3c.2-2.3.4-4.5.9-6.7M92 81.1c-.1-1.2-.1-2.5 0-3.8M92.9 70.6c.6-3.4 1.6-6.8 3-10.2M84.9 82.5l7.1-1.4M91.9 53.2c-.4-1.6-.8-3-1-4.1M72.7 53c-.6-1.1-1.5-5.8-2.3-7.2M63.4 53.5c1.4-2.4 2.8-4.6 4.2-6.6M60.2 56.8c-.1 0-.1 0 0 0M60.2 56.8c-.1 0-.1 0 0 0M66.6 65.1c0-.1 0-.2.1-.2M66.7 64.9c-.7-1.1-1.1-1.8-1.4-2.2-1.9-1.8-3.6-3.8-5.1-5.9M73 59.8s-2.3-1.2-2.2-1.1"/><path class="st4" d="M65.6 63.5c1.3-.1 2.1 0 3 0-.1-1.2-.2-3-.5-3.9M68.7 63.4c1.3-.7 3.1-2.2 4.2-3.6M60.2 56.8c1.4-1.3 2.4-2.4 3.2-3.4M68.1 59.6c-.9-.9-1.6-1.7-2.1-2.3-1-1.3-2-2.6-2.6-3.7M74.2 75c3.3-2.8 4.7-9.1 4.2-9.7-.7-.9-3.6-4.1-3.9-7.6M51.2 63.6c.4-1.1.9-2 1.3-3 .9-2 1.7-4.1 2.3-6.2.6-2 1.2-4 2.4-5.7M45.6 60.5c.3 0 1.4-.5 2.1-.8 3.4-2.2 4.9-4.4 6.2-7.3M51.6 65c0-.2-.1-.3 0-.4M51.6 64.6c-.2-.5-.3-.9-.4-1M51.2 63.6c-.3-.2-5-2.8-5.5-3.1M51.6 65c.9-.9 3.3-2.4 3.3-2.4s6.5 2 9.7-.6"/><path class="st4" d="M60.1 56.9c-1.5.5-3.1.7-3.1.7s-3.1 4.7-4.6 6.2c-.4.2-.7.5-.9.9M34.9 72.5c.8 0 12.1-1.6 16-1.7M69.9 76.6s-.2-2.5-.2-3.3M66.7 68.4c1.7.2 2.4 2.5 3.1 4.9M69.4 73c-1 .5-2.3 1.6-3.5 2.5l.8 2.2"/><path class="st4" d="M63.2 80.6c.3-.9 1.1-2 1.4-2.2l5.4-1.9M79.5 73.2c-3.5 1.1-5.7 2.2-8.6 3.1l-1 .3M69.9 76.6l-.3 1.4M73.8 78.7c.1-.8.2-2.7.4-3.3M65.8 75.5c-.8.4-2.7 1.6-2.7 1.6s-5.7-1.6-6.2-3.2M55.5 75.1c3.7-3 7-8.4 10.1-11.6M51.6 65c-.8.2-9 3.6-8.7 6M54 73.6c.6-1.5-.6-7.5-.6-7.5s-.7-.6-1.8-1M66.7 68.4c-.6-.8-.6-2.1-.1-3.3M92.3 85.7c-.2-1.5-.2-3-.2-4.6M79.1 45.3c-.2 1.1-1.2 5.4-1.2 5.4l-3.7.1-2.5-2.1M73 59.8c1.2-1.8 2.4-3.6 3.7-5.2"/><path class="st4" d="M50.9 70.8l10.7 10.1s15-2.3 15.9-2.4M34.9 49.2s3.6-.4 3.5-.4c.1 0 1-1.2 1-1.2.9-.2 1.6-.5 2.5-.7M36.5 54.4c.2 0 .7.1 1.3.2h.1c.5 0 1.2.2 1.8.2M36.4 55.3c0-.1.2-.2.4-.1 0-.1.2 0 .5.1M37.3 55.3c.2.5.2 1.1-.1 1.6-.3.4-.8.9-1.3 1-.5.1-.8-.1-.8-.6s.3-1.1.7-1.4l.6-.6M36.4 55.3c.2 0 .6-.1.9 0M39.7 54.8v.5M39.7 55.3c0-.2.1-.3.1-.5h-.1M41.8 47c-.7 1.8-1.3 3.6-1.7 5.5-.1.2-.2.9-.4 2.3M34.9 49.2c-1.6 1.2-3.7 2.4-5.2 3.6M32.6 57.6c-.3-.4-.5-.9-.8-1.3-.2-.4-.5-.7-.7-1.1M44.8 52.3c-.7 1.1-4.1 8.5-4.5 9.3M38.1 61.1c-.6-.2-1.2-.3-1.5-.3-2-.2-3.4-1.3-4-3.2M41.4 61.7c7.4-2.4-2.4 9.9-2.9 10.3M41.3 61.7c-1.1 0-2.5-.3-3.2-.6M34.2 71.9c.5-2 4.9-14.8 5.5-16.7M35.8 49.2c0 2 .1 3.6.7 5.2M36.5 54.4c-1.3 1-2.6 2-3.8 3.2M21.9 55.2c.1-1.9.4-4 1-6.2 1.3-.6 2.7-1.2 4.1-1.6l1-.3c1.2-.5 2.3-.8 3.5-1M28 53.2l-3.9.9c-.8.3-1.5.7-2.2 1.1M27.1 54.9c.1 0 .2 0 .2.2M27.5 54.7c-.1.1-.2.2-.2.4M27.1 54.9c.1-.1.2-.2.4-.2M27.5 54.7c.2-.5.3-1 .5-1.6"/><path class="st4" d="M97 24.8c-2 1.2-14.4 5.6-14.4 5.6-.5-.2-12.6-3-12.6-3L57.8 32c-.8-.4-1.9-.6-2.8-.8-1.3-.4-2.7-.7-4-1-1.6-.4-3.2-1-4.8-1.6-1.2 0-6.2 1.6-6.2 1.6-.3 0-5.1 1.5-5.4 1.6-.2.1-.5.1-.7.3-.3.5-.9 1.3-.9 1.3-3 4-6.8 7.3-9.3 11.7-1.6 2.9-3 5.9-4.8 8.7-1.9 2.9-4.4 5.2-6.6 7.8M21 65c0-.7 2.8-2.1 2.8-2.1"/><path class="st4" d="M12.3 61.6c-.9.8-1.6 1.7-2.2 2.6-.7.8-1.3 1.6-1.9 2.3 0 0 2.1.2 2.3.2 1-.1 2-.2 3-.4 3.5-.5 7.1-1.1 10.6-1.4M23.8 62.9c.4-.1 2.8-1 2.8-1 5.2 5 7.2 8 8 8.8.2.3 3.9 1 4.4 1.1M17.7 55.7c-.1 1.4.1 2 .1 2.1 1.4-.8 2.7-1.8 4.2-2.6M21.6 58.5c1.7-1.2 3.6-2.3 5.5-3.6M12.3 61.6c1.1-.2 2.1-.4 2.5-.4 2.3-.7 4.4-1.7 6.8-2.7M24.1 64.9s2.5 2 3.2 2.4c2.4 1.4 5.2 3.5 7.4 5.2M28 53.2c.5-.1 1.1-.2 1.6-.3M29.7 52.8c-.7.5-1.4 1.2-2.2 1.9M27.3 55.1c.9 0 2.3 0 3.9.1M57.3 48.7c-1.2.3-9.1 3.4-10.8 4.2 0 0-5.7-1.1-6.4-.5M45.6 60.5c-.4-.3-2-.6-2.7.8M103 46.7l-4 1.1M106.6 33.1L99 47.8M67.6 46.9c.1-.5 1-1.2 2.8-2.3M67.6 46.9c-.4-.5-.9-1.1-1.7-1.8M89.3 47.1c-1.5.3-2.6 0-4.1.7M42.6 44.7c-.3.7-.5 1.5-.8 2.3M45.9 46.1c-1.4.2-2.8.5-4.1.9M70.4 45.8c-.2 3.1.2 8.4.3 12.9M31.6 46c-1.3 2.3-2.5 4.7-3.6 7.1M57.3 48.7c.5-1.3 1.2-2.5 1.7-3.5M57.5 68.2c.5-1.6.9-3 1.6-4.5M82.4 49.4c-.7 1.6-1.7 3-2.3 4.9"/><path class="st4" d="M77.5 78.5l7.3 4 7.5 3.2 2.7 1.1s.4-3.9.7-5.8c.3-1.9.7-3.7 1.1-5.6.3-1.2.6-2.3.9-3.5.5-1.7.9-3.4 1.3-5.2.4-1.7.9-3.4 1.3-5.1.1-.4.2-.7.3-1.1.5-2 1.6-6.7 1.6-6.7.5-5 3.4-15.5 6.2-20l-11.4-9M46.1 28.6C44.9 32.7 27.7 62.3 24 64.9M69.9 27.5c-2.2 4-15.8 38-19 43.3M82.6 30.5c-2.2 4-21 50.4-21 50.4M97 24.8c-.9 5.4-19.6 53.4-19.6 53.4M57.9 32.1c-2.5 5.9-1.1 3.3-23 40.4"/></svg>