<svg xmlns="http://www.w3.org/2000/svg"><path fill="#6C82AC" d="M729.204 411.373c-3.1-.2-6.197 1.1-9.296 3.95-3.1 2.847-4.748 6.645-4.948 11.394s-.3 8.348-.25 10.746c0 2.398.05 5.447.1 9.196.05 3.697.15 7.246.35 10.695.2 3.398 1.3 6.146 3.3 8.196 1.85 1.95 4.798 2.95 8.846 3 3.998.05 7.896.2 11.695.45.75.05 1.45.1 2.2.15-.15-1.75-.3-3.5-.55-5.25-.35-3.198-.6-6.597-.7-10.245l-4.947.15c-.35-3.6-.25-6.548.3-8.847 1.8-.05 3.6-.1 5.397-.2.35-2.55.6-5.098.8-7.547.3-3.598.75-7.046 1.35-10.295.65-3.448 2.55-5.647 5.598-6.597 3.15-1.05 6.747-1.5 10.696-1.4 2.148 0 4.348.1 6.497.3 0 2.85.05 5.748.15 8.597.05 1.85 0 3.6-.1 5.248-2.25-.05-4.548.55-6.797 1.9-1.05.6-1.6 1.848-1.65 3.797-.05 1.75-.1 3.5-.1 5.3 2.75.1 5.498.25 8.347.448-.55 2.898-.95 6.098-1.1 9.547-2.35-.35-4.798-.65-7.297-.85h-.05l-.15 8.546c-.05 2.35-.15 4.75-.25 7.098 2.05-.15 4.2-.4 6.348-.7 4.35-.55 7.35-1 9.098-1.35 1.7-.398 2.95-2.548 3.698-6.496.65-3.55.9-6.348.75-8.396-.2-2.05-.15-5.147.15-9.396.3-4.248.45-9.347.45-15.294s-.45-9.896-1.35-11.846c-.95-1.95-3.05-3.148-6.398-3.548s-5.997-.7-7.847-.85c-1.898-.2-3.598-.25-5.047-.2-2 .05-3.948.05-5.897 0-11.196.6-18.343.8-21.392.6zm31.837 54.13c-.148-.15-.35-.302-.498-.45 1.35-1.65 3.298-2.4 5.848-2.2 1.3-.9 2.698-1.55 4.248-1.95 1.95.352 2.3 1.2 1.05 2.5-.15.15-.35.25-.55.4-2.65 1.648-5.548 2.248-8.696 1.75-.45.45-.95.398-1.4-.05zm-40.683-10.747c-.1 2.3.6 4.35 2.05 6.197.05.05.1.1.15.2 1.15.95 2.398 1.85 3.747 2.6 4.5-.15 8.947.15 13.346.8.25 0 .35.15.4.45.148.948-.3 1.448-1.25 1.548-4.85.45-9.547.352-14.195-.298-.15-.05-.25-.1-.35-.25-2.248-.45-3.8-1.75-4.598-3.8-1.45-1.648-1.8-3.548-1.05-5.797.15-.45.3-.85.4-1.3.35-.35.802-.5 1.35-.35z"/><path fill="#7D8FB6" d="M760.542 465.052c.15.15.35.3.5.45.45.45.95.5 1.4.05 3.147.5 6.046-.1 8.695-1.75.2-.15.4-.25.55-.4 1.25-1.298.9-2.147-1.05-2.498-1.55.4-2.95 1.05-4.248 1.95-2.55-.202-4.498.548-5.848 2.198zM722.406 460.953c-1.45-1.85-2.148-3.898-2.05-6.197-.548-.15-.998 0-1.35.35-.1.45-.25.85-.398 1.3-.75 2.25-.4 4.148 1.05 5.798.8 2.05 2.35 3.35 4.598 3.8.1.148.2.198.35.25 4.648.648 9.347.748 14.195.298.95-.1 1.4-.6 1.25-1.55-.05-.3-.15-.448-.4-.448-4.397-.65-8.846-.95-13.345-.8-1.35-.75-2.598-1.65-3.748-2.6-.05-.1-.1-.15-.15-.2z"/><path fill="none" stroke="#040404" stroke-linecap="round" stroke-linejoin="round" stroke-miterlimit="10" d="M729.204 411.373c3.05.2 10.196 0 21.392-.6 1.95.05 3.898.05 5.897 0 1.45-.05 3.148 0 5.048.2 1.85.15 4.5.45 7.848.85s5.448 1.6 6.397 3.548c.9 1.95 1.35 5.9 1.35 11.847s-.15 11.046-.45 15.294c-.3 4.25-.35 7.348-.15 9.397.15 2.05-.1 4.848-.75 8.396-.748 3.948-1.998 6.098-3.697 6.497-1.75.35-4.748.8-9.097 1.35-2.147.3-4.297.55-6.346.7.1-2.35.2-4.75.25-7.098l.15-8.546h.05c2.498.2 4.947.5 7.296.85.15-3.45.55-6.648 1.1-9.547-2.85-.2-5.598-.35-8.347-.45 0-1.8.05-3.55.1-5.3.05-1.948.6-3.197 1.65-3.797 2.25-1.35 4.548-1.95 6.797-1.9.1-1.647.15-3.397.1-5.247-.1-2.85-.15-5.748-.15-8.596-2.148-.2-4.348-.3-6.496-.3-3.95-.1-7.547.35-10.696 1.4-3.05.948-4.948 3.147-5.598 6.596-.6 3.25-1.05 6.697-1.35 10.296-.2 2.45-.45 4.998-.8 7.547-1.8.1-3.598.15-5.397.2-.55 2.298-.65 5.247-.3 8.846l4.947-.15c.1 3.648.35 7.047.7 10.246.25 1.75.4 3.498.55 5.248-.75-.05-1.45-.1-2.2-.15-3.798-.25-7.696-.4-11.694-.45-4.05-.05-6.997-1.05-8.846-2.998-2-2.05-3.1-4.798-3.3-8.196-.2-3.45-.3-6.998-.35-10.696-.05-3.75-.1-6.798-.1-9.196-.05-2.398.05-5.998.25-10.746s1.85-8.546 4.948-11.395c3.1-2.85 6.197-4.15 9.296-3.95z"/></svg>