<svg xmlns="http://www.w3.org/2000/svg" viewBox="0 0 131.3 105.1" enable-background="new 0 0 131.3 105.1"><style type="text/css">.st0{fill:#677582;} .st1{fill:#515C69;} .st2{fill:#CCCCCC;} .st3{fill:#F48120;} .st4{fill:#A6B4C6;} .st5{fill:#00AFD7;} .st6{fill:#6B6D75;} .st7{fill:#B0B0B0;} .st8{fill:none;stroke:#040404;stroke-width:0.9996;stroke-linecap:round;stroke-linejoin:round;stroke-miterlimit:10;}</style><path class="st0" d="M119.7 17.2c-1.9-.9-3.9-1.4-6-1.3-1.6-.1-3.1-.1-4.4-.1-2.3-.1-4.5-.3-6.6-.5-2.1-.2-4.1-.3-6-.4-2.2-.1-4.3 0-6.4.2-2.1.1-4.4.1-6.6 0-1.9-.2-3.7-.2-5.4-.2h-.4c-.1-.1-.2-.1-.3 0h-.3c-.4-.1-.7 0-.9 0-10.4.1-16.5.1-18.3.1-2.2 0-4.4 0-6.6.1-2.2.1-4.5.1-6.6.1-2.2 0-4.8.1-7.8.2s-5.1.2-6.4.2c-1.4 0-4.2.1-8.4.5v.7l-3.2-.1-5.1 1.6c-.1 0-.2.1-.3.1 2.4-.7 4.7-1.1 6.8-1.2 1.4-.1 2.8-.1 4.3 0h5.6c2-.2 4.2-.2 6.7-.2 2.3 0 4.3.1 5.9.1h6.1c2.5-.1 4.8-.1 6.9-.1 2 .1 5.7.2 11.4.2 5.3 0 9 0 11.2.1 2 0 4 .1 5.9.2 1.7 0 3.6.1 5.7.2 1.8 0 3.2.1 4.2.1.8-.1 2.1-.1 3.8.1 1.6 0 3.5.1 5.8.2-.2-.1-.3-.2-.3-.2l-.2-.2c-.2-.1-.4-.1-.6 0-1.9-.1-3.7-.2-5.5-.4-.3 0-.4-.1-.4-.2-.1-.1-.1-.1 0-.1-.1 0-.1-.1 0-.1v-.2s0-.1.1-.1c0 0 0-.1.1-.1.1-.1.2-.2.3-.2 0-.1 0-.1.1 0 .1-.1.2-.1.3 0 2.2-.1 4.5 0 6.7.4.1 0 .2 0 .3.2 1 .2 2 .3 3 .3.1 0 .2 0 .3.2 1.5-.4 3-.4 4.6-.1.1 0 .2 0 .3.1h.6c.2-.3.5-.4 1-.4 2.9-.1 4.9 1.2 5.9 3.8.1.2.1.4.2.8.4 1 .6 2.1.6 3.4v.8c-.1 1.8-.1 3.6-.2 5.6.5.9.7 2.1.6 3.4-.2.7-.3 1.3-.4 2 0 .2-.1.5-.1.8 0 1.1 0 2.2.1 3.5 0 1.8-.1 3.7-.3 5.5-.1 0-.1.1-.1.2-.1 2.3-.1 4.6 0 7 0 .6-.1 1.1-.1 1.7h.7c0-1.6.1-3 .1-4.3 0-1.9.1-3.6.3-4.9.2-1.4.3-3 .3-5-.1-2-.1-4.1 0-6.4.1-2.2.3-4.4.6-6.6.1-2.5 0-4.7-.4-6.7-.4-2.3-1.3-3.6-2.8-4.4zM117 21.4c-.1-.1-.2-.3-.3-.4-.2-.2-.5-.3-.8-.4.9 1 1.4 2.4 1.6 4.6 0 2.2 0 4.5.1 6.9 0 2.3-.1 4.3-.2 5.9-.1 1.6-.3 3.5-.4 5.8-.3 2.2-.5 4.3-.7 6.4-.2 1.5-.3 3.1-.3 4.7l1.8.1c0-.6.1-1.1.2-1.7 0-1.2.1-2.5 0-3.7-.1-1.7 0-3.3.5-4.7.1-2.4.1-4.7-.1-6.9-.2-1-.1-2 .2-3.1.1-.5.1-1 .1-1.4-.5-1.2-.7-2.4-.5-3.7.1-1 .1-2 .2-3 0-.5-.1-1-.1-1.5-.1-.6-.1-1.1 0-1.5-.6-.7-.9-1.5-1.3-2.4zM117.7 55l-1.8-.1c0 .5-.1 1-.1 1.5 0 2-.1 4.1-.4 6.2-.2 1.9-.5 4-.7 6.2-.2 2-.4 4.1-.5 6.2-.2 2.2-.4 4.4-.5 6.7-.2 2.1-.4 4.3-.7 6.5-.3 2.2-1.2 3.8-2.5 4.6l-1.5.6c1.5-.2 3-.5 4.4-.7 1.5-.4 2.8-1 4.1-1.8 1.2-.9 1.9-2.7 2.2-5.3.2-2.7.4-4.7.7-6.2.1-1.6.3-3.6.6-6.1.1-2.6.2-5.4.3-8.5 0-3.1.1-5.7.3-7.8v-1.8h-.7c0 .7-.1 1.4-.1 2.2-.2.8-.2 1.7-.2 2.7 0 1.4-.2 2.9-.6 4.3 0 0-.1.1-.2.3-.1 2.3-.3 4.6-.7 6.9-.2.9-.3 1.7-.2 2.6-.1 0-.1.2 0 .4v1.2c-.1.7-.2 1.4-.3 2.2-.1 1.6-.3 3.3-.7 4.9-.2.2-.3.6-.2 1-.2.2-.3.4-.5.6-.1 1.1-.7 1.4-1.7.9l-.2-.2c.2-2.9.4-5.8.7-8.6-.4-.5-.5-1.1-.4-1.9.1-1 .2-2 .3-2.9-.1-1.1.1-2.1.6-2.8.1-1 .1-2 .1-3.1-.1-1.2.2-2.3.9-3.3.1-2.3.2-4.6.4-6.9-.2-.1-.2-.4-.2-.7z"/><path class="st1" d="M97.2 16.3c-.1 0-.2.1-.1.1 0 0 0 .1-.1.1v.2c-.1 0-.1.1 0 .1-.1 0-.1 0 0 .1 0 .2.1.3.4.2 1.8.2 3.6.3 5.5.4.1-.1.3-.1.6 0l.2.2s.1 0 .3.2h.5c.8-.1 1.6 0 2.5.1.7 0 1.4.1 2 .3.1-.1.4-.2.7-.2 0-.1 0-.2.2-.1h2.1c.3 0 .6.1 1.1.2-.1.1-.1.2 0 .3 0 .1 0 .1.1.2.7.2 1.5.7 2.4 1.3l.4.4c.2.1.5.2.8.4.1.1.2.3.3.4.3.8.6 1.6 1 2.4-.1.4-.1.9 0 1.5 0 .5.1 1 .1 1.5 0 1-.1 2-.2 3-.2 1.3 0 2.5.5 3.7 0 .5 0 1-.1 1.4-.3 1-.4 2-.2 3.1.2 2.2.2 4.5.1 6.9-.4 1.5-.6 3.1-.5 4.7.1 1.3.1 2.5 0 3.7-.2.8-.2 1.7-.2 2.7-.2 2.3-.3 4.6-.4 6.9-.7 1-1 2.1-.9 3.3 0 1 0 2-.1 3.1-.5.7-.7 1.7-.6 2.8-.1.9-.2 1.8-.3 2.9-.2.8-.1 1.4.4 1.9-.3 2.8-.5 5.7-.7 8.6 0 0 .1 0 .2.2 1 .5 1.6.2 1.7-.9.2-.2.4-.5.5-.6 0-.4.1-.8.2-1 .4-1.6.7-3.3.7-4.9.1-.8.1-1.6.3-2.2 0-.5.1-1 0-1.2-.1-.2-.1-.4 0-.4 0-.9 0-1.7.2-2.6.4-2.3.6-4.6.7-6.9 0-.2.1-.3.2-.3.4-1.5.6-2.9.6-4.3 0-1 .1-1.9.2-2.7.1-1.4.2-2.7.3-3.9-.2-2.4-.2-4.7 0-7 0-.2 0-.2.1-.2.2-1.8.3-3.7.3-5.5-.1-1.3-.1-2.4-.1-3.5 0-.4 0-.6.1-.8.1-.7.2-1.3.4-2 .2-1.3 0-2.5-.6-3.4 0-2 .1-3.8.2-5.6v-.8c0-1.2-.2-2.4-.6-3.4 0-.4-.1-.6-.2-.8-1-2.6-3-3.8-5.9-3.8-.5 0-.8.1-1 .4-.2 0-.4-.1-.6 0-.1-.1-.2-.1-.3-.1-1.6-.3-3.1-.3-4.6.1-.1-.1-.2-.2-.3-.2l-3-.3c-.1-.2-.2-.3-.3-.2-2.3-.4-4.5-.5-6.7-.4-.1-.1-.1-.1-.3 0 0-.1 0-.1-.1 0 .1 0 0 .1-.1.2zM111.7 18.7c-1.4 0-2.2-.1-2.6-.1-.7.1-1.4-.1-2-.3 0 0-.1 0 0 0 0 0-.1 0 0 0 0 0-.1 0-.1.1l-.1.1c-.1-.1-.1-.1-.1 0-.5.2-1 .2-1.5 0-.1-.1-.2-.2-.3-.2-.1 0-.3-.1-.4-.1h-.4c-2.3-.1-4.2-.1-5.8-.2-1.7-.1-3-.2-3.8-.1-1 0-2.4-.1-4.2-.1-2-.1-3.9-.2-5.7-.2-1.9-.1-3.8-.1-5.9-.2-2.2-.1-5.9-.1-11.2-.1-5.6 0-9.4-.1-11.4-.2-2.1-.1-4.4 0-6.9.1h-6.1c-1.6-.1-3.6-.1-5.9-.1-2.5-.1-4.8 0-6.7.2H25c-1.5-.1-3-.1-4.3 0-2.1.1-4.4.6-6.8 1.2-1.2.5-2 1.4-2.6 2.7-.5 2.1-.8 3.9-.8 5.4-.1 1.5-.1 4.5-.1 9.1-.1.8-.1 2.3-.1 4.7-.1 2.1-.2 4.3-.4 6.6-.1 1-.2 1.9-.3 2.8L27 50.9c.1-1.6.2-3.2.3-4.7.1-1.6.2-3.1.3-4.5.1-1.6.1-3.1.3-4.5 0-2 .1-3.5.3-4.5 0-1.3-.1-2.9-.2-4.8-.2-1.9 0-5 .6-9.3.5-.1 1-.1 1.8-.1h5c1.8-.1 3.6-.2 5.4-.1 1.9-.1 3.8 0 5.7 0 1.8-.1 3.6 0 5.3.2 1.9 0 3.8.1 5.9.3 2 .1 4.1.2 6.3.2 2 0 4.1 0 6.2.1 1.8 0 3.7 0 5.6.2 2 0 4 0 6.1.1 1.6.1 3.2.1 4.8 0 2.1 0 4.2.2 6.3.5 1 .2 2 .3 3.1.5-.3 2.2-.6 4.1-.7 5.8-.3 1.8-.5 3.9-.5 6.3-.1 2.3-.4 5.5-.7 9.7 0 .3-.2 2.8-.5 7.5-.1 2.2-.3 4-.4 5.5l6.3.4c.1-1.4.6-2.7 1.6-3.7 1.6-1.9 4.2-2.3 7.9-1.1 1.6.9 2.7 2.7 3.2 5.7l4 .3v-.1c0-2.2.2-4.2.4-6.2.2-2.2.5-4.3.7-6.4.2-2.3.3-4.2.4-5.8.1-1.6.2-3.6.2-5.9-.1-2.4-.1-4.7-.1-6.9-.1-2.1-.6-3.6-1.6-4.6l-.4-.4c-.9-.7-1.7-1.1-2.4-1.3-.8-.6-1.4-.6-1.8-.6zm-94.9 2.4c-.3.2-.6.4-.8.7-1.6.9-2.3 2.1-2.2 3.6-.1.2-.3.4-.4.6-1.4.6-2.1.3-2.3-.9-.2-.4-.2-.7-.1-.9-.1-1.8.7-3.2 2.4-4.1.5-1 1.3-1.4 2.6-1.4 1.3.5 1.6 1.3.8 2.4zM16 33.9c1.2-1.3 1.7-.1 1.4 3.5-.4 3.6-.6 6.5-.6 8.7-.1.2-.1.9-.1 2.2-1 1.3-1.8 1.1-2.2-.5.4-2.9.7-5.3.8-7.3 0-1.5.2-3.8.7-6.6zM99.1 55.4l-6.2-.4c-.1 1.6-.2 2.8-.2 3.6-.1 1.3-.1 3.3-.1 5.9-.1 2.5-.2 5.4-.3 8.9-.1.5-.4 4.2-1.2 11.2-.2 1-.3 2.1-.4 3.3C83.2 86 79 85 78 84.6c-1.3-.5-2.8-.9-4.4-1.3-1.8-.5-3.4-1-4.7-1.4-1.5-.5-3.3-.9-5.6-1.2-2.5-.5-4.9-.9-7.4-1.2-2.6-.6-4.9-1-7-1.2-2.1-.4-4.2-.8-6.2-1.1-2-.5-3.9-.9-5.8-1.3-1.9-.5-3.8-1-5.7-1.3-1.7-.4-3.4-.8-5-1-.5-.1-.9-.2-1.2-.2.3-3.7.6-6.1.7-7.3 0-1.6.1-3.8.3-6.4.2-2.8.3-5.3.5-7.5 0-.5.1-1 .1-1.5L9.4 49.6c-.1 1-.1 2-.1 2.8-.1 1.5-.1 3.3.2 5.8.1 2.1.1 4.3.2 6.5 0 2.2.3 4.1 1.2 5.6.8 1.7 2.2 2.8 4.2 3.2 1.8.2 3.7.7 5.6 1.3 1.3.3 2.7.6 4.2 1 .5.1 1 .2 1.7.4 2.1.4 4.3.7 6.5 1.1 2.1.3 4.1.7 6 1.3 2.1.5 4.3 1 6.7 1.5 2.2.3 4.3.7 6.5 1.3.5.1 1.2.2 1.9.4 2.1.5 4.4 1 6.6 1.5 2.2.4 4.4.8 6.6 1.3 2.1.3 4.1.8 6.1 1.4 1.9.4 3.8 1 5.7 1.6 2.1.7 4.2 1.2 6.6 1.7 1.2.3 2.4.5 3.5.7.4.1.8.2 1.3.2.6 0 1.1.1 1.7.4 2 .4 4 .9 6 1.4 2 .4 4.1.8 6.3 1.2 1.7.3 3.2.2 4.5-.1.5-.3 1-.5 1.5-.6 1.3-.8 2.2-2.4 2.5-4.6.3-2.2.5-4.4.7-6.5.1-2.2.3-4.4.5-6.7.1-2.1.3-4.2.5-6.2.2-2.2.4-4.3.7-6.2.2-2.1.3-4.1.4-6l-4-.3c0 .4.1.7.1 1.1.3 3.4-.6 5.4-2.8 6-2.1.4-4.2.2-6.3-.8-1.9-1-3-2.6-3.5-4.6-.3-.7-.3-1.5-.3-2.3zm10 30.6c0-.7.4-1.1 1.2-1.1.1-.1.2-.1.3 0 1.3.5 1.8 1.5 1.4 3.2-.2.5-.3 1-.4 1.5-.5 1.9-1.7 2.9-3.7 3-1.1 0-2-.2-2.9-.5-.8-.4-1-1-.7-1.7.2-.7.7-1 1.5-.9.8 0 1.6-.1 2.4-.5.1-.1.2-.3.4-.5.2-.9.4-1.7.5-2.5z"/><path class="st2" d="M95.7 20.2c-1.1-.2-2.1-.3-3.1-.5-2.1-.3-4.2-.5-6.3-.5h-4.8c-2.1 0-4.1-.1-6.1-.1-1.9-.2-3.8-.2-5.6-.2-2.2-.1-4.2-.1-6.2-.1-2.1 0-4.2-.1-6.3-.2-2-.2-4-.3-5.9-.3-1.8-.2-3.6-.2-5.3-.2-1.9-.1-3.8-.1-5.7 0-1.8 0-3.6 0-5.4.1h-5c-.7-.1-1.3 0-1.8.1-.5 4.3-.7 7.4-.6 9.3.1 1.9.2 3.5.2 4.8-.1 1-.2 2.5-.3 4.5l-.3 4.5-.3 4.5c-.1 1.1-.1 2.3-.2 3.5l2.5.2c0-10 .1-20.2.3-30.7.3 0 .7 0 1.2.1-.2 10.6-.3 20.8-.1 30.7l1.7.1c.2-6.5.4-12.8.6-18.6 1.1.2 2.3.4 3.4.7-.3 5.7-.6 11.8-.9 18.2l1.4.1c.9-6.2 1.9-12.1 2.9-17.6 1.3.1 2.7.4 3.9.7-1 5.4-2 11.1-3 17.2l1.1.1c1.8-10.5 3.8-21.1 6-31.7 1 0 2 0 3.1.2-.5 1.5-.9 3.1-1.2 4.9.4.2.9.3 1.4.4 4.8 1.6 9.6 3.1 14.3 4.2 4.2 3.3 8.7 7 13.4 11.1-.6.2-1.2.6-1.7 1.2-4.5-3.9-8.9-7.4-13.2-10.7-.7 3.2-1.4 6.4-2 9.5.4-.3.9-.5 1.4-.6.3-1.9.7-3.8 1.1-5.7 3.9 2.6 7.9 5.4 11.8 8.3-.9 1.9-1.8 3.9-2.8 6.1-.2-.1-.5-.2-.7-.2-.2.4-.3.8-.4 1.3.8.2 1.7.4 2.6.7 2.5-4.8 4.9-9.5 7.3-14.2-1.8-4.7-3.4-9.2-4.8-13.6.6-.5 1.1-.9 1.7-1.1.3 1.1.7 2.3 1.3 3.6 1-1.5 2.1-2.9 3.3-4.2h1c.2.1.4.2.5.4-1.5 1.7-2.8 3.6-4 5.7.7 1.9 1.5 3.8 2.2 5.8 2.1-4.1 4.1-8 6.2-11.6.8.1 1.7.1 2.6.1-.9 1.7-1.7 3.6-2.4 5.5 1.3.9 2.6 1.8 4 2.8-.1 1-.1 2-.1 2.9-1.6-1.4-3.1-2.7-4.6-4-1.3 2.6-2.5 5.4-3.8 8.6 1.9 4.3 3.9 8.7 6.2 13.5.1.3.3.6.5 1 0 1-.1 2.1-.1 3.2l.9.1c.1-1.2.2-2.7.3-4.4.3-4.7.5-7.2.5-7.5.4-4.2.6-7.4.7-9.7 0-2.4.2-4.5.5-6.3.4-1.8.6-3.7 1-6zm-9.2.2c.6.2 1.2.4 1.7.5-1.5 2.7-3 5.5-4.6 8.4-.4-1.1-.8-2-1.1-3 1.3-2 2.6-4 4-5.9zm3.1 9.1c1.2 1.1 2.5 2.2 3.8 3.2-.6 4.6-1.2 9.2-1.6 14-1.7-3.5-3.3-7-4.8-10.4.7-2.3 1.6-4.6 2.6-6.8zm-20.8-8.2l7.2.6c1.3 3.9 2.7 7.7 4.2 11.5-.8 1-1.6 2-2.3 3-3.9-3.3-7.8-6.5-11.6-9.6.7-1.8 1.6-3.6 2.5-5.5zm-3.1-.6c-.8 2.1-1.5 4.1-2.2 6-4.1-1-8.1-2.2-12.1-3.4.3-1.3.6-2.5.9-3.8 4.4.5 8.8.9 13.4 1.2zM40.1 31.4l2.1-12 3.9.3c-.7 4.2-1.4 8.3-2 12.5-1.4-.3-2.7-.6-4-.8zm-3-1.1c-1.6-.1-3.1-.2-4.6-.2.2-3.5.4-7 .6-10.4 1.5 0 3 .1 4.5.3-.1 3.6-.3 7-.5 10.3zM60.4 50.2l-.1-.1c-.3-.5-.6-1-.7-1.5-4.9-1.3-9.7-2.6-14.5-4.1-.6 2.1-1.1 4.1-1.5 6.2l1.7.1c.3-1.4.6-2.8.9-4.3 4.7 1.2 9.5 2.4 14.2 3.7zM79.3 52.2c1.5-3.3 3.1-6.5 4.8-9.7 1.3 3.6 2.5 7.3 3.8 11.1l2.9.2c-2.5-5-4.8-9.8-6.8-14.5-2.2 4.5-4.4 9-6.5 13.6l2.2.1c-.1-.3-.3-.6-.4-.8zM45.4 50.8l-1.7-.1c-.6 2.5-1 4.9-1.4 7.4-2.3 2.7-4.3 5.5-6.2 8.3 1.6 3 3.1 6.2 4.6 9.6-.8-.1-1.6-.1-2.2-.1-1.3-2.9-2.5-5.5-3.8-7.9-1.4.8-2.6 1.7-3.8 2.6-1.6.8-3.2 1.6-4.7 2.5 0-.7.1-1.4.1-2.1.5-.4 1.1-.8 1.7-1-.3-1.1-.7-2-1-2.9-.1 0-.3.1-.4.1 0-.8.1-1.5.1-2.1 1.6-.7 3.3-1.2 5.1-1.6-1.7-2.2-3.3-4.3-4.8-6.2.1-1.2.2-2.4.2-3.6.7.9 1.3 1.8 2 2.7v-6.6l-2.5-.2c-.1.9-.1 1.8-.2 2.7-.1 2.2-.3 4.7-.5 7.5-.2 2.7-.3 4.8-.3 6.4-.1 1.2-.3 3.6-.7 7.3.3.1.7.2 1.2.2 1.6.2 3.2.6 5 1 1.9.4 3.7.8 5.7 1.3 1.9.3 3.8.7 5.8 1.3 2 .3 4 .7 6.2 1.2 2.1.2 4.4.6 7 1.2 2.4.3 4.9.7 7.4 1.2 2.3.3 4.1.7 5.6 1.2 1.3.4 2.8.9 4.7 1.4 1.7.4 3.2.8 4.4 1.3 1 .3 5.3 1.4 12.7 3.3 0-1.2.2-2.4.4-3.3.7-7 1.1-10.8 1.2-11.2.1-3.5.2-6.4.3-8.9-.1-2.6-.1-4.5.1-5.9.1-1 .2-2.6.3-4.8l-1-.2c0 .7-.1 1.4-.1 2-.2-.3-.4-.7-.5-.9l-.6-1.2-2.8-.2c.9 2.7 1.8 5.3 2.7 8-1.5 1.8-3 3.5-4.4 5.3-2.2-4.7-4.4-9.3-6.5-13.9l-2.2-.1c-.1.3-.3.6-.4.9 2.5 5.1 5.5 10.6 9.1 16.5 1.6-1.6 3.2-3 4.6-4.4.1-.3.3-.5.6-.6-.1 1.2-.2 2.6-.3 3.9-.2.2-.4.4-.6.5-1.2 1.1-2.4 2.1-3.5 3.2 1.3 3.3 2.4 6.6 3.4 10-.1 1.2-.2 2.3-.3 3.5h-.6c-.5-1.8-1-3.6-1.4-5.3-2.4-1.1-4.7-2.1-7-3.1-1.3 1.6-2.5 3.2-3.7 4.9-.9-.1-1.7-.1-2.4-.2 1.4-2 2.9-4 4.3-5.9-3.3-2.2-6.5-4.2-9.4-6.1-1.2 3.1-2.5 6.1-3.8 9-1.3-.2-2.6-.2-3.9-.2 2-4.5 4-9 5.9-13.4-.4 0-.7.1-1 .3-.4 0-.7.1-1 .3l-4.8 11.7c-1.3-.5-2.6-1-3.9-1.4-3.5-.2-7.1-.4-10.7-.4L42 75c-1.5-3.1-2.9-6.1-4.3-9.1 1.9-2.2 3.7-4.4 5.6-6.6.6-2.4 1.3-4.8 1.9-7.2 0-.3.1-.8.2-1.3zM33.9 69.9c.7 1.4 1.4 2.8 2.2 4.2-2.2-.5-4.4-.9-6.7-1.2l4.5-3zm34.4 9.9c.7-2 1.5-3.9 2.4-5.9 2.1 1 4.2 2.1 6.2 3.2-1 1.5-1.9 2.9-2.7 4.4-2-.6-3.9-1.2-5.9-1.7zm18.6 2.6c.3.9.6 1.8.9 2.9l-8.7-2.1c.9-1.3 1.8-2.4 2.8-3.6 1.6.9 3.3 1.9 5 2.8zM41.1 55.4c.3-1.6.5-3.2.8-4.9l-1.1-.1c-.1.7-.2 1.4-.4 2.1-.2.7-.5 1.3-.8 2-1-1.2-2-2.2-2.8-3.2.1-.4.1-.8.2-1.2l-1.4-.1c0 1-.1 2.1-.1 3.2 0-.2.2-.4.4-.5 1 .9 2 1.8 3.1 2.9-1.3 1.9-2.5 3.8-3.7 5.8-1-1.2-2-2.2-3.1-3.2.1-2.8.2-5.5.3-8.3l-1.7-.1c.1 3 .1 6 .2 8.9 1.3 1.6 2.8 3.5 4.4 5.5 1.6-2.9 3.6-5.8 5.7-8.8z"/><path class="st3" d="M83.9 20.1c-1.2 1.3-2.3 2.7-3.3 4.2-.6-1.3-1-2.5-1.3-3.6-.6.2-1.2.6-1.7 1.1 1.4 4.4 3 8.9 4.8 13.6-2.4 4.7-4.8 9.4-7.3 14.2-.9-.3-1.8-.5-2.6-.7 0 .2-.1.3-.2.5-.3.6-.6 1.2-1 1.8.8.1 1.7.3 2.7.6-1.4 3.5-2.8 7-4.3 10.7.2.2.5.4.8.6.5.5.5 1.1 0 1.6-.7.6-1.5 1.1-2.3 1.5-1.9 4.5-3.9 9-5.9 13.4 1.3 0 2.6.1 3.9.2 1.3-2.9 2.6-6 3.8-9 3 1.9 6.1 3.9 9.4 6.1-1.4 1.9-2.8 3.9-4.3 5.9.7 0 1.5.1 2.4.2 1.2-1.7 2.5-3.4 3.7-4.9 2.3 1 4.6 2 7 3.1.4 1.7.9 3.5 1.4 5.3h.6c.1-1.2.2-2.3.3-3.5-1-3.4-2.1-6.7-3.4-10 1.1-1.1 2.3-2.1 3.5-3.2.2-.2.3-.4.6-.5.1-1.4.2-2.7.3-3.9-.3.1-.4.3-.6.6-1.5 1.3-3 2.8-4.6 4.4-3.5-5.9-6.5-11.4-9.1-16.5 2.2-4.9 4.5-9.7 6.9-14.5 2.2 5.1 4.6 10.3 7.5 15.6.1.3.2.6.5.9.1-1.8.2-3.5.2-5.2-.2-.3-.4-.6-.5-1-2.3-4.7-4.4-9.2-6.2-13.5 1.2-3.1 2.5-6 3.8-8.6 1.4 1.3 3 2.7 4.6 4 0-1 0-2 .1-2.9-1.4-1-2.7-1.9-4-2.8.7-1.9 1.5-3.8 2.4-5.5-.9 0-1.7-.1-2.6-.1-2.1 3.6-4.2 7.5-6.2 11.6-.8-2-1.5-3.9-2.2-5.8 1.2-2 2.6-3.9 4-5.7-.1-.2-.3-.3-.5-.4-.5.1-.8.1-1.1.1zm1.9 54c.5 1.5 1.1 3.2 1.7 5-1.9-1-3.6-1.8-5.2-2.3 1.1-1 2.3-1.9 3.5-2.7zm-5.4 1.4c-3.2-2.2-6.4-4.3-9.4-6.1 1.6-4.7 3.3-9.3 5.2-13.8 2.5 5 5.3 10.4 8.6 16.1-1.4 1.2-2.9 2.5-4.4 3.8z"/><path class="st2" d="M87.5 79.1c-.6-1.8-1.2-3.5-1.7-5-1.3.8-2.4 1.7-3.5 2.7 1.6.6 3.4 1.3 5.2 2.3zM71 69.4c3.1 1.8 6.2 3.9 9.4 6.1 1.5-1.4 2.9-2.7 4.4-3.9-3.3-5.7-6.1-11.1-8.6-16.1-1.9 4.6-3.6 9.3-5.2 13.9zm1.7-1.4c1.3-2.9 2.6-5.9 3.9-8.7 2.1 3.9 4.2 7.8 6.4 11.9-1 .7-2 1.4-3 2.2-2.4-1.9-4.9-3.7-7.3-5.4z"/><path class="st4" d="M76.6 59.3L72.7 68c2.4 1.7 4.8 3.5 7.3 5.3.9-.8 2-1.5 3-2.2-2.2-4-4.3-7.9-6.4-11.8z"/><path class="st3" d="M30.8 19.1c-.5 0-.9-.1-1.2-.1-.3 12.9-.4 25.4-.3 37.3-.7-.9-1.3-1.8-2-2.7 0 1.2-.1 2.4-.2 3.6 1.5 1.9 3.1 4 4.8 6.2-1.8.4-3.5.9-5.1 1.6 0 .6-.1 1.3-.1 2.1.1 0 .3-.1.4-.1.3.9.7 1.9 1 2.9-.7.2-1.2.6-1.7 1 0 .7-.1 1.4-.1 2.1 1.5-.9 3.1-1.7 4.7-2.5 1.2-.9 2.5-1.8 3.8-2.6 1.2 2.4 2.5 5 3.7 7.7.7 0 1.4.1 2.2.1-1.5-3.4-3.1-6.6-4.6-9.6 1.9-2.9 4-5.7 6.2-8.3.7-4.5 1.6-9 2.8-13.5 4.8 1.5 9.6 2.8 14.5 4.1-.3-.6-.5-1.1-.5-1.6-.1-.3-.2-.5-.1-.7-4.5-1.1-8.9-2.3-13.3-3.4 1-5.6 2.2-11.1 3.5-16.5.5.1 1 .2 1.5.4 4.1 1 8.1 2 12 3-.8 3.8-1.7 7.6-2.5 11.6.2-.5.4-.8.8-.9.2-.3.5-.6 1-.8.6-3.2 1.3-6.3 2-9.5 4.3 3.3 8.7 6.9 13.2 10.7.5-.6 1.1-1 1.7-1.2-4.7-4.2-9.1-7.9-13.4-11.1-4.7-1.2-9.5-2.6-14.3-4.2-.6-.1-1.1-.2-1.4-.4.3-1.8.6-3.4 1.2-4.9-1.1-.1-2.1-.2-3.1-.2-2.5 12.2-4.8 24.4-6.8 36.6-2.1 3-4.1 5.9-5.9 8.8-1.6-2-3-3.8-4.4-5.5-.3-12.4-.3-25.7 0-39.5zM33.1 65c.2.2.4.5.8 1-1.5 1-2.8 2-4 3-.2-.1-.2-.1-.2.1-.4-1-.7-1.9-.9-2.7 1.3-.6 2.7-1.1 4.3-1.4z"/><path class="st2" d="M34 66c-.4-.5-.7-.9-.8-1-1.6.3-3 .8-4.3 1.4.2.8.5 1.6.9 2.7 0-.2 0-.2.2-.1 1.2-1 2.5-2 4-3zM50.7 26.7c-.5-.2-1-.4-1.5-.4-1.3 5.4-2.5 10.9-3.5 16.5 4.4 1.2 8.8 2.3 13.3 3.4-.2-1-.1-2 .2-2.8.2-.8.6-1.5 1.1-2.1.8-3.9 1.6-7.8 2.5-11.6-4-.9-8-1.9-12.1-3zm-.3 1.5c3.5.8 7.1 1.6 10.8 2.4-1 4.5-2.1 9.2-3 13.9-3.7-1-7.4-1.9-11-2.7.9-4.6 2-9.2 3.2-13.6z"/><path class="st4" d="M61.1 30.6l-10.8-2.4c-1.2 4.5-2.3 9-3.3 13.7 3.6.8 7.3 1.7 11 2.7 1.1-4.9 2.1-9.5 3.1-14z"/><path class="st5" d="M63.4 39c-.5.1-1 .4-1.4.6-.5.2-.8.5-1 .8-.3.2-.6.5-.8.9-.5.6-.8 1.3-1.1 2.1-.3.9-.4 1.8-.2 2.8 0 .2 0 .4.1.7.1.5.3 1 .5 1.6.1.5.4 1 .7 1.5l.1.1c.4.6.8 1.3 1.1 1.9.2.5.6 1.3 1.1 2.4.4 1 .7 2.2 1 3.6.2 1.4.3 3.6.4 6.8 1-6.1 2.5-9.8 4.3-10.9.6-.5 1.1-.9 1.7-1.3.4-.4.8-.9 1.2-1.3.4-.7.8-1.2 1-1.8 0-.2.1-.3.2-.5.1-.5.2-.9.4-1.3.2-1.1.3-2 .4-2.8-.1-1.4-.4-2.6-.9-3.6-.7-1.1-1.8-1.8-3.3-2.3-1.6-.6-3.2-.7-4.5-.3-.3 0-.6.1-1 .3zm4.5 9.1c-1 .8-2.2.7-3.5-.1-.4-.3-.7-.6-.8-.9-.1-.3-.1-.5-.1-.7-.1-.3-.1-.5 0-.8.1-.9.8-1.5 1.9-1.8.5-.2 1.2-.2 2.1.2.9.2 1.4.8 1.5 1.8-.1.2-.1.6-.2 1-.2.4-.5.7-.8 1.1-.1 0-.1.1-.1.2z"/><path d="M64.4 48c1.3.8 2.4.8 3.5.1 0-.1 0-.1.2-.2.3-.4.6-.7.8-1.1 0-.4.1-.8.2-1-.1-1-.6-1.6-1.5-1.8-.9-.3-1.6-.4-2.1-.2-1.1.3-1.8.9-1.9 1.8-.1.2-.1.5 0 .8 0 .2 0 .4.1.7.1.3.3.6.7.9z"/><path class="st4" d="M63.4 39c.3-.2.7-.3 1.1-.3 1.3-.4 2.9-.2 4.5.3 1.5.5 2.6 1.2 3.3 2.3.5 1 .9 2.2.9 3.6-.1.7-.2 1.7-.4 2.8.3 0 .5 0 .7.2 1-2.2 1.9-4.2 2.8-6.1-3.9-3-7.9-5.8-11.8-8.3-.4 1.7-.8 3.6-1.1 5.5zM45.1 52.4c-.6 2.4-1.3 4.8-1.9 7.2-1.9 2.2-3.7 4.4-5.6 6.6 1.4 3 2.8 6.1 4.3 9.1l4.8 1.5c3.6.1 7.2.2 10.7.4 1.3.4 2.6.9 3.9 1.4l4.8-11.7c-1 .1-2 .2-3.1.2-1.6-.1-2.8-.6-3.6-1.5-.5-.5-.6-1.1-.2-1.7.6-1.4 1.6-2 3-1.8-1.4-.1-2.4.5-3 1.8-.4.6-.4 1.2.2 1.7.8.9 2 1.4 3.6 1.5 1.1 0 2.1-.1 3.1-.2.6-1.6 1.2-3.2 2-4.9 1.2-3 2.3-6 3.5-9-.6-.2-1.2-.4-1.6-.4-.6.4-1.1.8-1.7 1.3C66.5 55 65 58.7 64 64.8c0-3.2-.2-5.4-.4-6.8-.3-1.4-.6-2.6-1-3.6-.5-1.1-.9-1.9-1.1-2.4-.4-.6-.7-1.3-1.1-1.9-4.8-1.2-9.5-2.5-14.2-3.7-.4 2-.7 4-1.1 6z"/><path class="st2" d="M70 52.6c.5.1 1 .2 1.6.4-1.2 3-2.4 5.9-3.5 9 .6 0 1.1.2 1.5.6 1.5-3.6 2.9-7.2 4.3-10.7-1-.3-1.9-.5-2.7-.6-.4.4-.8.8-1.2 1.3zM69.7 62.5c-.4-.3-.9-.6-1.5-.6-.7 1.6-1.4 3.2-2 4.9.3-.2.6-.2 1-.3.3-.2.6-.3 1-.3.4-1.3 1-2.5 1.5-3.7z"/><path class="st3" d="M70.4 64.8c.5-.5.5-1.1 0-1.6-.3-.3-.5-.5-.8-.6-.5 1.1-1 2.4-1.5 3.7.9-.5 1.7-.9 2.3-1.5z"/><path class="st4" d="M82.6 26.4c.3.9.7 1.9 1.1 3 1.5-2.9 3.1-5.8 4.6-8.4-.5-.2-1.1-.4-1.7-.5-1.5 1.8-2.8 3.8-4 5.9zM80.2 33.5c-1.5-3.8-2.9-7.6-4.2-11.5l-7.2-.6c-.9 1.8-1.7 3.7-2.5 5.5 3.8 3.1 7.7 6.3 11.6 9.6.7-1 1.5-2 2.3-3zM93.3 32.7c-1.3-1-2.5-2.1-3.8-3.2-.9 2.2-1.8 4.5-2.7 6.8 1.5 3.4 3.1 6.9 4.8 10.4.5-4.8 1.1-9.5 1.7-14zM37.7 20.1c-1.5-.2-3-.3-4.5-.3-.2 3.4-.4 6.9-.6 10.4 1.5 0 3 0 4.6.2.1-3.4.3-6.8.5-10.3zM52.3 19.5c-.3 1.3-.6 2.5-.9 3.8 4 1.2 8 2.4 12.1 3.4.6-2 1.4-4 2.2-6-4.6-.3-9-.7-13.4-1.2zM46.1 19.6l-3.9-.3-2.1 12c1.3.2 2.6.5 4.1.7.5-4 1.2-8.2 1.9-12.4zM39.6 54.6c.3-.7.6-1.4.8-2 1.1-6.8 2.2-13.3 3.3-19.3-1.3-.3-2.6-.6-3.9-.7-1 5.9-2 12.1-3 18.8.9 1 1.8 2.1 2.8 3.2zM35.8 52.7c-.2.2-.3.4-.4.5.3-7.6.7-14.7 1-21.3-1.1-.3-2.2-.5-3.4-.7-.3 8.3-.6 17.3-.9 26.9 1 1 2 2.1 3.1 3.2 1.2-2 2.4-3.9 3.7-5.8-1.1-.9-2.1-1.9-3.1-2.8zM36 74.1c-.7-1.4-1.4-2.8-2.2-4.2-1.5.9-3 1.9-4.5 3 2.3.4 4.5.8 6.7 1.2zM86.2 66.9c1.4-1.8 2.9-3.6 4.4-5.3-2.1-6.5-4.3-12.9-6.5-19.1-1.7 3.2-3.3 6.5-4.8 9.7 2.3 4.8 4.6 9.7 6.9 14.7zM86.9 82.4c-1.7-.9-3.4-1.9-5.1-2.8-1 1.2-1.9 2.4-2.8 3.6l8.7 2.1c-.1-1.1-.4-2-.8-2.9zM74.2 81.5c.8-1.5 1.8-2.9 2.7-4.4-2.1-1.1-4.1-2.2-6.2-3.2-.9 2-1.7 3.9-2.4 5.9 2 .5 3.9 1.1 5.9 1.7z"/><path class="st0" d="M10.9 24.2c-.1.2 0 .5.1.9.2 1.2 1 1.5 2.3.9.2-.2.3-.4.4-.6-.1-1.5.6-2.8 2.2-3.6.3-.3.6-.5.8-.7.7-1.1.4-1.9-1-2.4-1.2 0-2.1.5-2.6 1.4-1.4.9-2.2 2.3-2.2 4.1z"/><path class="st6" d="M17.5 37.4c.3-3.6-.2-4.8-1.4-3.5-.5 2.9-.7 5.1-.7 6.6-.1 2-.4 4.4-.8 7.3.4 1.6 1.2 1.8 2.2.5 0-1.2 0-2 .1-2.2 0-2.3.2-5.2.6-8.7zM108.6 50.6c-3.7-1.2-6.3-.8-7.9 1.1-1.5 1.7-2 3.8-1.4 6.3.5 2.1 1.7 3.6 3.5 4.6 2 1 4.1 1.2 6.3.8 2.2-.6 3.1-2.6 2.8-6-.3-3.6-1.4-5.9-3.3-6.8zm-4.8 3.8c1.3-.2 2.6-.1 4 .4-.1 1.7-.2 3.3-.2 4.6-1.7-.4-3-.6-3.7-.6 0-1.2-.1-2.7-.1-4.4zM107.8 54.8c-1.4-.4-2.7-.6-4-.4 0 1.7 0 3.1.1 4.4.7 0 1.9.2 3.7.6 0-1.4.1-2.9.2-4.6z"/><path class="st0" d="M112 88c.3-1.6-.1-2.7-1.4-3.2-.1-.1-.2-.1-.3 0-.8.1-1.2.5-1.2 1.1-.1.8-.3 1.7-.5 2.5-.2.2-.3.4-.4.5-.8.3-1.6.5-2.4.5-.7-.1-1.3.2-1.5.9-.3.7 0 1.3.7 1.7.9.3 1.8.5 2.9.5 2-.2 3.2-1.2 3.7-3 .1-.5.2-1 .4-1.5z"/><path class="st7" d="M104.1 18.1h.3c-.2 0-.4-.1-.5 0h.2zM104.9 18.2c.1 0 .2.1.3.2.5.2.9.2 1.5 0 0-.1 0-.1.1 0l.1-.1c0-.1.1-.1.1-.1-.9-.1-1.7-.2-2.5-.1.1 0 .2.1.4.1zM107 18.3c.6.3 1.3.4 2 .3-.6-.2-1.2-.3-2-.3z"/><path class="st2" d="M109.9 18.2c-.1 0-.1 0-.2.1-.3.1-.5.1-.7.2.4.1 1.3.1 2.6.1.5 0 1 0 1.5.2-.1 0-.1-.1-.1-.2-.1 0-.1-.1 0-.3-.5-.1-.8-.2-1.1-.2-.6.1-1.4.1-2 .1zM19.1 16.7h-.5L15 17.9l-.3.1c-.2.1-.3.1-.5.2l-.2.1h-.1l5.2-1.6z"/><path class="st8" d="M109.1 93.3c-1.4.3-2.9.3-4.5.1-2.3-.4-4.4-.7-6.3-1.2-2-.5-4-1-6-1.4-.6-.2-1.1-.3-1.7-.4-.4-.1-.8-.2-1.3-.2-1.2-.3-2.4-.5-3.5-.7-2.3-.5-4.5-1-6.6-1.7-1.9-.7-3.8-1.2-5.7-1.6-2-.6-4-1.1-6.1-1.4-2.2-.5-4.4-1-6.6-1.3-2.2-.5-4.5-1-6.6-1.5-.7-.2-1.4-.4-1.9-.4-2.1-.6-4.3-1-6.5-1.3-2.4-.5-4.6-1-6.7-1.5-2-.6-4-1-6-1.3-2.2-.4-4.3-.7-6.5-1.1-.6-.1-1.2-.3-1.7-.4-1.5-.4-2.9-.7-4.2-1-1.9-.6-3.8-1-5.6-1.3-2-.4-3.4-1.5-4.2-3.2-.9-1.6-1.2-3.5-1.2-5.6 0-2.2-.1-4.4-.2-6.5-.2-2.4-.3-4.3-.2-5.8 0-1.6.1-3.5.4-5.6.2-2.3.3-4.5.4-6.6 0-2.3 0-3.8.1-4.7 0-4.6 0-7.6.1-9.1s.4-3.3.8-5.4c.5-1.4 1.4-2.3 2.6-2.7 2.4-.7 4.7-1.1 6.8-1.2 1.4-.1 2.8-.1 4.3 0h5.6c2-.2 4.2-.2 6.7-.2 2.3 0 4.3.1 5.9.1h6.1c2.5-.1 4.8-.1 6.9-.1 2 .1 5.7.2 11.4.2 5.3 0 9 0 11.2.1 2 0 4 .1 5.9.2 1.7 0 3.6.1 5.7.2 1.8 0 3.2.1 4.2.1.8-.1 2.1-.1 3.8.1 1.6 0 3.5.1 5.8.2h.5c.8-.1 1.6 0 2.5.1m2.1 75c1.5-.2 3-.5 4.4-.7 1.5-.4 2.8-1 4.1-1.8 1.2-.9 1.9-2.7 2.2-5.3.2-2.7.4-4.7.7-6.2.1-1.6.3-3.6.6-6.1.1-2.6.2-5.4.3-8.5 0-3.1.1-5.7.3-7.8 0-2.2 0-4.3.1-6.1 0-1.9.1-3.6.3-4.9.2-1.4.3-3 .3-5-.1-2-.1-4.1 0-6.4.1-2.2.3-4.4.6-6.6.1-2.5 0-4.7-.4-6.7-.5-2-1.5-3.4-2.9-4.1-1.9-.9-3.9-1.4-6-1.3-1.6-.1-3.1-.1-4.4-.1-2.3-.1-4.5-.3-6.6-.5-2.1-.2-4.1-.3-6-.4-2.2-.1-4.3 0-6.4.2-2.1.1-4.4.1-6.6 0-1.9-.2-3.7-.2-5.4-.2h-.4c-.1-.1-.2-.1-.3 0h-.3c-.4-.1-.7 0-.9 0-10.4.2-16.5.2-18.3.2-2.2 0-4.4 0-6.6.1-2.2.1-4.5.1-6.6.1-2.2 0-4.8.1-7.8.2s-5.1.2-6.4.2c-1.4 0-4.2.1-8.4.5m53 3c-1.9-.2-3.8-.2-5.6-.2-2.2-.1-4.2-.1-6.2-.1-2.1 0-4.2-.1-6.3-.2-2-.2-4-.3-5.9-.3-1.8-.2-3.6-.2-5.3-.2-1.9-.1-3.8-.1-5.7 0-1.8 0-3.6 0-5.4.1h-5c-.7-.1-1.3 0-1.8.1-.5 4.3-.7 7.4-.6 9.3.1 1.9.2 3.5.2 4.8-.1 1-.2 2.5-.3 4.5l-.3 4.5-.3 4.5c-.1 1.9-.3 4-.4 6.1-.1 2.2-.3 4.7-.5 7.5-.2 2.7-.3 4.8-.3 6.4-.1 1.2-.3 3.6-.7 7.3.3.1.7.2 1.2.2 1.6.2 3.2.6 5 1 1.9.4 3.7.8 5.7 1.3 1.9.3 3.8.7 5.8 1.3 2 .3 4 .7 6.2 1.1 2.1.2 4.4.6 7 1.2 2.4.3 4.9.7 7.4 1.2 2.3.3 4.1.7 5.6 1.2 1.3.4 2.8.9 4.7 1.4 1.7.4 3.2.8 4.4 1.3 1 .3 5.3 1.4 12.7 3.3 0-1.2.2-2.4.4-3.3.7-7 1.1-10.8 1.2-11.2.1-3.5.2-6.4.3-8.9-.1-2.6-.1-4.5.1-5.9.1-1.5.3-4.5.6-9.1.3-4.7.5-7.2.5-7.5.4-4.2.6-7.4.7-9.7 0-2.4.2-4.5.5-6.3.1-1.6.3-3.5.7-5.8-1.1-.2-2.1-.3-3.1-.5-2.1-.3-4.2-.5-6.3-.5h-4.8c-2.1.2-4.1.1-6.1.1zm31.7-.8c.7 0 1.4.1 2 .3.4.1 1.3.1 2.6.1.5 0 1 0 1.5.2.7.2 1.5.7 2.4 1.3l.4.4c.9 1 1.4 2.4 1.6 4.6 0 2.2 0 4.5.1 6.9 0 2.3-.1 4.3-.2 5.9-.1 1.6-.3 3.5-.4 5.8-.3 2.2-.5 4.3-.7 6.4-.2 2-.4 4-.4 6.2 0 2-.1 4.1-.4 6.2-.2 1.9-.5 4-.7 6.2-.2 2-.4 4.1-.5 6.2-.2 2.2-.4 4.4-.5 6.7-.2 2.1-.4 4.3-.7 6.5-.3 2.2-1.2 3.8-2.5 4.6l-1.5.6M22.3 16.1l-3.2.6-5.1 1.6-.2.1.3-.1.2-.1c.1-.1.3-.1.5-.2l.3-.1M63.4 39c.3-.2.7-.3 1.1-.3 1.3-.4 2.9-.2 4.5.3 1.5.5 2.6 1.2 3.3 2.3.5 1 .9 2.2.9 3.6-.1.7-.2 1.7-.4 2.8-.2.4-.3.8-.4 1.3 0 .2-.1.3-.2.5-.3.6-.6 1.2-1 1.8-.4.4-.8.9-1.2 1.3-.6.4-1.1.8-1.7 1.3C66.5 55 65 58.7 64 64.8c0-3.2-.2-5.4-.4-6.8-.3-1.4-.6-2.6-1-3.6-.5-1.1-.9-1.9-1.1-2.4-.4-.6-.7-1.3-1.1-1.9l-.1-.1c-.3-.5-.6-1-.7-1.5-.3-.6-.5-1.1-.5-1.6-.1-.3-.2-.5-.1-.7-.2-1-.1-2 .2-2.8.2-.8.6-1.5 1.1-2.1.2-.5.4-.8.8-.9.2-.3.5-.6 1-.8.3-.2.8-.4 1.3-.6zm1 9c-.4-.3-.7-.6-.8-.9-.1-.3-.1-.5-.1-.7-.1-.3-.1-.5 0-.8.1-.9.8-1.5 1.9-1.8.5-.2 1.2-.2 2.1.2.9.2 1.4.8 1.5 1.8-.1.2-.1.6-.2 1-.2.4-.5.7-.8 1.1-.1.1-.2.1-.2.2-.9.7-2.1.7-3.4-.1zm3.7 14c.6 0 1.1.2 1.5.6.2.2.5.4.8.6.5.5.5 1.1 0 1.6-.7.6-1.5 1.1-2.3 1.5-.4 0-.7.1-1 .3-.4 0-.7.1-1 .3-1 .1-2 .2-3.1.2-1.6-.1-2.8-.6-3.6-1.5-.5-.5-.6-1.1-.2-1.7.6-1.4 1.6-2 3-1.8M16 33.9c-.5 2.9-.7 5.1-.7 6.6-.1 2-.4 4.4-.8 7.3.4 1.6 1.2 1.8 2.2.5 0-1.2 0-2 .1-2.2 0-2.2.2-5.2.6-8.7.3-3.7-.2-4.8-1.4-3.5zm92.6 16.7c1.8.9 2.9 3.2 3.3 6.8.3 3.4-.6 5.4-2.8 6-2.1.4-4.2.2-6.3-.8-1.9-1-3-2.6-3.5-4.6-.6-2.5-.1-4.6 1.4-6.3 1.6-1.9 4.3-2.3 7.9-1.1zm-4.8 3.8c0 1.7 0 3.1.1 4.4.7 0 1.9.2 3.7.6 0-1.3 0-2.8.2-4.6-1.4-.5-2.7-.6-4-.4z"/></svg>