<svg xmlns="http://www.w3.org/2000/svg" viewBox="0 0 118.5 88.2" enable-background="new 0 0 118.5 88.2"><style type="text/css">.st0{fill-rule:evenodd;clip-rule:evenodd;fill:#F4F4EA;} .st1{fill-rule:evenodd;clip-rule:evenodd;fill:#35A9E0;} .st2{fill-rule:evenodd;clip-rule:evenodd;fill:#877E5B;} .st3{fill-rule:evenodd;clip-rule:evenodd;fill:#8D9634;} .st4{fill-rule:evenodd;clip-rule:evenodd;fill:#96D9F7;} .st5{fill:none;stroke:#000000;stroke-linecap:round;stroke-linejoin:round;}</style><path class="st0" d="M62.5 25s11.7-2.4 21.8-3c10.1-.6 19.4.4 19.4.4l2.9 3.4-15.7 51.6S80.5 74.1 70.1 72c-10.8-2.2-20.9-1.8-20.9-1.8l-3.7-.8S34 64.7 25.6 63c-8.4-1.7-19.7-1.9-19.7-1.9l-.5-2.6 20.8-38.1s12.2.2 19.3 1c7 .9 17 3.6 17 3.6z"/><path class="st1" d="M48.7 34.6l.2-1.3.5-5.6-2.5 4-2.2-.6-1.3.7 1.2-6.7-2.8 5.5-1.9 6.7-2.5 1.5-.9 1.4-1.3.1 7.2-16.9 8.3 1.3 8.5 1.9-3.8 9.7z"/><path class="st2" d="M36.9 40.4l.6-1.5 2.3-1.3 2.1-7 2-4.1-.8 5.4 1.4-.6 2.3.6 2.2-3.2-.6 6 6.9 1.8-2.8 7.6z"/><path class="st3" d="M57.3 49.4h16.5L91 50.9l.7-2.5-13.5-.8-13.5-.8-6.6.1z"/><path class="st4" d="M61.3 38.7l-3.1 7.9 20.2.8 13.5.8 3.3-10.3-18.1-.4z"/><path class="st5" d="M75.4 28.2c-1.7.1-3.4.2-5 .4M23.7 38.4c-1.2 0-2.4-.1-3.6-.1M18.4 44.4c-.5-.1-.9-.1-1.3-.1M49.9 48.2c-.5-.1-1.2-.5-1.8-.6M43.4 57.4c-.5-.1-2.6-.8-3.1-1M21.6 40.4c-.8 0-1.5-.1-2.2-.1M62.6 25.3c-9.1-2.8-18.1-4.3-26.7-4.5-2.8 0-6.1-.1-9.7-.3C19.9 30.8 15.3 39 12.5 44.8c-2.8 5.8-5.2 10.3-7 13.7 10.5.1 19.1 1.2 25.8 3.3 6.7 2.2 11.7 4.1 15 6M39.6 23.8c-1.5-.2-3-.4-4.7-.5M38.3 26.1c-.6-.1-1.2-.2-1.9-.2M27.9 27.3c-.8-.1-1.5-.1-2.3-.1M32.3 31.6c-1.5-.1-3-.3-4.6-.3M29.8 25.2c-1.1-.1-2.1-.1-3.2-.1M33.4 23.1c-1.9-.1-3.8-.2-5.9-.2M32.9 27.7c-1.1 0-2.3-.1-3.4-.2M31.7 46c-1.6-.2-3.2-.5-4.7-.7M32.6 39.5c-2-.4-4.1-.7-6.4-.9M34.7 34.1c-.9-.2-1.6-.3-2.4-.4M43.1 35.8c1.1-.5 1.7-.2 1.7 1-.2.4-.6.5-1.3.5-.7-.1-.9-.5-.4-1.5M40 36.9l-.6 1.9-1 2M38.4 40.8c-.6-.2-1.3-.3-2-.4M42.8 41.6c-.9-.2-1.6-.4-2.4-.5M42.8 41.6l.6-.5 3.1-8.6.4-.8M40 36.9l-2.6 1.9-1 1.6M40.4 41.1c-.7-.1-1.3-.2-2-.3M36.4 40.4c-.5 0-.8-.1-1.2-.1l7.2-16.9c5.7.5 11.2 1.6 16.8 3.2l-3.8 9.7M44.6 44.5c-2-.6-4-1-5.9-1.5M43.4 31.8l-3 9.3M43.4 31.8l1.3-6.8-2.8 5.6-1.9 6.3M36.3 30.2c-2.5-.4-5.4-.6-8.6-.8M37.2 42.7c-2.1-.5-4.2-.8-6.2-1.2M38.1 28.5c-1.2-.2-2.5-.3-3.8-.4M24.2 34.5c-.8-.1-1.5-.1-2.3-.1M29.1 35c-1.1 0-2.3-.1-3.4-.2M34.8 35.7c-1.2-.2-2.5-.3-3.8-.4M36.2 32.1c-.7-.1-1.5-.2-2.2-.3M34.7 25.6c-1.2-.2-2.4-.3-3.7-.3M33.6 37.5c-.6-.1-1.2-.2-1.9-.2M25.1 36.6c-1.1-.1-3-.1-4.1-.1M30 37c-1.2-.2-2.4-.3-3.7-.3M46.9 31.7l2.5-4.3-.7 5.9-.3 1.2M46.9 31.7l-2.3-.6c-.3.3-.7.5-1.3.7M47.5 37l-1.9 5.3M48.2 43c-1.1-.4-1.9-.7-2.6-.8M48.4 34.5l-.9 2.5M47.5 37l2.6.9M50.1 37.9l4.1 1.6M54.2 39.5l-1.8 4.8c-1.6-.6-3-1-4.2-1.2M48.2 43l1.9-5.1M62.9 42.8h-1.8l.4-.9M62.9 42.8l.3-.9M63.6 40.9l-.4 1M63.2 41.9h-1.7M61.5 41.9l.3-1.1M55.4 36.3l-7-1.8M55.4 36.3l-1.2 3.2M45.6 42.3c-.9-.2-1.9-.5-2.9-.7M83 25.6c-2.2.1-4.5.3-6.7.5M79.8 27.9c-.8 0-1.5.1-2.3.1M77.4 31.9c-.8 0-1.5.1-2.3.1M79.1 30c-.8 0-1.5.1-2.3.1M73.5 32.1c-.8 0-1.5.1-2.3.1M82.2 33.7c-1 0-2 0-3 .1M84.3 30c-1 0-2 0-3 .1M69.5 26.8l-2.6.2M71.6 34.2c-1.8.2-3.6.3-5.3.5M68.7 32.5c-1.8.2-3.6.3-5.3.5M73.5 26.3c-.6.1-1.2.2-1.7.2M67.9 40.7h-.7M68.9 40.7h-1M67.5 42.8l.4-2.1M68.6 42.8h-1.1M66.7 40.8c-.3.9-.8 1.6-1.4 2.1M67.5 42.8h-2.2M72.4 42.8h-.3M73.1 42.8h-.7M73.1 41.6v1.2M73.7 42.9l.2-1.3M73.7 42.9l-.6-.1M71.9 42.8v-1.1M71.9 42.8h-1.6M68.6 42.8l1-2.2.7 2.2M72.1 42.8h-.2M71.5 36.2c-1.2 0-2.4.1-3.5.3M70.3 42.8h-1.7M77.5 42.5h-1.7l.3-1.5M79 41.8l-.2 1.2M79.8 40.9h-.6l-.2.9M82.2 40.9v1.6L81 40.9v1.7M83.7 43.2v-2.1M83.7 43.2l-4.9-.2M79.8 41.8H79M78.8 43l-5.1-.1M76.7 33.9c-1 0-2 .1-3 .2M78.6 35.8c-1.4 0-2.7.1-4 .2M23.8 44.9c-1.2-.2-2.3-.3-3.5-.4M99.9 25.7c-1.2-.1-2.4-.1-3.6-.2M93.7 25.4c-2.4 0-4.8 0-7.2.1M88.5 33.7h-4M83.2 31.8h-4M90.5 29.9h-4M86.6 42.7c-.3-.6-.7-1.1-1.1-1.8v2.5M87.4 43.3h-1.9M87.4 43.3l.5-2.1M88.4 43.4l-1-.1M90.6 43.5l-.9-2.1-1.3 2M89.4 43.5l-1-.1M91.8 43.5h-1.2M90.6 43.5h-1.2M95.3 30.2c-1-.1-1.8-.1-2.7-.2M98.8 28.2c-3.3-.3-6.7-.4-9.9-.4M97.3 34.1c-2.3-.2-4.6-.3-6.8-.3M91.4 35.8c-1.7-.1-3.3-.1-4.9-.1M96 32c-1.7-.1-3.3-.1-4.9-.1M46.3 67.8c4.1-.6 8-.9 12-.9 10.2.7 20.1 2.7 29.6 5.8 2.4-7.8 4.9-15.8 7.5-23.7 2.9-8.6 5.7-17.5 8.2-26.5-4.2-.5-9.6-.6-16.6-.5-7 .2-15.1 1.3-24.4 3.4M86.7 27.8h-4.9M85.5 43.3l-1.8-.1M84.6 35.7c-1.2-.1-2.3-.1-3.4 0M88.5 31.8c-1.2-.1-2.3-.1-3.4 0M58.1 46.9l3.3-8.2c12.2-1.2 23.5-1.5 34-.8l-3.6 10.5M68 28.8c-1.3.2-2 .3-3.2.5M67.8 30.7c-1.3.2-2.6.3-3.9.5M74.1 30.4c-1.3.2-2.6.2-3.9.4M65.3 42.8h-2.4M65.3 42.8c-1-.4-1.2-1.1-.6-2.1M65.5 36.7c-1.3.2-2.6.3-3.8.5M64.2 35c-.6 0-1.1.1-1.6.2M30.2 33.1c-2.3-.2-4.8-.4-7.4-.5M28.6 41.2c-1.7-.3-3.4-.4-5-.5M26.1 31.2c-.8-.1-1.6-.1-2.4-.1M26.1 29.2h-1.6M87.9 61.2l-3.2-.6M91.7 48.4l-.7 2.5c-10.2-1.5-21.5-2-33.9-1.5l1-2.5M89.2 54.9s-2.4-.4-3.9-.6M82.8 53.9c-1.6-.2-3.1-.4-4.6-.5M78.3 47.7l.6-.3M72 61.1c-1.5-.1-2.9-.2-4.3-.4M83.2 60.3c-2.4-.5-4.8-.8-7.2-1.1M84.4 63.2c-.8-.2-1.6-.4-2.4-.5M75.6 53.1c-2-.2-4-.3-6.1-.4M72.8 54.9l-5.1-.3M78.7 55.4l-3.3-.2M77.9 61.9c-1.1-.1-2.2-.3-3.2-.4M64.7 46.8l13.6.9M74 59c-2.1-.2-4.3-.4-6.4-.5M106.5 26.1c-2.7 9.2-5.6 18.9-8.5 28.7-2.6 8.7-5 16.3-7.1 22.7-3.6-1.2-7.9-2.5-13-3.7-5.3-1.3-9.4-2.2-12.7-2.6-3.4-.5-6.3-.8-8.7-.9-2.3-.1-4.8-.1-7.3-.1-.1 0-.2 0-.3-.1-.2-.2-.4-.3-.7-.3-.1-.1-.3-.1-.5-.1M104.8 23.3c-2.3 7.3-4.9 16-7.9 26.2-2.4 7.9-5 16.2-7.8 24.7-18-5.6-32.3-7.5-42.8-5.5-11.9-5.9-25.4-8.8-40.6-9M47.6 69.7c9.2-1.4 23.4.6 42.2 6.2 2.6-7.5 5-14.9 7.2-22.4 2.4-7.9 5.3-17.5 8.6-28.8M89.2 57l-7-1.1M91.7 48.4l-12.8-1M57.2 54.6c-.6 0-1.1 0-1.6.1M64.1 58.4c-1.9-.1-3.8-.1-5.7 0M61.2 52.6c-1.7.1-3.3.1-4.9.2M64.2 47.1l-6.1-.2M47.6 69.7c-.4-.1-.8-.2-1.3-.3-.5-.1-1-.1-1.5-.1-12.6-5.6-25.6-8.4-38.8-8.4M63.7 60.5c-1.8 0-3.6-.1-5.4 0M56.2 58.4c-.7 0-1.3 0-1.9.1M56.1 60.5c-.9 0-1.8 0-2.6.1M38.7 53.8c-2.1-.6-4.1-1-6.1-1.5M35.2 57.3c-.1-.1-.2-.1-.3-.1-1.6-.5-3.2-.8-4.8-1.2M35.3 48.7c-2.1-.5-4.2-.9-6.2-1.3M39.8 45.5c-2.1-.5-4.2-.9-6.2-1.3M30.3 51.7c-1.7-.3-3.4-.6-5.1-.8M41.1 59c-1.4-.4-2.7-.9-4-1.2M46.8 52.1c-3.2-1.1-6.4-2-9.4-2.8M49.2 50.6c-2.2-.8-4.4-1.4-6.5-2M46 56.2c-1.8-.6-3.6-1.2-5.4-1.7M67.6 52.7c-1.5-.1-3-.1-4.5-.1M65.3 54.6c-1.9-.1-3.9-.1-5.8 0M64.2 47.1l.5-.3M16.4 49.8l-1.8-.1M21.5 46.6c-1.7-.2-3.4-.3-5-.4M20.7 54.3l-3.6-.4M23.2 50.6l-5.1-.6M30.7 43.9c-1.7-.3-3.4-.6-5.1-.8M23.2 42.7c-1.7-.2-3.4-.4-5.1-.5M14.2 53.7l-1.2-.1M27.3 55.4c-1.6-.3-3.1-.6-4.6-.8M27.5 47.3c-1.4-.3-2.8-.4-4.2-.6M62.6 25.3L46.3 67.8M78.9 47.4l10.5-3.9M62.9 42.8l1.3 4.3M78.3 47.7l-5.9-4.9M72.1 42.8l-7.4 4M39.9 47.8c-2-.5-4.1-1-6.1-1.3M51.5 46.6c-1.6-.6-3.1-1-4.6-1.4M23.8 44.9c.8.1-.3-.1-3.5-.4M23.8 44.9c.8.1-.3-.1-3.5-.4M15.3 51.8l-1.3-.1M20.7 52.3c-1.2-.2-2.3-.3-3.5-.4M20.7 52.3c.8.1-.3-.1-3.5-.4M20.7 52.3l-3.5-.4M27.1 49.2c-1.6-.2-3.2-.5-4.7-.7M19.5 48.1l-3.9-.4M45.3 46.9c-1.1-.2-1.9-.6-3.5-.9M33.1 50.3l-3.8-.8M38.7 51.7l-3.3-.8M44.6 53.4l-3.3-.9M27 53.2l-4.1-.7M32.7 54.4l-3.3-.7M38.2 55.9L35 55M52.2 62.6h2.9M58.1 62.5h3.2M63.3 62.4l3.6.2M69.2 62.9l2.6.2M74.6 63.3l3.1.4M80.1 64.2l3.4.6"/></svg>