<svg id="Layer_1" xmlns="http://www.w3.org/2000/svg" viewBox="0 0 81.5 75"><style>.st0{fill:#E9B600;} .st1{fill:#231F20;}</style><path class="st0" d="M64.6 17.5c-2-2.3-2.8-5.3-2.5-8.1-2.6 1.1-5.7 1.2-8.5 0s-4.8-3.5-5.8-6.1c-1.9 2.1-4.6 3.5-7.6 3.6-3.1.1-5.9-1.1-7.9-3.1-.8 2.8-2.6 5.2-5.3 6.6-2.7 1.4-5.7 1.6-8.4.7.5 2.8-.2 5.7-2 8.2-1.8 2.5-4.5 3.9-7.4 4.3 1.7 2.3 2.4 5.3 1.9 8.3-.6 3-2.4 5.5-4.8 7 2.5 1.4 4.5 3.7 5.3 6.7.8 2.9.3 5.9-1.2 8.3 2.8.2 5.6 1.4 7.5 3.7 2 2.3 2.8 5.3 2.5 8.1 2.6-1.1 5.7-1.2 8.5 0s4.8 3.5 5.8 6.1c1.9-2.1 4.6-3.5 7.6-3.6 3.1-.1 5.9 1.1 7.9 3.1.8-2.8 2.6-5.2 5.3-6.6 2.7-1.4 5.7-1.6 8.4-.7-.5-2.8.1-5.7 2-8.2 1.8-2.5 4.5-3.9 7.4-4.3-1.7-2.3-2.4-5.3-1.9-8.3.6-3 2.4-5.5 4.8-7-2.5-1.3-4.5-3.7-5.3-6.7-.8-2.9-.3-5.9 1.2-8.3-2.8-.1-5.6-1.4-7.5-3.7z"/><path class="st1" d="M22 38.2v6.2h-3.3V31.7h1.2l6.4 6.2v-6.2h3.3v12.6h-1.2L22 38.2zM33.7 38.1c0-8.7 12.9-8.7 12.9 0s-12.9 8.7-12.9 0zm9.6 0c0-4.5-6.3-4.5-6.3 0s6.3 4.5 6.3 0zM58.5 31.9l2.1 6.7h.1l.6-2.1 1.6-4.8h3.2v.5l-4.4 12.2h-1.9l-2-6.1h-.1l-2 6.1H54l-4.4-12.2v-.5h3.3l1.6 4.8.6 2.1H55l2.1-6.7h1.4z"/></svg>