<svg xmlns="http://www.w3.org/2000/svg" viewBox="0 0 54 50" enable-background="new 0 0 54 50"><style type="text/css">.st0{fill:#FFFFFF;} .st1{fill:#00FFB2;}</style><path class="st0" d="M41.1 42.9h-4.4v-.8h4.4c2.7 0 4.8-2.2 4.8-4.8V13.2c0-2.6-2.2-4.8-4.8-4.8h-4.4v-.8h4.4c3.1 0 5.6 2.5 5.6 5.6v24.1c0 3.1-2.5 5.6-5.6 5.6zM15.2 7.6h4.5v.8h-4.5c-2.6 0-4.8 2.2-4.8 4.8v24.1c0 2.6 2.2 4.8 4.8 4.8h4.5v.8h-4.5c-3.1 0-5.6-2.5-5.6-5.6V13.2c0-3.1 2.5-5.6 5.6-5.6z"/><path class="st1" d="M17.7 12.2h20.8v1.7H17.7zM31.4 39.2V12.8l-.2.4V13l-6.3-.4v26.6z"/></svg>