<svg xmlns="http://www.w3.org/2000/svg" width="27.45" height="25.668" viewBox="0 0 27.45 25.668"><path d="M27.45 3.832C27.45 1.728 25.72 0 23.618 0H16.47c-1.076 0-2.05.45-2.744 1.168C13.03.448 12.058 0 10.98 0H3.834C1.73 0 0 1.728 0 3.832v6.258c0 1.077.45 2.05 1.168 2.744C.448 13.527 0 14.5 0 15.578v6.258c0 2.104 1.73 3.832 3.833 3.832h7.148c1.077 0 2.05-.45 2.745-1.168.693.72 1.667 1.168 2.744 1.168h7.147c2.104 0 3.832-1.73 3.832-3.832v-6.258c0-1.077-.45-2.05-1.17-2.744.72-.694 1.17-1.667 1.17-2.744V3.832zM12.693 22.318c-.205.748-.9 1.31-1.712 1.31H3.834c-.975 0-1.795-.817-1.795-1.792v-6.258c0-.814.565-1.508 1.313-1.713.154.02.325.02.483.02h7.148c.16 0 .314 0 .467-.02.6.164 1.08.64 1.246 1.238-.02.153-.02.314-.02.475v6.258c0 .16 0 .33.02.482zm0-11.76c-.165.6-.64 1.08-1.24 1.245-.153-.02-.314-.02-.472-.02H3.834c-.158 0-.33 0-.482.02-.746-.205-1.312-.9-1.312-1.713V3.832c0-.975.82-1.793 1.795-1.793h7.148c.813 0 1.508.56 1.713 1.31-.02.153-.02.323-.02.482v6.258c0 .16 0 .315.02.47zm12.72 11.278c0 .975-.822 1.793-1.795 1.793H16.47c-.812 0-1.508-.563-1.713-1.312.02-.153.02-.323.02-.482v-6.258c0-.16 0-.314-.02-.47.166-.6.642-1.08 1.24-1.243.153.02.314.02.473.02h7.148c.157 0 .328 0 .48-.02.75.205 1.314.898 1.314 1.713v6.258zm0-11.746c0 .814-.565 1.508-1.313 1.713-.154-.02-.324-.02-.48-.02h-7.15c-.157 0-.31 0-.466.02-.6-.164-1.08-.64-1.246-1.238.02-.154.02-.315.02-.475V3.832c0-.16 0-.33-.02-.483.205-.748.9-1.31 1.713-1.31h7.15c.974 0 1.794.817 1.794 1.792v6.258z"/></svg>