<svg xmlns="http://www.w3.org/2000/svg" width="24.947" height="24.947" viewBox="0 0 24.947 24.947"><path d="M12.474 0C5.596 0 0 5.596 0 12.474s5.597 12.474 12.475 12.474S24.95 19.352 24.95 12.474 19.35 0 12.473 0zm3.535 7.858c.07.24.222.503.46.798l.097.13c.04.056.092.115.142.174-.145-.04-.327-.086-.555-.136l-.312-.95c.063-.003.118-.01.166-.016zm-1.175.227l.332.53-.027.004-.14.11c-.106.085-.9.054-1.18-.06l-.038-.17.155.114.21-.035c.355-.06.58-.29.688-.495zm-2.36 15.503c-2.593 0-5.063-.89-7.047-2.524.1-.062.178-.12.227-.162l.26-.22-.23-.696.336-1.062.03-.17c0-.404-.162-.872-.59-.956-.05-.02-.175-.22-.25-.272-.213-.156-.382-.385-.59-.385-.04 0-.147.062-.212.02-.058-.038-.134-.026-.216-.067-.05-.023-.13-.036-.12-.02-.08-.116-.186-.285-.282-.53-.077-.216-.146-.323-.508-.73-.238-.27-.295-.33-.515-.432l-.092-.04c-.093-.047-.154-.094-.214-.137-.094-.068-.212-.154-.383-.224-.144-.06-.19-.095-.33-.213-.05-.045-.108-.095-.18-.14-.137-.705-.207-1.428-.207-2.153l.002-.138c.11-.286.212-.77.163-1.017-.003-.063.036-.257.06-.372.04-.202.076-.402.072-.5.02-.084.17-.312.25-.434.104-.162.194-.312.235-.412.042-.102.273-.457.412-.67l.232-.364c.06-.095.202-.32.148-.568.263-.186.602-.427.646-.464.054-.054.506-.548.043-1.406-.015-.028.16-.05.152-.062.04-.072.275-.19.275-.348v-.037c0-.305.12-.544.387-.544h.166c.06 0 .12-.176.174-.186l.408.1.845-.357.09-.187s.09-.173.278-.307c.28-.2.365-.328.496-.545l-.4-.3.472.212c.055-.054.166-.423.454-.732.335-.36.527-.698.505-.698h.21l.147.094c.045-.05.233-.13.378-.326 1.925-.706 4.048-.793 6.048-.385-.264.006-.512.12-.89.3-.092.044-.174.102-.223.118-.086.022-.216.083-.353.145-.083.036-.237.108-.255.116-.34 0-.635.282-.87.59-.292.532-.22.853-.127 1.01l.192.34h.14c-.183 0-.352.266-.457.358l-.505-.623-.477-1.006-.834.72v.372l-.512-.175-.518 1.08.738 1.018.293-.258v.07l.47-.12c-.012.12-.036.235.003.343l-1.37.318.118.51c.022.082.027.243.034.34-.188.746-.018.973.05 1.06l.122.136c-.173.175-.287.37-.344.466-.078.09-.22.252-.25.49-.045.057-.145.148-.216.196l-.09.056c-.33.2-.636.402-.79.66-.194.325-.316.61-.362.848-.053.265-.053.472-.053.785 0 .096-.004.178-.01.254-.01.165-.02.337.018.56.08.48.74 1.34.748 1.35.206.26.45.548.733.716.145.088.334.244.412.31.188.22.625.41 1.053.248.12-.046.24-.068.358-.096.216-.048.462-.1.704-.238.056-.032.106-.06.152-.082.186.31.57.465.96.337l.007-.003c.013.08.025.154.038.223.014.068.026.127.025.245-.008.17-.023.487.235.747.05.05.127.112.21.18.034.027.086.068.126.104.018.215.063.573.175.796.054.105.068.186.087.15-.095.188-.282.7-.3.763-.117.52-.05.72-.03.777.08.25.233.484.465.715.028.028.04.07.068.17.032.116.075.274.185.42.044.063.145.32.195.474l.063.348v.965l.57-.083s.94-.137 1.122-.183c.213-.055.934-.388 1.193-.646.132-.132.195-.255.237-.337.034-.062.038-.07.07-.1.215-.17.604-.468.604-.468l.21-.162-.045-.73.358-.483.306-.312c-.072.172-.163.396-.196.527-.06.238-.02.525.17.766l.222.138h.243l.18.067c.185-.06.332-.153.477-.29.044-.043.086-.062.113-.082.273-.18.537-.64.6-.885l.173-.64c.05-.2.1-.583.1-.765 0-.18-.047-.38-.057-.42l-.314-1.263-.875 1.644c-.127.063-.22.12-.302.18 0-.075-.006-.137-.015-.17-.02-.083-.065-.47-.104-.825.06-.13.142-.28.188-.346.082-.11.13-.22.166-.305.045-.104.067-.153.14-.215.27-.223.45-.47.582-.652l.104-.14c.143-.187.366-.487.44-.603.123-.183.208-.51.247-.688l.16-.722-.6.1c.072-.036.137-.07.18-.1.036-.023.097-.058.166-.097.273-.153.477-.27.604-.398l.268-.195c.235-.156.528-.35.565-.688.052.04.107.08.17.11.044.027.147.14.23.244.062.147.218.515.25.644.022.087.087.25.158.418.055.128.115.263.128.275 0 .113.05.45.24.666-.74 5.405-5.393 9.585-11.002 9.585zm.16-15.947l-.017.003c-.047-.01-.195-.057-.312-.103l-.112-.044-.12.01-.17.022.016-.024c.035-.053.068-.103.203-.146.247-.083.38-.198.426-.258.07-.022.24-.056.375-.078l.21.14c.062.073.15.155.277.235l-.8.228.022.016z"/></svg>