<svg id="Layer_1" xmlns="http://www.w3.org/2000/svg" viewBox="0 0 132.3 90.8"><style>.st0{fill:#5E90A7;} .st1{fill:#B3CDD0;} .st2{fill:#749FB4;} .st3{fill:#3E7C93;} .st4{fill:#647882;} .st5{fill:#467081;} .st6{fill:none;stroke:#000000;stroke-linecap:round;stroke-linejoin:round;}</style><path class="st0" d="M81.6 63.2l-3.4-1.7-1.1 1.2 3.7 2-2 3.2 2.2 1.5 2.1-3.3 4.6 2.1 1-1.4-4.7-1.9 1.8-3.9-2-.9z"/><path class="st1" d="M18.6 40.4l-5.5 4.4 12.6 4.8 26.1 10-18.2-12.1c-1 .1-1.6.1-2 .1-1.2 0-1.7-.3-1.9-.8 0-.2.3-.6.9-1.3L22.1 42c-.4.9-.5 1.4-.5 1.6.2.5.7.8 1.8.8.9.1 1.8 0 2.8-.2-1 .2-1.9.3-2.8.2-1.1 0-1.6-.3-1.8-.8 0-.2.1-.7.5-1.6l-3.5-1.6z"/><path class="st1" d="M33.6 47.5l-3-2c-.6.6-.9 1.1-.9 1.3.2.5.7.8 1.9.8.3 0 1 0 2-.1zM25.7 49.6l-2.3 3.5 30.7 8-2.3-1.5z"/><path class="st0" d="M68.1 58.2l2.9-2.8-1.8-1.1-3 3.1-2.3-1.6-1.2 1.2 2.5 1.6-3.2 3.1 1.7 1 3.4-3.1 5.1 2.4 1.1-1z"/><path class="st2" d="M48 26.6l-18.8-.2L54.4 35l20.5 9 1.2.4 1.4-1.3 13.7-2.7 11.1-9 7.5-7.7-18.1-6.3-18.1-2.5c-.3.3-.5.5-.7.6-1 .5-2 1-2.9 1.5-1 .5-2 1.1-3 1.6s-2 .9-3.1 1.4c-.5.3-1.1.5-1.7.7-1 .4-1.8.8-2.6 1.4-1 .7-2 1.3-3 1.7-1.1.5-2.1 1.1-3 1.8-1 .6-2 1.4-3 2-.2-.2-.4-.3-.5-.3-1.2 0-2.4 0-3.5-.1-1.2 0-2.4-.1-3.5-.1-1.1-.1-2.3 0-3.4.1-1 .2-2.1.2-3.2.1-1.1 0-2.1-.1-3.2-.3 1.1.2 2.1.3 3.2.3 1.1.1 2.2.1 3.2-.1 1.2-.1 2.4-.2 3.4-.1 1.2 0 2.4.1 3.5.1 1.2.1 2.4.1 3.5.1.2 0 .4.1.5.3 1-.6 2-1.4 3-2 .9-.7 1.9-1.3 3-1.8 1-.5 2-1 3-1.7.8-.5 1.6-1 2.6-1.4.6-.2 1.2-.5 1.7-.7 1.1-.5 2.1-1 3.1-1.4 1-.5 2-1.1 3-1.6.9-.5 1.9-1.1 2.9-1.5.2-.2.5-.4.7-.6l-1.3-.2-9.7 4.3L48 26.6m56.7-2.6l1 .4.3-.4-.3.4-6.8 6.2h-.3c-.3.3-.5.4-.5.5l-11 8.7h-.8.8l11-8.7c0-.1.2-.2.5-.5h.3l6.8-6.2-1-.4v-.2l-6.1-2.4-8.6 6.9c1 .5 1.7 1.4 2.2 2.6.4.8.4 1.6.2 2.5.2-.9.2-1.7-.2-2.5-.5-1.2-1.2-2.1-2.2-2.6l8.7-6.8 6.1 2.4v.1m-30-6.9c-.5-.2-.8-.4-.9-.6 0-.1.2-.3.4-.4.1-.1.2-.2.4-.2.9-.2 1.4.1 1.3.7-.2.5-.5.6-1.2.5m-6.5 3.2v-.8c1 .5 2.1.8 3.2 1.1-1.1-.3-2.2-.6-3.2-1.1v.8m15.1-2.8c.4.1.7.2 1.1.5-.3-.3-.7-.4-1.1-.5m-3.8 5.9c-1.2 0-2.3-.1-3.3-.5s-2-.5-3-.5c1 0 2 .1 3 .5 1.1.4 2.2.5 3.3.5 1.1-.1 2.3 0 3.3.3 1.3.2 2.3.6 3.1 1.3-.8-.6-1.8-1.1-3.1-1.3-1-.3-2.2-.4-3.3-.3M90.9 19c.4 0 .5.1.8.3-.3-.2-.5-.3-.8-.3M86 21.2c.3-.5.5-.7.8-.9.2-.2.4-.3.5-.3 1.2-.3 2.3-.3 3.4-.2 1.4.2 2.2.9 2.4 2.2.1.3 0 .6-.3.8-.6.7-1.6 1.1-2.8 1.4-1.3.2-2.3 0-3.3-.5-1-.8-1.3-1.6-.7-2.5m.4-3.1c.6.2 1.3.4 2 .5-.7-.1-1.3-.3-2-.5m-4.9 16.7c.7.9 1.6 1.3 2.6.9.5 1.3.9 2.7 1.2 4.2-.3-1.4-.7-2.9-1.2-4.2-1 .4-1.9 0-2.6-.9m-9.2-2.2c-.7.2-1.4.5-1.9 1.1.6-.5 1.2-.9 1.9-1.1m-5.2-.2c.3.3.5.5.8.9-.2-.3-.5-.6-.8-.9m-.3-1.2c.5-.3 1.3-.5 2-.5-.7 0-1.5.2-2 .5m27.5-11.1c.4.1.6.2.9.3-.3-.1-.5-.2-.9-.3m-15.9 1.1c-1.4-.5-1.5-.9-.5-1.4-.2-.5.3-.8 1.3-.8 0-.1 0-.1.1-.2.1-.3.2-.5.4-.7 1.2-1.3 2.4-.9 3.5 1.1-.6.5-1.5.9-2.7 1.4-.2.1-.5.3-.6.4-.5.3-1 .4-1.5.2m-21.3 4.2c0-.1.1-.3.2-.4.2-.3.4-.5.7-.5.1-.1.2-.1.2-.1.3-.3.4-.5.4-.8.3.2.5.4.6.5 1.2-.4 2.4-.7 3.4-1.1.7 0 1.1.4 1 .9.9 0 1.9-.5 2.9-1.3.4-.3.7-.4 1.1-.1 1.1.9 2.3 1.1 3.3.5.5-.2.9-.2 1.4.1.4.2.5.5.6.7-.1-.3-.3-.5-.6-.7-.5-.3-.9-.3-1.4-.1-1.1.6-2.3.5-3.3-.5-.4-.3-.7-.2-1.1.1-1 .8-2 1.3-2.9 1.3 0 .1 0 .2-.1.4 0 .3-.2.5-.5.5.5.5.7 1 .5 1.6v.2c.8-.4 1.6-.7 2.5-1 1-.3 2-.5 2.9-.8 1-.3 2-.5 2.9-.6-.8.1-1.8.3-2.8.6-.9.3-1.9.5-2.9.8-.9.3-1.7.6-2.5 1-.2.2-.3.4-.6.4-.2.1-.4.1-.5.2-.9.5-1.8.8-2.7 1-.6.1-1.3.4-1.8.6.5-.3 1.2-.5 1.8-.6.9-.2 1.8-.5 2.7-1-.4.1-.7.2-1.1.3-.9.3-1.4 0-1.5-.8-.1-.1-.1-.3 0-.4-.1-.1-.1-.1-.1-.2-.1 0-.1-.1-.1-.2-.5.3-1.1.5-1.6.6h-.3c-.6-.2-.9-.6-.7-1.1-.3.2-.5.3-.7.4.7.6 1.1 1.3 1.4 2.2-.3-.9-.6-1.5-1.4-2.2.2-.1.4-.2.7-.4m-3.5 1.3c.3-.2.5-.3.9-.4.7.1 1.1.5 1 1.3v.1c.5.5.5 1.1-.1 1.6-.1.2-.3.3-.4.4-.3.1-.5.3-.6.4.3.1.5.1.9.1.1 0 .2.1.3.3.4.6.2 1.1-.6 1.3-.2 0-.5.1-.8.1.3.1.5.2.8.3.1.1.1.2.2.4.1.1.1.3.1.5.3 0 .5.1.8.3h.2c.4-.4.9-.6 1.5-.7.4 0 .7 0 1 .1 1.4.2 2.2.7 2.6 1.8.2.4.2.6-.2.7-1.2.7-2.2.5-3-.5-.6-.6-1.3-1.1-2-1.4H56c-.3-.2-.5-.3-.8-.3-.1.5-.5.8-1.1.8-.5.1-1 0-1.4-.4-.2-.2-.5-.3-.8-.4-1.4-.4-2.7-.7-4.1-1.1-1-.3-1.9-.5-2.9-.5-.9 0-1.7-.4-2.4-.9-.1-.1-.2-.2-.2-.3-.6-1.3-.3-1.9.7-2.4.4-.1.6-.1 1 0 .3 0 .5.2.7.4.5 0 1-.1 1.4-.2.8-.3 1.4-.1 2.1.4v.1c.5 0 1 .2 1.4.5l.3.3c.5-.1 1.1-.1 1.7 0-.2-.9.2-1.6 1.1-2.1.2-.2.5-.4.9-.6m30.5-7c.9-.1 1.4.3 1.3 1.2 0 .3-.1.5-.4.5-.5.2-1.1.5-1.5.7-.5.3-.7.2-1.1-.1-.4-.5-.5-.8-.1-1.3.2-.3.5-.5.6-.5.4-.2.7-.4 1.2-.5m-4 19.3c.4.3.5.5.5.9-.1.5-.4.7-.9.7-.5.1-1.1.1-1.6.1.4.4.5.6.2 1.2-.2.4-.5.5-.9.6-.4.1-.7.2-1 .4-.8.2-1.4.1-1.8-.5-.2-.1-.2-.3-.2-.4-.8-.3-1.5-.7-2.1-1.4-.2 0-.3-.3-.3-.6.1-.1.1-.2.1-.3-.6-.1-1.3-.1-1.8-.1-.6 0-1.1-.3-1.4-.8-.7-.1-1.4-.1-2.3-.1-.4.1-.7-.1-1.1-.5-.4 0-.6-.2-.9-.4h-.1c-.6.3-1.2.2-1.7-.3-.7.2-1.2-.2-1.4-.7-.1-.5 0-.9.5-1.2.1-.1.3-.1.5-.2.7 0 1.4.1 2 .5.1 0 .2 0 .3.1.2-.1.4-.3.5-.3h.2c.4-.1.6.1.8.4.1 0 .1 0 .1.1.5-.1 1 .1 1.5.4 1 .1 2 .3 2.9.5.3 0 .5.2.6.5h.6c-1.1-.9-2.4-1.5-3.9-1.9-.7-.2-1.5-.4-2.4-.5-.1 0-.3 0-.4.1-.5.2-.9.2-1.3-.3-.2-.2-.4-.5-.5-.7-.2-.2-.3-.5-.1-.8.1-.4.5-.6.8-.6.3 0 .5.1.7.2v.1c2 .3 3.9.8 5.7 1.4 1 .5 1.8.9 2.6 1.6.5.5 1.1 1 1.7 1.4 0 .1.1.2.1.2 1 .1 1.9.3 2.8.5.1 0 .2 0 .2.1.1.1.2.2.2.4.9-.2 1.5-.1 2 .2m-6.9-18.7c0-.3.2-.5.4-.8-.7.7-1.6.6-2.6-.1-.7-.6-.9-1.1-.5-1.4.2-.2.5-.4 1-.5h.1c.6-.3 1.3-.1 1.9.5.4.4.5.7.4 1 1-1.1 2.2-1.9 3.4-2.4.8.2 1.2.6.9 1.4-.1.5-.4.7-.9.8-.1 0-.2 0-.3.1-1 .8-1.8 1.5-2.6 2.4 0 0-.1.1-.2.1-.8.1-1.2-.4-1-1.1m27 3.2c1-.2 1.4.3 1.4 1.2-.1.8-.4 1.5-.9 2.1-1.4 1.2-2.8 2.3-4.3 3.2-.2.1-.4.2-.5.3-.6.4-1.1.2-1.4-.4-.1 0-.2 0-.4-.1-.2 0-.3-.1-.5-.3-.3.2-.6.4-1.1.5-.4.1-.7 0-1-.4-.3-.5-.2-.9.3-1.3.4-.8.9-1.4 1.6-1.9.2-.2.5-.2.6-.3.8-.1 1.4.2 1.7.9.1-.1.2-.2.4-.2 0-.1 0-.1.1-.1 0-.8.4-1.4 1.2-1.9.2-.1.4-.2.5-.4.9-.4 1.6-.7 2.3-.9m-32.6 3.2c1.2-.4 2.3-.6 3.3-.8 1.2-.2 2.4-.4 3.5-.5.7-.1 1.4 0 2.2.3.1-.1.2-.1.4-.1.8-.3 1.6-.5 2.4-.6.5-.1.8 0 1.1.4 1.5 0 3.1 0 4.6.2.3 0 .5.1.6.4.1.3.1.5 0 .8.5-.1.8.1 1.1.4v.1c.3.5.2.9-.1 1.3.2.1.4.3.5.4.2.1.3.2.4.2.3.2.4.4.4.7 0 .4-.1.7-.3 1 0 .1-.1.3-.2.5 0 .1.1.3.2.5.1 0 .1.1.2.2.4.1.7.5.9.8.1.2.2.4.2.5.5.4.7.9.5 1.5-.2.2-.3.5-.5.5 0 .1-.1.2-.1.2 0 .3 0 .5-.1.8-.1.3-.3.5-.5.5-.5 1-1.4 1.3-2.3 1-.2-.1-.4-.2-.4-.4-.2-.7.1-1.4.7-1.8v-.1-.2c-.6-.2-1-.7-1.1-1.4v-.3c-.8-.5-1.6-.7-2.5-.7-.3 0-.5-.1-.7-.2-.4-.1-.7-.3-1-.5h-.4s.1.1.1.3c.1.6-.2 1.2-.7 1.5-.6.5-1.2.4-1.6-.2-.9.2-1.5 0-2-.7-.1 0-.1-.1-.1-.2-.6.5-1.2.6-1.7.5-.5.5-.8.7-1.2 1 .5.2 1 .4 1.4.5 1.2.5 2.3.5 3.3 0 1-.4 1.9-.6 2.8-.7-.9.1-1.8.4-2.8.7-1 .5-2.1.5-3.3 0-.5-.2-1-.4-1.4-.5h-.2c-.5-.1-1.1-.3-1.5-.4.5.1 1 .3 1.5.4h.2c.4-.3.7-.5 1.2-1-.3-.1-.5-.2-.6-.4-.2-.1-.3-.2-.3-.5 0-.1 0-.3.1-.4 0-.1 0-.2-.2-.3-.1 0-.2-.1-.3-.3-1 .1-1.9.5-2.6 1.1-.1 0-.2.1-.2.1-.4.2-.6.4-.9.4-.5.1-.9-.1-1-.6-.2-.7.1-1.2.7-1.4.4-.2.7-.4.9-.6-.3-.1-.6-.3-.9-.5-.1-.1-.2-.3-.3-.5-.3-.3-.4-.5-.5-.7-.1.1-.3.1-.5.2s-.5.1-.6.2c-.5 0-.8.1-1.2.3-.2.1-.3.2-.4.3h-.1l-.1.1c-.7.4-1.2.9-1.4 1.6-.7.2-1.3.2-1.9-.1-1.1-.5-2.2-1-3.2-1.6-.4.2-.6.4-.9.5.3-.1.5-.3.9-.5.6-.3 1.3-.6 2.1-.9.9-.4 1.9-.7 2.9-1.1 1.3-.4 2.4-.8 3.5-1.2z"/><path class="st3" d="M73.8 16.4c.1.3.4.5.9.6.7.2 1.1.1 1.1-.5.1-.6-.4-.9-1.3-.7-.2 0-.3.1-.4.2-.1.2-.3.3-.3.4zM86.8 20.3c-.3.2-.5.5-.8.9-.5.9-.3 1.7.8 2.4 1 .5 2 .7 3.3.5 1.2-.3 2.2-.6 2.8-1.4.3-.2.4-.5.3-.8-.2-1.3-1-2-2.4-2.2-1.2-.1-2.3-.1-3.4.2-.2.1-.4.2-.6.4.5-.3 1.1-.3 1.8 0-.7-.3-1.3-.3-1.8 0z"/><path class="st4" d="M77.8 19.9c-1 .5-.8.8.5 1.4.5.2 1 .1 1.4-.2.2-.1.5-.3.6-.4 1.2-.5 2.1-1 2.7-1.4-1.2-2-2.4-2.4-3.5-1.1-.2.2-.3.5-.4.7v.1c-1 0-1.5.3-1.3.9m2.5-1.7h.2c.9.2 1.2.6.9 1.4-.1.3-.3.5-.5.6-.5.2-.9.2-1.4-.1-.3-.2-.5-.5-.4-.8.1-.5.4-.9 1.2-1.1z"/><path class="st3" d="M80.5 18.2h-.2c-.7.2-1.1.5-1.2 1.2-.1.4.1.6.4.8.5.3.9.3 1.4.1.3-.2.5-.4.5-.6.2-.8 0-1.3-.9-1.5zM57.3 25c-.1.1-.2.3-.2.4-.2.5.1.9.6 1.2h.3c.5-.2 1.1-.4 1.6-.6 0 .1 0 .2.1.2 0 .1 0 .1.1.2-.1.1-.1.3 0 .4.2.8.6 1.1 1.5.8.4-.1.7-.2 1.1-.3.2-.1.4-.1.5-.2.3 0 .5-.2.6-.5v-.2c.2-.6 0-1.2-.5-1.6.3-.1.5-.3.5-.5.1-.2.1-.3.1-.4.1-.5-.3-.9-1-.9-1.1.4-2.3.7-3.4 1.1-.3.1-.6.2-1 .4 0 0-.1 0-.2.1-.4 0-.5.2-.7.4z"/><path class="st4" d="M59.2 24c-.2-.1-.4-.3-.6-.5 0 .3-.1.5-.4.8.3-.1.7-.2 1-.3z"/><path class="st3" d="M57.7 32.4c-.6.1-1.2.4-1.5.7.7.4 1.4.8 2 1.4.8 1 1.8 1.2 3 .5.4-.1.4-.4.2-.7-.5-1.1-1.3-1.6-2.6-1.8-.3-.1-.7-.1-1.1-.1zM54.5 26.3c-.4.1-.6.2-.9.4-.4.3-.6.5-.9.6-.9.5-1.3 1.2-1.1 2.1-.6-.1-1.2-.1-1.7 0l-.3-.3c-.5-.4-.9-.5-1.4-.5v-.1c-.6-.5-1.3-.6-2.1-.4-.4.1-.8.2-1.4.2-.2-.2-.5-.4-.7-.4-.4-.1-.6-.1-1 0-1 .5-1.3 1.1-.7 2.2 0 .1.1.2.2.3.7.5 1.5.9 2.4.9 1 .1 1.9.3 2.9.5 1.4.4 2.7.7 4.1 1.1.3.1.6.2.8.4.5.4.9.5 1.4.4.6 0 1-.4 1.1-.8 0-.2 0-.4-.1-.5-.1-.2-.1-.3-.2-.4-.3-.1-.5-.2-.8-.3.4 0 .6-.1.8-.1.8-.2 1-.6.6-1.3-.1-.2-.2-.3-.3-.3-.4 0-.6 0-.9-.1.2-.1.4-.3.6-.4.1-.1.3-.2.4-.4.6-.5.6-1.1.1-1.6v-.1c.2-.6-.2-1-.9-1.1zM85.3 20.9c.1-.9-.4-1.3-1.3-1.2-.5.1-.8.3-1.2.5-.2.1-.5.3-.6.5-.4.5-.3.8.1 1.3.4.3.6.4 1.1.1.5-.3 1-.5 1.5-.7.4-.1.4-.3.4-.5zM80.5 39.9c.1-.5-.1-.6-.5-.9-.5-.3-1.1-.4-1.7-.2 0-.2-.1-.3-.2-.4 0-.1-.1-.1-.2-.1-.9-.2-1.8-.4-2.8-.5 0 0-.1-.1-.1-.2-.6-.4-1.2-.9-1.7-1.4-.8-.7-1.6-1.2-2.6-1.6-1.8-.6-3.7-1.2-5.7-1.4v-.1c-.2-.1-.5-.2-.7-.2-.4 0-.7.3-.8.6-.2.3-.1.6.1.8.1.3.3.5.5.7.4.5.7.5 1.3.3.1-.1.3-.1.4-.1.8.1 1.6.3 2.4.5 1.5.4 2.8 1 3.9 1.9h-.6c-.1-.3-.4-.5-.6-.5-.9-.3-1.9-.5-2.9-.5-.5-.3-1-.5-1.5-.4 0-.1 0-.1-.1-.1-.2-.3-.5-.5-.8-.4h-.2c-.2 0-.4.2-.5.3-.1-.1-.2-.1-.3-.1-.5-.4-1.3-.5-2-.5-.2.1-.4.1-.5.2-.5.3-.5.6-.5 1.2.3.5.7.9 1.4.7.5.5 1.1.5 1.7.3h.1c.3.2.5.4.9.4.4.4.7.5 1.1.5.8 0 1.5 0 2.3.1.3.5.7.8 1.4.8.5 0 1.2 0 1.8.1 0 .1 0 .2-.1.3 0 .3.1.5.2.6.5.6 1.3 1.1 2.1 1.4 0 .1 0 .3.2.4.5.5 1 .6 1.8.5.3-.2.6-.3 1-.4.5-.1.7-.3.9-.6.3-.5.2-.8-.2-1.2.5 0 1.1 0 1.6-.1.4 0 .7-.3.7-.7m-6.2 0h.8v.3c-.3-.2-.5-.3-.8-.3z"/><path class="st4" d="M74.3 39.9c.3 0 .5.1.8.3v-.3h-.8z"/><path class="st3" d="M73.6 19.5c-.2.3-.4.5-.4.8-.2.7.2 1.2 1 1.2.1 0 .2-.1.2-.1.8-.9 1.6-1.6 2.6-2.4.1-.1.2-.1.3-.1.5-.1.8-.4.9-.8.3-.7-.1-1.2-.9-1.4-1.3.5-2.4 1.4-3.4 2.4.1-.3 0-.6-.4-1-.6-.6-1.3-.8-1.9-.5h-.1c-.5.1-.8.3-1 .5-.5.3-.3.7.5 1.4.9.6 1.9.7 2.6 0zM101.6 24.7c0-.9-.5-1.4-1.4-1.2-.7.2-1.4.5-2.1 1-.2.2-.4.3-.5.4-.8.5-1.2 1.1-1.2 1.9-.1 0-.1 0-.1.1-.2 0-.3.1-.4.2-.4-.7-.9-1-1.7-.9-.2.1-.5.1-.6.3-.7.5-1.3 1.1-1.6 1.9-.5.4-.5.7-.3 1.3.3.4.6.5 1 .4.5-.1.8-.3 1.1-.5.2.2.3.3.5.3.2.1.3.1.4.1.3.5.7.7 1.4.4.1-.1.3-.2.5-.3 1.5-.9 3-2 4.3-3.2.4-.7.6-1.4.7-2.2zM71 25.9c-1.1.2-2.2.5-3.3.8-1.1.4-2.2.7-3.2 1-1 .4-2 .7-2.9 1.1-.8.3-1.4.6-2.1.9 1 .6 2.1 1.2 3.2 1.6.6.3 1.2.3 1.9.1.2-.7.6-1.3 1.4-1.6l.1-.1h.1c.1-.1.2-.2.4-.3.4-.2.7-.3 1.2-.3.2-.1.5-.1.6-.2.2-.1.4-.1.5-.2.1.3.2.5.5.7.1.2.2.4.3.5.3.3.6.5.9.5-.2.3-.5.5-.9.6-.6.2-.9.6-.7 1.4.1.5.5.7 1 .6.3 0 .5-.2.9-.4 0 0 .1-.1.2-.1.7-.6 1.6-1 2.6-1.1.1.2.2.3.3.3.2.1.2.2.2.3-.1.1-.1.3-.1.4 0 .3.1.4.3.5.2.2.4.3.6.4.5.2 1.1 0 1.7-.5 0 .1 0 .2.1.2.5.7 1.1.9 2 .7.5.5 1 .6 1.6.2.5-.4.8-.9.7-1.5 0-.2-.1-.3-.1-.3h.4c.3.3.6.5 1 .5.2.1.5.2.7.2.9 0 1.7.3 2.5.7v.3c.1.7.5 1.3 1.1 1.4V35.5c-.6.5-.9 1.1-.7 1.8 0 .2.2.3.4.4.9.3 1.7 0 2.3-1 .2-.1.4-.3.5-.5.1-.3.1-.5.1-.8 0 0 .1-.1.1-.2.3-.1.4-.4.5-.5.3-.6.1-1.2-.5-1.5 0-.2-.1-.4-.2-.5-.2-.4-.5-.7-.9-.8-.1-.1-.1-.2-.2-.2-.1-.2-.2-.4-.2-.5.1-.2.2-.4.2-.5.2-.3.3-.6.3-1s-.1-.5-.4-.7c-.1 0-.2-.1-.4-.2s-.4-.3-.5-.4c.3-.4.4-.8.1-1.3V27c-.3-.3-.6-.5-1.1-.4.1-.3.1-.5 0-.8-.2-.3-.4-.4-.6-.4-1.5-.2-3.1-.2-4.6-.2-.3-.4-.6-.5-1.1-.4l-2.4.6c-.2 0-.3 0-.4.1-.7-.3-1.4-.4-2.2-.3-1.5.4-2.7.5-3.8.7m8.4 1.1c.4.3.7.4 1 .4.5 0 1.1 0 1.7.1h1.1v.3c-.2-.1-.5-.2-.6-.3-.2.1-.3.1-.5.2h-.4c-.4.1-.7.2-1 .1-1.6 0-3.3.1-4.8.4.6-.4 1.4-.5 2.1-.7.4-.1.6-.2 1-.3.1-.2.2-.2.4-.2m6.1 3.7s0 .1 0 0l.1.2v.4c-.3 0-.4 0-.5-.1 0-.1 0-.1.1-.1 0-.1.1-.3.2-.5l.1.1M75.4 30.5c-.1 0-.2-.1-.3-.1v-.2h.7c-.1 0-.2.1-.3.2 0 .1 0 .1-.1.1m0-4.6c-.4.2-.7.4-1.1.6-.3-.1-.5-.2-.8-.3.7 0 1.3-.2 1.9-.3z"/><path class="st4" d="M79.4 27c-.2 0-.3 0-.4.1.1-.1.3-.1.4-.1zM82.1 27.6c.2-.1.3-.1.5-.2.2.1.5.2.6.3v-.3h-1.1v.2z"/><path class="st5" d="M81.7 27.6h.4v-.2c-.6-.1-1.2-.1-1.7-.1-.3 0-.6-.1-.9-.3h-.1c-.1 0-.3 0-.4.1-.4.1-.6.2-1 .3-.7.2-1.4.4-2.1.7 1.5-.3 3.2-.4 4.8-.4.3.1.7 0 1-.1z"/><path class="st4" d="M85.6 30.8c-.1 0-.1-.1 0 0-.2-.2-.2-.2-.3-.2-.1.2-.2.4-.2.5-.1 0-.1 0-.1.1.2.1.3.1.5.1.1-.2.1-.3.1-.5zM79.5 30.1zM75.1 30.5c.1 0 .2.1.3.1.1 0 .1-.1.2-.1.1-.1.2-.2.3-.2h-.7c-.1 0-.1.1-.1.2z"/><path class="st5" d="M74.3 26.6c.4-.3.7-.5 1.1-.6-.5.1-1.2.3-1.9.4.3 0 .5.1.8.2z"/><path class="st1" d="M10 36.8l8.6 3.6 3.4 1.5 8.5 3.5 3 2 18.2 12.1 2.4 1.5 2.4 1.6 1.1-1 5.2-4.8 1.2-1.2 11.2-10.5 1-.9-1.3-.2-20.5-9-25.2-8.6L10 36.8m43.5 11.8l3.6-2.4 1.9 1.6-3.3 2.1 5.3 2.6-2.2 1.3-4.7-2.4-3.6 2.6-1.8-1.2 3.4-2.7-4-2.4 1.4-1.1 4 2m-25.5-8l7 .9-7-.9 8.3-4.4-8.3 4.4m.4-11.1l16.2 5.2-16.2-5.2m-8.2 7.6c-1.4.5-2.8.6-3.9.6-1.2-.1-1.7-.3-1.9-.8-.1-.5.3-1.1 1.3-1.7.9-.6 2.2-1.2 3.6-1.5 1.4-.5 2.8-.6 3.9-.6 1.2.1 1.8.3 1.9.8.1.5-.3 1-1.3 1.6-.9.7-2.2 1.2-3.6 1.6m11.9-1.2c.1.5-.4 1.1-1.3 1.7-1 .7-2.2 1.2-3.6 1.6-1.5.5-2.9.6-4 .5-1.2 0-1.7-.3-1.8-.8-.2-.5.2-1 1.2-1.6 1-.6 2.2-1.2 3.7-1.6 1.4-.5 2.7-.5 3.9-.5 1.1 0 1.7.2 1.9.7z"/><path class="st0" d="M57.1 46.2l-3.6 2.4-3.9-1.9-1.5 1.1 4 2.4-3.4 2.7 1.8 1.2 3.6-2.6 4.7 2.3 2.2-1.3-5.3-2.6 3.3-2.1z"/><path class="st1" d="M16.3 37.7c1.1 0 2.4-.2 3.9-.6 1.4-.4 2.7-.9 3.6-1.6 1-.6 1.4-1.2 1.3-1.6-.1-.5-.7-.7-1.9-.8-1.1 0-2.4.2-3.9.6-1.4.4-2.7.9-3.6 1.5-1 .6-1.4 1.2-1.3 1.7.2.5.7.7 1.9.8zM30.9 37.6c.9-.6 1.4-1.3 1.3-1.7-.2-.5-.8-.7-1.9-.7-1.2 0-2.4.1-3.9.5-1.5.5-2.7 1-3.7 1.6-1 .6-1.4 1.2-1.2 1.6.1.5.6.8 1.8.8 1.1.1 2.4-.1 4-.5 1.4-.4 2.6-.9 3.6-1.6z"/><path class="st2" d="M112.1 24.8l.3-.5-2.6-.5-7.5 7.7-11.1 9-13.7 2.7-1.4 1.3-1 .9 11.2 5.2h1.4l.8-1 10-4.8 8.5-11.3 5.1-8.7M83.4 46.3l2.4 1.4-2.4-1.4m1.6-.4l2.1.9-2.1-.9m3-1.4h1.2H88m1.4-.6l.8.5-.8-.5m-6.1-1c.2-.1.5-.2.6-.2.8.2 1.4.6 1.6 1.4.1.1.1.2 0 .4-.4.6-.9.8-1.6.5-.3-.1-.5-.1-.8-.1-.1.1-.2.1-.4.1-.1.3-.3.4-.5.5-.3 0-.5 0-.7-.1-.8.3-1.5.5-2.3.6-.5.2-1 0-1.2-.5-.3-.5-.2-.8.3-1.2.4-.3.8-.5 1.3-.5.8-.2 1.5-.5 2.4-.7.4-.2.8-.2 1.3-.2m10.2.4c-.1.1-.2.2-.4.2-.8 0-1.2-.4-1.1-1.1.1-.5.2-.8.4-1.3.4-.7.8-1.4 1.4-2.1.1-.2.3-.3.4-.5.5-.6 1.1-1.1 1.7-1.3.9 0 1.2.5 1 1.3-.1.3-.2.5-.5.6-.7.5-1.4 1.3-1.7 2.2-.4.7-.8 1.3-1.2 2m-4.8 4.6c-.9-.2-1.3-.6-1-1.4.1-.2.3-.4.5-.5l-1.3-.8 1.3.8h.1c1.6-.7 3.3-1.3 5-1.7.3 0 .5-.1.7-.2.2 0 .5 0 .5.1 0-.3.1-.5.3-.6 0-.1.1-.1.1-.2l3.6-5.2 10.6-11.7-10.6 11.6-3.6 5.2c1.1-1.2 2.2-2.4 3.4-3.5.5-.5 1-.8 1.6-1 .1 0 .2 0 .3-.1.8.2 1.1.6.7 1.4-.1.1-.2.3-.3.5-1.4 1-2.7 2.3-3.8 3.6-.2.2-.4.5-.5.5-.5.3-.7.4-1 .4-.1 0-.1.1-.1.2 0 .3-.2.5-.5.5-.4.1-.8.2-1.3.3-.3 0-.5.1-.7.2-.2.9-.7 1.4-1.7 1.4-.4 0-.6.1-.8.2-.5.3-1.1.3-1.5 0m16.6-16.2c.8.1 1.2.5.9 1.3-.1.4-.3.5-.5.7-.6.4-1.3 1-1.6 1.7-.5.7-.9 1.4-1.4 2.1-.1.3-.3.4-.5.4-.7-.2-1-.5-.8-1.3.1-.4.2-.7.5-1 .7-1.4 1.6-2.5 2.8-3.5 0-.2.3-.3.6-.4z"/><path class="st3" d="M83.9 42.7c-.2 0-.5.1-.6.2-.5 0-.9.1-1.4.2-.8.3-1.5.5-2.4.7-.5.1-.9.3-1.3.5-.5.4-.5.7-.3 1.2s.6.6 1.2.5c.7-.2 1.4-.4 2.3-.6.2.1.5.1.7.1.3-.1.5-.2.5-.5.2 0 .3 0 .4-.1.3 0 .5 0 .8.1.7.4 1.3.2 1.6-.5.1-.2.1-.3 0-.4-.1-.8-.7-1.2-1.5-1.4zM93.1 43.5c.2 0 .3-.1.4-.2.5-.7.8-1.4 1.2-2 .4-.9 1-1.6 1.7-2.2.3-.2.4-.4.5-.6.2-.8-.1-1.3-1-1.3-.6.2-1.3.6-1.7 1.3-.1.3-.3.4-.4.5-.5.6-1 1.4-1.4 2.1-.2.5-.3.8-.4 1.3 0 .7.3 1.1 1.1 1.1z"/><path class="st3" d="M87.7 46.5c-.3.8.1 1.3 1 1.4.5.3 1 .3 1.5-.1.2-.1.5-.2.8-.2 1 0 1.5-.5 1.7-1.4.3-.1.5-.2.7-.2.5-.1.9-.2 1.3-.3.3-.1.5-.3.5-.5 0-.1 0-.2.1-.2.3 0 .5-.1 1-.4.2-.1.4-.4.5-.5 1.1-1.4 2.4-2.6 3.8-3.6.1-.2.2-.4.3-.5.4-.8.1-1.3-.7-1.4-.1.1-.2.1-.3.1-.6.2-1.2.5-1.6 1-1.3 1.2-2.4 2.4-3.4 3.5 0 .1-.1.1-.1.2-.2.2-.3.4-.3.6h-.6c-.3.1-.5.2-.7.2-1.7.5-3.4 1-5 1.7h-.1c-.1.2-.3.4-.4.6zM106.2 33c.3-.7-.1-1.2-.9-1.3-.3.1-.5.2-.8.4-1.2 1-2.1 2.2-2.8 3.5-.3.3-.4.6-.5 1-.2.7.1 1.1.8 1.3.3 0 .5-.1.5-.4.5-.6 1-1.4 1.4-2.1.4-.7 1-1.4 1.6-1.7.4-.2.6-.3.7-.7z"/><path class="st2" d="M114.1 25l-2-.3-5.1 8.6-8.5 11.3-10 4.8-.8 1-1.1 1.3 11.6 4.9 1.1.2 5.3-10.4 9.5-21.4m-3.8 5.8l-9.4 15.1h-.5.5l9.4-15.1M93.6 52.6l2.7.9-2.7-.9m1.2-1.1l1.7.6-1.7-.6m1-1l1.4.5-1.4-.5m.7-1.3h1.4-1.4m.1-1.5l2.6.8-2.6-.8m-4 .9c.5-.4 1-.6 1.4-.7.9.1 1.2.5.9 1.4-.2.3-.4.5-.6.6-.6.4-1.3.7-1.8 1.2l-.3.3c-.2.8-.6 1.1-1.5.7-.4-.1-.5-.4-.5-.7.1-.8.5-1.4 1.2-1.8.4-.3.8-.7 1.2-1m7.9 1.5c1 .1 1.4.5 1 1.4-.1.4-.3.5-.6.6-.3.2-.5.4-.6.6-.1.3-.3.5-.6.5-.7 0-1.1-.4-1-1.1 0-.5.2-.8.5-1.2.4-.4.8-.7 1.3-.8m.7-1.4c.2-.4.5-.5.8-.5.8 0 1.2.5 1 1.2 0 .4-.2.5-.5.6-.7.4-1.2.2-1.4-.6-.2-.2-.1-.5.1-.7z"/><path class="st3" d="M94 47.9c-.5.1-1 .4-1.4.7-.4.3-.8.6-1.3.9-.7.4-1.1 1-1.2 1.8 0 .4.2.6.5.7.9.4 1.4.1 1.5-.7l.3-.3c.5-.5 1.2-.8 1.8-1.2.3-.1.5-.4.6-.6.4-.7.1-1.2-.8-1.3zM101.5 51.5c.4-.8 0-1.3-1-1.4-.5.1-1 .5-1.4.8-.4.4-.5.7-.5 1.2-.1.7.3 1.1 1 1.1.4 0 .5-.2.6-.5.2-.3.4-.5.6-.6.5-.1.7-.3.7-.6z"/><path class="st3" d="M102 48.3c-.4 0-.6.1-.8.5-.2.2-.3.5-.2.7.3.8.7 1 1.4.6.4-.1.5-.3.5-.6.3-.8-.1-1.2-.9-1.2z"/><path class="st1" d="M71 55.4l-2.9 2.8 5.2 2.8-1.1 1-5.1-2.4-3.4 3.1-1.7-1 3.2-3.1-2.5-1.6-5.1 4.8 12.9 8.5 1.3-1.5 5.3-6.1 1.1-1.2 8.5-9.8 1.1-1.2h-1.5l-11.2-5.2-11.2 10.5 2.3 1.6 3-3.1z"/><path class="st1" d="M78.2 61.5l3.4 1.7 2.2-3.1 2 .9-1.8 3.9 4.7 1.9-1 1.4-4.6-2.1-2.1 3.3-2.2-1.5 2-3.2-3.7-2-5.3 6.1L84 75l4.2 3.3 11.2-21.5-1.1-.2-11.6-4.9z"/><path class="st6" d="M85.3 39.9c-.3-1.4-.7-2.9-1.2-4.2-1 .4-1.9 0-2.6-.9M76.1 44.4l-1.2-.4-20.5-9-25.2-8.6 18.8.2L62.6 19l9.7-4.3 1.3.2"/><path class="st6" d="M73.6 14.9c-.3.3-.5.5-.7.6-1 .5-2 1-2.9 1.5-1 .5-2 1.1-3 1.6s-2 .9-3.1 1.4c-.5.3-1.1.5-1.7.7-1 .4-1.8.8-2.6 1.4-1 .7-2 1.3-3 1.7-1.1.5-2.1 1.1-3 1.8-1 .6-2 1.4-3 2-.2-.2-.4-.3-.5-.3-1.2 0-2.4 0-3.5-.1-1.2 0-2.4-.1-3.5-.1-1.1-.1-2.3 0-3.4.1-1 .2-2.1.2-3.2.1-1.1 0-2.1-.1-3.2-.3M20.2 37.1c1.4-.4 2.7-.9 3.6-1.6 1-.6 1.4-1.2 1.3-1.6-.1-.5-.7-.7-1.9-.8-1.1 0-2.4.2-3.9.6-1.4.4-2.7.9-3.6 1.5-1 .6-1.4 1.2-1.3 1.7.2.5.7.7 1.9.8 1.1 0 2.4-.2 3.9-.6M25.7 49.6l-12.6-4.8 5.5-4.4M18.6 40.4L10 36.8M56.2 33.1H56c-.3-.2-.5-.3-.8-.3M56.2 33.1c.4-.4.9-.6 1.5-.7.4 0 .7 0 1 .1 1.4.2 2.2.7 2.6 1.8.2.4.2.6-.2.7-1.2.7-2.2.5-3-.5-.5-.6-1.2-1.1-1.9-1.4M57.1 46.2l1.9 1.6-3.3 2.1 5.3 2.6-2.2 1.3-4.7-2.3-3.6 2.6-1.8-1.2 3.4-2.7-4-2.4 1.5-1.1 3.9 1.9 3.6-2.4M32.1 35.9c-.2-.5-.8-.7-1.9-.7-1.2 0-2.4.1-3.9.5-1.5.5-2.7 1-3.7 1.6-1 .6-1.4 1.2-1.2 1.6.1.5.6.8 1.8.8 1.1.1 2.4-.1 4-.5 1.4-.5 2.6-.9 3.6-1.6 1-.6 1.4-1.3 1.3-1.7M22.1 42c-.4.9-.5 1.4-.5 1.6.2.5.7.8 1.8.8.9.1 1.8 0 2.8-.2"/><path class="st6" d="M51.8 59.6L33.6 47.5l-3-2-8.5-3.5"/><path class="st6" d="M30.6 45.5c-.6.6-.9 1.1-.9 1.3.2.5.7.8 1.9.8.4 0 1 0 2-.1M35 41.5l-7-.9 8.4-4.4M54.1 61.1l-30.7-8 2.3-3.5M57.6 61.8l-1.1 1-2.4-1.7M54.1 61.1l-2.3-1.5M44.6 34.7l-16.2-5.2M51.8 59.6l-26.1-10M22.1 42l-3.5-1.6M10 36.8l19.2-10.4M105.7 24.4l-1-.4v-.2l-6.1-2.4-8.6 6.9c1 .5 1.7 1.4 2.2 2.6.4.8.4 1.6.2 2.5M109.8 23.8l2.6.5-.3.5M105.7 24.4l.3-.4M112.1 24.8l2 .2-9.4 21.4-5.3 10.4M59.2 24c-.2-.1-.4-.3-.6-.5 0 .3-.1.5-.4.8M72.9 23.8c-.1-.3-.3-.5-.6-.7-.5-.3-.9-.3-1.4-.1-1.1.6-2.3.5-3.3-.5-.4-.3-.7-.2-1.1.1-1 .8-2 1.3-2.9 1.3M63.6 26.6c.8-.4 1.6-.7 2.5-1 1-.3 2-.5 2.9-.8 1-.3 2-.5 2.9-.6M74.8 17.1c-.5-.2-.8-.4-.9-.6 0-.1.2-.3.4-.4.1-.1.2-.2.4-.2.9-.2 1.4.1 1.3.7-.2.5-.5.6-1.2.5M73.6 19.5c-.7.7-1.6.6-2.6-.1-.7-.6-.9-1.1-.5-1.4.2-.2.5-.4 1-.5h.1c.6-.3 1.3-.1 1.9.5.4.4.5.7.4 1M71.5 20.6c-1.1-.3-2.2-.6-3.2-1.1v.8M76.7 25.7c-.7-.3-1.4-.4-2.2-.3-1.2.1-2.4.3-3.5.5s-2.2.5-3.3.8c-1.1.4-2.2.7-3.2 1-1 .4-2 .7-2.9 1.1-.8.3-1.4.6-2.1.9M84.5 18c-.4-.3-.7-.4-1.1-.5M77.8 19.9c-.2-.5.3-.8 1.3-.8 0-.1 0-.1.1-.2.1-.3.2-.5.4-.7 1.2-1.3 2.4-.9 3.5 1.1-.6.5-1.5.9-2.7 1.4-.2.1-.5.3-.6.4-.4.3-.8.4-1.4.2-1.4-.6-1.6-1-.6-1.4M73.4 22.4c1 0 2 .1 3 .5 1 .5 2.1.5 3.3.5 1.1-.1 2.3 0 3.3.3 1.3.2 2.3.6 3.1 1.3M91.7 19.3c-.3-.2-.5-.3-.8-.3M86.8 20.3c.2-.2.4-.3.5-.3 1.2-.3 2.3-.3 3.4-.2 1.4.2 2.2.9 2.4 2.2.1.3 0 .6-.3.8-.6.7-1.6 1.1-2.8 1.4-1.3.2-2.3 0-3.3-.5-1.1-.7-1.4-1.5-.8-2.4.3-.5.6-.8.9-1M88.4 18.7c-.7-.2-1.4-.4-2-.5M86.8 20.3c.5-.3 1.1-.3 1.8 0"/><path class="st6" d="M73.6 14.9l18.1 2.5 18.1 6.4M57.1 25.4c-.3.2-.5.3-.7.4.7.6 1.1 1.3 1.4 2.2M81 34.2c-.9.1-1.8.4-2.8.7-1 .5-2.1.5-3.3 0-.5-.2-1-.4-1.4-.5M86.4 39.7h.8l11-8.7c0-.1.2-.2.5-.5h.3l6.8-6.2M89.1 44.5H88M88.1 45.9l-1.2-.8M90.2 44.4l-.8-.5"/><path class="st6" d="M109.8 23.8l-7.5 7.6-11.2 9-13.6 2.7-1.4 1.3M85.7 47.7l-2.3-1.4M87.1 46.8l-2.1-.9M73.5 34.3h-.2c-.5-.1-1.1-.3-1.5-.4M73.5 34.3c.4-.3.7-.5 1.2-1M70.4 33.7c.5-.5 1.2-.9 1.9-1.1M59.5 29.7c1 .6 2.1 1.2 3.2 1.6.6.3 1.2.3 1.9.1.2-.7.6-1.3 1.4-1.6l.1-.1h.1M57.9 28.8c.5-.3 1.2-.5 1.8-.6.9-.2 1.8-.5 2.7-1M59.5 29.7c-.4.2-.6.4-.9.5M76.1 44.4l-1 .9M68 33.4c-.3-.4-.5-.6-.8-.9M68.8 30.7c-.7 0-1.4.2-2 .5M62.7 57l2.5 1.6-3.2 3.1 1.7 1 3.4-3.1 5.1 2.4 1.1-1-5.2-2.8 2.9-2.8-1.8-1.1-3 3.1-2.3-1.6M63.9 55.8L62.7 57M71.8 68.8l-1.3 1.5-12.9-8.5M87.8 50.5h-1.5l-11.2-5.2M112.1 24.8l-5 8.6-8.5 11.3-10 4.8-.8 1M87.8 50.5l-1.1 1.2M78.2 61.5l3.4 1.7 2.2-3.1 2 .9-1.8 3.9 4.7 1.9-1 1.4-4.6-2.1-2.1 3.3-2.2-1.5 2-3.2-3.7-2M78.2 61.5l-1.1 1.2M86.7 51.7l-8.5 9.8M75.1 45.3L63.9 55.8M77.1 62.7l-5.3 6.1M99.2 48.5l-2.6-.8M97.8 49.2h-1.3M100.4 45.9h.5l9.4-15.1"/><path class="st6" d="M94.8 43.3l3.7-5.2 10.6-11.7M97.1 50.9l-1.3-.4M96.6 52.1l-1.8-.6M99.4 56.8l-1.1-.2-11.6-4.9M95.2 20.4c-.3-.1-.5-.2-.9-.3M96.3 53.5l-2.7-.9M62.7 57l-5.1 4.8M99.4 56.8L88.2 78.3 84 75l-12.2-6.2"/></svg>